/* XPM */
static char * dbrb_xpm[] = {
"38 38 829 2",
"  	c None",
". 	c #E4EAE6",
"+ 	c #DBE2DC",
"@ 	c #D2DBD4",
"# 	c #CCD5CE",
"$ 	c #C9D1CA",
"% 	c #C8D0C9",
"& 	c #C4CCC6",
"* 	c #A9B9AE",
"= 	c #86A48E",
"- 	c #759374",
"; 	c #608266",
"> 	c #77877C",
", 	c #A7ACA1",
"' 	c #D3D8D4",
") 	c #E2E6E3",
"! 	c #E8EFE9",
"~ 	c #E1EAE2",
"{ 	c #DAE5DA",
"] 	c #D1DED1",
"^ 	c #C8D7C7",
"/ 	c #BDCEBD",
"( 	c #B2C4B3",
"_ 	c #ADBFAE",
": 	c #ABBDAC",
"< 	c #A2B4A6",
"[ 	c #6BA17A",
"} 	c #5E9652",
"| 	c #6E9762",
"1 	c #629258",
"2 	c #517F56",
"3 	c #3E6232",
"4 	c #1E412B",
"5 	c #122E1E",
"6 	c #B9BEBC",
"7 	c #D9DDD9",
"8 	c #E2E5E3",
"9 	c #E8F0EA",
"0 	c #E3EDE4",
"a 	c #DEEADD",
"b 	c #D8E6D7",
"c 	c #D0E0CE",
"d 	c #C8DAC6",
"e 	c #BFD3BE",
"f 	c #B4CAB4",
"g 	c #A8BFA8",
"h 	c #A3B9A3",
"i 	c #A1B8A2",
"j 	c #93AB98",
"k 	c #68A077",
"l 	c #78BC80",
"m 	c #92BE76",
"n 	c #729E6B",
"o 	c #51794F",
"p 	c #3E624E",
"q 	c #021A12",
"r 	c #B9BDBC",
"s 	c #D8DDDA",
"t 	c #E1E4E3",
"u 	c #E6F0E7",
"v 	c #E3EEE2",
"w 	c #DEECDD",
"x 	c #D9E8D7",
"y 	c #D2E3CF",
"z 	c #CADDC7",
"A 	c #C1D6BF",
"B 	c #B7CEB6",
"C 	c #ACC4AD",
"D 	c #A0B9A3",
"E 	c #9CB5A0",
"F 	c #9CB49F",
"G 	c #9DB2A1",
"H 	c #68A475",
"I 	c #A2CE8E",
"J 	c #AED899",
"K 	c #9FC989",
"L 	c #92B67E",
"M 	c #5E825A",
"N 	c #2F5347",
"O 	c #0F2B44",
"P 	c #02162E",
"Q 	c #CBCFD0",
"R 	c #D9DDDF",
"S 	c #E3E5E7",
"T 	c #E7F1E8",
"U 	c #E3F0E4",
"V 	c #DFEEDF",
"W 	c #DBECDA",
"X 	c #D6E9D4",
"Y 	c #CFE4CD",
"Z 	c #C7DFC6",
"` 	c #BED8BF",
" .	c #B3D0B7",
"..	c #A9C7AF",
"+.	c #9DBCA5",
"@.	c #95B59F",
"#.	c #94B39E",
"$.	c #96B4A0",
"%.	c #6F9F6A",
"&.	c #52AE80",
"*.	c #90CA82",
"=.	c #A2E6A2",
"-.	c #B2DB9B",
";.	c #72A47E",
">.	c #508672",
",.	c #3F6F65",
"'.	c #225359",
").	c #204753",
"!.	c #021232",
"~.	c #8C97A1",
"{.	c #D4DADD",
"].	c #DFE2E5",
"^.	c #EAECEE",
"/.	c #EAF3EF",
"(.	c #E4F0E9",
"_.	c #E0EFE6",
":.	c #DDEEE1",
"<.	c #D9ECDD",
"[.	c #D3EAD9",
"}.	c #CCE4D2",
"|.	c #C3DFCC",
"1.	c #BAD8C6",
"2.	c #B0D0C0",
"3.	c #A5C8B9",
"4.	c #98BEB0",
"5.	c #8DB4A8",
"6.	c #8AB1A6",
"7.	c #90AFA6",
"8.	c #3E8C69",
"9.	c #62BA90",
"0.	c #90D9A0",
"a.	c #AEE7B1",
"b.	c #B5E5A0",
"c.	c #A1DDA4",
"d.	c #8FC19A",
"e.	c #6EA686",
"f.	c #4E8C7E",
"g.	c #3E6E7E",
"h.	c #205778",
"i.	c #12496A",
"j.	c #022846",
"k.	c #102E5E",
"l.	c #CDD6DB",
"m.	c #D8DFE4",
"n.	c #E4E7EB",
"o.	c #E7F0EC",
"p.	c #E2EFE8",
"q.	c #DDEDE5",
"r.	c #D9ECE0",
"s.	c #D4EADD",
"t.	c #CEE7D8",
"u.	c #C5E1D3",
"v.	c #BDDBCE",
"w.	c #B3D5C9",
"x.	c #A8CDC3",
"y.	c #9DC4BD",
"z.	c #92BAB5",
"A.	c #86AFAF",
"B.	c #82ACAB",
"C.	c #81A49C",
"D.	c #3F926F",
"E.	c #91D9AE",
"F.	c #A0E2B2",
"G.	c #8FD1AE",
"H.	c #7EB6A2",
"I.	c #5E9D9E",
"J.	c #428692",
"K.	c #326E92",
"L.	c #11438D",
"M.	c #02236E",
"N.	c #C7CED7",
"O.	c #D7DDE6",
"P.	c #E3E6EB",
"Q.	c #E5EEEB",
"R.	c #DFECE7",
"S.	c #D9EAE3",
"T.	c #D4E8DF",
"U.	c #CEE5DB",
"V.	c #C8E1D7",
"W.	c #BEDBD2",
"X.	c #B6D5CD",
"Y.	c #ACCEC9",
"Z.	c #A1C6C5",
"`.	c #96BDBF",
" +	c #8AB3B9",
".+	c #7EA9B2",
"++	c #7AA5AE",
"@+	c #739894",
"#+	c #328A6E",
"$+	c #5EB090",
"%+	c #7EC6A7",
"&+	c #82BFA6",
"*+	c #6EAEAE",
"=+	c #4E939F",
"-+	c #42829E",
";+	c #2E689F",
">+	c #1E589F",
",+	c #022D75",
"'+	c #C6CDD9",
")+	c #D7DCE7",
"!+	c #E2E5ED",
"~+	c #E4EDEA",
"{+	c #DCE9E4",
"]+	c #D6E6E0",
"^+	c #CFE3DC",
"/+	c #C8DFD8",
"(+	c #C0DAD3",
"_+	c #B6D4CE",
":+	c #ACCDCA",
"<+	c #A2C6C7",
"[+	c #96BEC3",
"}+	c #8BB6C0",
"|+	c #7FACBA",
"1+	c #74A2B4",
"2+	c #709EB1",
"3+	c #719398",
"4+	c #2E7A5F",
"5+	c #509C84",
"6+	c #72BCA8",
"7+	c #6EB599",
"8+	c #62ACA8",
"9+	c #529BA3",
"0+	c #41899F",
"a+	c #3077A4",
"b+	c #1E68C0",
"c+	c #1458B2",
"d+	c #0E48AC",
"e+	c #022A92",
"f+	c #0E307E",
"g+	c #C8D1DF",
"h+	c #D7DDEB",
"i+	c #E3E6EF",
"j+	c #E4ECEB",
"k+	c #DCE6E5",
"l+	c #D4E2E0",
"m+	c #CCDDDA",
"n+	c #C3D8D5",
"o+	c #BAD2D1",
"p+	c #B0CBCC",
"q+	c #A5C4C8",
"r+	c #9BBDC5",
"s+	c #90B4C1",
"t+	c #84ACBD",
"u+	c #78A1B8",
"v+	c #6F9AB3",
"w+	c #6C97B0",
"x+	c #7491A7",
"y+	c #25695B",
"z+	c #38866A",
"A+	c #529A92",
"B+	c #4E9291",
"C+	c #2269AF",
"D+	c #1E61B3",
"E+	c #1151B8",
"F+	c #022692",
"G+	c #425E8E",
"H+	c #CED6E5",
"I+	c #DAE0EC",
"J+	c #E6E9F0",
"K+	c #EAF0EF",
"L+	c #E0E9E8",
"M+	c #D6E3E1",
"N+	c #CCDCDB",
"O+	c #C3D6D6",
"P+	c #B9CFD1",
"Q+	c #AEC7CB",
"R+	c #A3C0C8",
"S+	c #98B8C4",
"T+	c #8DB0C1",
"U+	c #81A7BD",
"V+	c #759DB8",
"W+	c #7097B3",
"X+	c #6E95B0",
"Y+	c #6D94B0",
"Z+	c #255E5B",
"`+	c #327975",
" @	c #31789C",
".@	c #316F8C",
"+@	c #22689C",
"@@	c #0E42AE",
"#@	c #022186",
"$@	c #B4BBC9",
"%@	c #D3DAE8",
"&@	c #DFE3ED",
"*@	c #E8EDED",
"=@	c #DDE5E5",
"-@	c #D3DEDE",
";@	c #C9D6D7",
">@	c #BECFD1",
",@	c #B2C6CA",
"'@	c #A7BDC6",
")@	c #9BB5C2",
"!@	c #90ACBF",
"~@	c #84A1B9",
"{@	c #7B9AB4",
"]@	c #7796B0",
"^@	c #7695AF",
"/@	c #7593AD",
"(@	c #7493AD",
"_@	c #023E32",
":@	c #215B56",
"<@	c #21606C",
"[@	c #12558B",
"}@	c #1150A4",
"|@	c #0E3EAE",
"1@	c #6078A5",
"2@	c #C8D0DE",
"3@	c #D8DEEA",
"4@	c #E4E7EE",
"5@	c #DEE2E2",
"6@	c #D5DBDB",
"7@	c #CBD4D3",
"8@	c #C0CCCC",
"9@	c #B5C1C5",
"0@	c #AAB8BE",
"a@	c #A0B2BC",
"b@	c #95A9B7",
"c@	c #889DAF",
"d@	c #7C93A7",
"e@	c #798FA3",
"f@	c #778FA3",
"g@	c #778EA2",
"h@	c #748A9F",
"i@	c #788C9D",
"j@	c #35554E",
"k@	c #3E5722",
"l@	c #3C6336",
"m@	c #124642",
"n@	c #12425E",
"o@	c #11457B",
"p@	c #0E3D91",
"q@	c #2F4783",
"r@	c #BEC4CF",
"s@	c #D6DBE6",
"t@	c #E1E4EB",
"u@	c #E1E1E1",
"v@	c #D4D4D4",
"w@	c #D4D39A",
"x@	c #DAD467",
"y@	c #D3D070",
"z@	c #B8BDA6",
"A@	c #A7B1B8",
"B@	c #C9C75F",
"C@	c #B9BC72",
"D@	c #8D9AAB",
"E@	c #828E9F",
"F@	c #808D9D",
"G@	c #D5CE2C",
"H@	c #C1BF4A",
"I@	c #778291",
"J@	c #7B8691",
"K@	c #F0E204",
"L@	c #D2CB09",
"M@	c #022744",
"N@	c #022A57",
"O@	c #022A58",
"P@	c #022460",
"Q@	c #526282",
"R@	c #BEC2CC",
"S@	c #D6DAE3",
"T@	c #E2E4EB",
"U@	c #D6D6D6",
"V@	c #BFBFBF",
"W@	c #D3CB4F",
"X@	c #E3D924",
"Y@	c #EBDE0E",
"Z@	c #A7A981",
"`@	c #D8D12C",
" #	c #9BA078",
".#	c #888E73",
"+#	c #788182",
"@#	c #D5CD27",
"##	c #93986F",
"$#	c #8F925A",
"%#	c #6A7373",
"&#	c #D0C721",
"*#	c #858E15",
"=#	c #B8B716",
"-#	c #56642F",
";#	c #12324E",
">#	c #122E2E",
",#	c #687672",
"'#	c #CED4D6",
")#	c #DCE0E0",
"!#	c #E7E9E9",
"~#	c #B8B8B8",
"{#	c #929292",
"]#	c #CCC32A",
"^#	c #E9DC0C",
"/#	c #E3D815",
"(#	c #BEBA3A",
"_#	c #A1A257",
":#	c #7B814F",
"<#	c #ABA627",
"[#	c #BCB91B",
"}#	c #E7DC09",
"|#	c #325E3E",
"1#	c #2E4A2E",
"2#	c #889093",
"3#	c #CED4D0",
"4#	c #DFE3E1",
"5#	c #EAECEB",
"6#	c #9C9D9D",
"7#	c #929158",
"8#	c #B1A92C",
"9#	c #C4BC22",
"0#	c #BEB82A",
"a#	c #85884A",
"b#	c #C4C023",
"c#	c #BAB627",
"d#	c #9C9B27",
"e#	c #8D9035",
"f#	c #BFBB10",
"g#	c #929A1F",
"h#	c #BBBD23",
"i#	c #D1CF1B",
"j#	c #8EA94A",
"k#	c #416B48",
"l#	c #12333B",
"m#	c #626D6C",
"n#	c #B9BDBE",
"o#	c #D9DDDD",
"p#	c #E3E5E6",
"q#	c #919592",
"r#	c #8E8F54",
"s#	c #E7DA0A",
"t#	c #CCC31B",
"u#	c #E7DA09",
"v#	c #9D9D34",
"w#	c #A3A32D",
"x#	c #A0A02A",
"y#	c #989823",
"z#	c #CFC610",
"A#	c #324537",
"B#	c #858E28",
"C#	c #AEB125",
"D#	c #B1B630",
"E#	c #AEBB32",
"F#	c #5E8A6B",
"G#	c #42765E",
"H#	c #326652",
"I#	c #75857B",
"J#	c #B9C1BE",
"K#	c #DADEDD",
"L#	c #E5E8E8",
"M#	c #9AA19A",
"N#	c #7E867F",
"O#	c #818663",
"P#	c #A1A248",
"Q#	c #B2B03C",
"R#	c #ACAE43",
"S#	c #808A61",
"T#	c #9CA042",
"U#	c #CDC61C",
"V#	c #949939",
"W#	c #A2A32C",
"X#	c #9D9F29",
"Y#	c #C4BE14",
"Z#	c #45633A",
"`#	c #E5DA08",
" $	c #7E8C3B",
".$	c #CCC718",
"+$	c #8D9F47",
"@$	c #CED020",
"#$	c #4E8278",
"$$	c #082652",
"%$	c #294E5A",
"&$	c #99A0B1",
"*$	c #D4D9DF",
"=$	c #E0E3E7",
"-$	c #B4BFB5",
";$	c #A0ADA2",
">$	c #96A496",
",$	c #96A695",
"'$	c #95A793",
")$	c #93A690",
"!$	c #8CA189",
"~$	c #859A83",
"{$	c #7D937C",
"]$	c #728A72",
"^$	c #688069",
"/$	c #637866",
"($	c #506E56",
"_$	c #6F8D49",
":$	c #8FA556",
"<$	c #608551",
"[$	c #6B8C46",
"}$	c #96A93D",
"|$	c #8BA255",
"1$	c #ADB532",
"2$	c #A6AE36",
"3$	c #78925A",
"4$	c #CFD021",
"5$	c #C6CB27",
"6$	c #2E6262",
"7$	c #205262",
"8$	c #103A4E",
"9$	c #868E94",
"0$	c #D3D8DC",
"a$	c #DEE3E5",
"b$	c #CADBCB",
"c$	c #BFD1BF",
"d$	c #BACFBB",
"e$	c #B7CEB7",
"f$	c #B6CEB5",
"g$	c #B1CBAF",
"h$	c #AAC6AA",
"i$	c #A2C0A1",
"j$	c #9AB89B",
"k$	c #91B192",
"l$	c #87A28B",
"m$	c #699276",
"n$	c #74AA74",
"o$	c #9AC48B",
"p$	c #8DB27C",
"q$	c #629B6E",
"r$	c #6AA076",
"s$	c #83B488",
"t$	c #8DAF82",
"u$	c #8BAC80",
"v$	c #819F70",
"w$	c #7C9D6B",
"x$	c #6FA68C",
"y$	c #6A9A74",
"z$	c #5E9280",
"A$	c #3A7982",
"B$	c #32666E",
"C$	c #1E518B",
"D$	c #103652",
"E$	c #8B96A2",
"F$	c #D4DBE1",
"G$	c #E0E5E9",
"H$	c #D7EDDB",
"I$	c #D1ECD6",
"J$	c #CEEAD2",
"K$	c #CDEAD0",
"L$	c #C8E9CC",
"M$	c #C2E4C5",
"N$	c #BCE0C0",
"O$	c #B3DAB9",
"P$	c #AAD3B2",
"Q$	c #A0CBAA",
"R$	c #78AD82",
"S$	c #87D1A1",
"T$	c #B3E3A0",
"U$	c #AEE0AA",
"V$	c #84C59E",
"W$	c #66B28A",
"X$	c #80C18E",
"Y$	c #9ED8A3",
"Z$	c #ABD99A",
"`$	c #A7D6A3",
" %	c #97BC85",
".%	c #80B18E",
"+%	c #79AA84",
"@%	c #6C9F8C",
"#%	c #528682",
"$%	c #3E7678",
"%%	c #306886",
"&%	c #215A8D",
"*%	c #B6BCC4",
"=%	c #D7DFE7",
"-%	c #DAF1E2",
";%	c #D6F1DF",
">%	c #D3F0DB",
",%	c #D0EFD7",
"'%	c #CBEDD3",
")%	c #C6EBCE",
"!%	c #C0E7C9",
"~%	c #B8E2C4",
"{%	c #AFDCBF",
"]%	c #A7D7B9",
"^%	c #99D2A7",
"/%	c #B1F3B7",
"(%	c #ACEBB6",
"_%	c #90D0BC",
":%	c #6CB297",
"<%	c #70C297",
"[%	c #8EDCA9",
"}%	c #A9E7B3",
"|%	c #B9EDB4",
"1%	c #AFDE9B",
"2%	c #99CE9F",
"3%	c #8BBB95",
"4%	c #7FB28B",
"5%	c #5E9C9D",
"6%	c #4E8C9A",
"7%	c #2E6280",
"8%	c #1E4A7E",
"9%	c #103C68",
"0%	c #1A61C2",
"a%	c #104A92",
"b%	c #254073",
"c%	c #CED7E3",
"d%	c #D4EEE1",
"e%	c #D1EDDE",
"f%	c #CDECDB",
"g%	c #C9EBD7",
"h%	c #C5EAD3",
"i%	c #C0E7CF",
"j%	c #B9E3CB",
"k%	c #B0DEC5",
"l%	c #A8D9BF",
"m%	c #9FD3BA",
"n%	c #99D5B5",
"o%	c #A2EAB6",
"p%	c #5EA890",
"q%	c #72C69A",
"r%	c #92E2AE",
"s%	c #AEEEB8",
"t%	c #AEF2BE",
"u%	c #5EA18D",
"v%	c #3E798F",
"w%	c #023488",
"x%	c #A8B4C6",
"y%	c #CEE7DF",
"z%	c #C9E6DC",
"A%	c #C6E5D8",
"B%	c #C1E4D4",
"C%	c #BCE1D0",
"D%	c #B6DECB",
"E%	c #AFDAC6",
"F%	c #A7D5BF",
"G%	c #9FCFBB",
"H%	c #96CAB5",
"I%	c #92CCB1",
"J%	c #52A885",
"K%	c #8FD0A1",
"L%	c #41898E",
"M%	c #435990",
"N%	c #C8E1DE",
"O%	c #C3E0DB",
"P%	c #BFDED7",
"Q%	c #BADCD3",
"R%	c #B5DACE",
"S%	c #AFD7CA",
"T%	c #A8D2C5",
"U%	c #9FCDC0",
"V%	c #97C7BB",
"W%	c #8EC2B6",
"X%	c #7BBCAD",
"Y%	c #2E6EA6",
"Z%	c #327E9B",
"`%	c #9FD6A6",
" &	c #8FC69F",
".&	c #7EBD9F",
"+&	c #62A199",
"@&	c #3E809A",
"#&	c #123C7E",
"$&	c #C3DBDC",
"%&	c #BED9D9",
"&&	c #B9D8D6",
"*&	c #B3D6D1",
"=&	c #AED3CD",
"-&	c #A7CFC9",
";&	c #9FCBC5",
">&	c #96C5BF",
",&	c #8DBFBB",
"'&	c #84B9B6",
")&	c #5FA3A8",
"!&	c #32827E",
"~&	c #6EBC9C",
"{&	c #82CDA8",
"]&	c #92D2BE",
"^&	c #2F729D",
"/&	c #21619F",
"(&	c #0F336C",
"_&	c #2550A5",
":&	c #D1DCEA",
"<&	c #BFD8DA",
"[&	c #B9D6D6",
"}&	c #B4D4D2",
"|&	c #AED1CE",
"1&	c #A8CECA",
"2&	c #A1CAC4",
"3&	c #9AC6BF",
"4&	c #90C0BA",
"5&	c #87BAB6",
"6&	c #7EB5B1",
"7&	c #3A7FA5",
"8&	c #82C6A2",
"9&	c #226A8E",
"0&	c #D0DBE8",
"a&	c #BED5D6",
"b&	c #B8D3D2",
"c&	c #B2D0CE",
"d&	c #A5CAC6",
"e&	c #9EC5C2",
"f&	c #96C1BD",
"g&	c #8CBAB8",
"h&	c #84B5B3",
"i&	c #7AAFAF",
"j&	c #225B9F",
"k&	c #50A280",
"l&	c #3866B3",
"m&	c #D3DDE9",
"n&	c #BDD5D5",
"o&	c #B7D2D1",
"p&	c #B1CFCC",
"q&	c #AACCC7",
"r&	c #A3C8C2",
"s&	c #9BC3BE",
"t&	c #93BEB9",
"u&	c #89B8B4",
"v&	c #80B2AF",
"w&	c #77ABAB",
"x&	c #216656",
"y&	c #7EC296",
"z&	c #62AA9A",
"A&	c #BAC2CC",
"B&	c #C2CAD2",
"C&	c #D4D8DE",
"D&	c #E7E8EB",
"E&	c #BAD2D5",
"F&	c #B3CFD0",
"G&	c #ADCBCB",
"H&	c #A6C8C7",
"I&	c #9FC3C2",
"J&	c #97BEBD",
"K&	c #8EB9B9",
"L&	c #84B2B3",
"M&	c #7BACAF",
"N&	c #71A6AB",
"O&	c #48947E",
"P&	c #72B29F",
"Q&	c #529396",
"R&	c #CAD3E0",
"S&	c #D6DDE8",
"T&	c #E1E5EC",
"U&	c #BFD4D4",
"V&	c #B8D1CF",
"W&	c #B0CDCA",
"X&	c #A9C9C5",
"Y&	c #A1C4C0",
"Z&	c #98BFBB",
"`&	c #90B9B6",
" *	c #86B2B0",
".*	c #7CACAC",
"+*	c #72A5A8",
"@*	c #2155AE",
"#*	c #567B97",
"$*	c #437671",
"%*	c #62AC8E",
"&*	c #2E72AE",
"**	c #023A8A",
"=*	c #CBD5E2",
"-*	c #D7DFEB",
";*	c #E2E7EE",
">*	c #D2E0DA",
",*	c #CADCD5",
"'*	c #C3D8D0",
")*	c #BAD4CA",
"!*	c #B2CEC5",
"~*	c #A9C9C0",
"{*	c #A0C3BB",
"]*	c #95BCB5",
"^*	c #8CB6B1",
"/*	c #82AFAD",
"(*	c #7BA9AA",
"_*	c #6EA1A5",
":*	c #739CA2",
"<*	c #337D67",
"[*	c #4F9565",
"}*	c #98A1B9",
"|*	c #D2DBE9",
"1*	c #DEE3EE",
"2*	c #DFE9E5",
"3*	c #D6E4DF",
"4*	c #CEDFDA",
"5*	c #C6DAD4",
"6*	c #BDD5CE",
"7*	c #B4CFC9",
"8*	c #ABC9C4",
"9*	c #A1C2BE",
"0*	c #97BBBA",
"a*	c #8DB4B6",
"b*	c #83AEB2",
"c*	c #78A6AE",
"d*	c #6D9FAB",
"e*	c #739CA7",
"f*	c #528981",
"g*	c #4E9282",
"h*	c #226EA8",
"i*	c #1E5AAE",
"j*	c #A7B3C6",
"k*	c #D0D9E6",
"l*	c #DEE4ED",
"m*	c #E6EDE9",
"n*	c #DEE8E4",
"o*	c #D6E3DE",
"p*	c #CDDDD8",
"q*	c #C4D6D2",
"r*	c #BBD0CC",
"s*	c #B0C8C5",
"t*	c #A6C2C0",
"u*	c #9DBBBC",
"v*	c #93B4B7",
"w*	c #89ACB3",
"x*	c #80A6AE",
"y*	c #7AA0AA",
"z*	c #779DA6",
"A*	c #7D9B9F",
"B*	c #67948E",
"C*	c #589576",
"D*	c #58938A",
"E*	c #428282",
"F*	c #47808A",
"G*	c #4D8085",
"H*	c #3E7792",
"I*	c #3F7893",
"J*	c #3D72A4",
"K*	c #3F74A5",
"L*	c #6F8FB2",
"M*	c #9AAABE",
"N*	c #B9C2C6",
"O*	c #D7DCE1",
"P*	c #E2E5E8",
"Q*	c #E6E5E6",
"R*	c #E3E3E4",
"S*	c #E1E1E2",
"T*	c #DFDFE0",
"U*	c #DEDDDE",
"V*	c #DCDCDD",
"W*	c #DCDBDC",
"X*	c #DBDBDB",
"Y*	c #DDDCDE",
"Z*	c #E2E1E2",
"`*	c #E4E4E4",
" =	c #E5E5E5",
"                                                                            ",
"            . + @ # $ % % % % % % % % & * = - ; > , ' )                     ",
"        ! ~ { ] ^ / ( _ : : : : : : < [ } | 1 2 3 4 5 6 7 8                 ",
"      9 0 a b c d e f g h i i i i j k l m m n | o p 4 q r s t               ",
"      u v w x y z A B C D E F F G H l I J K L n M p N O P Q R S             ",
"    T U V W X Y Z `  ...+.@.#.$.%.&.*.=.-.J m ;.>.,.'.).!.~.{.].^.          ",
"  /.(._.:.<.[.}.|.1.2.3.4.5.6.7.8.9.0.a.b.c.d.e.f.g.h.i.j.k.l.m.n.          ",
"  o.p.q.r.s.t.u.v.w.x.y.z.A.B.C.D.9.E.F.c.G.H.I.J.K.h.L.k.M.N.O.P.          ",
"  Q.R.S.T.U.V.W.X.Y.Z.`. +.+++@+#+$+%+G.G.&+*+=+-+;+>+L.,+M.'+)+!+          ",
"  ~+{+]+^+/+(+_+:+<+[+}+|+1+2+3+4+5+$+6+7+8+9+0+a+b+c+d+e+f+g+h+i+          ",
"  j+k+l+m+n+o+p+q+r+s+t+u+v+w+x+y+z+f.A+A+B+0+a+C+D+E+d+F+G+H+I+J+          ",
"  K+L+M+N+O+P+Q+R+S+T+U+V+W+X+Y+Z+y+`+`+`+ @.@+@D+c+E+@@#@$@%@&@            ",
"    *@=@-@;@>@,@'@)@!@~@{@]@^@/@(@_@'.:@<@<@h.[@}@d+|@#@1@2@3@4@            ",
"    5@6@7@8@9@0@a@b@c@d@e@f@g@h@i@j@k@l@m@n@o@o@p@p@#@q@r@s@t@              ",
"  u@v@w@x@y@z@A@B@C@D@E@F@G@H@F@I@J@K@L@M@N@O@P@M.#@Q@R@S@T@                ",
"U@V@W@K@X@K@Y@Z@K@`@ #.#+#K@@###$#%#&#K@*#=#-#;#;#>#,#'#)#!#                ",
"~#{#]#K@^#/#(#_#K@K@K@K@:#K@K@K@K@<#[#K@K@K@}#o 3 |#1#2#3#4#5#              ",
"6#7#8#9#0#K@K@a#K@b#c#K@d#K@K@e#K@f#g#K@h#i#K@j#2 k#N l#m#n#o#p#            ",
"q#r#K@s#t#K@u#v#K@w#x#K@y#z#K@A#K@K@B#K@C#D#K@E#F#G#H#'.5 O I#J#K#L#        ",
"M#N#O#P#Q#R#S#T#U#V#W#K@X#Y#K@Z#`#K@ $K@.$+$K@@$1 #$k#N ).$$O %$&$*$=$      ",
"-$;$>$,$'$)$!$~${$]$^$/$($_$:$<$[$}$|$1$2$3$4$5$F##$,.6$7$l#O 8$8$9$0$a$    ",
"b$c$d$e$f$g$h$i$j$k$l$m$n$o$p$q$r$s$t$u$v$w$x$y$z$#$A$B$'.).O 8$C$D$E$F$G$  ",
"H$I$J$K$L$M$N$O$P$Q$R$S$T$U$V$W$X$Y$Z$`$ %.%+%@%z$#%$%%%<@7$;#$$&%[@P@*%=%  ",
"-%;%>%,%'%)%!%~%{%]%^%/%(%_%:%<%[%}%|%1%2%3%4%5%6%#%A$.@7%8%9%$$p@0%a%b%c%  ",
"d%e%f%g%h%i%j%k%l%m%n%o%%+8+p%q%r%s%t%a.c.d.*+u%B+J.v%.@7%h.i.k.f+D+D+w%x%  ",
"y%z%A%B%C%D%E%F%G%H%I%6+9+0+J%q%r%F.a.c.K%H.e.u%6%L%v%K.%%&%8%9%P@}@D+}@M%  ",
"N%O%P%Q%R%S%T%U%V%W%X%9+Y%Z%J%q%E.F.c.`% &.&+&I.6%@& @Y%+@>+C$#&P@p@D+0%p@  ",
"$&%&&&*&=&-&;&>&,&'&)&Y%>+!&&.~&{&]&E.K%&+*++&=+0+@& @^&+@/&C$#&,+(&/&b+_&:&",
"<&[&}&|&1&2&3&4&5&6&7&}@[@#+J%9.{&G.K%8&6+e.+&=+0+@&a+K.+@/&>+L.w%9%9&b+d+0&",
"a&b&c&:+d&e&f&g&h&i&j&p@<@8.k&9.~&{&%+.&*++&9+6%0+Z%a+Y%C+D+>+a%f+(&.@C+l&m&",
"n&o&p&q&r&s&t&u&v&w&a%L.x&D.5+$+~&.&y&7+z&I.=+0+@&a+a+Y%C+D+>+}@w%q@A&B&C&D&",
"E&F&G&H&I&J&K&L&M&N&@@w%x&z+O&J%$+~&7+P&I.Q&6%0+Z%a+Y%C+C+D+>+}@w%(&R&S&T&  ",
"U&V&W&X&Y&Z&`& *.*+*@*#*$*4+D.k&p%%*p%p%A+6%J.@&a+ @&*b+C+D+>+E+**,+=*-*;*  ",
">*,*'*)*!*~*{*]*^*/*(*_*:*<*#+[*u%p%u%k&B+L%@&Z%a+&*Y%C+D+D+c+E+F+}*|*1*    ",
"2*3*4*5*6*7*8*9*0*a*b*c*d*e*f*8.5+5+g*f.O&J.@& @Y%Y%h*C+D+E+}@i*j*k*l*      ",
"  m*n*o*p*q*r*s*t*u*v*w*x*y*z*A*B*C*D*f.E*F*G*H*I*J*;+K*L*M*N*O*P*          ",
"                    Q*R*S*T*U*V*W*X*X*X*W*Y*T*Z*`* =                        ",
"                                                                            "};
