/* XPM */
static char * dlunch_xpm[] = {
"38 38 413 2",
"  	c None",
". 	c #B2B7B6",
"+ 	c #819A8A",
"@ 	c #5E8A6B",
"# 	c #51794F",
"$ 	c #416B48",
"% 	c #506456",
"& 	c #7E8272",
"* 	c #92A29A",
"= 	c #4F9565",
"- 	c #5E9652",
"; 	c #6E9762",
"> 	c #629258",
", 	c #517F56",
"' 	c #3E6232",
") 	c #1E412B",
"! 	c #122E1E",
"~ 	c #8F9095",
"{ 	c #78BC80",
"] 	c #92BE76",
"^ 	c #729E6B",
"/ 	c #3E624E",
"( 	c #021A12",
"_ 	c #A0ABA8",
": 	c #509C62",
"< 	c #A2CE8E",
"[ 	c #AED899",
"} 	c #9FC989",
"| 	c #92B67E",
"1 	c #5E825A",
"2 	c #2F5347",
"3 	c #0F2B44",
"4 	c #02162E",
"5 	c #B2B2B2",
"6 	c #CECCCF",
"7 	c #52AE80",
"8 	c #90CA82",
"9 	c #A2E6A2",
"0 	c #B2DB9B",
"a 	c #72A47E",
"b 	c #508672",
"c 	c #3F6F65",
"d 	c #225359",
"e 	c #204753",
"f 	c #021232",
"g 	c #62707E",
"h 	c #3E8C69",
"i 	c #62BA90",
"j 	c #90D9A0",
"k 	c #AEE7B1",
"l 	c #B5E5A0",
"m 	c #A1DDA4",
"n 	c #8FC19A",
"o 	c #6EA686",
"p 	c #4E8C7E",
"q 	c #3E6E7E",
"r 	c #205778",
"s 	c #12496A",
"t 	c #022846",
"u 	c #102E5E",
"v 	c #C2C8C8",
"w 	c #3F926F",
"x 	c #91D9AE",
"y 	c #A0E2B2",
"z 	c #8FD1AE",
"A 	c #7EB6A2",
"B 	c #5E9D9E",
"C 	c #428692",
"D 	c #326E92",
"E 	c #11438D",
"F 	c #02236E",
"G 	c #AEAEB0",
"H 	c #6E8E7E",
"I 	c #328A6E",
"J 	c #5EB090",
"K 	c #7EC6A7",
"L 	c #82BFA6",
"M 	c #6EAEAE",
"N 	c #4E939F",
"O 	c #42829E",
"P 	c #2E689F",
"Q 	c #1E589F",
"R 	c #022D75",
"S 	c #728A82",
"T 	c #2E7A5F",
"U 	c #509C84",
"V 	c #72BCA8",
"W 	c #6EB599",
"X 	c #62ACA8",
"Y 	c #529BA3",
"Z 	c #41899F",
"` 	c #3077A4",
" .	c #1E68C0",
"..	c #1458B2",
"+.	c #0E48AC",
"@.	c #022A92",
"#.	c #0E307E",
"$.	c #7E8A9E",
"%.	c #216656",
"&.	c #38866A",
"*.	c #529A92",
"=.	c #4E9291",
"-.	c #2269AF",
";.	c #1E61B3",
">.	c #1151B8",
",.	c #022692",
"'.	c #425E8E",
").	c #C0C0C0",
"!.	c #215B56",
"~.	c #327975",
"{.	c #31789C",
"].	c #316F8C",
"^.	c #22689C",
"/.	c #0E42AE",
"(.	c #022186",
"_.	c #023E32",
":.	c #21606C",
"<.	c #12558B",
"[.	c #1150A4",
"}.	c #0E3EAE",
"|.	c #425E92",
"1.	c #022A2E",
"2.	c #124642",
"3.	c #12425E",
"4.	c #11457B",
"5.	c #0E3D91",
"6.	c #2F4783",
"7.	c #9EA1A1",
"8.	c #D2D6D2",
"9.	c #022A58",
"0.	c #022460",
"a.	c #526282",
"b.	c #909A95",
"c.	c #2E4A2E",
"d.	c #103A4E",
"e.	c #12324E",
"f.	c #122E2E",
"g.	c #687672",
"h.	c #6EA078",
"i.	c #68A670",
"j.	c #325E3E",
"k.	c #5E666E",
"l.	c #AEB2B2",
"m.	c #729282",
"n.	c #81AA6B",
"o.	c #12333B",
"p.	c #4C5757",
"q.	c #AEABA9",
"r.	c #E0DCD4",
"s.	c #5EAE72",
"t.	c #82C682",
"u.	c #9ED492",
"v.	c #9EBE7E",
"w.	c #42765E",
"x.	c #366855",
"y.	c #A99870",
"z.	c #D17B2E",
"A.	c #BF672A",
"B.	c #C97E48",
"C.	c #DA9963",
"D.	c #F3D9B8",
"E.	c #FBE3C1",
"F.	c #F3D1AC",
"G.	c #7FB276",
"H.	c #82C282",
"I.	c #508279",
"J.	c #8F6C3A",
"K.	c #8D3200",
"L.	c #9A2500",
"M.	c #C16D2D",
"N.	c #D48F4D",
"O.	c #D58A4F",
"P.	c #D4925A",
"Q.	c #DF9B55",
"R.	c #C06C40",
"S.	c #C17B63",
"T.	c #DFB08F",
"U.	c #B2EBB7",
"V.	c #92D692",
"W.	c #82CE92",
"X.	c #C2F6AE",
"Y.	c #81B58D",
"Z.	c #5B573F",
"`.	c #5F2100",
" +	c #8A3702",
".+	c #D69243",
"++	c #E5BF77",
"@+	c #E1A656",
"#+	c #C16628",
"$+	c #AF552E",
"%+	c #A94C29",
"&+	c #A9502B",
"*+	c #BE7551",
"=+	c #DDA987",
"-+	c #F0D3B5",
";+	c #B2F4B8",
">+	c #BEECAF",
",+	c #7EBD9F",
"'+	c #5E917F",
")+	c #492D10",
"!+	c #672700",
"~+	c #BD791C",
"{+	c #DDA34D",
"]+	c #C25F0D",
"^+	c #A33603",
"/+	c #9D3507",
"(+	c #9F380A",
"_+	c #A0390A",
":+	c #A13C0D",
"<+	c #AB522B",
"[+	c #DFA26A",
"}+	c #E7BC9A",
"|+	c #92E2AE",
"1+	c #BEF4B9",
"2+	c #72C69A",
"3+	c #8FC69F",
"4+	c #6EA28E",
"5+	c #5E9280",
"6+	c #67451D",
"7+	c #7B3100",
"8+	c #A04303",
"9+	c #A53800",
"0+	c #972A00",
"a+	c #9A2F00",
"b+	c #9C3100",
"c+	c #9B3101",
"d+	c #9D3911",
"e+	c #C87B46",
"f+	c #EEBA86",
"g+	c #F4DBBC",
"h+	c #AEEEB8",
"i+	c #92D2BE",
"j+	c #9FD6A6",
"k+	c #688F8A",
"l+	c #735029",
"m+	c #773606",
"n+	c #822900",
"o+	c #902B00",
"p+	c #9B3000",
"q+	c #992D00",
"r+	c #A23700",
"s+	c #B95105",
"t+	c #C16828",
"u+	c #E4A66A",
"v+	c #E8C09A",
"w+	c #A2EAB6",
"x+	c #5EA890",
"y+	c #AEF2BE",
"z+	c #6CA1A0",
"A+	c #54320C",
"B+	c #591800",
"C+	c #762100",
"D+	c #922E00",
"E+	c #9A3000",
"F+	c #9D3200",
"G+	c #AD4300",
"H+	c #B14802",
"I+	c #A33900",
"J+	c #B34900",
"K+	c #BC5200",
"L+	c #AE4501",
"M+	c #9F3C13",
"N+	c #C97D49",
"O+	c #E7B488",
"P+	c #F3DCC0",
"Q+	c #52A885",
"R+	c #8FD0A1",
"S+	c #556B56",
"T+	c #301200",
"U+	c #541800",
"V+	c #852A00",
"W+	c #9B3100",
"X+	c #992E00",
"Y+	c #CA6100",
"Z+	c #CF6701",
"`+	c #BF5600",
" @	c #A93E00",
".@	c #9D3506",
"+@	c #AE552B",
"@@	c #E1A56E",
"#@	c #E8C29E",
"$@	c #2E6EA6",
"%@	c #327E9B",
"&@	c #54766E",
"*@	c #2E1300",
"=@	c #461400",
"-@	c #7F2800",
";@	c #982E00",
">@	c #A63C00",
",@	c #BA5000",
"'@	c #C15800",
")@	c #C96101",
"!@	c #A73E02",
"~@	c #982D00",
"{@	c #9C3201",
"]@	c #A13E16",
"^@	c #CE854D",
"/@	c #E5AD80",
"(@	c #F3DBBC",
"_@	c #32827E",
":@	c #6EBC9C",
"<@	c #82CDA8",
"[@	c #5F9992",
"}@	c #36200A",
"|@	c #320D00",
"1@	c #702300",
"2@	c #A23C00",
"3@	c #BB5200",
"4@	c #B64C00",
"5@	c #A73C00",
"6@	c #9F3500",
"7@	c #9C3101",
"8@	c #992E01",
"9@	c #AA491E",
"0@	c #D68246",
"a@	c #E7C396",
"b@	c #82C6A2",
"c@	c #62A199",
"d@	c #42473D",
"e@	c #2F1300",
"f@	c #6C2E00",
"g@	c #A14300",
"h@	c #A33A00",
"i@	c #942D00",
"j@	c #8D2700",
"k@	c #973300",
"l@	c #B8600E",
"m@	c #D2A160",
"n@	c #50A280",
"o@	c #4C7F8A",
"p@	c #371F06",
"q@	c #411400",
"r@	c #792400",
"s@	c #972F00",
"t@	c #942C00",
"u@	c #8E2700",
"v@	c #943400",
"w@	c #9E540F",
"x@	c #A87E44",
"y@	c #D7D4CA",
"z@	c #104A92",
"A@	c #7EC296",
"B@	c #62AA9A",
"C@	c #3B2D1A",
"D@	c #2A0D00",
"E@	c #621E00",
"F@	c #8F2D00",
"G@	c #932C00",
"H@	c #8F2900",
"I@	c #993800",
"J@	c #A25B16",
"K@	c #A6834E",
"L@	c #ACADA7",
"M@	c #D6D4D8",
"N@	c #023488",
"O@	c #48947E",
"P@	c #72B29F",
"Q@	c #529396",
"R@	c #4E8C9A",
"S@	c #36697A",
"T@	c #311702",
"U@	c #421200",
"V@	c #7B2700",
"W@	c #922D00",
"X@	c #902A00",
"Y@	c #8F2800",
"Z@	c #983900",
"`@	c #A76013",
" #	c #A68856",
".#	c #B6B6B2",
"+#	c #D7D4D8",
"@#	c #1E52AE",
"##	c #526E92",
"$#	c #62AC8E",
"%#	c #3E809A",
"&#	c #3076A3",
"*#	c #3A2A14",
"=#	c #290C00",
"-#	c #571800",
";#	c #7B2300",
">#	c #963C00",
",#	c #A2631F",
"'#	c #A48A5F",
")#	c #3D608E",
"!#	c #1B417F",
"~#	c #5EA18D",
"{#	c #41898E",
"]#	c #355B7C",
"^#	c #321801",
"/#	c #4E2000",
"(#	c #82531D",
"_#	c #998561",
":#	c #3C6DAC",
"<#	c #245DB9",
"[#	c #082B94",
"}#	c #6E7692",
"|#	c #4E9282",
"1#	c #2E6DA3",
"2#	c #304E62",
"3#	c #495760",
"4#	c #386AA6",
"5#	c #235CB8",
"6#	c #1351A4",
"7#	c #1E5AAE",
"8#	c #629282",
"9#	c #428282",
"0#	c #3A7982",
"a#	c #3E7678",
"b#	c #30689E",
"c#	c #326A9E",
"d#	c #4E76A2",
"e#	c #7286A2",
"f#	c #D2D2D2",
"                                                                            ",
"                            . + @ # $ % & .                                 ",
"                          * = - ; > , ' ) ! ~                               ",
"                        + = { ] ] ^ ; # / ) ( ~                             ",
"                      _ : { < [ } | ^ 1 / 2 3 4 5                           ",
"                    6 - 7 8 9 0 [ ] a b c d e f g                           ",
"                    _ h i j k l m n o p q r s t u v                         ",
"                    + w i x y m z A B C D r E u F G                         ",
"                    H I J K z z L M N O P Q E R F G                         ",
"                    S T U J V W X Y Z `  ...+.@.#..                         ",
"                    $.%.&.p *.*.=.Z ` -.;.>.+.,.'.).                        ",
"                      !.%.~.~.~.{.].^.;...>./.(.~ 6                         ",
"                        _.d !.:.:.r <.[.+.}.(.|..                           ",
"                      ).2 1.2.2.3.4.4.5.5.(.6.7.8.                          ",
"                        . % 1.t 9.9.0.F (.a.7.6                             ",
"                          b.c.) d.3 e.e.f.g.).                              ",
"                        b.h.i.^ > 1 # ' j.c.k.l.                            ",
"                    6 m.: { 8 } ] n.; , $ 2 o.p.q.r.                        ",
"                  * @ s.t.u.[ < v.n.; @ w.x.y.z.A.B.C.D.  E.F.              ",
"              v H G.{ H.j l l [ } G.h.> I.J.K.L.M.N.O.P.Q.R.S.T.            ",
"            l.h.8 U.V.W.9 X.l 0 } Y.h.@ Z.`. +.+++@+#+$+%+&+*+=+-+          ",
"          l.o V.X.l W.j ;+>+>+0 } ,+h.'+)+!+~+{+]+^+/+(+_+:+<+[+}+          ",
"          i.|+X.1+x 2+j ;+X.1+[ 3+Y.4+5+6+7+8+9+0+a+b+b+b+c+d+e+f+g+        ",
"          V.;+h+i+W 2+|+h+1+l j+n Y.k+l+m+n+o+a+b+a+p+a+q+r+s+t+u+v+        ",
"          w+w+K X x+2+|+h+y+k m n z+A+B+C+D+E+b+F+G+H+I+J+K+L+M+N+O+P+      ",
"          y V Y Z Q+2+|+y k m R+A S+T+U+V+E+W+a+X+Y+Z+`+ @p+X+.@+@@@#@      ",
"          V Y $@%@Q+2+x y m j+3+,+&@*@=@-@;@a+>@,@'@)@!@~@b+b+{@]@^@/@(@    ",
"          Y $@Q _@7 :@<@i+x R+L M [@}@|@1@2@3@4@5@E+6@7@b+{@{@W+8@9@0@a@    ",
"          ` [.<.I Q+i <@z R+b@V o c@d@e@f@g@h@X+a+b+p+{@{@W+i@j@k@l@m@      ",
"          Q 5.:.h n@i :@<@K ,+M c@Y o@p@q@r@s@b+b+{@{@W+t@u@v@w@x@y@        ",
"          z@E %.w U J :@,+A@W B@B N Z C@D@E@F@b+{@E+G@H@I@J@K@L@M@          ",
"          /.N@%.&.O@Q+J :@W P@B Q@R@Z S@T@U@V@W@X@Y@Z@`@ #.#+#              ",
"          @###c T w n@x+$#x+x+*.R@C %#&#*#=#-#;#>#,#'#)#!#).                ",
"          6 8.7.T I = ~#x+~#n@=.{#%#%@` ]#^#/#(#_#:#<#[#}#6                 ",
"                _ b h U U |#p O@C %#{.$@1#2#3#4#5#6#7#$.).                  ",
"                  6 * 8#= |#p 9#0#a#].].P b#c#d#e#b.).6                     ",
"                        8.6 6 6 6 f#f#f#6 6 6 f#8.                          ",
"                                                                            "};
