/* XPM */
static char * doffline_xpm[] = {
"38 38 156 2",
"  	c None",
". 	c #BFB0B0",
"+ 	c #AF7070",
"@ 	c #A04040",
"# 	c #902F2F",
"$ 	c #7F282F",
"% 	c #7F3730",
"& 	c #906060",
"* 	c #BFAFAF",
"= 	c #E0DFDF",
"- 	c #AF8780",
"; 	c #B0383F",
"> 	c #BF383F",
", 	c #9F3030",
"' 	c #702720",
") 	c #401710",
"! 	c #301010",
"~ 	c #9F787F",
"{ 	c #DFDFDF",
"] 	c #E0E7E0",
"^ 	c #AF3730",
"/ 	c #CF5F5F",
"( 	c #D06F6F",
"_ 	c #CF6060",
": 	c #C04F4F",
"< 	c #7F2720",
"[ 	c #100700",
"} 	c #A07770",
"| 	c #B09090",
"1 	c #DF888F",
"2 	c #DF8F8F",
"3 	c #D07F7F",
"4 	c #C04740",
"5 	c #A03730",
"6 	c #5F1F1F",
"7 	c #3F1010",
"8 	c #20080F",
"9 	c #B0A8AF",
"0 	c #CFC7C0",
"a 	c #A04740",
"b 	c #C04040",
"c 	c #D08080",
"d 	c #E0A0A0",
"e 	c #E0A7A0",
"f 	c #DF9090",
"g 	c #D07770",
"h 	c #CF5050",
"i 	c #602020",
"j 	c #501F1F",
"k 	c #200F0F",
"l 	c #8F5750",
"m 	c #DFD8DF",
"n 	c #B09790",
"o 	c #CF5750",
"p 	c #E0AFAF",
"q 	c #E0B0B0",
"r 	c #E09F9F",
"s 	c #80282F",
"t 	c #601F1F",
"u 	c #502020",
"v 	c #C0C0C0",
"w 	c #AF686F",
"x 	c #CF585F",
"y 	c #DF8780",
"z 	c #D0686F",
"A 	c #8F2F2F",
"B 	c #6F2020",
"C 	c #B0AFAF",
"D 	c #E0E0E0",
"E 	c #A06060",
"F 	c #C0484F",
"G 	c #D07070",
"H 	c #C05050",
"I 	c #903030",
"J 	c #50181F",
"K 	c #9F5F5F",
"L 	c #BF3F3F",
"M 	c #BFB7B0",
"N 	c #8F4740",
"O 	c #B0A7A0",
"P 	c #5F2020",
"Q 	c #A0888F",
"R 	c #D0CFCF",
"S 	c #805050",
"T 	c #904040",
"U 	c #C0B8BF",
"V 	c #5F2F2F",
"W 	c #80383F",
"X 	c #A0989F",
"Y 	c #D0D7D0",
"Z 	c #6F484F",
"` 	c #2F0F0F",
" .	c #4F181F",
"..	c #8F4F4F",
"+.	c #D0D0D0",
"@.	c #A08080",
"#.	c #3F1710",
"$.	c #8F585F",
"%.	c #C0BFBF",
"&.	c #DFD7D0",
"*.	c #AF7F7F",
"=.	c #B05750",
"-.	c #C03F3F",
";.	c #A03030",
">.	c #7F484F",
",.	c #BFA8AF",
"'.	c #D0C8CF",
").	c #CF6760",
"!.	c #5F3030",
"~.	c #A09090",
"{.	c #9F4F4F",
"].	c #704040",
"^.	c #9F888F",
"/.	c #CFC0C0",
"(.	c #C06060",
"_.	c #D0787F",
":.	c #8F6060",
"<.	c #B0A0A0",
"[.	c #B05050",
"}.	c #E0A8AF",
"|.	c #DF989F",
"1.	c #B09F9F",
"2.	c #BF5750",
"3.	c #EFB8BF",
"4.	c #EFBFBF",
"5.	c #4F1710",
"6.	c #8F5050",
"7.	c #BF484F",
"8.	c #EFC0C0",
"9.	c #E0B7B0",
"0.	c #5F2720",
"a.	c #DF9790",
"b.	c #9F6F6F",
"c.	c #6F3030",
"d.	c #702F2F",
"e.	c #8F3030",
"f.	c #903F3F",
"g.	c #703030",
"h.	c #A09F9F",
"i.	c #AFA7A0",
"j.	c #6F2720",
"k.	c #BFBFBF",
"l.	c #90383F",
"m.	c #905050",
"n.	c #BFB8BF",
"o.	c #CFC8CF",
"p.	c #9F383F",
"q.	c #A08F8F",
"r.	c #AF4F4F",
"s.	c #A0383F",
"t.	c #9F3730",
"u.	c #903730",
"v.	c #8F3730",
"w.	c #A04F4F",
"x.	c #A07070",
"y.	c #A09790",
"                                                                            ",
"                            . + @ # $ % & *                                 ",
"                        = - ; ; > ; , ' ) ! ~ {                             ",
"                      ] + ^ / ( _ : ; , < ) [ } ]                           ",
"                      | ^ _ 1 2 3 _ 4 5 < 6 7 8 9                           ",
"                    0 a b c d e f g h 5 $ i j k l m                         ",
"                    n , o 2 p q r 3 : 5 s ' t ) u v                         ",
"                    w , x y r d 2 z b 5 A $ B 6 ) C                         ",
"                  D E # F ( c c G H > 5 I A $ i J 9                         ",
"                  ] K < ; F x x F L ^ 5 , # A B i M                         ",
"                    } i # 5 ; ; ^ 5 , , , , # B N v                         ",
"                    O P i $ s s A A A # , , A i Q R                         ",
"                    D S ! 6 i i B ' < s A A B T M D                         ",
"                      U V 8 ) J 6 t B ' ' i W X Y                           ",
"                        . Z k ` 7 )  .J J ..X +.]                           ",
"                          @.P ) #.) ) ) 7 $.%.]                             ",
"                      &.*.=.F -.; ;.# s B u >.,.                            ",
"                    '.K > ).g g _ F ; 5 s 6 ! !.@.+.                        ",
"                  ~.{.4 g 2 2 c z h b ^ A ' 6 ! ` ].^.                      ",
"              /.& (.( z f e d 2 _._ F ; I $ i J 7 ! j :.m                   ",
"            <.[.3 e 2 3 }.q p |.3 z F ; , s B 6  .#.j ) >.Y                 ",
"          1.2.2 3.q 3 y q 4.q r y z F ; , s < B 6 #.j ' 5.6.D               ",
"          7.|.8.8.2 ( f 3.8.9.r y ).F ; , A $ ' i  .) A $ ) @.              ",
"          y 4.9.1 x ).|.9.4.q |.3 / b ; , # s < B 6 ) ' 5 < 0.v             ",
"          p }.3 4 b z a.q 3.p f g x -.^ ;.I A s < B  .6 5 5 i b.            ",
"          |.( -.5 L ( f }.p d y z H L ^ 5 , # A $ ' 6  .A ^ # c.{           ",
"          ).; , A b ).1 r d f _._ F > ^ 5 , I A s < i  .B , 5 d.Y           ",
"          ; # s A b / 3 f f y ( o b ; ^ 5 , , # A s ' j 6 A 5 e.+.          ",
"          , s ' # L o g y y g _ F L ; ^ 5 , , , # A < 6 6 $ 5 e.+.          ",
"          A ' B , ; : z g g ).h b ; ^ ^ 5 ;., , I # s i 6 s , f.+.          ",
"          s ' B , ^ 4 / z ).x F L ^ ^ 5 5 ;., , , # s i g.h.i.M m           ",
"          A i i # 5 -.H x x : -.; ^ 5 5 ;.;., , , I A ' j.k.m               ",
"          l.m.% $ ;.; 4 : F b ; ^ 5 ;., , , , , , , # ' t n.                ",
"          o.Y ~.< A ^ L b -.> ^ ;., , , , , , , , , A B K o.                ",
"                <.f.I ^ > ; ^ , , I , , , , , , # # p.~ v {                 ",
"                  R q.r.s.s.t.u.v.v.v.v.u.u.l.w.x.y.k.+.D                   ",
"                      D Y +.+.+.+.+.+.+.+.+.+.+.Y { ]                       ",
"                                                                            "};
