/* Creado con GIMP */
#define amsn_width 64
#define amsn_height 64
static unsigned char amsn_bits[] = {
   0x00, 0x00, 0x00, 0x00, 0x00, 0x00, 0x00, 0x00, 0x00, 0x00, 0x00, 0x00,
   0x00, 0x00, 0x00, 0x00, 0x00, 0x00, 0x00, 0x00, 0x00, 0x00, 0x00, 0x00,
   0x00, 0x00, 0x00, 0x00, 0x00, 0x00, 0x00, 0x00, 0x00, 0x00, 0x00, 0x00,
   0x00, 0x00, 0x00, 0x00, 0x00, 0x00, 0x00, 0x00, 0x00, 0x00, 0x00, 0x00,
   0x00, 0x00, 0x00, 0x00, 0x00, 0x00, 0x00, 0x00, 0x00, 0x00, 0x00, 0x00,
   0x00, 0x00, 0x00, 0x00, 0x00, 0x00, 0x00, 0x00, 0x00, 0x02, 0x00, 0x00,
   0x00, 0x00, 0xfe, 0x03, 0xe0, 0x3f, 0x00, 0x00, 0x00, 0x80, 0x0a, 0x0e,
   0xf0, 0x7f, 0x00, 0x00, 0x00, 0xc0, 0x01, 0x18, 0xf8, 0x7f, 0x00, 0x00,
   0x00, 0x40, 0x01, 0x30, 0xf8, 0x7f, 0x00, 0x00, 0x00, 0xb0, 0x00, 0x50,
   0xfc, 0xff, 0x00, 0x00, 0x00, 0xb0, 0x00, 0x50, 0xfc, 0xff, 0x00, 0x00,
   0x00, 0xa8, 0x00, 0xa8, 0xfc, 0xff, 0x00, 0x00, 0x00, 0x58, 0x01, 0x50,
   0x3d, 0x9c, 0x00, 0x00, 0x00, 0xa8, 0x00, 0xd4, 0xbc, 0xad, 0x00, 0x00,
   0x00, 0xa8, 0x02, 0x90, 0xbd, 0xed, 0x00, 0x00, 0x00, 0x48, 0x00, 0xa8,
   0xbd, 0xb5, 0x00, 0x00, 0x00, 0x98, 0x00, 0x20, 0x3f, 0xa0, 0x00, 0x00,
   0x00, 0x48, 0x00, 0x40, 0x3d, 0xc0, 0x00, 0x00, 0x00, 0x18, 0x00, 0x00,
   0x7f, 0x01, 0x00, 0x00, 0x00, 0x08, 0x00, 0xc0, 0x37, 0x75, 0x00, 0x00,
   0x00, 0x38, 0x00, 0x80, 0x3f, 0x85, 0x00, 0x00, 0x00, 0x20, 0x00, 0x60,
   0x1f, 0xd4, 0x00, 0x00, 0x00, 0x60, 0x00, 0xc0, 0x0f, 0x80, 0x01, 0x00,
   0x00, 0x40, 0x00, 0xb0, 0x0f, 0x00, 0x03, 0x00, 0x00, 0xc0, 0x01, 0xf8,
   0x0f, 0x00, 0x06, 0x00, 0x00, 0x78, 0x01, 0xf4, 0x07, 0x00, 0x0f, 0x00,
   0x00, 0xac, 0x00, 0x90, 0x07, 0x00, 0x0e, 0x00, 0x00, 0x2b, 0x00, 0x60,
   0x02, 0x00, 0x0e, 0x00, 0x80, 0x23, 0x00, 0xc0, 0x04, 0x00, 0x1c, 0x00,
   0xc0, 0x18, 0x00, 0xa0, 0x08, 0x00, 0x1c, 0x00, 0xe0, 0x50, 0x00, 0x80,
   0x11, 0x00, 0x18, 0x00, 0x20, 0x2c, 0x00, 0xa0, 0x12, 0x00, 0x38, 0x00,
   0x70, 0xa8, 0x00, 0xa0, 0x42, 0x00, 0x70, 0x00, 0x08, 0x55, 0x01, 0xaa,
   0x22, 0x00, 0x70, 0x00, 0x58, 0x24, 0x42, 0x20, 0xa5, 0x00, 0x70, 0x00,
   0x0c, 0x95, 0x00, 0x90, 0x82, 0x00, 0x70, 0x00, 0x08, 0x11, 0x00, 0x00,
   0x0a, 0x01, 0x70, 0x00, 0x04, 0x0a, 0x00, 0x80, 0x00, 0x01, 0x18, 0x00,
   0x04, 0x00, 0x00, 0x00, 0x0a, 0x01, 0x08, 0x00, 0x04, 0x02, 0x00, 0x00,
   0x00, 0x00, 0x06, 0x05, 0x06, 0x02, 0x00, 0x00, 0x00, 0x02, 0x07, 0x00,
   0x82, 0x00, 0x00, 0x00, 0x00, 0x82, 0x03, 0x08, 0x06, 0x00, 0x00, 0x00,
   0x00, 0xc2, 0x03, 0x00, 0x02, 0x00, 0x00, 0x00, 0x00, 0x82, 0x01, 0x08,
   0x06, 0x00, 0x00, 0x00, 0x00, 0x00, 0x00, 0x00, 0x04, 0x00, 0x00, 0x00,
   0x00, 0x81, 0x00, 0x08, 0x38, 0x00, 0x00, 0x00, 0x80, 0x65, 0x01, 0x00,
   0x50, 0x00, 0x00, 0x00, 0xe0, 0x7f, 0x00, 0x15, 0x50, 0x00, 0x00, 0x00,
   0xe0, 0xff, 0x69, 0x05, 0x60, 0x00, 0x00, 0x00, 0x18, 0xe0, 0x56, 0x00,
   0xc0, 0x03, 0x00, 0x00, 0x14, 0x80, 0x17, 0x00, 0x00, 0x0e, 0x00, 0x40,
   0x0b, 0x00, 0x04, 0x00, 0x00, 0xf8, 0x0b, 0xdd, 0x00, 0x00, 0x00, 0x00,
   0x00, 0x00, 0xfa, 0x12, 0x00, 0x00, 0x00, 0x00, 0x00, 0x00, 0x00, 0x00,
   0x00, 0x00, 0x00, 0x00, 0x00, 0x00, 0x00, 0x00, 0x00, 0x00, 0x00, 0x00,
   0x00, 0x00, 0x00, 0x00, 0x00, 0x00, 0x00, 0x00, 0x00, 0x00, 0x00, 0x00,
   0x00, 0x00, 0x00, 0x00, 0x00, 0x00, 0x00, 0x00, 0x00, 0x00, 0x00, 0x00,
   0x00, 0x00, 0x00, 0x00, 0x00, 0x00, 0x00, 0x00 };
