/* Created with The GIMP */
#define amsn_width 64
#define amsn_height 64
static unsigned char amsn_bits[] = {
   0x00, 0x00, 0x00, 0x00, 0x00, 0x00, 0x00, 0x00, 0x00, 0x00, 0x00, 0x00,
   0x00, 0x00, 0x00, 0x00, 0x00, 0x00, 0x00, 0x00, 0x00, 0x00, 0x00, 0x00,
   0x00, 0x00, 0x00, 0x00, 0x00, 0x00, 0x00, 0x00, 0x00, 0x00, 0x00, 0x00,
   0x80, 0x01, 0x00, 0x00, 0x00, 0x00, 0x00, 0x00, 0xc0, 0x03, 0x00, 0x00,
   0x00, 0x00, 0x00, 0x00, 0xc0, 0x03, 0x00, 0x00, 0x00, 0x00, 0x00, 0x00,
   0xe0, 0x01, 0x00, 0x00, 0x00, 0x00, 0x00, 0x00, 0xf0, 0x00, 0x00, 0x00,
   0x00, 0x00, 0x00, 0x00, 0x78, 0x00, 0x00, 0x00, 0x00, 0x00, 0x00, 0x00,
   0x78, 0x00, 0x00, 0x00, 0x00, 0x00, 0x00, 0x00, 0x3c, 0x00, 0x00, 0x00,
   0x00, 0x00, 0x00, 0x00, 0x1e, 0x00, 0x00, 0x00, 0xc0, 0xff, 0xff, 0xff,
   0xff, 0xff, 0xff, 0x00, 0x40, 0x00, 0x00, 0x00, 0x0e, 0x00, 0x80, 0x00,
   0x40, 0x00, 0x00, 0x00, 0x07, 0x00, 0x80, 0x00, 0x40, 0x00, 0x00, 0x00,
   0x07, 0x00, 0x80, 0x00, 0x40, 0x00, 0x00, 0x80, 0x03, 0x00, 0x80, 0x00,
   0x40, 0x00, 0x00, 0x80, 0x03, 0x00, 0x80, 0x00, 0x40, 0x00, 0x00, 0xc0,
   0x03, 0x00, 0x80, 0x00, 0x40, 0x00, 0x3c, 0xc0, 0x01, 0x1e, 0x80, 0x00,
   0x40, 0x00, 0x3c, 0xe0, 0x01, 0x1e, 0x80, 0x00, 0x40, 0x00, 0x3c, 0xe0,
   0x00, 0x1e, 0x80, 0x00, 0x40, 0x00, 0x3c, 0xe0, 0x00, 0x1e, 0x80, 0x00,
   0x40, 0x00, 0x3c, 0xf0, 0x00, 0x1e, 0x80, 0x00, 0x40, 0x00, 0x3c, 0x70,
   0x00, 0x1e, 0x80, 0x00, 0x40, 0x00, 0x00, 0x70, 0x00, 0x00, 0x80, 0x00,
   0x40, 0x00, 0x00, 0x78, 0x00, 0x00, 0x80, 0x00, 0x40, 0x00, 0x00, 0x78,
   0x00, 0x00, 0x80, 0x00, 0x40, 0x00, 0x00, 0x38, 0x00, 0x00, 0x80, 0x00,
   0x40, 0x00, 0x00, 0x38, 0x00, 0x00, 0x80, 0x00, 0x40, 0x00, 0x00, 0x3c,
   0x00, 0x00, 0x80, 0x00, 0x40, 0x00, 0x00, 0x3c, 0x00, 0x00, 0x80, 0x00,
   0x40, 0x00, 0x00, 0x3c, 0x00, 0x00, 0x80, 0x00, 0x40, 0x00, 0x00, 0xfc,
   0x0f, 0x00, 0x80, 0x00, 0x40, 0x00, 0x00, 0xfc, 0x0f, 0x00, 0x80, 0x00,
   0x40, 0x00, 0x00, 0xfc, 0x0f, 0x00, 0x80, 0x00, 0x40, 0x00, 0x00, 0x00,
   0x0e, 0x00, 0x80, 0x00, 0x40, 0x00, 0x00, 0x00, 0x0e, 0x00, 0x80, 0x00,
   0x40, 0xe0, 0x01, 0x00, 0x0e, 0xc0, 0x81, 0x00, 0x40, 0xe0, 0x0f, 0x00,
   0x0e, 0xfc, 0x81, 0x00, 0x40, 0xe0, 0xff, 0x03, 0xfe, 0xff, 0x81, 0x00,
   0x40, 0x80, 0xff, 0xff, 0xff, 0x7f, 0x80, 0x00, 0x40, 0x00, 0xf0, 0xff,
   0xff, 0x0f, 0x80, 0x00, 0x40, 0x00, 0x00, 0xfe, 0x3f, 0x00, 0x80, 0x00,
   0x40, 0x00, 0x00, 0x00, 0x1e, 0x00, 0x80, 0x00, 0x40, 0x00, 0x00, 0x00,
   0x1e, 0x00, 0x80, 0x00, 0x40, 0x00, 0x00, 0x00, 0x1e, 0x00, 0x80, 0x00,
   0x40, 0x00, 0x00, 0x00, 0x1e, 0x00, 0x80, 0x00, 0x40, 0x00, 0x00, 0x00,
   0x1c, 0x00, 0x80, 0x00, 0x40, 0x00, 0x00, 0x00, 0x3c, 0x00, 0x80, 0x00,
   0x40, 0x00, 0x00, 0x00, 0x3c, 0x00, 0x80, 0x00, 0xc0, 0xff, 0xff, 0xff,
   0xff, 0xff, 0xff, 0x00, 0x00, 0x00, 0x00, 0x00, 0x78, 0x00, 0x00, 0x00,
   0x00, 0x00, 0x00, 0x00, 0x78, 0x00, 0x00, 0x00, 0x00, 0x00, 0x00, 0x00,
   0x70, 0x00, 0x00, 0x00, 0x00, 0x00, 0x00, 0x00, 0xf0, 0x00, 0x00, 0x00,
   0x00, 0x00, 0x00, 0x00, 0xf0, 0x00, 0x00, 0x00, 0x00, 0x00, 0x00, 0x00,
   0xe0, 0x01, 0x00, 0x00, 0x00, 0x00, 0x00, 0x00, 0xe0, 0x01, 0x00, 0x00,
   0x00, 0x00, 0x00, 0x00, 0xc0, 0x01, 0x00, 0x00, 0x00, 0x00, 0x00, 0x00,
   0x00, 0x00, 0x00, 0x00, 0x00, 0x00, 0x00, 0x00, 0x00, 0x00, 0x00, 0x00,
   0x00, 0x00, 0x00, 0x00, 0x00, 0x00, 0x00, 0x00 };
