/* XPM */
static char * daway_xpm[] = {
"38 38 508 2",
"  	c None",
". 	c #FAFAFA",
"+ 	c #ECECEC",
"@ 	c #D1D1D1",
"# 	c #C0C0C0",
"$ 	c #B2B2B2",
"% 	c #B5B5B5",
"& 	c #D2D2D2",
"* 	c #EFEFEF",
"= 	c #FDFDFD",
"- 	c #CACACA",
"; 	c #989898",
"> 	c #818181",
", 	c #7F7F7F",
"' 	c #656565",
") 	c #545454",
"! 	c #515151",
"~ 	c #707070",
"{ 	c #F9F9F9",
"] 	c #E6E6E6",
"^ 	c #A6A6A6",
"/ 	c #ACACAC",
"( 	c #AAAAAA",
"_ 	c #9B9B9B",
": 	c #858585",
"< 	c #6F6F6F",
"[ 	c #595959",
"} 	c #525252",
"| 	c #BBBBBB",
"1 	c #FCFCFC",
"2 	c #A9A9A9",
"3 	c #BDBDBD",
"4 	c #C5C5C5",
"5 	c #BFBFBF",
"6 	c #AFAFAF",
"7 	c #9A9A9A",
"8 	c #828282",
"9 	c #696969",
"0 	c #565656",
"a 	c #454545",
"b 	c #555555",
"c 	c #DFDFDF",
"d 	c #FBFBFB",
"e 	c #BCBCBC",
"f 	c #CFCFCF",
"g 	c #A7A7A7",
"h 	c #8B8B8B",
"i 	c #606060",
"j 	c #484848",
"k 	c #909090",
"l 	c #F1F1F1",
"m 	c #E5E5E5",
"n 	c #9C9C9C",
"o 	c #B7B7B7",
"p 	c #E2E2E2",
"q 	c #E3E3E3",
"r 	c #D6D6D6",
"s 	c #929292",
"t 	c #7D7D7D",
"u 	c #5E5E5E",
"v 	c #505050",
"w 	c #DCDCDC",
"x 	c #C7C7C7",
"y 	c #B8B8B8",
"z 	c #D5D5D5",
"A 	c #D8D8D8",
"B 	c #A8A8A8",
"C 	c #979797",
"D 	c #878787",
"E 	c #848484",
"F 	c #737373",
"G 	c #676767",
"H 	c #686868",
"I 	c #B3B3B3",
"J 	c #969696",
"K 	c #CCCCCC",
"L 	c #999999",
"M 	c #868686",
"N 	c #6C6C6C",
"O 	c #9D9D9D",
"P 	c #8E8E8E",
"Q 	c #ADADAD",
"R 	c #C9C9C9",
"S 	c #C1C1C1",
"T 	c #B0B0B0",
"U 	c #9F9F9F",
"V 	c #9E9E9E",
"W 	c #A4A4A4",
"X 	c #A3A3A3",
"Y 	c #8C8C8C",
"Z 	c #727272",
"` 	c #808080",
" .	c #A1A1A1",
"..	c #959595",
"+.	c #939393",
"@.	c #ABABAB",
"#.	c #B1B1B1",
"$.	c #919191",
"%.	c #E9E9E9",
"&.	c #D4D4D4",
"*.	c #646464",
"=.	c #7B7B7B",
"-.	c #8A8A8A",
";.	c #A0A0A0",
">.	c #949494",
",.	c #B4B4B4",
"'.	c #A2A2A2",
").	c #464646",
"!.	c #5D5D5D",
"~.	c #5F5F5F",
"{.	c #838383",
"].	c #EDEDED",
"^.	c #494949",
"/.	c #5A5A5A",
"(.	c #8D8D8D",
"_.	c #E7E7E7",
":.	c #777876",
"<.	c #444B42",
"[.	c #384036",
"}.	c #4B5248",
"|.	c #5A6258",
"1.	c #8D928C",
"2.	c #DDDDDC",
"3.	c #F5F7F4",
"4.	c #CAD7C6",
"5.	c #608055",
"6.	c #2F5324",
"7.	c #2D5021",
"8.	c #2A4D1F",
"9.	c #284A1D",
"0.	c #244618",
"a.	c #224417",
"b.	c #758F6D",
"c.	c #D6DED4",
"d.	c #F8F9F8",
"e.	c #C8D9C2",
"f.	c #B4CBAB",
"g.	c #8FAF85",
"h.	c #83AA76",
"i.	c #789A6C",
"j.	c #6E8F62",
"k.	c #638259",
"l.	c #5B7552",
"m.	c #4A6441",
"n.	c #3F5937",
"o.	c #37512E",
"p.	c #55734C",
"q.	c #B8C2B4",
"r.	c #F1F2F0",
"s.	c #FDFEFD",
"t.	c #BCCEB6",
"u.	c #649852",
"v.	c #73A960",
"w.	c #8CB67D",
"x.	c #9BC68B",
"y.	c #99C589",
"z.	c #8DB77E",
"A.	c #80A772",
"B.	c #749469",
"C.	c #637F59",
"D.	c #56704E",
"E.	c #425B3A",
"F.	c #28481D",
"G.	c #425E39",
"H.	c #8B9D86",
"I.	c #C3CAC0",
"J.	c #F2F2F2",
"K.	c #B6CCAF",
"L.	c #6E9760",
"M.	c #72A95F",
"N.	c #91C57F",
"O.	c #A6D297",
"P.	c #AAD59C",
"Q.	c #A5D096",
"R.	c #95C086",
"S.	c #85AE77",
"T.	c #799D6D",
"U.	c #6B8961",
"V.	c #607C56",
"W.	c #4F6748",
"X.	c #335727",
"Y.	c #234D16",
"Z.	c #204414",
"`.	c #4E6348",
" +	c #D9D9D9",
".+	c #DDDDDD",
"++	c #8CB17F",
"@+	c #8BB67C",
"#+	c #88BE76",
"$+	c #AADB99",
"%+	c #B6E1A7",
"&+	c #BAE5AB",
"*+	c #ADD89E",
"=+	c #9CC78D",
"-+	c #89B37B",
";+	c #7DA271",
">+	c #729068",
",+	c #617E57",
"'+	c #4C7140",
")+	c #3F6134",
"!+	c #2E5A1E",
"~+	c #234B15",
"{+	c #253E1D",
"]+	c #4F4F4F",
"^+	c #F5F5F5",
"/+	c #DEDEDE",
"(+	c #BABABA",
"_+	c #C4C4C4",
":+	c #BCDCB0",
"<+	c #96C885",
"[+	c #99CD87",
"}+	c #B2E2A1",
"|+	c #BFEAB0",
"1+	c #89B878",
"2+	c #7DA470",
"3+	c #69915B",
"4+	c #5C864D",
"5+	c #477636",
"6+	c #435A3C",
"7+	c #284F1B",
"8+	c #224516",
"9+	c #1E3217",
"0+	c #3D3D3D",
"a+	c #E0E0E0",
"b+	c #CCEDC0",
"c+	c #96CA83",
"d+	c #9FD28D",
"e+	c #BEEBAF",
"f+	c #C3EEB4",
"g+	c #89BB77",
"h+	c #7DA66F",
"i+	c #618E52",
"j+	c #538242",
"k+	c #3B622D",
"l+	c #315945",
"m+	c #406B7F",
"n+	c #587AB7",
"o+	c #6A8ED6",
"p+	c #597AB8",
"q+	c #4B6290",
"r+	c #535E70",
"s+	c #F6F6F6",
"t+	c #E4E4E4",
"u+	c #D7D7D7",
"v+	c #EBEBEB",
"w+	c #EEEEEE",
"x+	c #B7DDA9",
"y+	c #91C77F",
"z+	c #ABDD9A",
"A+	c #8CBA7B",
"B+	c #7CA16E",
"C+	c #5C884E",
"D+	c #3E653F",
"E+	c #517AA5",
"F+	c #92AAE2",
"G+	c #B6C2EA",
"H+	c #DEDAF2",
"I+	c #B6B6BE",
"J+	c #DEDEF2",
"K+	c #BACAEE",
"L+	c #96AEE2",
"M+	c #6683B5",
"N+	c #666B74",
"O+	c #F8F8F8",
"P+	c #DADADA",
"Q+	c #95BF87",
"R+	c #8CC279",
"S+	c #AFE09E",
"T+	c #ACDA9C",
"U+	c #98CB86",
"V+	c #87B877",
"W+	c #749768",
"X+	c #466B48",
"Y+	c #6C9AD2",
"Z+	c #AAB6DE",
"`+	c #BEBECE",
" @	c #EAEAEE",
".@	c #FEFEFE",
"+@	c #A6AAA6",
"@@	c #FEFAFA",
"#@	c #C6CAD2",
"$@	c #AEBADE",
"%@	c #7CA4E0",
"&@	c #7D828E",
"*@	c #C3C3C3",
"=@	c #D0D0D0",
"-@	c #B0B1B0",
";@	c #7DA76F",
">@	c #8AC077",
",@	c #BDEAAE",
"'@	c #AADB98",
")@	c #96CA84",
"!@	c #82B272",
"~@	c #5F8852",
"{@	c #557DA8",
"]@	c #A2B2E2",
"^@	c #F2F2FA",
"/@	c #FAFEFA",
"(@	c #F6F6FA",
"_@	c #6B8FC4",
":@	c #739966",
"<@	c #77AE64",
"[@	c #ADDE9B",
"}@	c #BEEAAE",
"|@	c #9ED18C",
"1@	c #90C17F",
"2@	c #6D9A5D",
"3@	c #446D58",
"4@	c #7E9EDE",
"5@	c #C2C2CE",
"6@	c #8EA2DA",
"7@	c #727E97",
"8@	c #EAEAEA",
"9@	c #A5A5A5",
"0@	c #C8C8C8",
"a@	c #969E94",
"b@	c #6D935F",
"c@	c #76AC63",
"d@	c #9FD28C",
"e@	c #B0E19F",
"f@	c #A9DB98",
"g@	c #99CD86",
"h@	c #86B875",
"i@	c #669058",
"j@	c #3E6989",
"k@	c #A2B6EA",
"l@	c #7A7A7A",
"m@	c #5A7CB8",
"n@	c #C6C6C6",
"o@	c #679259",
"p@	c #538E3F",
"q@	c #74AA61",
"r@	c #8BC178",
"s@	c #9ED28C",
"t@	c #ACDD9A",
"u@	c #95C983",
"v@	c #84B474",
"w@	c #618953",
"x@	c #406EBD",
"y@	c #BEC6DE",
"z@	c #FAFAFE",
"A@	c #EEEEF2",
"B@	c #E6E6EA",
"C@	c #C6CAE2",
"D@	c #5179CF",
"E@	c #CDCDCD",
"F@	c #9FA59D",
"G@	c #638E55",
"H@	c #589144",
"I@	c #6CA35A",
"J@	c #85BC72",
"K@	c #96CB84",
"L@	c #8ABD78",
"M@	c #7DAB6E",
"N@	c #5B844D",
"O@	c #326EDA",
"P@	c #9EAED2",
"Q@	c #D2D2D6",
"R@	c #3E3E52",
"S@	c #F2F2F6",
"T@	c #A6AABE",
"U@	c #467ADE",
"V@	c #7A9771",
"W@	c #4E813C",
"X@	c #558743",
"Y@	c #689E55",
"Z@	c #7BB268",
"`@	c #8DC37A",
" #	c #98CC86",
".#	c #8DC27A",
"+#	c #85B773",
"@#	c #73A661",
"##	c #537F44",
"$#	c #2A60C0",
"%#	c #DEDEE2",
"&#	c #666666",
"*#	c #BEC2CE",
"=#	c #3768D0",
"-#	c #608254",
";#	c #3F772B",
">#	c #639A51",
",#	c #74AC62",
"'#	c #86BC73",
")#	c #8EC47B",
"!#	c #88B977",
"~#	c #7CAE6B",
"{#	c #699F58",
"]#	c #558345",
"^#	c #265D8A",
"/#	c #8EA6E2",
"(#	c #D6D6DE",
"_#	c #EEEEF6",
":#	c #FEFEFA",
"<#	c #A6A6AA",
"[#	c #4873C0",
"}#	c #607757",
"|#	c #3E6E2E",
"1#	c #6EA55C",
"2#	c #7DB46A",
"3#	c #84BA72",
"4#	c #7EB16D",
"5#	c #75A964",
"6#	c #689E56",
"7#	c #588A47",
"8#	c #326450",
"9#	c #5E8AE2",
"0#	c #AAAABE",
"a#	c #E2E2E6",
"b#	c #EAEAF2",
"c#	c #7296DE",
"d#	c #8398B8",
"e#	c #728B69",
"f#	c #497A38",
"g#	c #4D7E3C",
"h#	c #5B9049",
"i#	c #689F55",
"j#	c #74AB62",
"k#	c #7EB56B",
"l#	c #7CB369",
"m#	c #73AA61",
"n#	c #649B51",
"o#	c #599246",
"p#	c #457933",
"q#	c #346DA9",
"r#	c #8AA2DE",
"s#	c #DEDAE2",
"t#	c #E6E6EE",
"u#	c #E2DEE6",
"v#	c #9EAAD6",
"w#	c #5285D6",
"x#	c #E1E1E1",
"y#	c #CFD7CC",
"z#	c #81A775",
"A#	c #4C7E3B",
"B#	c #578945",
"C#	c #649C52",
"D#	c #6FA65D",
"E#	c #73AA60",
"F#	c #649B52",
"G#	c #5E9849",
"H#	c #55953E",
"I#	c #4C8937",
"J#	c #346E32",
"K#	c #3F85DD",
"L#	c #9AAEDE",
"M#	c #BEBECA",
"N#	c #A6B2DA",
"O#	c #5492EC",
"P#	c #A1A9B7",
"Q#	c #FBFCFB",
"R#	c #E0E8DD",
"S#	c #92B686",
"T#	c #568745",
"U#	c #5B8F49",
"V#	c #679F55",
"W#	c #68A055",
"X#	c #669E53",
"Y#	c #60964D",
"Z#	c #599344",
"`#	c #54973D",
" $	c #4D8F36",
".$	c #418D28",
"+$	c #2F712E",
"@$	c #3B7EB7",
"#$	c #B2BADE",
"$$	c #D6DAEA",
"%$	c #C2C6D2",
"&$	c #BAC2E2",
"*$	c #5689D1",
"=$	c #A1A8B7",
"-$	c #EEF4ED",
";$	c #D3DECF",
">$	c #83A478",
",$	c #5E914C",
"'$	c #5D904A",
")$	c #5C904A",
"!$	c #55963E",
"~$	c #4F9338",
"{$	c #498E32",
"]$	c #489A2B",
"^$	c #439627",
"/$	c #378B19",
"($	c #2A7345",
"_$	c #367895",
":$	c #4D81C6",
"<$	c #5E8EDE",
"[$	c #5583CF",
"}$	c #5582B9",
"|$	c #7E97B4",
"1$	c #CBCBCB",
"2$	c #F2F6F2",
"3$	c #DAE3D7",
"4$	c #C1CABD",
"5$	c #A6BB9F",
"6$	c #91B186",
"7$	c #7FAF6E",
"8$	c #7CAE6A",
"9$	c #7BAE6A",
"0$	c #7BAD6A",
"a$	c #7BAF69",
"b$	c #8EBD7E",
"c$	c #8EBB7E",
"d$	c #A1CA93",
"e$	c #ADBEA7",
"f$	c #B1BBAE",
"g$	c #BEC3BC",
"h$	c #C8CAC8",
"i$	c #D5D6D5",
"                                                                            ",
"                                . + @ # $ % & * =                           ",
"                            = * - ; > , ' ) ! ~ @ {                         ",
"                          = ] % ^ / ( _ : < [ ! } | 1                       ",
"                          + / 2 3 4 5 6 7 8 9 0 a b c                       ",
"                        d e 2 5 f & f e g h ~ i ) j k l                     ",
"                        m n o f p q r 5 ^ s t ~ u v i w                     ",
"                        x 7 y z q m A # B C D E F G H 5                     ",
"                        I J o K A A @ 3 ^ L _ D M , N O .                   ",
"                        J P Q 3 R R S T U V W X V Y Z T d                   ",
"                        X ` J ( Q Q g V L  ./ Q ( Y t @                     ",
"                        | H , s s s ..+.n @.#./ ( $.V %.                    ",
"                        &.*.*.=.=.=.E -.;.#.Q @.( >.,.d                     ",
"                          '.).!.~.~.< {.M ;.( ..+. .].                      ",
"                          l ~ ^./././.~ 8 -.(.$.O c                         ",
"                            _.:.<.[.[.}.|.|.|.1.2.                          ",
"                            3.4.5.6.7.8.9.0.a.b.c.d.                        ",
"                          e.f.g.h.i.j.k.l.m.n.o.p.q.r.s.                    ",
"                        t.u.v.w.x.y.z.A.B.C.D.E.F.G.H.I.J.                  ",
"                    A K.L.M.N.O.P.Q.R.S.T.U.V.W.X.Y.Z.`.O  +1               ",
"                  .+2 ++@+#+$+%+&+*+=+-+;+>+,+'+)+!+~+{+]+8 4 ^+            ",
"                /+(+_+:+<+[+}+|+|+*+=+1+2+3+4+5+6+7+8+9+0+v i I ^+          ",
"              a+y & _.b+c+d+e+f+|+*+=+g+h+i+j+k+l+m+n+o+p+q+r+*.# s+        ",
"            t+(+u+v+w+x+y+z+f+f+|+*+=+A+B+C+D+E+F+G+H+I+J+K+L+M+N+& O+      ",
"          %.#.& + _.P+Q+R+S+f+f+|+T+U+V+W+X+Y+Z+`+ @.@+@@@s+#@$@%@&@m =     ",
"        * Q *@m _.=@-@;@>@S+f+f+,@'@)@!@~@{@]@^@/@. .@-..@.@.@(@Z+_@e ^+    ",
"      { e ,.u+A 5 X :@<@R+[@}+}@z+|@1@2@3@4@`+.@.@.@.@8 .@.@.@.@5@6@7@] =   ",
"      8@9@0@=@5 W a@b@c@R+d@e@S+f@g@h@i@j@k@/+(@.@.@.@l@.@.@.@(@& ]@m@u+.   ",
"      #.^ n@# 9@ .o@p@q@r@s@t@f@|@u@v@w@x@y@(@z@z@.@.@s .@. s+A@B@C@D@E@{   ",
"      I ( (+X O F@G@H@I@J@g@d+|@K@L@M@N@O@P@Q@s+. z@.@R@s+z@(@S@Q@T@U@R O+  ",
"      W g g 7 V V@W@X@Y@Z@`@ #K@.#+#@###$#]@%#S@s+. .@A@&#8@^@S@B@*#=#E@{   ",
"      k ;...n '.-#;#X@>#,#'#)#.#!#~#{#]#^#/#(# @_#(@(@:#w+<#8@_#%#Z+[#u+.   ",
"      E ....;.;.}#|#X@>#1#2#J@3#4#5#6#7#8#9#0#B@A@J.^@S@s+a#a#b#$ c#d#m =   ",
"      n@E $.7 W e#f#g#h#i#j#k#l#m#I@n#o#p#q#r#s#t#A@A@S@A@A@_#u#v#w#E@^+    ",
"      d A w /+x#y#z#A#B#C#D#m#E#I@F#G#H#I#J#K#L#M#a#s+a#S@b#n@N#O#P#%.=     ",
"              = Q#R#S#T#U#V#W#W#X#Y#Z#`# $.$+$@$4@#$$$%$$$&$r#*$=$q {       ",
"                  = -$;$>$,$'$'$)$o#!$~${$]$^$/$($_$:$<$[$}$|$1$%.{         ",
"                      = 2$3$4$5$6$7$8$9$0$a$b$c$d$e$f$g$h$i$m ^+=           "};
