/* XPM */
static char * dbusy_xpm[] = {
"38 38 256 2",
"  	c None",
". 	c #244618",
"+ 	c #3E6232",
"@ 	c #52AA32",
"# 	c #A6A6A6",
"$ 	c #525252",
"% 	c #AAC69E",
"& 	c #F26262",
"* 	c #5A5A5A",
"= 	c #D2C2B2",
"- 	c #FE0E0E",
"; 	c #929292",
"> 	c #CEEEC2",
", 	c #5E5E5E",
"' 	c #FE2222",
") 	c #3E762A",
"! 	c #8EC67A",
"~ 	c #FE3E3E",
"{ 	c #7E7E7E",
"] 	c #FED2D2",
"^ 	c #82A676",
"/ 	c #CCD6CA",
"( 	c #A6D296",
"_ 	c #4E823E",
": 	c #82AA76",
"< 	c #DA7676",
"[ 	c #D6A696",
"} 	c #AABEA2",
"| 	c #E69E96",
"1 	c #728A6A",
"2 	c #E1EADE",
"3 	c #FEEAEA",
"4 	c #4A8E32",
"5 	c #4A6642",
"6 	c #FE5656",
"7 	c #BAE6AA",
"8 	c #A6BA9E",
"9 	c #EEF6EE",
"0 	c #5A7652",
"a 	c #D6968A",
"b 	c #FE2626",
"c 	c #6AA257",
"d 	c #86B672",
"e 	c #5A625A",
"f 	c #3A4236",
"g 	c #5A8E4A",
"h 	c #8E8E8E",
"i 	c #66BA4A",
"j 	c #96A692",
"k 	c #EA7672",
"l 	c #405A38",
"m 	c #CEC6BA",
"n 	c #DAD6CA",
"o 	c #9A9A9A",
"p 	c #56963E",
"q 	c #DEDAD2",
"r 	c #666666",
"s 	c #DA9286",
"t 	c #DEC6C6",
"u 	c #9ED28E",
"v 	c #797A79",
"w 	c #86BE72",
"x 	c #AADE9A",
"y 	c #BAC2B6",
"z 	c #FE2A2A",
"A 	c #EEEEEE",
"B 	c #F6FAF6",
"C 	c #CAD2BE",
"D 	c #BABABA",
"E 	c #7EA272",
"F 	c #628257",
"G 	c #CEBABA",
"H 	c #62964E",
"I 	c #6A6A6A",
"J 	c #AAAAAA",
"K 	c #FE4A4A",
"L 	c #F23232",
"M 	c #768E6E",
"N 	c #BED8B4",
"O 	c #F26662",
"P 	c #D5DED2",
"Q 	c #828282",
"R 	c #6E9060",
"S 	c #9AC68A",
"T 	c #76AE63",
"U 	c #BCCEB4",
"V 	c #36522E",
"W 	c #DADED6",
"X 	c #93BE82",
"Y 	c #729A66",
"Z 	c #72AA61",
"` 	c #D2D2C6",
" .	c #9ACE87",
"..	c #8A9E86",
"+.	c #E68686",
"@.	c #BEDEB2",
"#.	c #BEBEBE",
"$.	c #FAFEFA",
"%.	c #4A9E2E",
"&.	c #F65E5A",
"*.	c #C2CAB2",
"=.	c #2A4A1E",
"-.	c #FE1A1A",
";.	c #464646",
">.	c #6E6E6E",
",.	c #B6CAAC",
"'.	c #F64242",
").	c #FE2E2E",
"!.	c #EA6A62",
"~.	c #868686",
"{.	c #5E9A4A",
"].	c #7EB66A",
"^.	c #DACACA",
"/.	c #94B888",
"(.	c #B2B2B2",
"_.	c #E6E6E6",
":.	c #CABAB2",
"<.	c #AAD69E",
"[.	c #526A4A",
"}.	c #B6DEAA",
"|.	c #E6EAE4",
"1.	c #4A524A",
"2.	c #3E6E2E",
"3.	c #CEE2CA",
"4.	c #C2EEB6",
"5.	c #AEAEAE",
"6.	c #88AE7A",
"7.	c #969E96",
"8.	c #DAB6B6",
"9.	c #4A7A3A",
"0.	c #DAD2CA",
"a.	c #DAE2D6",
"b.	c #969696",
"c.	c #FE3232",
"d.	c #649058",
"e.	c #627E58",
"f.	c #FA7272",
"g.	c #C6C6C6",
"h.	c #A2A2A2",
"i.	c #8ABE78",
"j.	c #E29E96",
"k.	c #669A52",
"l.	c #F27676",
"m.	c #7AAE6A",
"n.	c #F1F2F1",
"o.	c #2E5224",
"p.	c #B6B6B6",
"q.	c #DED6CE",
"r.	c #CED2C2",
"s.	c #F2F6F2",
"t.	c #6A8A62",
"u.	c #72926A",
"v.	c #FE4646",
"w.	c #A2C696",
"x.	c #F06E6C",
"y.	c #8EAE86",
"z.	c #DECACA",
"A.	c #56724E",
"B.	c #F67E7E",
"C.	c #CACACA",
"D.	c #B2E2A1",
"E.	c #626262",
"F.	c #BEC8AC",
"G.	c #DEC2BA",
"H.	c #64765A",
"I.	c #6E9662",
"J.	c #89BA76",
"K.	c #8A8A8A",
"L.	c #92C67E",
"M.	c #727272",
"N.	c #C3CABF",
"O.	c #7DB26B",
"P.	c #6FA65E",
"Q.	c #E1E2E1",
"R.	c #D2CAC6",
"S.	c #565656",
"T.	c #FE1212",
"U.	c #568A46",
"V.	c #7EAA72",
"W.	c #DEBEBE",
"X.	c #D6C2C2",
"Y.	c #9E9E9E",
"Z.	c #FE3636",
"`.	c #CECECE",
" +	c #AEE29E",
".+	c #95C285",
"++	c #C2C2C2",
"@+	c #EAEAE9",
"#+	c #8AC278",
"$+	c #568643",
"%+	c #D6D6D6",
"&+	c #D2D2D2",
"*+	c #FE5A5A",
"=+	c #6A8662",
"-+	c #7A9A6E",
";+	c #FE4242",
">+	c #669E53",
",+	c #95CA84",
"'+	c #FE4E4E",
")+	c #8AB67C",
"!+	c #528E3E",
"~+	c #FD5E5E",
"{+	c #76966A",
"]+	c #DADADA",
"^+	c #AEDA9E",
"/+	c #CADAC2",
"(+	c #464A42",
"_+	c #629E50",
":+	c #5E924B",
"<+	c #46623A",
"[+	c #5AA63E",
"}+	c #FA6262",
"|+	c #EE9E9E",
"1+	c #9EC68E",
"2+	c #76AA63",
"3+	c #FEFEFE",
"4+	c #FA7676",
"5+	c #FED6D6",
"6+	c #BEEAB1",
"7+	c #405E36",
"8+	c #9EA69E",
"9+	c #F07270",
"0+	c #7EAE6C",
"a+	c #D6E2D2",
"b+	c #CAD2C6",
"c+	c #DEDEDE",
"d+	c #5A9247",
"e+	c #8E928E",
"f+	c #AADA9A",
"g+	c #8EC27A",
"h+	c #6EA25A",
"i+	c #9ACA86",
"j+	c #CECACA",
"k+	c #6A9E56",
"l+	c #7EA670",
"m+	c #D2BEBE",
"n+	c #2A4E1E",
"o+	c #B6CEAE",
"p+	c #B6E2A6",
"q+	c #8AB27A",
"r+	c #4E7E3C",
"s+	c #90B282",
"t+	c #DECECE",
"u+	c #7A9E6E",
"v+	c #50923A",
"w+	c #AEDE9A",
"x+	c #FAFAFA",
"y+	c #F6F6F6",
"z+	c #DAD6D6",
"A+	c #D6D2D2",
"B+	c #8EB67E",
"C+	c #629A52",
"D+	c #7A9672",
"E+	c #CEDACA",
"F+	c #4A4A4A",
"G+	c #F23636",
"                                                                            ",
"                                x+A &+++(.p.&+A 3+                          ",
"                            3+A C.b.{ { r S.$ >.&+x+                        ",
"                          3+_.p.# 5.J Y.Q >.* $ $ D 3+                      ",
"                          @+5.# #.g.#.(.o Q I S.;.$ c+                      ",
"                        x+#.# ++`.&+`.D # K.>., $ F+; n.                    ",
"                        _.Y.p.`.Q.Q.%+#.# ; { M., $ , c+                    ",
"                        g.o p.%+Q._.]+++J o ~.Q M.r I #.                    ",
"                        (.b.p.`.]+%+&+D # o Y.~.~.{ I Y.x+                  ",
"                        b.h 5.#.g.C.#.(.Y.Y.h.# Y.K.M.5.x+                  ",
"                        # { b.J 5.5.# Y.o h.J 5.J h { &+                    ",
"                        D I { ; ; ; b.; o J (.J J ; Y.@+                    ",
"                        A+E.r v v v ~.K.h.(.5.5.J b.(.x+                    ",
"                          h.;., E., >.~.~.Y.J ; ; Y.A                       ",
"                          n.>.;.* * * >.Q K.h ; Y.c+                        ",
"                            _.v (+f f 1.e e e e+c+                          ",
"                            y+/+e.o.n+n+=.. . M P x+                        ",
"                          /+,.y.: Y u.F 0 <+l V A.y n.3+                    ",
"                        U C+Z B+1+.+B+l+{+e.A.l . 7+..N.n.                  ",
"                    ]+o+I.Z .+( ( ( .+6.-+=+e.[.7++ <+H.h.%+x+              ",
"                  ]+# q+)+w f+p+7 <.S d E M =+{+j b+n.%+`.g.g._.x+          ",
"                c+D g.N S  .D.6+6+^+1+)+l+u+} _.@+A+= :.X.t+j+%+c+y+        ",
"              Q.D &+|.> ,+u 6+4.6+^+S J.6.,.|.0.j.l.~+6 ~+f.| t+A+c+y+      ",
"            _.D %+@+A }.! w+4.4.6+<.i+i.o+@+G.x.K ;+v.K 6 6 *+B.8.C._.x+    ",
"          _.5.&+A _.]+.+#+D.4.4.6+^+i+w.2 n O Z.;+v.K K 6 6 6 6 x.m+&+n.    ",
"        A 5.g._._.&+5.l+#+w+> 4.6+^+i+N @+| ~ ~ ;+v.;+v.;+~ c.z ).< m Q.x+  ",
"      x+#.(.%+]+#.# Y m.#+x D.6+x u S a+q &.c.Z.c.c.b -.T.T.- - - L G ]+x+  ",
"      @+h.C.&+#.h.7.R 2+g+u w+D.f+ .X @+q 3 3 3 3 3 3 3 3 3 3 3 3 3 z.&+y+  ",
"      (.# g.#.# Y.d.!+2+i.u x f+u ,+X A q.3+3+3+3+3+3+3+x+3+x+3+x+3+t &+y+  ",
"      (.J D # Y.8+d.v+P.w  .u u ,+w q+_.n ] ] ] ] ] ] ] ] ] ] ] ] ] t &+y+  ",
"      h.# # o Y.D+_ $+k+O.g+,+,+g+J.m.E+0.~ - - - - - - - - - - - G+m+c+x+  ",
"      ; Y.b.o h.F ) $+{.T J.! g+J.m.P.% Q.s b ' ' ' ' ' ' ' ' ' b +.&+|.x+  ",
"      ~.; b.h.h.H.2.$+C+P.O.w J.m.2+k+V.P ` O c.c.c.c.c.c.c.c.Z.& t ]+y+    ",
"      g.~.; o h.R 9.r+g >+T O.O.2+c _+_+/.]+= k K v.v.v.v.v.K x.8.%+@+x+    ",
"      x+%+q c+c+/ ^ r+U.C+P.Z Z h+k.H p _+1+P r.[ f.~+6 ~+9+a `.q @+x+      ",
"              3+3+2 B+$+g c >+c _+H p p v+[+g+E+]+C U F.F.N.%+c+A x+        ",
"                  3+9 P E :+g :+g d+p v+4 %.@ i ,+N P Q.c+c+_.y+3+          ",
"                      $.y+a.N.8 s+m.O.O.m.m.i..+}.3.2 n.B $.3+              "};
