/* XPM */
static char * dphone_xpm[] = {
"38 38 256 2",
"  	c None",
". 	c #020202",
"+ 	c #277A0D",
"@ 	c #ACD6A0",
"# 	c #767A76",
"$ 	c #6EA25A",
"% 	c #273237",
"& 	c #92A28E",
"* 	c #CBD7C7",
"= 	c #92C67E",
"- 	c #2E5224",
"; 	c #3AA212",
"> 	c #A6D296",
", 	c #C2EEB6",
"' 	c #517A82",
") 	c #3C702C",
"! 	c #6E8E63",
"~ 	c #94BE82",
"{ 	c #4D7D3D",
"] 	c #CEEEC2",
"^ 	c #7A9672",
"/ 	c #525252",
"( 	c #88BE75",
"_ 	c #3A941C",
": 	c #060606",
"< 	c #EAF2E6",
"[ 	c #56724E",
"} 	c #9ABA8E",
"| 	c #95B68A",
"1 	c #B6CAAA",
"2 	c #8A8A8A",
"3 	c #89BA77",
"4 	c #4E5E56",
"5 	c #26471A",
"6 	c #568643",
"7 	c #92B286",
"8 	c #6AA256",
"9 	c #323D42",
"0 	c #0A0A0A",
"a 	c #8A989C",
"b 	c #329E0E",
"c 	c #425A3A",
"d 	c #5A7652",
"e 	c #86AE76",
"f 	c #4E923A",
"g 	c #C6C6C6",
"h 	c #0E1212",
"i 	c #BEEAB1",
"j 	c #496941",
"k 	c #A2B6C6",
"l 	c #62AA4A",
"m 	c #A6BA9E",
"n 	c #7EB26D",
"o 	c #3A4636",
"p 	c #7A7A79",
"q 	c #B2CEAA",
"r 	c #5E5E5E",
"s 	c #5696A2",
"t 	c #9AAABA",
"u 	c #D5D6D5",
"v 	c #D6E6D2",
"w 	c #7FA672",
"x 	c #1B2226",
"y 	c #BABABA",
"z 	c #5A7E52",
"A 	c #6A7C6A",
"B 	c #5A9247",
"C 	c #283E42",
"D 	c #CECECE",
"E 	c #97CA85",
"F 	c #7A847A",
"G 	c #689E54",
"H 	c #627656",
"I 	c #7A9C6E",
"J 	c #DAE2D6",
"K 	c #3E523E",
"L 	c #FAFAFA",
"M 	c #4E707A",
"N 	c #3C626A",
"O 	c #ACDE9A",
"P 	c #AEAEAE",
"Q 	c #B6CEAE",
"R 	c #969696",
"S 	c #464646",
"T 	c #688C5C",
"U 	c #DEEADA",
"V 	c #466A36",
"W 	c #626963",
"X 	c #6EA65E",
"Y 	c #969E96",
"Z 	c #5E828E",
"` 	c #3AAA12",
" .	c #EEEEEE",
"..	c #BECEB6",
"+.	c #828A76",
"@.	c #B1C9D0",
"#.	c #9AA2A6",
"$.	c #828282",
"%.	c #666E6E",
"&.	c #869298",
"*.	c #6E7B82",
"=.	c #6F9363",
"-.	c #1E262A",
";.	c #D2DECE",
">.	c #68925A",
",.	c #425458",
"'.	c #BEDEB2",
").	c #B2BECA",
"!.	c #9ED28E",
"~.	c #5A5A5A",
"{.	c #528A9A",
"].	c #328A12",
"^.	c #3E464E",
"/.	c #3A4236",
"(.	c #B6B6B7",
"_.	c #5E767E",
":.	c #7EAE6B",
"<.	c #828A82",
"[.	c #3E5A62",
"}.	c #BABEBA",
"|.	c #566A56",
"1.	c #5E8E50",
"2.	c #7AAA6A",
"3.	c #A6BAC6",
"4.	c #8E8E8E",
"5.	c #505A5F",
"6.	c #4E5E62",
"7.	c #4A9E2E",
"8.	c #B6CAD2",
"9.	c #9EA69E",
"0.	c #42B21E",
"a.	c #AAAAAA",
"b.	c #43AE1C",
"c.	c #B2B2B2",
"d.	c #4F8E3B",
"e.	c #629A52",
"f.	c #666666",
"g.	c #6E6E6E",
"h.	c #75828F",
"i.	c #4EA22E",
"j.	c #DADADA",
"k.	c #9DC68D",
"l.	c #BEBEBE",
"m.	c #CEE2C6",
"n.	c #2A4A52",
"o.	c #FDFEFD",
"p.	c #9A9A9A",
"q.	c #252D32",
"r.	c #4A524A",
"s.	c #B3E1A3",
"t.	c #364C52",
"u.	c #3E5A36",
"v.	c #89B579",
"w.	c #8DC27A",
"x.	c #4A8E32",
"y.	c #669A52",
"z.	c #7AA272",
"A.	c #E6E6E6",
"B.	c #76AE63",
"C.	c #6A7272",
"D.	c #D6DED6",
"E.	c #7A8A9E",
"F.	c #4B4B4B",
"G.	c #72866A",
"H.	c #3A3A3A",
"I.	c #5A625A",
"J.	c #565656",
"K.	c #E2EADE",
"L.	c #C2C2C2",
"M.	c #F2F2F2",
"N.	c #868686",
"O.	c #364246",
"P.	c #303434",
"Q.	c #425A62",
"R.	c #495256",
"S.	c #585E62",
"T.	c #929292",
"U.	c #56828A",
"V.	c #727272",
"W.	c #C2CABE",
"X.	c #668A96",
"Y.	c #668266",
"Z.	c #D2D2D2",
"`.	c #464E52",
" +	c #729A66",
".+	c #3B4A51",
"++	c #2A4E1E",
"@+	c #52767E",
"#+	c #546652",
"$+	c #7D7E7D",
"%+	c #9ACE86",
"&+	c #3B4143",
"*+	c #4F565C",
"=+	c #7A8386",
"-+	c #76AA63",
";+	c #60696D",
">+	c #49565A",
",+	c #758B6E",
"'+	c #767C80",
")+	c #68828C",
"!+	c #3E4E5E",
"~+	c #5E924B",
"{+	c #A2A2A2",
"]+	c #A6A6A6",
"^+	c #3E762A",
"/+	c #4E823E",
"(+	c #2E4246",
"_+	c #62B246",
":+	c #82AA76",
"<+	c #AACEDA",
"[+	c #BAE6AA",
"}+	c #6A6A6A",
"|+	c #9E9E9E",
"1+	c #DEDEDE",
"2+	c #626263",
"3+	c #628257",
"4+	c #AEE29E",
"5+	c #E2E2E2",
"6+	c #818A8F",
"7+	c #2A2D2F",
"8+	c #8EB57E",
"9+	c #EAEAEA",
"0+	c #CACACA",
"a+	c #AADA9A",
"b+	c #EEF6EE",
"c+	c #727678",
"d+	c #76A266",
"e+	c #627E57",
"f+	c #F3F6F3",
"g+	c #7AAE6A",
"h+	c #8EAE86",
"i+	c #627666",
"j+	c #46AA26",
"k+	c #72AA61",
"l+	c #BDCDCF",
"m+	c #2E7A12",
"n+	c #76966A",
"o+	c #568A46",
"p+	c #424246",
"q+	c #7EB66A",
"r+	c #464A42",
"s+	c #596265",
"t+	c #60964C",
"u+	c #36522E",
"v+	c #569640",
"w+	c #566E76",
"x+	c #4A5A60",
"y+	c #82A67A",
"z+	c #95C285",
"A+	c #3E4E54",
"B+	c #AEDA9E",
"C+	c #B9BFC5",
"D+	c #BACEDA",
"E+	c #424A4D",
"F+	c #567E86",
"G+	c #8EBA7A",
"                                                                            ",
"                                L  .Z.L.c.(.Z. .o.                          ",
"                            o. .0+R $+$+f.J./ g.Z.L                         ",
"                          o.A.(.]+P a.|+$.g.~./ / y o.                      ",
"                          9+P ]+l.g l.c.p.$.}+J.S / 1+                      ",
"                        L l.]+L.D Z.D y ]+2 g.r / F.T.M.                    ",
"                        A.|+(.D 5+5+u l.]+T.$+V.r F.2+1+                    ",
"                        g p.(.u 5+A.j.L.a.p.N.$.V.}+f.l.                    ",
"                        c.R (.D j.u Z.y ]+p.|+N.N.$+}+|+L                   ",
"                        R 4.P l.g 0+l.c.|+|+{+]+|+4.V.P L                   ",
"                        ]+$+R a.P P ]+|+p.{+a.P a.4.$+Z.                    ",
"                        y }+$+T.T.T.R T.p.a.c.a.a.T.|+9+                    ",
"                        Z.2+f.p p p N.2 {+c.P a.a.R c.L                     ",
"                          {+S r 2+r g.N.N.|+a.R T.|+ .                      ",
"                          M.g.S ~.~.~.g.$.2 4.T.|+1+                        ",
"                            A.p r+/.9 r.I.I.I.&.1+              L P.H.      ",
"                            f+* e+- - ++5 5 5 ,+D.Z.f.f.(.f+    $.. 7+      ",
"                          * 1 7 :+I ! 3+[ j u.u+[ 5.s+#+P.}+j.1+h . (.      ",
"                        ..e.X v.k.k.8+:+=.H [ c o E+q.9 t.% ;+&+. F.        ",
"                    j.q  +k+= > @ > z+e I ! H #+>+,.^.% x+A+5.h : j.        ",
"                  j.]+v.v.( O s.s.@ k.v.z.=.e+4 !+t Z ;+^.q.5.x f.          ",
"                1+y L.'.= %+s.i , B+k.8+z.>.z `.E.D+C+6+A+-.&+5.p.          ",
"              5+y Z.A.] E !.i , i B+E ( w >.i+.+3.l+@.C+a Q.&+%.P o.        ",
"            A.y u  . .B+= O , , i @ k.G+w T s+h.@.(.).@.3.*+*+2+R 9+        ",
"          A.P Z.9+A.j.~ w.O ] , i B+E 3 w ,+,.6+D+@.<+y *.E+C.T.$+g L       ",
"         .P g A.A.Z.c.w ( 4+, , i a+E 3 -+=+C A+a D+8.).x+>+# P T.N.9+      ",
"      L l.c.u j.l.{+ +g+w.O s.i O !.w.2.! *.@+t.,.*.#.h.E+$+2 P c.p.0+      ",
"      9+{+0+Z.l.{+Y =.B.w.!.4+4+a+%+3 2.F R.,.U.' % 9 R.*+a c+{+c.p.l.      ",
"      c.]+g L.]+{+>.d.-+( !.a+a+%+E 3 z.N.^.t.{.' n.N / 4.{ W T.P P a.      ",
"      c.a.y {+|+9.1.1.$ ( E !.!.%+( n A h.,.M M C s _.S.! m+V # {+a.p.      ",
"      {+]+]+p.|+^ /+6 G n = %+E w.v.d+S.6+w+@+N -.5.E++._ m+V F ]+c.y       ",
"      T.|+R p.{+3+^+o+e.B.3 w.w.3 g+Y.*+*.Z F+C x+;+g.d.; ].) Y u 1+M.      ",
"      N.R R |+{+d ) 6 e.X q+q+3 n k+s+R.&.X.[.R.h.S G.b.` b + 7 f+L         ",
"      g $.T.p.{+,+{ { 1.G k+q+n k+8 A 9 6+)+)+&.7+# 7.b.` b + | f+          ",
"      L u 1+1+J * w { o+G X k+k+$ e.~+|.^.c+*+x ~.T 0.0.` b _ q L           ",
"              L L K.G+6 1.8 8 G G t+v+v+j -.x 7+F j+0.b.` i.}  .            ",
"                  L b+;.z.~+~+1.1.B v+f x.d.K #+l b.0._+a+v b+o.            ",
"                      o.f+J W.m 7 :.g+:.:.g+w.k.O m.U b+L o.                "};
