/* XPM */
static char * dinvisible_xpm[] = {
"38 38 387 2",
"  	c None",
". 	c #BFB0B0",
"+ 	c #AF7070",
"@ 	c #A04040",
"# 	c #902F2F",
"$ 	c #7F282F",
"% 	c #7F3730",
"& 	c #906060",
"* 	c #BFAFAF",
"= 	c #E0DFDF",
"- 	c #AF8780",
"; 	c #B0383F",
"> 	c #BF383F",
", 	c #9F3030",
"' 	c #702720",
") 	c #401710",
"! 	c #301010",
"~ 	c #9F787F",
"{ 	c #DFDFDF",
"] 	c #E0E7E0",
"^ 	c #AF3730",
"/ 	c #CF5F5F",
"( 	c #D06F6F",
"_ 	c #CF6060",
": 	c #C04F4F",
"< 	c #7F2720",
"[ 	c #100700",
"} 	c #A07770",
"| 	c #B09090",
"1 	c #DF888F",
"2 	c #DF8F8F",
"3 	c #D07F7F",
"4 	c #C04740",
"5 	c #A03730",
"6 	c #5F1F1F",
"7 	c #3F1010",
"8 	c #20080F",
"9 	c #B0A8AF",
"0 	c #CFC7C0",
"a 	c #A04740",
"b 	c #C04040",
"c 	c #D08080",
"d 	c #E0A0A0",
"e 	c #E0A7A0",
"f 	c #DF9090",
"g 	c #D07770",
"h 	c #CF5050",
"i 	c #602020",
"j 	c #501F1F",
"k 	c #200F0F",
"l 	c #8F5750",
"m 	c #DFD8DF",
"n 	c #B09790",
"o 	c #CF5750",
"p 	c #E0AFAF",
"q 	c #E0B0B0",
"r 	c #E09F9F",
"s 	c #80282F",
"t 	c #601F1F",
"u 	c #502020",
"v 	c #C0C0C0",
"w 	c #AF686F",
"x 	c #CF585F",
"y 	c #DF8780",
"z 	c #D0686F",
"A 	c #8F2F2F",
"B 	c #6F2020",
"C 	c #B0AFAF",
"D 	c #E0E0E0",
"E 	c #A06060",
"F 	c #C0484F",
"G 	c #D07070",
"H 	c #C05050",
"I 	c #903030",
"J 	c #50181F",
"K 	c #9F5F5F",
"L 	c #BF3F3F",
"M 	c #BFB7B0",
"N 	c #8F4740",
"O 	c #B0A7A0",
"P 	c #5F2020",
"Q 	c #A0888F",
"R 	c #D0CFCF",
"S 	c #805050",
"T 	c #904040",
"U 	c #C0B8BF",
"V 	c #5F2F2F",
"W 	c #80383F",
"X 	c #A0989F",
"Y 	c #D0D7D0",
"Z 	c #6F484F",
"` 	c #2F0F0F",
" .	c #4F181F",
"..	c #8F4F4F",
"+.	c #D0D0D0",
"@.	c #A08080",
"#.	c #3F1710",
"$.	c #8F585F",
"%.	c #C0BFBF",
"&.	c #DFD7D0",
"*.	c #AF7F7F",
"=.	c #B05750",
"-.	c #C03F3F",
";.	c #A03030",
">.	c #7F484F",
",.	c #BFA8AF",
"'.	c #D0C8CF",
").	c #CF6760",
"!.	c #5F3030",
"~.	c #A09090",
"{.	c #9F4F4F",
"].	c #704040",
"^.	c #9F888F",
"/.	c #CFC0C0",
"(.	c #C06060",
"_.	c #D0787F",
":.	c #792C35",
"<.	c #53303A",
"[.	c #41435C",
"}.	c #386996",
"|.	c #4581B0",
"1.	c #598CB4",
"2.	c #739CBE",
"3.	c #A6BCD0",
"4.	c #B0A0A0",
"5.	c #B05050",
"6.	c #E0A8AF",
"7.	c #DF989F",
"8.	c #9C3132",
"9.	c #504058",
"0.	c #2E567E",
"a.	c #26699E",
"b.	c #307DB7",
"c.	c #418AC0",
"d.	c #5696C7",
"e.	c #6BA3CD",
"f.	c #81AED0",
"g.	c #A0BED3",
"h.	c #B09F9F",
"i.	c #BF5750",
"j.	c #EFB8BF",
"k.	c #EFBFBF",
"l.	c #A03A44",
"m.	c #4F4058",
"n.	c #195687",
"o.	c #1A67A1",
"p.	c #1A71B3",
"q.	c #2478B6",
"r.	c #2D7DB9",
"s.	c #3985BD",
"t.	c #4D92C4",
"u.	c #66A2CE",
"v.	c #82B3D7",
"w.	c #9AC0DC",
"x.	c #BED5E9",
"y.	c #BF484F",
"z.	c #EFC0C0",
"A.	c #E0B7B0",
"B.	c #BC4850",
"C.	c #573C52",
"D.	c #144A72",
"E.	c #155C8F",
"F.	c #1568A5",
"G.	c #1C71B0",
"H.	c #2679B6",
"I.	c #2C7DB8",
"J.	c #3280BA",
"K.	c #3582BB",
"L.	c #4089BE",
"M.	c #5898C8",
"N.	c #7FB0D6",
"O.	c #9EC3DF",
"P.	c #C1D9EA",
"Q.	c #CC5F5F",
"R.	c #833D47",
"S.	c #193D5B",
"T.	c #114E7A",
"U.	c #115E99",
"V.	c #3E85B9",
"W.	c #83B3D5",
"X.	c #A0C5DF",
"Y.	c #B3D0E6",
"Z.	c #B3D1E6",
"`.	c #9FC3DF",
" +	c #8FBAD9",
".+	c #629FCB",
"++	c #5395C6",
"@+	c #82B2D6",
"#+	c #A7C8E2",
"$+	c #DF9790",
"%+	c #A7505B",
"&+	c #3F3447",
"*+	c #0D3F64",
"=+	c #10558B",
"-+	c #6B9DC3",
";+	c #BDD6E7",
">+	c #9BC1DD",
",+	c #7CAED3",
"'+	c #87B5D7",
")+	c #8DB9D9",
"!+	c #81B1D5",
"~+	c #92BBDA",
"{+	c #C3DAEA",
"]+	c #94BDDB",
"^+	c #639FCB",
"/+	c #8FBADA",
"(+	c #B5D1E6",
"_+	c #643943",
":+	c #162E46",
"<+	c #09436E",
"[+	c #6695B7",
"}+	c #C9DDE8",
"|+	c #5F9CC9",
"1+	c #498FC2",
"2+	c #F0F6FA",
"3+	c #F8FBFD",
"4+	c #C2D9EB",
"5+	c #5F9DCA",
"6+	c #4B90C2",
"7+	c #CFE2EF",
"8+	c #ABCBE3",
"9+	c #7AADD2",
"0+	c #3C2937",
"a+	c #082A44",
"b+	c #537792",
"c+	c #C8D6E1",
"d+	c #458CC0",
"e+	c #3783BC",
"f+	c #E2EDF5",
"g+	c #FFFFFF",
"h+	c #F1F6FA",
"i+	c #4E92C4",
"j+	c #3481BB",
"k+	c #D1E4F0",
"l+	c #BCD6E9",
"m+	c #95BEDC",
"n+	c #BAD5E9",
"o+	c #242331",
"p+	c #243A4B",
"q+	c #9AA5AE",
"r+	c #629AC3",
"s+	c #0A67AE",
"t+	c #8DB8D9",
"u+	c #ECF3F9",
"v+	c #84B3D6",
"w+	c #6FA6CF",
"x+	c #DFECF4",
"y+	c #BFD7EA",
"z+	c #0665AC",
"A+	c #4F92C4",
"B+	c #E1EDF5",
"C+	c #BDD6E9",
"D+	c #A8C8E2",
"E+	c #272733",
"F+	c #3D454C",
"G+	c #7990A0",
"H+	c #0963A5",
"I+	c #1E73B3",
"J+	c #CBDFEE",
"K+	c #2679B7",
"L+	c #0464AC",
"M+	c #B1CFE6",
"N+	c #D6E5F1",
"O+	c #1C72B3",
"P+	c #0965AB",
"Q+	c #A8CAE2",
"R+	c #E3EEF6",
"S+	c #A9CAE2",
"T+	c #302433",
"U+	c #1C2A35",
"V+	c #838D94",
"W+	c #4D86B3",
"X+	c #0C67AC",
"Y+	c #90BBDA",
"Z+	c #EAF1F8",
"`+	c #76AAD1",
" @	c #5A99C8",
".@	c #DAE8F2",
"+@	c #C3DAEB",
"@@	c #DBE9F3",
"#@	c #BAD5E8",
"$@	c #A1C5E0",
"%@	c #4A272E",
"&@	c #0C1D2D",
"*@	c #405666",
"=@	c #A6B6C0",
"-@	c #347EB5",
";@	c #448AC0",
">@	c #E7F1F7",
",@	c #FCFDFF",
"'@	c #FCFDFE",
")@	c #F3F7FB",
"!@	c #287BB7",
"~@	c #C5DCEC",
"{@	c #75AAD1",
"]@	c #ACCCE3",
"^@	c #772F2F",
"/@	c #1F212D",
"(@	c #072033",
"_@	c #567388",
":@	c #AABFCE",
"<@	c #4C8FC0",
"[@	c #629ECB",
"}@	c #D0E2EF",
"|@	c #F2F7FB",
"1@	c #F8FAFD",
"2@	c #D8E7F2",
"3@	c #4289BF",
"4@	c #BCD6E8",
"5@	c #5999C7",
"6@	c #619DCA",
"7@	c #C9DEED",
"8@	c #90383F",
"9@	c #905050",
"0@	c #973630",
"a@	c #55272F",
"b@	c #061D2D",
"c@	c #092B45",
"d@	c #5D7D97",
"e@	c #AFC4D3",
"f@	c #83B0D1",
"g@	c #76AAD0",
"h@	c #98C0DD",
"i@	c #A0C5E0",
"j@	c #7FB0D5",
"k@	c #80B1D4",
"l@	c #C2D9EA",
"m@	c #9EC4DF",
"n@	c #3F89BF",
"o@	c #4089BF",
"p@	c #82B2D5",
"q@	c #CFC8CF",
"r@	c #8E2E30",
"s@	c #31232F",
"t@	c #071D2E",
"u@	c #082E4B",
"v@	c #356285",
"w@	c #84A4BA",
"x@	c #99B9D0",
"y@	c #A0C1D9",
"z@	c #A2C5DD",
"A@	c #9EC3DC",
"B@	c #A0C3DD",
"C@	c #619CC9",
"D@	c #4990C3",
"E@	c #C9DDED",
"F@	c #903F3F",
"G@	c #852D30",
"H@	c #2D222E",
"I@	c #052943",
"J@	c #0E4167",
"K@	c #265D85",
"L@	c #3B739B",
"M@	c #407BA5",
"N@	c #3172A3",
"O@	c #19669D",
"P@	c #0D5E9C",
"Q@	c #1869A6",
"R@	c #337EB7",
"S@	c #ADCCE4",
"T@	c #A08F8F",
"U@	c #AF4F4F",
"V@	c #A0383F",
"W@	c #9F3730",
"X@	c #903730",
"Y@	c #8F3730",
"Z@	c #7E3430",
"`@	c #41282F",
" #	c #13202F",
".#	c #082337",
"+#	c #082F4C",
"@#	c #07395D",
"##	c #08406A",
"$#	c #0C4773",
"%#	c #114F7D",
"&#	c #185888",
"*#	c #568AB1",
"=#	c #BDD4E5",
"-#	c #CACACB",
";#	c #A0A5A9",
">#	c #657079",
",#	c #3C515D",
"'#	c #244054",
")#	c #21445C",
"!#	c #3D5F79",
"~#	c #66889D",
"{#	c #A9BFCF",
"                                                                            ",
"                            . + @ # $ % & *                                 ",
"                        = - ; ; > ; , ' ) ! ~ {                             ",
"                      ] + ^ / ( _ : ; , < ) [ } ]                           ",
"                      | ^ _ 1 2 3 _ 4 5 < 6 7 8 9                           ",
"                    0 a b c d e f g h 5 $ i j k l m                         ",
"                    n , o 2 p q r 3 : 5 s ' t ) u v                         ",
"                    w , x y r d 2 z b 5 A $ B 6 ) C                         ",
"                  D E # F ( c c G H > 5 I A $ i J 9                         ",
"                  ] K < ; F x x F L ^ 5 , # A B i M                         ",
"                    } i # 5 ; ; ^ 5 , , , , # B N v                         ",
"                    O P i $ s s A A A # , , A i Q R                         ",
"                    D S ! 6 i i B ' < s A A B T M D                         ",
"                      U V 8 ) J 6 t B ' ' i W X Y                           ",
"                        . Z k ` 7 )  .J J ..X +.]                           ",
"                          @.P ) #.) ) ) 7 $.%.]                             ",
"                      &.*.=.F -.; ;.# s B u >.,.                            ",
"                    '.K > ).g g _ F ; 5 s 6 ! !.@.+.                        ",
"                  ~.{.4 g 2 2 c z h b ^ A ' 6 ! ` ].^.                      ",
"              /.& (.( z f e d 2 _._ F ; I :.<.[.}.|.1.2.3.                  ",
"            4.5.3 e 2 3 6.q p 7.3 z F ; 8.9.0.a.b.c.d.e.f.g.                ",
"          h.i.2 j.q 3 y q k.q r y z F l.m.n.o.p.q.r.s.t.u.v.w.x.            ",
"          y.7.z.z.2 ( f j.z.A.r y ).B.C.D.E.F.G.H.I.J.K.L.M.N.O.P.          ",
"          y k.A.1 x ).7.A.k.q 7.3 Q.R.S.T.U.V.W.X.Y.Z.`. +.+++@+#+          ",
"          p 6.3 4 b z $+q j.p f g %+&+*+=+-+;+>+,+'+)+!+~+{+]+^+/+(+        ",
"          7.( -.5 L ( f 6.p d y z _+:+<+[+}+|+1+Y.2+3+4+5+6+7+8+9+`.        ",
"          ).; , A b ).1 r d f _._ 0+a+b+c+d+e+f+g+g+g+g+h+i+j+k+l+m+n+      ",
"          ; # s A b / 3 f f y ( o o+p+q+r+s+t+g+u+v+w+x+g+y+z+A+B+C+D+      ",
"          , s ' # L o g y y g _ F E+F+G+H+I+#+g+J+K+L+M+g+N+O+P+Q+R+S+      ",
"          A ' B , ; : z g g ).h b T+U+V+W+X+Y+g+Z+`+ @.@g++@s+c.@@#@$@      ",
"          s ' B , ^ 4 / z ).x F L %@&@*@=@-@;@>@g+,@'@g+)@5+!@~@y+{@]@      ",
"          A i i # 5 -.H x x : -.; ^@/@(@_@:@<@[@}@|@1@2@,+3@4@Z.5@6@7@      ",
"          8@9@% $ ;.; 4 : F b ; ^ 0@a@b@c@d@e@f@g@h@i@j@k@l@m@n@o@p@        ",
"          q@Y ~.< A ^ L b -.> ^ ;., r@s@t@u@v@w@x@y@z@A@B@C@O+H.D@E@        ",
"                4.F@I ^ > ; ^ , , I , G@H@t@I@J@K@L@M@N@O@P@Q@R@S@          ",
"                  R T@U@V@V@W@X@Y@Y@Y@Y@Z@`@ #.#+#@###$#%#&#*#=#            ",
"                      D Y +.+.+.+.+.+.+.+.-#;#>#,#'#)#!#~#{#                ",
"                                                                            "};
