/* XPM */
static char * donline_xpm[] = {
"38 38 239 2",
"  	c None",
". 	c #EEEAEE",
"+ 	c #B2B7B6",
"@ 	c #819A8A",
"# 	c #5E8A6B",
"$ 	c #51794F",
"% 	c #416B48",
"& 	c #506456",
"* 	c #7E8272",
"= 	c #E1E1E1",
"- 	c #92A29A",
"; 	c #4F9565",
"> 	c #5E9652",
", 	c #6E9762",
"' 	c #629258",
") 	c #517F56",
"! 	c #3E6232",
"~ 	c #1E412B",
"{ 	c #122E1E",
"] 	c #8F9095",
"^ 	c #E2E6E2",
"/ 	c #78BC80",
"( 	c #92BE76",
"_ 	c #729E6B",
": 	c #3E624E",
"< 	c #021A12",
"[ 	c #A0ABA8",
"} 	c #509C62",
"| 	c #A2CE8E",
"1 	c #AED899",
"2 	c #9FC989",
"3 	c #92B67E",
"4 	c #5E825A",
"5 	c #2F5347",
"6 	c #0F2B44",
"7 	c #02162E",
"8 	c #B2B2B2",
"9 	c #CECCCF",
"0 	c #52AE80",
"a 	c #90CA82",
"b 	c #A2E6A2",
"c 	c #B2DB9B",
"d 	c #72A47E",
"e 	c #508672",
"f 	c #3F6F65",
"g 	c #225359",
"h 	c #204753",
"i 	c #021232",
"j 	c #62707E",
"k 	c #DEDADE",
"l 	c #3E8C69",
"m 	c #62BA90",
"n 	c #90D9A0",
"o 	c #AEE7B1",
"p 	c #B5E5A0",
"q 	c #A1DDA4",
"r 	c #8FC19A",
"s 	c #6EA686",
"t 	c #4E8C7E",
"u 	c #3E6E7E",
"v 	c #205778",
"w 	c #12496A",
"x 	c #022846",
"y 	c #102E5E",
"z 	c #C2C8C8",
"A 	c #3F926F",
"B 	c #91D9AE",
"C 	c #A0E2B2",
"D 	c #8FD1AE",
"E 	c #7EB6A2",
"F 	c #5E9D9E",
"G 	c #428692",
"H 	c #326E92",
"I 	c #11438D",
"J 	c #02236E",
"K 	c #AEAEB0",
"L 	c #6E8E7E",
"M 	c #328A6E",
"N 	c #5EB090",
"O 	c #7EC6A7",
"P 	c #82BFA6",
"Q 	c #6EAEAE",
"R 	c #4E939F",
"S 	c #42829E",
"T 	c #2E689F",
"U 	c #1E589F",
"V 	c #022D75",
"W 	c #728A82",
"X 	c #2E7A5F",
"Y 	c #509C84",
"Z 	c #72BCA8",
"` 	c #6EB599",
" .	c #62ACA8",
"..	c #529BA3",
"+.	c #41899F",
"@.	c #3077A4",
"#.	c #1E68C0",
"$.	c #1458B2",
"%.	c #0E48AC",
"&.	c #022A92",
"*.	c #0E307E",
"=.	c #7E8A9E",
"-.	c #216656",
";.	c #38866A",
">.	c #529A92",
",.	c #4E9291",
"'.	c #2269AF",
").	c #1E61B3",
"!.	c #1151B8",
"~.	c #022692",
"{.	c #425E8E",
"].	c #C0C0C0",
"^.	c #215B56",
"/.	c #327975",
"(.	c #31789C",
"_.	c #316F8C",
":.	c #22689C",
"<.	c #0E42AE",
"[.	c #022186",
"}.	c #023E32",
"|.	c #21606C",
"1.	c #12558B",
"2.	c #1150A4",
"3.	c #0E3EAE",
"4.	c #425E92",
"5.	c #022A2E",
"6.	c #124642",
"7.	c #12425E",
"8.	c #11457B",
"9.	c #0E3D91",
"0.	c #2F4783",
"a.	c #9EA1A1",
"b.	c #D2D6D2",
"c.	c #022A58",
"d.	c #022460",
"e.	c #526282",
"f.	c #909A95",
"g.	c #2E4A2E",
"h.	c #103A4E",
"i.	c #12324E",
"j.	c #122E2E",
"k.	c #687672",
"l.	c #6EA078",
"m.	c #68A670",
"n.	c #325E3E",
"o.	c #5E666E",
"p.	c #AEB2B2",
"q.	c #729282",
"r.	c #81AA6B",
"s.	c #12333B",
"t.	c #424E4E",
"u.	c #D2D2D2",
"v.	c #5EAE72",
"w.	c #82C682",
"x.	c #9ED492",
"y.	c #9EBE7E",
"z.	c #42765E",
"A.	c #326652",
"B.	c #7FB276",
"C.	c #82C282",
"D.	c #4E8278",
"E.	c #082652",
"F.	c #6E7692",
"G.	c #B2EBB7",
"H.	c #92D692",
"I.	c #82CE92",
"J.	c #C2F6AE",
"K.	c #81B58D",
"L.	c #2E6262",
"M.	c #205262",
"N.	c #B2F4B8",
"O.	c #BEECAF",
"P.	c #7EBD9F",
"Q.	c #5E9280",
"R.	c #3A7982",
"S.	c #32666E",
"T.	c #1E518B",
"U.	c #103652",
"V.	c #92E2AE",
"W.	c #BEF4B9",
"X.	c #72C69A",
"Y.	c #8FC69F",
"Z.	c #6EA28E",
"`.	c #528682",
" +	c #3E7678",
".+	c #306886",
"++	c #215A8D",
"@+	c #AEEEB8",
"#+	c #92D2BE",
"$+	c #9FD6A6",
"%+	c #4E8C9A",
"&+	c #2E6280",
"*+	c #1E4A7E",
"=+	c #103C68",
"-+	c #1A61C2",
";+	c #104A92",
">+	c #1E3A6E",
",+	c #A2EAB6",
"'+	c #5EA890",
")+	c #AEF2BE",
"!+	c #5EA18D",
"~+	c #3E798F",
"{+	c #023488",
"]+	c #52A885",
"^+	c #8FD0A1",
"/+	c #41898E",
"(+	c #2E6EA6",
"_+	c #327E9B",
":+	c #62A199",
"<+	c #3E809A",
"[+	c #123C7E",
"}+	c #32827E",
"|+	c #6EBC9C",
"1+	c #82CDA8",
"2+	c #2F729D",
"3+	c #21619F",
"4+	c #0F336C",
"5+	c #1E4AA2",
"6+	c #82C6A2",
"7+	c #226A8E",
"8+	c #50A280",
"9+	c #285AAE",
"0+	c #7EC296",
"a+	c #62AA9A",
"b+	c #48947E",
"c+	c #72B29F",
"d+	c #529396",
"e+	c #1E52AE",
"f+	c #526E92",
"g+	c #62AC8E",
"h+	c #2E72AE",
"i+	c #023A8A",
"j+	c #4E9282",
"k+	c #226EA8",
"l+	c #1E5AAE",
"m+	c #629282",
"n+	c #428282",
"o+	c #4E76A2",
"p+	c #7286A2",
"                                                                            ",
"                          . + @ # $ % & * + .                               ",
"                        = - ; > , ' ) ! ~ { ] =                             ",
"                      ^ @ ; / ( ( _ , $ : ~ < ] ^                           ",
"                      [ } / | 1 2 3 _ 4 : 5 6 7 8                           ",
"                    9 > 0 a b c 1 ( d e f g h i j k                         ",
"                    [ l m n o p q r s t u v w x y z                         ",
"                    @ A m B C q D E F G H v I y J K                         ",
"                  = L M N O D D P Q R S T U I V J K .                       ",
"                  ^ W X Y N Z `  ...+.@.#.$.%.&.*.+ .                       ",
"                    =.-.;.t >.>.,.+.@.'.).!.%.~.{.]..                       ",
"                      ^.-./././.(._.:.).$.!.<.[.] 9                         ",
"                        }.g ^.|.|.v 1.2.%.3.[.4.+ =                         ",
"                      ].5 5.6.6.7.8.8.9.9.[.0.a.b.                          ",
"                        + & 5.x c.c.d.J [.e.a.9 ^                           ",
"                          f.g.~ h.6 i.i.j.k.].^                             ",
"                      k f.l.m._ ' 4 $ ! n.g.o.p.                            ",
"                    9 q.} / a 2 ( r., ) % 5 s.t.] u.                        ",
"                  - # v.w.x.1 | y.r., # z.A.g { 6 & f.                      ",
"              z L B./ C.n p p 1 2 B.l.' D.% 5 h E.6 h F.k                   ",
"            p.l.a G.H.I.b J.p c 2 K.l.# D.f L.M.s.6 h.h.o.b.                ",
"          p.s H.J.p I.n N.O.O.c 2 P.l.Q.D.R.S.g h 6 h.T.U.j =               ",
"          m.V.J.W.B X.n N.J.W.1 Y.K.Z.Q.`. +.+|.M.i.E.++1.d.]               ",
"          H.N.@+#+` X.V.@+W.p $+r K.F %+`.R._.&+*+=+E.9.-+;+>+].            ",
"          ,+,+O  .'+X.V.@+)+o q r Q !+,.G ~+_.&+v w y *.).).{+=..           ",
"          C Z ..+.]+X.V.C o q ^+E s !+%+/+~+H .+++*+=+d.2.).2.0.=           ",
"          Z ..(+_+]+X.B C q $+Y.P.:+F %+<+(.(+:.U T.[+d.9.).-+9.b.          ",
"          ..(+U }+0 |+1+#+B ^+P Q :+R +.<+(.2+:.3+T.[+V 4+3+#.5+u.          ",
"          @.2.1.M ]+m 1+D ^+6+Z s :+R +.<+@.H :.3+U I {+=+7+#.%.9           ",
"          U 9.|.l 8+m |+1+O P.Q :+..%++._+@.(+'.).U ;+*.4+_.'.9+u.          ",
"          ;+I -.A Y N |+P.0+` a+F R +.<+@.@.(+'.).U 2.{+0.a.[ + k           ",
"          <.{+-.;.b+]+N |+` c+F d+%++._+@.(+'.'.).U 2.{+4+].k .             ",
"          e+f+f X A 8+'+g+'+'+>.%+G <+@.(.h+#.'.).U !.i+V ].=               ",
"          9 b.a.X M ; !+'+!+8+,./+<+_+@.h+(+'.).).$.!.~.F.9                 ",
"              . [ e l Y Y j+t b+G <+(.(+(+k+'.).!.2.l+=.].=                 ",
"                  9 - m+; j+t n+R. +_._.T T T o+p+f.].9 =                   ",
"                      = b.9 9 9 9 u.u.u.9 9 9 u.b.k ^                       ",
"                                                                            "};
