/* XPM */
static char * daway_xpm[] = {
"38 38 246 2",
"  	c None",
". 	c #B2B7B4",
"+ 	c #829C88",
"@ 	c #5E825A",
"# 	c #51794F",
"$ 	c #3E694B",
"% 	c #51625A",
"& 	c #7E8272",
"* 	c #8E9C90",
"= 	c #509864",
"- 	c #5E9652",
"; 	c #6E9963",
"> 	c #517F56",
", 	c #3E6232",
"' 	c #22432C",
") 	c #122E29",
"! 	c #8C9096",
"~ 	c #7FB478",
"{ 	c #91C57D",
"] 	c #92B878",
"^ 	c #81AA6B",
"/ 	c #658F5C",
"( 	c #021A12",
"_ 	c #929290",
": 	c #A2AEAE",
"< 	c #72BE82",
"[ 	c #A0D498",
"} 	c #AFD696",
"| 	c #9FC785",
"1 	c #729E62",
"2 	c #2E523E",
"3 	c #0F2B43",
"4 	c #02162E",
"5 	c #B0AFB2",
"6 	c #D0C6BA",
"7 	c #52AC81",
"8 	c #92CEA2",
"9 	c #A4DCA1",
"0 	c #B2DFA1",
"a 	c #92C296",
"b 	c #72A177",
"c 	c #508682",
"d 	c #3C6869",
"e 	c #205E72",
"f 	c #021232",
"g 	c #6B6A7F",
"h 	c #3D8E6C",
"i 	c #61B392",
"j 	c #90D69A",
"k 	c #B2E69E",
"l 	c #B0E8AF",
"m 	c #9ED6AE",
"n 	c #6EABA3",
"o 	c #3E777A",
"p 	c #20577C",
"q 	c #12467E",
"r 	c #022652",
"s 	c #0C2E5C",
"t 	c #C2C4C2",
"u 	c #6BBB99",
"v 	c #91DAAA",
"w 	c #92DEA8",
"x 	c #A0E1B1",
"y 	c #80B79C",
"z 	c #5E9D9E",
"A 	c #41889C",
"B 	c #2E6B9E",
"C 	c #12486E",
"D 	c #063186",
"E 	c #022368",
"F 	c #5E9280",
"G 	c #38866A",
"H 	c #80C2A4",
"I 	c #8ED3AE",
"J 	c #4F929F",
"K 	c #3F8197",
"L 	c #1B589B",
"M 	c #728E82",
"N 	c #2E7A5F",
"O 	c #51A484",
"P 	c #60AB90",
"Q 	c #6EB599",
"R 	c #72B4A0",
"S 	c #529BA3",
"T 	c #2F75A0",
"U 	c #2267A9",
"V 	c #1453B6",
"W 	c #0E43AF",
"X 	c #7E8E92",
"Y 	c #21635B",
"Z 	c #509291",
"` 	c #1E5EB0",
" .	c #0E4AAE",
"..	c #022289",
"+.	c #425E8E",
"@.	c #BEBCBE",
"#.	c #215658",
"$.	c #327878",
"%.	c #D1D1D2",
"&.	c #DEE6CE",
"*.	c #687672",
"=.	c #023E32",
"-.	c #125688",
";.	c #425E92",
">.	c #022A2E",
",.	c #124642",
"'.	c #204753",
").	c #124660",
"!.	c #0A3E8A",
"~.	c #324A8E",
"{.	c #929EBE",
"].	c #D1D6D4",
"^.	c #5A5E76",
"/.	c #9FA3A0",
"(.	c #929692",
"_.	c #12364E",
":.	c #12323F",
"<.	c #DBD4EE",
"[.	c #6E9E7E",
"}.	c #67A771",
"|.	c #325E3E",
"1.	c #5E6870",
"2.	c #6E8E7E",
"3.	c #3E4B56",
"4.	c #92A29A",
"5.	c #5E8A6B",
"6.	c #82C482",
"7.	c #AEDA92",
"8.	c #9ECA92",
"9.	c #427460",
"0.	c #C2CECE",
"a.	c #BEE9AA",
"b.	c #5E9472",
"c.	c #2E564F",
"d.	c #727A80",
"e.	c #88CEA0",
"f.	c #A2E9B1",
"g.	c #82B688",
"h.	c #4E8278",
"i.	c #2E6262",
"j.	c #103A4E",
"k.	c #6EA689",
"l.	c #BEF2B4",
"m.	c #B1F3BA",
"n.	c #346D86",
"o.	c #124E9E",
"p.	c #72C59D",
"q.	c #B1EEBE",
"r.	c #8EC4A0",
"s.	c #9B5D63",
"t.	c #CE3E3E",
"u.	c #C2322E",
"v.	c #B12F31",
"w.	c #A22C2E",
"x.	c #922C30",
"y.	c #8E5F61",
"z.	c #B2A292",
"A.	c #92E2AE",
"B.	c #4E8F7F",
"C.	c #4E868E",
"D.	c #CF5E5A",
"E.	c #984E58",
"F.	c #9E6E72",
"G.	c #9F777F",
"H.	c #832E32",
"I.	c #988888",
"J.	c #81CAA7",
"K.	c #62AAA3",
"L.	c #629E92",
"M.	c #E3625D",
"N.	c #BE4E52",
"O.	c #A88A88",
"P.	c #CECAAE",
"Q.	c #BEB0C0",
"R.	c #BEA6B6",
"S.	c #824E52",
"T.	c #862022",
"U.	c #629090",
"V.	c #CA7D77",
"W.	c #C25252",
"X.	c #B1B2D6",
"Y.	c #E2F0FE",
"Z.	c #FEFEFE",
"`.	c #FEFAD2",
" +	c #CEAE8E",
".+	c #F2E2D2",
"++	c #CBCACE",
"@+	c #993C40",
"#+	c #327D9A",
"$+	c #F3F6F2",
"%+	c #AE9692",
"&+	c #625E72",
"*+	c #9FA5CC",
"=+	c #EEE9F1",
"-+	c #BEC6DE",
";+	c #3A8280",
">+	c #E07A78",
",+	c #BE7A86",
"'+	c #FEFAFD",
")+	c #B29A82",
"!+	c #EFDDE9",
"~+	c #C2DEFE",
"{+	c #62A29E",
"]+	c #CE98A8",
"^+	c #F1F1F3",
"/+	c #D1E2FE",
"(+	c #E24E4E",
"_+	c #0F3F92",
":+	c #7EC28E",
"<+	c #CD474B",
"[+	c #CAA6A3",
"}+	c #F8FEEE",
"|+	c #F2E6CE",
"1+	c #CEBDB7",
"2+	c #827262",
"3+	c #DEE7FE",
"4+	c #BEB0D2",
"5+	c #0E4AA2",
"6+	c #509C84",
"7+	c #524E52",
"8+	c #FEF1FE",
"9+	c #42967E",
"0+	c #5FA28D",
"a+	c #EEEEE2",
"b+	c #CECEEE",
"c+	c #CE9EBE",
"d+	c #526E92",
"e+	c #569B92",
"f+	c #E2DEF2",
"g+	c #E2DFFE",
"h+	c #C2C6F2",
"i+	c #E29E9E",
"j+	c #60789A",
"k+	c #DED0E0",
"l+	c #BED2FE",
"m+	c #508672",
"n+	c #418A8E",
"o+	c #BECEEE",
"p+	c #D5D5F6",
"q+	c #AEBEEE",
"r+	c #C2829E",
"s+	c #D89488",
"t+	c #326E92",
"u+	c #927672",
"v+	c #C23E32",
"w+	c #C25E5E",
"                                                                            ",
"                            . + @ # $ % & .                                 ",
"                          * = - ; - > , ' ) !                               ",
"                        + = ~ { ] ^ / # , ' ( _                             ",
"                      : = < [ } | ] 1 @ , 2 3 4 5                           ",
"                    6 = 7 8 9 0 } a b c d e ' f g                           ",
"                    : h i j k l m a n c o p q r s t                         ",
"                    + h u v w x 8 y z A B p C D E 5                         ",
"                    F G i H I 8 H n J K B L q D E 5                         ",
"                    M N O P Q R i S A T U V W D D .                         ",
"                    X Y G Z S S J A T U ` V  ...+.@.                        ",
"                    5 #.Y N N $.$.B U ` V  .W .._ %.                        ",
"                    &.*.=.#.e e e p -.V  .W ..;..                           ",
"                      t 2 >.,.'.).C q !.D ..~.{.].                          ",
"                        . % >.>.s r r r ..^./.%.                            ",
"                          (.2 ' _.:.s s 3 *.@.&.                            ",
"                      <.* [.}.1 - @ # $ |.2 1.5                             ",
"                    %.2.O ~ { | ] ^ ; > $ 2 ) 3._ %.                        ",
"                  4.5.7 6.9 7.8.| ^ ; 5.9.$ #.) 3 % *                       ",
"              0.2.^ 6.6.j k a.} | ^ b b.> d c.'.3 3 '.d.                    ",
"            5 [.{ k j e.f.a.a.0 | g.b 5.h.9.i.'.:.3 j._.1.].                ",
"          : k.j l.a.e.j m.l.a.0 8.~ [.F h.o n.#.'.3 _.o.:.1.                ",
"          }.f.l.l.j p.w q.l.l.7.r.y k.F c o i.+.s.t.u.v.w.x.y.z.            ",
"          j m.m.I u p.A.m.l.l 9 r.~ z B.C.o d.D.t.E.F.G.G.E.H.H.I.          ",
"          f.f.J.K.7 p.A.q.q.l m r.n L.Z K X M.N.O.0.&.P._ Q.R.S.T./.        ",
"          x H S A 7 p.w A.l x 8 y k.z B.U.V.W.X.Y.Z.`. +g Q..+++E.@+.       ",
"          u J T #+O p.v x x m r.y K.z J O.D.R.$+Z.Z.`.%+&+*+<.=+-+v.O.      ",
"          S B L ;+7 u e.v I I H n z J A >+,+<.Z.Z.Z.'+)+^.*+<.!+~+,+W.].    ",
"          T o.-.G 7 u J.I I H Q n {+J A M.]+^+Z.Z.Z.Z.)+&+X.=+!+/+R.(+%.    ",
"          L _+Y h O i u J.J.:+n z S J A <+[+}+|+6 1+6 2+3.X.^+!+3+4+M.%.    ",
"          5+!.Y h 6+i p.:+H R K.z J A K <+[+}+.+I.&+&+7+3.X.8+8+3+4+>+%.    ",
"          W !.Y G 9+O P Q u n 0+Z J K #+<+,+a+|+1+/.*+5 X.b+^+8+/+c+]+].    ",
"          o.d+9.N h O P i 0+P e+J A K #+s.@+++.+!+<.<.f+g+g+=+Y.h+i+z.      ",
"          ++]./.N G = e+P L.6+B.A K #+#+j+@+s.].g+k+b+b+<.<.3+l+]+[+t       ",
"                : m+h = 6+6+Z n+A K T T T g T.y.X.o+b+b+p+~+q+r+s+5         ",
"                  ++4.F B.B.m+;+o o t+t+B B g x.x.y._ {.{.F.D.V.5           ",
"                        ].%.%.%.%.%.%.%.%.b+%.5 u+@+w.@+v+w+%+6             ",
"                                                                            "};
