/* XPM */
static char * dbusy_xpm[] = {
"38 38 256 2",
"  	c None",
". 	c #330000",
"+ 	c #320005",
"@ 	c #380002",
"# 	c #300407",
"$ 	c #3C0100",
"% 	c #30050F",
"& 	c #410003",
"* 	c #440000",
"= 	c #2D0A13",
"- 	c #2D0B1A",
"; 	c #3C0804",
"> 	c #430601",
", 	c #500200",
"' 	c #2A1020",
") 	c #291125",
"! 	c #580002",
"~ 	c #4E0503",
"{ 	c #5A0200",
"] 	c #5E0000",
"^ 	c #371113",
"/ 	c #27162C",
"( 	c #361609",
"_ 	c #291925",
": 	c #271933",
"< 	c #6D0000",
"[ 	c #271C31",
"} 	c #2F1831",
"| 	c #35162C",
"1 	c #401710",
"2 	c #261E36",
"3 	c #750002",
"4 	c #760000",
"5 	c #252033",
"6 	c #3D162B",
"7 	c #3D1C0F",
"8 	c #5B0E09",
"9 	c #7D0000",
"0 	c #810000",
"a 	c #551124",
"b 	c #2D2236",
"c 	c #2F213B",
"d 	c #242834",
"e 	c #600E21",
"f 	c #5B1120",
"g 	c #880001",
"h 	c #292734",
"i 	c #2B2639",
"j 	c #680C20",
"k 	c #63101E",
"l 	c #8F0000",
"m 	c #2A2B33",
"n 	c #720B1C",
"o 	c #6B0F1D",
"p 	c #7C0A11",
"q 	c #740D18",
"r 	c #840614",
"s 	c #980000",
"t 	c #6D111F",
"u 	c #8E040E",
"v 	c #7C0B1B",
"w 	c #7D0C17",
"x 	c #342B3B",
"y 	c #970112",
"z 	c #A00001",
"A 	c #302E3C",
"B 	c #3C3012",
"C 	c #322D41",
"D 	c #2E323E",
"E 	c #A40200",
"F 	c #A3010B",
"G 	c #AB0000",
"H 	c #283A2F",
"I 	c #42311D",
"J 	c #343B12",
"K 	c #AE0002",
"L 	c #AF0200",
"M 	c #3C3046",
"N 	c #B70000",
"O 	c #B80008",
"P 	c #2F3D38",
"Q 	c #4D3329",
"R 	c #C20000",
"S 	c #BC0502",
"T 	c #294735",
"U 	c #C60200",
"V 	c #43374D",
"W 	c #CC0002",
"X 	c #383F46",
"Y 	c #D00000",
"Z 	c #3F3C4B",
"` 	c #294C33",
" .	c #C70409",
"..	c #BD090C",
"+.	c #3C4143",
"@.	c #812423",
"#.	c #494227",
"$.	c #20562F",
"%.	c #DA0001",
"&.	c #404149",
"*.	c #3A4545",
"=.	c #DD0000",
"-.	c #354B44",
";.	c #E60000",
">.	c #4B3F55",
",.	c #D30711",
"'.	c #384E3C",
").	c #484257",
"!.	c #3D4C47",
"~.	c #EA0300",
"{.	c #424D4E",
"].	c #8C2F31",
"^.	c #335B3B",
"/.	c #E10D08",
"(.	c #27662B",
"_.	c #4F4C5B",
":.	c #3B5C45",
"<.	c #544B5C",
"[.	c #CF181F",
"}.	c #D8141C",
"|.	c #BF2024",
"1.	c #46574E",
"2.	c #4C5450",
"3.	c #7C3F3E",
"4.	c #B2292B",
"5.	c #8E3B3B",
"6.	c #A23331",
"7.	c #F11614",
"8.	c #5D5364",
"9.	c #516536",
"0.	c #D0292E",
"a.	c #625869",
"b.	c #EF1F1F",
"c.	c #4D685A",
"d.	c #5B6062",
"e.	c #3F7741",
"f.	c #5F6741",
"g.	c #615E6E",
"h.	c #576660",
"i.	c #1C8F2A",
"j.	c #4B7351",
"k.	c #DF2E30",
"l.	c #695F70",
"m.	c #249124",
"n.	c #4D7939",
"o.	c #BA4347",
"p.	c #51755A",
"q.	c #686575",
"r.	c #686972",
"s.	c #606F69",
"t.	c #6F6577",
"u.	c #597964",
"v.	c #587D5C",
"w.	c #617966",
"x.	c #C64C4A",
"y.	c #27A424",
"z.	c #766C7E",
"A.	c #3F9345",
"B.	c #726F7E",
"C.	c #3C9742",
"D.	c #D74847",
"E.	c #5E8266",
"F.	c #B9575A",
"G.	c #7A7082",
"H.	c #26AD23",
"I.	c #6C8157",
"J.	c #5B8960",
"K.	c #3F9F3A",
"L.	c #777682",
"M.	c #ED4642",
"N.	c #27B02F",
"O.	c #36A93B",
"P.	c #638A6B",
"Q.	c #4F9A4C",
"R.	c #B96567",
"S.	c #39B132",
"T.	c #B36969",
"U.	c #5D9954",
"V.	c #C7625F",
"W.	c #4AA943",
"X.	c #728B77",
"Y.	c #EC5455",
"Z.	c #3AB53D",
"`.	c #57A45C",
" +	c #3EB840",
".+	c #DD6162",
"++	c #44B546",
"@+	c #D96C6B",
"#+	c #4BBB4C",
"$+	c #76A069",
"%+	c #62AC67",
"&+	c #78A076",
"*+	c #5BB55D",
"=+	c #D47574",
"-+	c #58BF57",
";+	c #78A97B",
">+	c #82A482",
",+	c #57C260",
"'+	c #75AF75",
")+	c #8D9F8C",
"!+	c #87A589",
"~+	c #E27B7C",
"{+	c #ED7778",
"]+	c #62C261",
"^+	c #D88483",
"/+	c #64C564",
"(+	c #EC7C7A",
"_+	c #63C76C",
":+	c #78C07D",
"<+	c #6EC86E",
"[+	c #ED8586",
"}+	c #76C479",
"|+	c #EC8A88",
"1+	c #93B692",
"2+	c #FA8585",
"3+	c #89BE8B",
"4+	c #84C381",
"5+	c #78CC79",
"6+	c #EE8E91",
"7+	c #ABADA9",
"8+	c #F68D8D",
"9+	c #82CD7C",
"0+	c #9BBC93",
"a+	c #EB9493",
"b+	c #F4928F",
"c+	c #8DC88C",
"d+	c #85CD89",
"e+	c #82D185",
"f+	c #8DCD8A",
"g+	c #F79699",
"h+	c #8CD287",
"i+	c #B5B7B4",
"j+	c #F79C9C",
"k+	c #8CD590",
"l+	c #A6C79D",
"m+	c #F5A19F",
"n+	c #96D793",
"o+	c #BCBEBB",
"p+	c #95D99B",
"q+	c #9DD89C",
"r+	c #A9D2A6",
"s+	c #A4D5A7",
"t+	c #A0DB9F",
"u+	c #B0D0B3",
"v+	c #9EDCA6",
"w+	c #C6C8C5",
"x+	c #A8DEA9",
"y+	c #B3D7B3",
"z+	c #B1DFAB",
"A+	c #B0E2B4",
"B+	c #CFD1CE",
"C+	c #BAE3B7",
"D+	c #B9E6BF",
"E+	c #D4D6D3",
"F+	c #C2E6C1",
"G+	c #E0DFE0",
"                              : : : : : : :                                 ",
"                          : : : {.w.E.p.!.2 : :                             ",
"                        : : {.3+t+x+t+n+e+%+-.: :                           ",
"                      : : c.v+A+A+z+x+x+x+n+<+:.: :                         ",
"                      : &.q+A+A+A+x+x+v+t+p+n+]+P :                         ",
"                    : : ;+z+A+x+x+x+t+t+q+n+k+_+A.: :                       ",
"                    : A q+z+z+x+x+q+q+q+h+5+-+#+ +m :                       ",
"                    : {.q+x+x+k+5+<+]+,+-+#+#+++Z.T :                       ",
"                    : 1.p+x+p+<+_+]+-+-+#+#+ +Z.S.` :                       ",
"                    : +.n+t+e+_+/+-+-+#+#+++Z.S.S.H :                       ",
"                    : 2 :+p+<+]+-+-+#+#+ +Z.S.S.y.2 :                       ",
"                      : j.<+]+-+-+#+#+ + +S.S.H.(.:                         ",
"                      : [ `.-+-+-+#+++Z.S.N.H.m.5 :                         ",
"                        : h Q.-+#+ +Z.S.S.N.i.d :                           ",
"                        : : 2 ^.C.Z.S.N.i.$.) ' = . .                       ",
"                      : : c C : : 5 d 5 ) % . . . . . . . . .               ",
"                    : 2 s.r+C+)+d.Z x ^ . ; 3.T.^+^+=+F.].~ . .             ",
"                  : c !+C+F+D+D+A+0+1 . 3.a+j+a+a+|+|+~+(+@+6.* . .         ",
"                : b 1+F+F+D+C+C+l+1 ; T.m+j+b+[+Y.k.}. .[.0.x.x.8 . .       ",
"              : : !+F+F+F+y+C+A+Q . R.j+j+b+Y./.=.%.Y Y U U R S |.! .       ",
"            : : h.C+F+u+r.>+p+I.. 5.j+b+2+b.;.=.=.%.%.Y U U U S N G $ .     ",
"            : C s+F+D+_.: &+f+7 $ 6+b+2+b.;.;.;.=.%.Y Y W U R S N L 9 .     ",
"          : : X.A+C+>+: i f+$+. 5.j+8+b.~.;.;.;.%.%.Y Y U U U S N N G $ .   ",
"          : x q+t+p+2.: c.k+f.. V.b+M.;.;.;.;.=.%.%.Y Y U U R N N L G { .   ",
"          : w.q+p+c+2 : '+e+#.@ (+(+%...F y r v n t o o n v r u s K G 3 .   ",
"        : : 3+p+n+P.: +.e+9+I * (+D.6 c >.8.l.z.G.B.B.t.l.8.).M : f G 0 .   ",
"        : X n+n+k+{.: v.9+5+I * {+4.c G+G+G+B+B+w+o+o+i+i+7+7+7+L.| G 0 .   ",
"        : u.n+h+4+2 : :+5+5+#.@ .+ .} V <.a.l.q.l.q.g.g.8.<.).M c a G 3 .   ",
"      : : ;+k+h+P.: *.5+5+5+9.. o.Y O u w n j e f f f f k o q p 0 E G { .   ",
"      : 2 d+e+e+2.: v.5+<+<+U.. @.W W W W W U U U R U S N N L K G G E $ .   ",
"      : &.e+9+:+2 : '+<+<+]+<+7 $ S U U U U U U R R S N N K K G G G 4 .     ",
"      : 1.e+5+J.: 2 <+<+]+]+]+n.. < U R R R R U S N N N N K G G G z $ .     ",
"      : A *.A 2 : D <+]+]+]+-+-+B . l S S S S N N N L L K G G G E ~ .       ",
"      : : : : : : i ]+]+]+-+-+#+W.( @ 0 N N N N L L L K G G G z , . #       ",
"                : : :.*+-+-+-+#+#+K.( . ] E L L L K G G G G 0 & . =         ",
"                  : : b '.e.A.W.++ +W.J . . ! 9 s s s g < * . .             ",
"                      : : : : : [ 5 h h _ # . . . . . . . . .               ",
"                            : : : : : : : : / - % # .                       "};
