/* XPM */
static char * dhidden_xpm[] = {
"38 38 250 2",
"  	c None",
". 	c #261933",
"+ 	c #261A33",
"@ 	c #281C34",
"# 	c #261F32",
"$ 	c #291D35",
"% 	c #291E35",
"& 	c #291E36",
"* 	c #281F35",
"= 	c #291F36",
"- 	c #272233",
"; 	c #2C2239",
"> 	c #2E263A",
", 	c #283532",
"' 	c #342D40",
") 	c #30343B",
"! 	c #393A44",
"~ 	c #24492D",
"{ 	c #373C41",
"] 	c #32423C",
"^ 	c #3B4046",
"/ 	c #25502D",
"( 	c #284E31",
"_ 	c #3F4249",
": 	c #3A4743",
"< 	c #324E3B",
"[ 	c #44454E",
"} 	c #41484A",
"| 	c #45464F",
"1 	c #275D2E",
"2 	c #434B4D",
"3 	c #474A51",
"4 	c #305C37",
"5 	c #41504A",
"6 	c #25642C",
"7 	c #464D4F",
"8 	c #44504D",
"9 	c #27662D",
"0 	c #3D5745",
"a 	c #495452",
"b 	c #4A5752",
"c 	c #4F5658",
"d 	c #455F4D",
"e 	c #4E5B56",
"f 	c #386D3F",
"g 	c #525B5A",
"h 	c #317936",
"i 	c #55615D",
"j 	c #4A6B51",
"k 	c #516659",
"l 	c #596361",
"m 	c #55675D",
"n 	c #3E7944",
"o 	c #556A5D",
"p 	c #576C5F",
"q 	c #586F5F",
"r 	c #477E4C",
"s 	c #56745C",
"t 	c #5D7264",
"u 	c #5F7166",
"v 	c #58765F",
"w 	c #57795D",
"x 	c #25A026",
"y 	c #617667",
"z 	c #58845D",
"A 	c #6B7972",
"B 	c #4E8F52",
"C 	c #28AD28",
"D 	c #608765",
"E 	c #2AAE2A",
"F 	c #2CAE2C",
"G 	c #4B9A4E",
"H 	c #3DA43F",
"I 	c #2EAF2E",
"J 	c #30AE30",
"K 	c #36AA37",
"L 	c #30B030",
"M 	c #32B132",
"N 	c #33B133",
"O 	c #34B134",
"P 	c #798180",
"Q 	c #36B236",
"R 	c #76867C",
"S 	c #38B338",
"T 	c #39B339",
"U 	c #66946A",
"V 	c #629766",
"W 	c #3AB43A",
"X 	c #4DA74F",
"Y 	c #3CB43C",
"Z 	c #66976A",
"` 	c #3DB53D",
" .	c #3EB53E",
"..	c #3FB63F",
"+.	c #768F7B",
"@.	c #41B641",
"#.	c #41B741",
"$.	c #48B349",
"%.	c #43B743",
"&.	c #44B744",
"*.	c #58AA5A",
"=.	c #45B845",
"-.	c #68A06C",
";.	c #47B947",
">.	c #55AF57",
",.	c #7F9284",
"'.	c #49B949",
").	c #4BBA4B",
"!.	c #4CBB4C",
"~.	c #4DBB4D",
"{.	c #6CA76F",
"].	c #4FBC4F",
"^.	c #6DA76F",
"/.	c #51BC51",
"(.	c #52BD52",
"_.	c #53BD53",
":.	c #55BE55",
"<.	c #56BE56",
"[.	c #73AA75",
"}.	c #57BF57",
"|.	c #58BF58",
"1.	c #59BF59",
"2.	c #59C059",
"3.	c #5BC05B",
"4.	c #5CC15C",
"5.	c #65BB66",
"6.	c #70B472",
"7.	c #5EC15E",
"8.	c #5EC25E",
"9.	c #5FC25F",
"0.	c #75B377",
"a.	c #60C260",
"b.	c #61C261",
"c.	c #61C361",
"d.	c #62C362",
"e.	c #63C363",
"f.	c #64C464",
"g.	c #65C465",
"h.	c #66C466",
"i.	c #6EBF6F",
"j.	c #66C566",
"k.	c #68C468",
"l.	c #67C567",
"m.	c #68C568",
"n.	c #69C669",
"o.	c #6AC66A",
"p.	c #6BC66B",
"q.	c #8FAD92",
"r.	c #70C470",
"s.	c #6CC76C",
"t.	c #6DC76D",
"u.	c #6EC76E",
"v.	c #7CBD7E",
"w.	c #90AF93",
"x.	c #6EC86E",
"y.	c #6FC86F",
"z.	c #70C870",
"A.	c #81BC83",
"B.	c #71C871",
"C.	c #71C971",
"D.	c #72C972",
"E.	c #73CA73",
"F.	c #7DC37E",
"G.	c #74CA74",
"H.	c #75CA75",
"I.	c #76CB76",
"J.	c #77CB77",
"K.	c #78CB78",
"L.	c #82C483",
"M.	c #78CC78",
"N.	c #79CC79",
"O.	c #7ACC7A",
"P.	c #7BCC7B",
"Q.	c #7BCD7B",
"R.	c #7CCD7C",
"S.	c #7DCD7D",
"T.	c #7FCD7F",
"U.	c #7ECE7E",
"V.	c #7FCE7F",
"W.	c #80CE80",
"X.	c #81CF81",
"Y.	c #82CF82",
"Z.	c #83CF83",
"`.	c #89CB8A",
" +	c #84D084",
".+	c #93C694",
"++	c #85D085",
"@+	c #88CE89",
"#+	c #86D186",
"$+	c #88D188",
"%+	c #88D288",
"&+	c #89D289",
"*+	c #8BD38B",
"=+	c #9FC5A1",
"-+	c #8CD38C",
";+	c #8ED38E",
">+	c #8ED48E",
",+	c #90D390",
"'+	c #8FD48F",
")+	c #90D490",
"!+	c #91D491",
"~+	c #91D591",
"{+	c #92D592",
"]+	c #93D593",
"^+	c #95D695",
"/+	c #96D696",
"(+	c #96D796",
"_+	c #98D699",
":+	c #97D797",
"<+	c #99D899",
"[+	c #9BD89B",
"}+	c #9ED79E",
"|+	c #9CD99C",
"1+	c #9DD99D",
"2+	c #9EDA9E",
"3+	c #9FDA9F",
"4+	c #A1DAA1",
"5+	c #A1DBA1",
"6+	c #A2DBA2",
"7+	c #A4DBA4",
"8+	c #A3DCA3",
"9+	c #A4DCA4",
"0+	c #A5DCA5",
"a+	c #A6DCA6",
"b+	c #A6DDA6",
"c+	c #A7DDA7",
"d+	c #A8DDA8",
"e+	c #B4D5B5",
"f+	c #A9DEA9",
"g+	c #AADEAA",
"h+	c #ADDCAE",
"i+	c #ABDEAB",
"j+	c #ACDFAC",
"k+	c #ADDFAD",
"l+	c #AEE0AE",
"m+	c #B0E0B0",
"n+	c #B3DFB4",
"o+	c #B2E1B2",
"p+	c #B5DFB5",
"q+	c #B3E2B3",
"r+	c #B4E2B4",
"s+	c #B7E3B7",
"t+	c #B8E3B8",
"u+	c #B9E4B9",
"v+	c #BAE4BA",
"w+	c #BDE5BD",
"x+	c #BFE6BF",
"y+	c #C0E6C0",
"z+	c #C2E7C2",
"A+	c #C3E8C3",
"                                                                            ",
"                                                                            ",
"                                                          . . .             ",
"                                                      . . + * + . .         ",
"                                                  . . ^ U F.T.i.B ] . .     ",
"                                                . . q _+d+f+8+1+'+k.f . .   ",
"                                                . e 7+o+j+c+5+[+]+9.=.4 .   ",
"                                              . $ .+q+l+f+9+2+:+m.).@.K - . ",
"                                              . 7 f+m+i+a+5+~+m./.;.` N ( . ",
"                                              . p j+k+c+~+z.a.}.~.%.T L 9 . ",
"                                              . o d+f+2+z.j.4._.'...Q F 6 . ",
"                                              . } 3+b+]+s.d.1.].=.Y M C ~ . ",
"                                              . @ A.6+)+m.8.:.).#.S I x # . ",
"                                                . 5 !+;+f.3./.;. .O E / . . ",
"                                                . . d r.b.}.~.&.W J 1 . 8 s ",
"                                                  . . ) r X $.H h , . g }+)+",
"                                                      . . . . . . ' +.a+4+$+",
"                                                        . c A R q.h+g+0+/+U.",
"                                                      . 3 n+x+u+r+l+d+|+Y.P.",
"                                                    . & =+z+w+s+o+b+^+ +S.J.",
"                                                    . l y+y+v+m+<+-+#+W.O.G.",
"                                                    . w.A+e+,.^+'+&+Z.S.J.B.",
"                                                  . ; p+z+P > ,+*+++V.N.E.t.",
"                                                  . [ u+x+| . `.$+Y.R.I.z.o.",
"                                                  . i t+g+_ . L. +V.M.D.s.j.",
"                                                  . u 0+<+2 . v.X.Q.H.y.n.e.",
"                                                  . y |+(+b . 0.U.K.D.s.h.a.",
"                                                  . t <+]+k . ^.O.G.x.m.d.4.",
"                                                  . m ^+'+v . V J.C.p.g.9.2.",
"                                                  . a {+-+D . z G.u.m.d.4.<.",
"                                                  . ! >+%+Z . j z.o.f.8.1._.",
"                                                  . = @+++{.. : t.l.c.3.:.].",
"                                                    . [.Y.6.. * 5.f.7.|.(.!.",
"                                                    . w -.{ . . 0 *.>.G n < ",
"                                                    . % . .   . . . . . . . ",
"                                                      .                     ",
"                                                                            ",
"                                                                            "};
