/* XPM */
static char * dlunch_xpm[] = {
"38 38 256 2",
"  	c None",
". 	c #271933",
"+ 	c #241C35",
"@ 	c #291B35",
"# 	c #251F32",
"$ 	c #2A1C36",
"% 	c #261E37",
"& 	c #291E32",
"* 	c #282038",
"= 	c #2D1E39",
"- 	c #2B2034",
"; 	c #272235",
"> 	c #242834",
", 	c #2F213C",
"' 	c #2F2338",
") 	c #292734",
"! 	c #2C263A",
"~ 	c #32243F",
"{ 	c #2A2B33",
"] 	c #302B3E",
"^ 	c #372843",
"/ 	c #312C3F",
"( 	c #2C303C",
"_ 	c #302E3C",
": 	c #313239",
"< 	c #3A2B47",
"[ 	c #352F43",
"} 	c #283A2F",
"| 	c #303340",
"1 	c #30373E",
"2 	c #3E2E4A",
"3 	c #3A314B",
"4 	c #2F3D38",
"5 	c #343B41",
"6 	c #363D44",
"7 	c #294735",
"8 	c #403752",
"9 	c #2F443E",
"0 	c #3F3C4A",
"a 	c #294C33",
"b 	c #463950",
"c 	c #3C4143",
"d 	c #3B4349",
"e 	c #20562F",
"f 	c #404149",
"g 	c #3A4545",
"h 	c #354B44",
"i 	c #473E59",
"j 	c #3C4A45",
"k 	c #3A4C41",
"l 	c #384E3C",
"m 	c #4B3E60",
"n 	c #4A415C",
"o 	c #404B4C",
"p 	c #4C425E",
"q 	c #3F4E48",
"r 	c #50435A",
"s 	c #315939",
"t 	c #434E4E",
"u 	c #4F4561",
"v 	c #27662B",
"w 	c #415448",
"x 	c #3B5A46",
"y 	c #4F4C5B",
"z 	c #534965",
"A 	c #564960",
"B 	c #465550",
"C 	c #3B5E44",
"D 	c #45584C",
"E 	c #4C5450",
"F 	c #316935",
"G 	c #564D69",
"H 	c #386A3C",
"I 	c #5E5068",
"J 	c #555D59",
"K 	c #4D685A",
"L 	c #65586F",
"M 	c #54645E",
"N 	c #5B6062",
"O 	c #188D28",
"P 	c #447149",
"Q 	c #3F7741",
"R 	c #6A5C74",
"S 	c #596863",
"T 	c #4B7351",
"U 	c #1F912C",
"V 	c #249124",
"W 	c #6C5E76",
"X 	c #5A6D61",
"Y 	c #51755A",
"Z 	c #6B657B",
"` 	c #70637B",
" .	c #686972",
"..	c #606F69",
"+.	c #527B59",
"@.	c #577762",
"#.	c #716779",
"$.	c #567F5D",
"%.	c #5B7B66",
"&.	c #617966",
"*.	c #27A424",
"=.	c #3F9345",
"-.	c #5E805F",
";.	c #3C9742",
">.	c #7A6C85",
",.	c #5E8266",
"'.	c #26AD23",
").	c #5B8960",
"!.	c #27B02F",
"~.	c #80728B",
"{.	c #6B8370",
"].	c #618A67",
"^.	c #4B9C47",
"/.	c #4F9A4C",
"(.	c #658A6E",
"_.	c #39B132",
":.	c #887A93",
"<.	c #4BA944",
"[.	c #877D8F",
"}.	c #738C78",
"|.	c #3AB53D",
"1.	c #53A657",
"2.	c #57A45C",
"3.	c #8D7F98",
"4.	c #3EB840",
"5.	c #44B546",
"6.	c #759378",
"7.	c #90819A",
"8.	c #8F8597",
"9.	c #60A866",
"0.	c #49B94A",
"a.	c #93849E",
"b.	c #4ABA4B",
"c.	c #94869F",
"d.	c #7D9B80",
"e.	c #4DBD4D",
"f.	c #78A076",
"g.	c #958B9D",
"h.	c #5BB55D",
"i.	c #9889A3",
"j.	c #64B168",
"k.	c #7EA17E",
"l.	c #57BE56",
"m.	c #978FA7",
"n.	c #78A77C",
"o.	c #9C8DA7",
"p.	c #59C158",
"q.	c #85A287",
"r.	c #77AC79",
"s.	c #57C260",
"t.	c #75AF75",
"u.	c #8D9F8C",
"v.	c #9E93A5",
"w.	c #A091AB",
"x.	c #85A885",
"y.	c #62C262",
"z.	c #8AA88C",
"A.	c #A495AF",
"B.	c #64C564",
"C.	c #63C76C",
"D.	c #74BC79",
"E.	c #77BA7E",
"F.	c #7ABA78",
"G.	c #A799B3",
"H.	c #A69BAE",
"I.	c #6DC76D",
"J.	c #6FC96F",
"K.	c #76C479",
"L.	c #A7A0B8",
"M.	c #70CA70",
"N.	c #ABA0B3",
"O.	c #AE9FB9",
"P.	c #93B692",
"Q.	c #7CC581",
"R.	c #B0A1BB",
"S.	c #AEA3B6",
"T.	c #89BE8B",
"U.	c #77CB78",
"V.	c #84C381",
"W.	c #ADA5BD",
"X.	c #7ACE7B",
"Y.	c #B2A7BA",
"Z.	c #81CC7B",
"`.	c #B5A6C0",
" +	c #82CD7C",
".+	c #B5AABD",
"++	c #8DC88C",
"@+	c #85CD89",
"#+	c #82D084",
"$+	c #B8A9C3",
"%+	c #B4ADB9",
"&+	c #84D286",
"*+	c #8DCD8A",
"=+	c #B3B0C1",
"-+	c #B7AFC8",
";+	c #8CD287",
">+	c #B6B3C4",
",+	c #8BD48F",
"'+	c #BDB2C5",
")+	c #8DD691",
"!+	c #BCB8C9",
"~+	c #C1B6C9",
"{+	c #96D693",
"]+	c #98D895",
"^+	c #95D99B",
"/+	c #C1B9D2",
"(+	c #C4B9CC",
"_+	c #C2BBC7",
":+	c #9DD89C",
"<+	c #A9D2A6",
"[+	c #A4D5A7",
"}+	c #C8BDD0",
"|+	c #A0DB9F",
"1+	c #B0D0B3",
"2+	c #C9BED1",
"3+	c #9EDCA6",
"4+	c #CABFD3",
"5+	c #CBC0D4",
"6+	c #CDC1D5",
"7+	c #A7DDA8",
"8+	c #CBC4D0",
"9+	c #C9C5D7",
"0+	c #B3D7B3",
"a+	c #A9DFAA",
"b+	c #CEC7D3",
"c+	c #B1DFAC",
"d+	c #D2C7DA",
"e+	c #D0CAD5",
"f+	c #B0E1B3",
"g+	c #D2CCD8",
"h+	c #B2E3B5",
"i+	c #D1CDDF",
"j+	c #B9E2B5",
"k+	c #D5CEDA",
"l+	c #BDE1BC",
"m+	c #D7D0DC",
"n+	c #BCE5B8",
"o+	c #D5D1E3",
"p+	c #B9E6BF",
"q+	c #D3D4DE",
"r+	c #D9D2DE",
"s+	c #DBD4E0",
"t+	c #D6D7E1",
"u+	c #C3E7C2",
"v+	c #DCD9DE",
"w+	c #DFD8E4",
"x+	c #DFDCE1",
"y+	c #E3DCE8",
"z+	c #E1DFE3",
"A+	c #E2E0E4",
"B+	c #E5E2E6",
"C+	c #E2E3ED",
"D+	c #E9E2EE",
"E+	c #E4E5EF",
"F+	c #EAE3EF",
"G+	c #E9E6EB",
"                              . . . . . . .                                 ",
"                          . . @ t &.,.Y j + . .                             ",
"                        . . t T.|+7+|+]+&+j.h . .                           ",
"                      . . M 3+f+f+c+a+7+7+{+I.C . .                         ",
"                      . f :+h+f+f+a+7+3+|+^+{+y.4 .                         ",
"                    . . n.c+f+a+a+7+|+|+:+{+)+I.=.. .                       ",
"                    . _ :+c+a+7+7+:+:+:+;+U.l.b.4.{ .                       ",
"                    . t :+a+7+)+M.I.y.s.l.b.b.5.|.7 .                       ",
"                    . B ^+7+^+J.C.y.l.l.b.b.4.|._.a .                       ",
"                    . c {+|+#+C.y.l.l.b.b.5.|._._.} .                       ",
"                    . % Q.^+I.y.l.l.b.b.4.|._._.*.+ .                       ",
"                      . T M.y.l.l.b.b.4.4._._.'.v .                         ",
"                      . - 2.l.l.l.b.5.|._.!.'.V # .                         ",
"                        . ) /.l.b.4.|._._.!.O > .                           ",
"                        . . + s ;.|._.!.U e & . .                           ",
"                      . . * [ . . # > # . . ] + . . . .                     ",
"                    . + ..<+j+u.N 0 [ 0 J }.X ! . . . . . . . .             ",
"                  . ' z.n+u+p+n+j+f+c+a+d.' . z :.W./+(+R.:.z @ .           ",
"                . ' P.u+u+p+n+j+h+f+c+{.. 8 G.m+y+C+r+4+-+`.W.i.b . .       ",
"              . @ q.u+u+l+0+p+f+c+a+6.. z 5+G+G+w+6+2+4+5+5+~+R.G.z .       ",
"            . . S n+u+1+ .x.^+{+,+E.- b 4+G+F+d+}+2+4+5+9+8+8+8+S.A.n .     ",
"            . / [+u+p+y . f.{+,+&+D * R.C+C+6+}+2+4+5+6+6+!+b+e+e+N.i., .   ",
"          . . }.h+h+k.. ! *+;+;+F.+ R d+E+d+(+2+4+5+6+8+8.8.e+e+k+8+o.L .   ",
"          . / :+|+^+E . K ,+&+#+$.. G.y+i+2+r I .+6+8+=+~ _+k+k+m+r+S.7.@ . ",
"          . &.:+^+++& . t.&+ + +B ^ /+s+2+2+Y.3 * ` ~+r r e+k+m+r+v+_+i.2 . ",
"        . . T.^+{+(.. f #+ +Z.U.5 n 5+4+2+4+5+'+b @ , ~ [.k+m+r+t+w+k+c.r . ",
"        . d {+{+,+o . -. +X.U.M.( z /+/+4+5+6+9+(+r m = %+m+r+t+v+x+s+7.u . ",
"        . %.{+,+V.& @ D.U.U.U.I.1 n $+~+5+6+8+8+9+8+Z #.e+r+t+v+x+z+r+7.r . ",
"      . . r.,+;+].. g U.U.U.I.I.k < `.'+9+9+b+9+e+k+k+m+r+s+w+x+A+B+8+7.3 . ",
"      . * @+&+#+E . +.U.J.I.C.C.P . w.`.9+b+b+e+k+k+m+r+t+v+x+A+B+G+S.:.@ . ",
"      . f &+#+Q.% . 9.J.I.y.y.y.1.. W R.(+9+e+k+k+m+r+t+t+t+A+B+G+v+v.L .   ",
"      . D #+X.).. + I.I.y.y.y.l.l.9 , w.O.8+e+k+m+r+t+v+x+A+B+G+G+H.v.~ .   ",
"      . _ g : % . ( C.y.y.y.p.l.l.^.. p G.L.b+m+r+t+w+x+C+B+G+G+N.H.A .     ",
"      . . . . . . ! y.y.y.l.l.e.b.b.H . I w.A.!+v+v+x+A+B+G+e+m.H.L . .     ",
"                . . x h.l.l.l.b.b.0.4.s . p a.o.w.S.>+>+Y.m.m.g.r . .       ",
"                  . . - l Q =.<.5.4.4.|.F + = A ~.c.a.7.7.>.z , . .         ",
"                      . . . . . & ; ) ) ; . . . . $ ^ ' $ . . .             ",
"                            . . . . . . . . . . . . . . .                   "};
