/* XPM */
static char * doffline_xpm[] = {
"38 38 256 2",
"  	c None",
". 	c #271933",
"+ 	c #281A34",
"@ 	c #2F1831",
"# 	c #291B35",
"$ 	c #2D1935",
"% 	c #2A1B36",
"& 	c #301932",
"* 	c #2B1C37",
"= 	c #2D1C32",
"- 	c #311A32",
"; 	c #2E1D33",
"> 	c #321B33",
", 	c #3A1B31",
"' 	c #3B1B32",
") 	c #2F203B",
"! 	c #30213C",
"~ 	c #361F38",
"{ 	c #3D1D34",
"] 	c #332238",
"^ 	c #461E33",
"/ 	c #3B243D",
"( 	c #422239",
"_ 	c #38273E",
": 	c #3D253F",
"< 	c #43233A",
"[ 	c #551D2F",
"} 	c #5B1B2D",
"| 	c #512135",
"1 	c #402841",
"2 	c #522235",
"3 	c #621B30",
"4 	c #43293E",
"5 	c #48273F",
"6 	c #3E2C43",
"7 	c #651D2D",
"8 	c #562539",
"9 	c #632233",
"0 	c #751B2A",
"a 	c #682034",
"b 	c #532A3F",
"c 	c #4F2E46",
"d 	c #6C2332",
"e 	c #4D3247",
"f 	c #7A202E",
"g 	c #543044",
"h 	c #891C2A",
"i 	c #4B3649",
"j 	c #523445",
"k 	c #5A3046",
"l 	c #543647",
"m 	c #623043",
"n 	c #682E40",
"o 	c #931D2A",
"p 	c #6F2D3D",
"q 	c #603445",
"r 	c #702E3E",
"s 	c #872435",
"t 	c #96202C",
"u 	c #832835",
"v 	c #7C2B3D",
"w 	c #5D384C",
"x 	c #633748",
"y 	c #A51C2D",
"z 	c #5E3A4E",
"A 	c #7E2D3E",
"B 	c #63394F",
"C 	c #773444",
"D 	c #613D50",
"E 	c #9C2630",
"F 	c #7D3346",
"G 	c #6A3D4E",
"H 	c #803543",
"I 	c #67404F",
"J 	c #5B4559",
"K 	c #703D50",
"L 	c #B6222B",
"M 	c #C0222A",
"N 	c #803D4C",
"O 	c #863B48",
"P 	c #A42F3C",
"Q 	c #CA2124",
"R 	c #C02431",
"S 	c #D31F28",
"T 	c #A13542",
"U 	c #DD1D20",
"V 	c #B72E34",
"W 	c #734B5A",
"X 	c #CD262C",
"Y 	c #9F3A42",
"Z 	c #7F4957",
"` 	c #7A4C5D",
" .	c #715163",
"..	c #EA2027",
"+.	c #924552",
"@.	c #884A56",
"#.	c #EB2228",
"$.	c #7C5463",
"%.	c #F72220",
"&.	c #DE2D2F",
"*.	c #914C5B",
"=.	c #F82428",
"-.	c #E72B33",
";.	c #F92629",
">.	c #9B4D5A",
",.	c #C53C44",
"'.	c #D43738",
").	c #8E555E",
"!.	c #CC3B41",
"~.	c #F32C2D",
"{.	c #C73E45",
"].	c #835A6A",
"^.	c #F42E2E",
"/.	c #766270",
"(.	c #F52F2F",
"_.	c #C94147",
":.	c #D03E44",
"<.	c #925862",
"[.	c #9E555F",
"}.	c #F73130",
"|.	c #925A68",
"1.	c #BF4851",
"2.	c #F03534",
"3.	c #F83231",
"4.	c #9E5866",
"5.	c #EB3B38",
"6.	c #F93438",
"7.	c #AC555F",
"8.	c #CA4950",
"9.	c #B95157",
"0.	c #FA3639",
"a.	c #F53B3D",
"b.	c #F63C38",
"c.	c #AA5B67",
"d.	c #E24649",
"e.	c #F73E3F",
"f.	c #A75F6E",
"g.	c #F93F40",
"h.	c #CB535A",
"i.	c #FA4041",
"j.	c #F34444",
"k.	c #F94147",
"l.	c #E84C4D",
"m.	c #E24F52",
"n.	c #D15758",
"o.	c #F74747",
"p.	c #E45053",
"q.	c #A56A74",
"r.	c #F84948",
"s.	c #CD5B5E",
"t.	c #F94A49",
"u.	c #FB4B4A",
"v.	c #FA4B50",
"w.	c #F85150",
"x.	c #EB5758",
"y.	c #D26169",
"z.	c #F95251",
"A.	c #FA5452",
"B.	c #FA5458",
"C.	c #B1757E",
"D.	c #F75959",
"E.	c #BE7175",
"F.	c #DE6369",
"G.	c #F85A59",
"H.	c #D4696D",
"I.	c #FA5B5A",
"J.	c #E86468",
"K.	c #FA5D61",
"L.	c #BD777E",
"M.	c #F66161",
"N.	c #F76262",
"O.	c #CA757C",
"P.	c #C6787C",
"Q.	c #F96363",
"R.	c #F36667",
"S.	c #FA6464",
"T.	c #D27578",
"U.	c #EE696D",
"V.	c #FB6565",
"W.	c #B88188",
"X.	c #EA6D6C",
"Y.	c #B2848F",
"Z.	c #F86A6B",
"`.	c #C18286",
" +	c #F96B6C",
".+	c #BC858C",
"++	c #F56E6C",
"@+	c #FA6C6D",
"#+	c #E57675",
"$+	c #FB6D6E",
"%+	c #F9726F",
"&+	c #ED7779",
"*+	c #FA7370",
"=+	c #F97375",
"-+	c #FA7476",
";+	c #FB7577",
">+	c #F97978",
",+	c #E88181",
"'+	c #FA7A79",
")+	c #ED7F82",
"!+	c #DC868C",
"~+	c #FB7B7A",
"{+	c #FC7C7B",
"]+	c #CC9294",
"^+	c #E0898F",
"/+	c #FD7E7C",
"(+	c #F88081",
"_+	c #F98283",
":+	c #FB8384",
"<+	c #FC8485",
"[+	c #EB8B8F",
"}+	c #F6878A",
"|+	c #F98885",
"1+	c #F38B8B",
"2+	c #FA8986",
"3+	c #FB8A87",
"4+	c #FB8B8E",
"5+	c #F88F8F",
"6+	c #FA9191",
"7+	c #FD9393",
"8+	c #F79699",
"9+	c #FA9794",
"0+	c #FB9895",
"a+	c #FC9996",
"b+	c #F69C9C",
"c+	c #FC9A9D",
"d+	c #F79D9D",
"e+	c #FD9B9E",
"f+	c #F99E9E",
"g+	c #FA9F9F",
"h+	c #FBA0A0",
"i+	c #ECA7A5",
"j+	c #F0A5A5",
"k+	c #F9A4A2",
"l+	c #FDA2A2",
"m+	c #FAA5A3",
"n+	c #FEA3A3",
"o+	c #FBA6A4",
"p+	c #E3B0B5",
"q+	c #FCA8A5",
"r+	c #FDA9A6",
"s+	c #FDAAAD",
"t+	c #F9ADAE",
"u+	c #FBAEAF",
"v+	c #EFB3B5",
"w+	c #FCAFB0",
"x+	c #FDB1B1",
"y+	c #F9B4B2",
"z+	c #F8B4B8",
"A+	c #FBB5B3",
"B+	c #FDB7B5",
"C+	c #FFB9B7",
"D+	c #F9BCBE",
"E+	c #FBBEBF",
"F+	c #FEC1C3",
"G+	c #FAC4C3",
"                              . . . . . . .                                 ",
"                          . . # z |.4.*.q . . .                             ",
"                        . . D !+h+m+l+8+|+F.m . .                           ",
"                      . . ` h+A+A+u+u+o+k+0+++F . .                         ",
"                      . g f+A+w+u+s+s+n+h+c+9+M.8 .                         ",
"                    . . P.w+u+u+r+o+l+h+c+9+6+ +{.. .                       ",
"                    . : d+u+u+o+l+c+g+c+4+=+B.r.e.{ .                       ",
"                    . B g+r+o+6+=+Z.Q.K.G.w.r.j.e.9 .                       ",
"                    . G c+k+c+%+Z.Q.G.G.w.r.i.e.0.d .                       ",
"                    . g 9+g+:+Z.Q.G.B.w.r.j.e.0.}.[ .                       ",
"                    . % )+a+$+Q.G.G.w.r.i.e.0.^.#.@ .                       ",
"                      . +.-+Q.G.B.w.r.i.b.0.}.;.o .                         ",
"                      . * n.G.B.w.r.j.e.0.}.;.S - .                         ",
"                        . ~ 8.w.r.i.e.0.}.;.Q ' .                           ",
"                        . . . v !.a.0.^.X f $ . .                           ",
"                      . . ] 1 . . - ' - . . / * . .                         ",
"                    . . ].i+A+Y. .i 6 e  .C.8+,+@.* . .                     ",
"                  . ] .+E+G+E+E+B+w+u+s+o+l+g+2+(+H.5 . .                   ",
"                . ) ]+F+G+E+C+B+A+w+r+o+k+e+2+(+~+;+X.b . .                 ",
"              . # W.G+F+D+v+z+w+s+r+o+h+6+_+~+>+;+%+@+J.( .                 ",
"            . . $.D+G+p+/.`.a+6+4+3+|+:+/+(+>+=+U.N 9.S.n.. .               ",
"            . _ j+F+E+J . E.6+4+2+<+:+{+~+;+*+$+s.. ( M.G.H .               ",
"          . . q.A+A+L.. ] 1+4+2+<+/+~+~+-+%+%+ +R.~ . 1.G.m.- .             ",
"          . _ b+g+a+I . Z 4+|+:+(+~+>+-+%+@+Z.V.N.O . r A.w.A .             ",
"          . |.e+8+[+= . T.<+_+(+~+;+=+$+ +Z.S.N.N.m.# = l.v.:.. .           ",
"        . . ^+8+7+f.. g <+/+{+~+-+*+%+ +Z.Q.N.G.G.A.p . T r.i.( .           ",
"        . j 9+6+5+B . [.(+~+>+-+%+@+Z.S.Q.G.G.G.A.w._.. 2 e.e.u .           ",
"        . <.6+4+,+% . #+>+>+=+$+@+Z.S.N.G.G.G.A.w.t.r.| . '.0.V . .         ",
"      . . O.4+2+c.. k ~+;+=+$+ +V.Q.N.G.G.B.w.v.r.r.i.P . s 0.-.. .         ",
"      . * }+2+:+B . >.-+%+@+Z.V.Q.K.G.B.A.w.t.r.r.i.e.5.- ' ^.^.' .         ",
"      . g |+:+&+* . H.%+@+Z.S.N.G.G.G.A.w.t.r.k.e.e.b.0.a . L ;.} .         ",
"      . K _+{+7.. % ++ +V.Q.N.G.G.B.w.w.r.r.r.e.e.0.3.}.E . 7 %.0 .         ",
"      . 4 k 5 % . <  +V.Q.K.G.G.B.w.t.r.k.i.e.b.0.3.}.;.M . . U h .         ",
"      . . . . . . ~ R.N.G.G.B.B.w.t.r.k.e.e.b.0.3.^.;.;.y . . @ - .         ",
"                . . C x.G.A.A.v.r.r.i.e.e.b.3.}.^.~...o . . . . . .         ",
"                  . . - n Y {.d.j.i.e.b.b.2.&.M t 9 $ . .                   ",
"                      . . . . . = - ' ' - $ . . . . .                       ",
"                            . . . . . . . . . .                             "};
