/* XPM */
static char * donline_xpm[] = {
"38 38 256 2",
"  	c None",
". 	c #271933",
"+ 	c #241C34",
"@ 	c #281A34",
"# 	c #241C35",
"$ 	c #291B35",
"% 	c #251D36",
"& 	c #2A1B36",
"* 	c #281D31",
"= 	c #261E37",
"- 	c #252032",
"; 	c #271F38",
"> 	c #2A1F33",
", 	c #2B1F34",
"' 	c #272235",
") 	c #232733",
"! 	c #292634",
"~ 	c #2E2337",
"{ 	c #2F2338",
"] 	c #252934",
"^ 	c #2B2639",
"/ 	c #2A2835",
"( 	c #2A2B33",
"_ 	c #293037",
": 	c #312B3F",
"< 	c #2E2F37",
"[ 	c #2C303C",
"} 	c #302E3C",
"| 	c #352F43",
"1 	c #283A2F",
"2 	c #303340",
"3 	c #363044",
"4 	c #2D3738",
"5 	c #2C3A35",
"6 	c #283E2D",
"7 	c #34353D",
"8 	c #254330",
"9 	c #2F3D38",
"0 	c #29432C",
"a 	c #333E3E",
"b 	c #363D44",
"c 	c #2A4835",
"d 	c #234F2A",
"e 	c #3F3C4A",
"f 	c #294C33",
"g 	c #3C4143",
"h 	c #3B4349",
"i 	c #20562F",
"j 	c #404149",
"k 	c #3A4545",
"l 	c #195D29",
"m 	c #354B44",
"n 	c #3C4A45",
"o 	c #384E3C",
"p 	c #33513E",
"q 	c #34523F",
"r 	c #404B4C",
"s 	c #3F4E48",
"t 	c #424D4E",
"u 	c #256429",
"v 	c #434E4F",
"w 	c #2D5F32",
"x 	c #345B3B",
"y 	c #315E37",
"z 	c #27662B",
"A 	c #3B5A46",
"B 	c #4F4C5B",
"C 	c #29682D",
"D 	c #465550",
"E 	c #3B5E44",
"F 	c #45584C",
"G 	c #4C5450",
"H 	c #3F5F40",
"I 	c #296F2C",
"J 	c #257228",
"K 	c #47634A",
"L 	c #406847",
"M 	c #555D59",
"N 	c #31793B",
"O 	c #2B7F2C",
"P 	c #4D685A",
"Q 	c #377841",
"R 	c #54645E",
"S 	c #5B6062",
"T 	c #188D28",
"U 	c #29852A",
"V 	c #3F7741",
"W 	c #2C872C",
"X 	c #318431",
"Y 	c #4F6E5A",
"Z 	c #596863",
"` 	c #4B7351",
" .	c #1F912C",
"..	c #249124",
"+.	c #219821",
"@.	c #51755A",
"#.	c #686972",
"$.	c #606F69",
"%.	c #527B59",
"&.	c #577762",
"*.	c #279E30",
"=.	c #5B7B66",
"-.	c #26A323",
";.	c #617966",
">.	c #3E9244",
",.	c #27A424",
"'.	c #379A3D",
").	c #5E805F",
"!.	c #409446",
"~.	c #3C9742",
"{.	c #23AB20",
"].	c #31A22D",
"^.	c #5E8266",
"/.	c #26AD23",
"(.	c #4B9253",
"_.	c #439849",
":.	c #3F9B45",
"<.	c #23AE2D",
"[.	c #28AE24",
"}.	c #5B8960",
"|.	c #25AF2E",
"1.	c #27B030",
"2.	c #51935A",
"3.	c #618A67",
"4.	c #29B131",
"5.	c #30AD36",
"6.	c #34AD2E",
"7.	c #4F9A4C",
"8.	c #2BB232",
"9.	c #658A6E",
"0.	c #3CAB35",
"a.	c #39B132",
"b.	c #529F57",
"c.	c #3BB233",
"d.	c #728B77",
"e.	c #4BA944",
"f.	c #39B43C",
"g.	c #3CB434",
"h.	c #3AB53D",
"i.	c #3BB63E",
"j.	c #57A45C",
"k.	c #3DB73F",
"l.	c #48B14A",
"m.	c #3EB840",
"n.	c #5CA362",
"o.	c #44B546",
"p.	c #4DAF50",
"q.	c #3FB941",
"r.	c #52AD55",
"s.	c #4BB841",
"t.	c #60A866",
"u.	c #49B94A",
"v.	c #4CB943",
"w.	c #7A987D",
"x.	c #4ABA4B",
"y.	c #4BBB4C",
"z.	c #4DBD4D",
"A.	c #78A076",
"B.	c #4EBE4E",
"C.	c #5BB55D",
"D.	c #64B168",
"E.	c #55BD55",
"F.	c #7EA17E",
"G.	c #6EAD6C",
"H.	c #56BE56",
"I.	c #78A77C",
"J.	c #57BF57",
"K.	c #58C058",
"L.	c #64B866",
"M.	c #85A287",
"N.	c #59C159",
"O.	c #77AC79",
"P.	c #57C260",
"Q.	c #75AF75",
"R.	c #8D9F8C",
"S.	c #60C160",
"T.	c #85A885",
"U.	c #62C261",
"V.	c #69BD6B",
"W.	c #66C067",
"X.	c #63C362",
"Y.	c #6ABE6C",
"Z.	c #8AA88C",
"`.	c #64C463",
" +	c #65C664",
".+	c #63C76C",
"++	c #74BC79",
"@+	c #66C765",
"#+	c #64C86D",
"$+	c #6CC66C",
"%+	c #6DC76D",
"&+	c #6EC86E",
"*+	c #6FC96F",
"=+	c #76C479",
"-+	c #70CA70",
";+	c #71CB71",
">+	c #88BD89",
",+	c #93B692",
"'+	c #80C286",
")+	c #7CC581",
"!+	c #76CA77",
"~+	c #77CB78",
"{+	c #84C381",
"]+	c #78CC79",
"^+	c #8BC08C",
"/+	c #79CD7B",
"(+	c #81CC7B",
"_+	c #7BCF7C",
":+	c #82CD7C",
"<+	c #80CF83",
"[+	c #8DC88C",
"}+	c #85CD89",
"|+	c #81D084",
"1+	c #83D185",
"2+	c #84D286",
"3+	c #8DCD8A",
"4+	c #8BD186",
"5+	c #8CD287",
"6+	c #8AD38E",
"7+	c #8DD388",
"8+	c #8BD48F",
"9+	c #8DD691",
"0+	c #95D592",
"a+	c #96D693",
"b+	c #99D498",
"c+	c #97D794",
"d+	c #95D89B",
"e+	c #98D895",
"f+	c #9BD69A",
"g+	c #96DA9C",
"h+	c #9DD89C",
"i+	c #9ED99D",
"j+	c #A9D2A6",
"k+	c #A4D5A7",
"l+	c #9FDA9E",
"m+	c #9CDBA4",
"n+	c #B0D0B3",
"o+	c #A0DC9F",
"p+	c #9EDDA6",
"q+	c #A1DDA0",
"r+	c #A6DCA7",
"s+	c #A7DEA8",
"t+	c #B3D7B3",
"u+	c #A9DFA9",
"v+	c #AAE0AB",
"w+	c #B1DFAC",
"x+	c #AEE0B2",
"y+	c #B0E1B3",
"z+	c #B6DFB3",
"A+	c #B1E2B4",
"B+	c #B2E3B5",
"C+	c #B9E3B6",
"D+	c #BDE1BC",
"E+	c #BCE5B8",
"F+	c #B9E6BF",
"G+	c #C3E7C2",
"                              . . . . . . .                                 ",
"                          . . & t ;.^.@.n # . .                             ",
"                        . . v >+l+r+l+e+2+D.m . .                           ",
"                      . . R l+A+y+w+v+r+r+c+$+E . .                         ",
"                      . j h+B+y+x+u+r+p+l+g+a+U.a .                         ",
"                    . . I.w+x+v+u+r+q+l+h+c+9+%+>.. .                       ",
"                    . } h+w+w+r+r+h+i+h+7+!+H.x.m.( .                       ",
"                    . v l+u+r+9+-+$+`.P.J.y.x.v.i.c .                       ",
"                    . D g+r+d+*+.+`.N.J.y.x.m.i.a.f .                       ",
"                    . g a+l+1+.+`.N.J.y.x.v.i.a.a.1 .                       ",
"                    . = )+d+&+`.N.J.y.x.m.i.a.a.,.# .                       ",
"                      . ` !+`.N.J.y.x.m.i.a.a./.z .                         ",
"                      . , j.N.J.E.x.v.i.a.1./...- .                         ",
"                        . / b.E.x.m.i.a.a.1.T ) .                           ",
"                        . . # x ~.f.a.1. .i * . .                           ",
"                      . . { | . . - ] - . . : ; . .                         ",
"                    . + $.j+z+R.S e 3 e M w.b+'+Y ; . .                     ",
"                  . { Z.E+G+F+E+B+A+w+v+r+r+l+4+<+G.7 . .                   ",
"                . ~ ,+G+G+F+E+C+B+x+v+r+r+i+2+_+]+~+Y.a . .                 ",
"              . $ M.G+G+D+t+C+y+v+u+r+l+9+1+/+]+!+*+&+L.< .                 ",
"            . . Z E+G+n+#.T.d+0+8+5+2+1+:+/+~+!+Y.K 2.`.b.$ .               ",
"            . : k+G+F+B . A.0+6+2+2+:+_+]+~+-+&+n.. < U.N.H .               ",
"          . . d.B+B+F.. ^ 3+7+5+1+:+/+]+~+*+&+$+W.^ . (.J.p., .             ",
"          . : f+l+d+G . P 6+2+1+:+/+]+!+*+%+.+`.X.L . q H.y.x .             ",
"          . ;.h+d+[+* . Q.2+:+:+]+~+;+&+%+`.`.U. +r.& > e.x.~.. .           ",
"        . . ^+d+a+9.. j 1+:+(+]+~+-+&+#+.+`.P.N.K.H.p . Q v.m._ .           ",
"        . h c+0+8+r . ).:+/+]+!+*+%+.+`.X. +K.J.H.E.7.. 5 k.i.y .           ",
"        . =.0+8+{+* $ ++/+~+!+&+%+`.`.X.P.K.J.E.E.y.u.4 . '.c.X . .         ",
"      . . O.6+5+3.. k ]+~+!+&+%+`.`.U.N.K.H.y.y.x.z.m.Q . w c.].. .         ",
"      . ; }+4+1+G . %.!+*+&+#+$+X. +N.J.H.E.y.x.v.m.i.0.> ! 6.[.] .         ",
"      . j 2+:+)+= . G.*+%+`.`.X.N.K.J.E.y.y.u.q.k.i.i.a.c . O /.6 .         ",
"      . F 1+_+}.. % $+%+`.`.U.N.K.H.y.y.x.v.o.i.c.c.8.1.I . 0 {.d .         ",
"      . } k 7 = . [ $+`.`.U.N.J.H.y.y.x.o.m.i.f.c.a.a.1.W . . +.l .         ",
"      . . . . . . ^ .+X. +K.J.y.y.y.u.q.k.i.i.a.a.1.1./.J . . - - .         ",
"                . . A C.K.J.E.y.x.v.m.k.i.f.8.4.1.1.-.u * . . . . .         ",
"                  . . , o V !.p.o.m.k.i.f.5.*.X C 8 * . .                   ",
"                      . . . . . * - ! ! - * . . . . .                       ",
"                            . . . . . . . . . .                             "};
