/* XPM */
static char *dbrb[]={
"38 38 467 2",
"Qt c None",
"a8 c #1e3217",
"az c #204414",
"#U c #224417",
"a7 c #224516",
"aQ c #234b15",
"ay c #234d16",
"#T c #244618",
"aR c #253e1d",
"dJ c #265d8a",
"ah c #28481d",
"#S c #284a1d",
"a6 c #284f1b",
"#R c #2a4d1f",
"dt c #2a60c0",
"e8 c #2a7345",
"#Q c #2d5021",
"aP c #2e5a1e",
"#P c #2f5324",
"eQ c #2f712e",
"bj c #315945",
"dZ c #326450",
"db c #326eda",
"ax c #335727",
"eh c #346da9",
"ey c #346e32",
"e9 c #367895",
"#5 c #37512e",
"dy c #3768d0",
"e7 c #378b19",
"#K c #384036",
"bi c #3b622d",
"eR c #3b7eb7",
"a9 c #3d3d3d",
"de c #3e3e52",
"bz c #3e653f",
"cI c #3e6989",
"dR c #3e6e2e",
"#4 c #3f5937",
"aO c #3f6134",
"dA c #3f772b",
"ez c #3f85dd",
"bk c #406b7f",
"cX c #406ebd",
"eP c #418d28",
"ag c #425b3a",
"ai c #425e39",
"a5 c #435a3c",
"e6 c #439627",
"#J c #444b42",
"cs c #446d58",
".C c #454545",
"eg c #457933",
"#B c #464646",
"bT c #466b48",
"dh c #467ade",
"a4 c #477636",
".K c #484848",
"dP c #4873c0",
"e5 c #489a2b",
"#F c #494949",
"d8 c #497a38",
"e4 c #498e32",
"#3 c #4a6441",
"#L c #4b5248",
"bo c #4b6290",
"aN c #4c7140",
"ep c #4c7e3b",
"ex c #4c8937",
"d9 c #4d7e3c",
"f. c #4d81c6",
"eO c #4d8f36",
"aA c #4e6348",
"dj c #4e813c",
"aS c #4f4f4f",
"aw c #4f6748",
"e3 c #4f9338",
".U c #505050",
".j c #515151",
"c3 c #5179cf",
"bA c #517aa5",
".s c #525252",
"en c #5285d6",
"bp c #535e70",
"ds c #537f44",
"bh c #538242",
"cP c #538e3f",
".i c #545454",
"eD c #5492ec",
"eN c #54973d",
".D c #555555",
"#6 c #55734c",
"ce c #557da8",
"fb c #5582b9",
"dI c #558345",
"fa c #5583cf",
"dk c #558743",
"ew c #55953e",
"e2 c #55963e",
".B c #565656",
"af c #56704e",
"eG c #568745",
"eW c #5689d1",
"eq c #578945",
"bl c #587ab7",
"dY c #588a47",
"c6 c #589144",
".r c #595959",
"bn c #597ab8",
"ef c #599246",
"eM c #599344",
"#G c #5a5a5a",
"#M c #5a6258",
"cM c #5a7cb8",
"#2 c #5b7552",
"da c #5b844d",
"eH c #5b8f49",
"e. c #5b9049",
"a3 c #5c864d",
"by c #5c884e",
"e1 c #5c904a",
"#C c #5d5d5d",
"e0 c #5d904a",
".T c #5e5e5e",
"d0 c #5e8ae2",
"f# c #5e8ede",
"eZ c #5e914c",
"ev c #5e9849",
"#D c #5f5f5f",
"cd c #5f8852",
".J c #606060",
"dQ c #607757",
"av c #607c56",
"#O c #608055",
"dz c #608254",
"eL c #60964d",
"aM c #617e57",
"cW c #618953",
"bg c #618e52",
"ae c #637f59",
"#1 c #638259",
"c5 c #638e55",
"dB c #639a51",
"#u c #646464",
"#8 c #649852",
"ee c #649b51",
"eu c #649b52",
"er c #649c52",
".h c #656565",
"dv c #666666",
"bJ c #666b74",
"bI c #6683b5",
"cH c #669058",
"eK c #669e53",
".4 c #676767",
"cO c #679259",
"eI c #679f55",
".5 c #686868",
"dl c #689e55",
"dX c #689e56",
"e# c #689f55",
"eJ c #68a055",
".A c #696969",
"a2 c #69915b",
"dH c #699f58",
"bm c #6a8ed6",
"au c #6b8961",
"ck c #6b8fc4",
"## c #6c6c6c",
"bU c #6c9ad2",
"c7 c #6ca35a",
"cA c #6d935f",
"cr c #6d9a5d",
"#0 c #6e8f62",
"al c #6e9760",
"dS c #6ea55c",
".q c #6f6f6f",
"es c #6fa65d",
".k c #707070",
"#l c #727272",
"cw c #727e97",
"d7 c #728b69",
"aL c #729068",
"d5 c #7296de",
"am c #72a95f",
".3 c #737373",
"cl c #739966",
"dr c #73a661",
"#9 c #73a960",
"et c #73aa60",
"ed c #73aa61",
"ad c #749469",
"bS c #749768",
"cQ c #74aa61",
"ea c #74ab62",
"dC c #74ac62",
"#V c #758f6d",
"dW c #75a964",
"cB c #76ac63",
"#I c #777876",
"cm c #77ae64",
"#Z c #789a6c",
"at c #799d6d",
"cL c #7a7a7a",
"di c #7a9771",
"#v c #7b7b7b",
"fi c #7bad6a",
"fh c #7bae6a",
"fj c #7baf69",
"dm c #7bb268",
"bx c #7ca16e",
"b4 c #7ca4e0",
"fg c #7cae6a",
"dG c #7cae6b",
"ec c #7cb369",
".S c #7d7d7d",
"b5 c #7d828e",
"aK c #7da271",
"a1 c #7da470",
"bf c #7da66f",
"b9 c #7da76f",
"d# c #7dab6e",
"dT c #7db46a",
"fc c #7e97b4",
"ct c #7e9ede",
"dV c #7eb16d",
"eb c #7eb56b",
".g c #7f7f7f",
"ff c #7faf6e",
"#m c #808080",
"ac c #80a772",
".f c #818181",
"eo c #81a775",
".z c #828282",
"cc c #82b272",
"#E c #838383",
"d6 c #8398b8",
"eY c #83a478",
"#Y c #83aa76",
".2 c #848484",
"cV c #84b474",
"dU c #84ba72",
".p c #858585",
"as c #85ae77",
"dq c #85b773",
"c8 c #85bc72",
"#. c #868686",
"cG c #86b875",
"dD c #86bc73",
".1 c #878787",
"bR c #87b877",
"dF c #88b977",
"aD c #88be76",
"aJ c #89b37b",
"a0 c #89b878",
"be c #89bb77",
"#w c #8a8a8a",
"ei c #8aa2de",
"d. c #8abd78",
"c. c #8ac077",
".I c #8b8b8b",
"aj c #8b9d86",
"aC c #8bb67c",
"cR c #8bc178",
"#k c #8c8c8c",
"aB c #8cb17f",
"a. c #8cb67d",
"bw c #8cba7b",
"bN c #8cc279",
"#H c #8d8d8d",
"#N c #8d928c",
"ab c #8db77e",
"dp c #8dc27a",
"dn c #8dc37a",
"#b c #8e8e8e",
"cv c #8ea2da",
"dK c #8ea6e2",
"fl c #8ebb7e",
"fk c #8ebd7e",
"dE c #8ec47b",
"#X c #8faf85",
".L c #909090",
"cq c #90c17f",
"#t c #919191",
"fe c #91b186",
"an c #91c57f",
"bu c #91c77f",
".R c #929292",
"bB c #92aae2",
"eF c #92b686",
"#q c #939393",
"#y c #949494",
"#p c #959595",
"bM c #95bf87",
"ar c #95c086",
"cU c #95c983",
".7 c #969696",
"cz c #969e94",
"bH c #96aee2",
"aW c #96c885",
"ba c #96ca83",
"cb c #96ca84",
"c9 c #96cb84",
".0 c #979797",
".e c #989898",
"bQ c #98cb86",
"do c #98cc86",
".9 c #999999",
"aa c #99c589",
"cF c #99cd86",
"aX c #99cd87",
".y c #9a9a9a",
"eA c #9aaede",
".o c #9b9b9b",
"a# c #9bc68b",
".M c #9c9c9c",
"aI c #9cc78d",
"#a c #9d9d9d",
"#h c #9e9e9e",
"em c #9eaad6",
"dc c #9eaed2",
"cp c #9ed18c",
"cS c #9ed28c",
"#g c #9f9f9f",
"c4 c #9fa59d",
"cC c #9fd28c",
"bb c #9fd28d",
"#x c #a0a0a0",
"#n c #a1a1a1",
"eX c #a1a8b7",
"eE c #a1a9b7",
"fm c #a1ca93",
"#A c #a2a2a2",
"cf c #a2b2e2",
"cJ c #a2b6ea",
"#j c #a3a3a3",
"#i c #a4a4a4",
"cx c #a5a5a5",
"aq c #a5d096",
".l c #a6a6a6",
"dO c #a6a6aa",
"bZ c #a6aaa6",
"dg c #a6aabe",
"eC c #a6b2da",
"fd c #a6bb9f",
"ao c #a6d297",
".H c #a7a7a7",
".Z c #a8a8a8",
".t c #a9a9a9",
"cE c #a9db98",
".n c #aaaaaa",
"d1 c #aaaabe",
"bV c #aab6de",
"ap c #aad59c",
"ca c #aadb98",
"aE c #aadb99",
"#r c #ababab",
"bv c #abdd9a",
".m c #acacac",
"bP c #acda9c",
"cT c #acdd9a",
"#c c #adadad",
"fn c #adbea7",
"aH c #add89e",
"cn c #adde9b",
"b3 c #aebade",
".x c #afafaf",
"bO c #afe09e",
"#f c #b0b0b0",
"b8 c #b0b1b0",
"cD c #b0e19f",
"#s c #b1b1b1",
"fo c #b1bbae",
".b c #b2b2b2",
"eS c #b2bade",
"aY c #b2e2a1",
".6 c #b3b3b3",
"#z c #b4b4b4",
"#W c #b4cbab",
".c c #b5b5b5",
"bE c #b6b6be",
"bC c #b6c2ea",
"ak c #b6ccaf",
"aF c #b6e1a7",
".N c #b7b7b7",
"bt c #b7dda9",
".V c #b8b8b8",
"aT c #bababa",
"eV c #bac2e2",
"bG c #bacaee",
"aG c #bae5ab",
"#o c #bbbbbb",
".E c #bcbcbc",
"#7 c #bcceb6",
"aV c #bcdcb0",
".u c #bdbdbd",
"c# c #bdeaae",
"eB c #bebeca",
"bW c #bebece",
"dx c #bec2ce",
"fp c #bec3bc",
"cY c #bec6de",
"co c #beeaae",
"bc c #beebaf",
".w c #bfbfbf",
"aZ c #bfeab0",
".a c #c0c0c0",
"#e c #c1c1c1",
"cu c #c2c2ce",
"eU c #c2c6d2",
"b6 c #c3c3c3",
"bd c #c3eeb4",
"aU c #c4c4c4",
".v c #c5c5c5",
"cN c #c6c6c6",
"b2 c #c6cad2",
"c2 c #c6cae2",
"cy c #c8c8c8",
"fq c #c8cac8",
"#d c #c9c9c9",
".d c #cacaca",
".8 c #cccccc",
"b# c #ccedc0",
".F c #cfcfcf",
"b7 c #d0d0d0",
".# c #d1d1d1",
".G c #d2d2d2",
"dd c #d2d2d6",
".W c #d5d5d5",
".Q c #d6d6d6",
"dL c #d6d6de",
"eT c #d6daea",
"bq c #d7d7d7",
".Y c #d8d8d8",
"bL c #dadada",
"ej c #dedae2",
"bD c #dedaf2",
"cK c #dedede",
"du c #dedee2",
"bF c #dedef2",
"el c #e2dee6",
".O c #e2e2e2",
"d3 c #e2e2e6",
".P c #e3e3e3",
".X c #e5e5e5",
"c1 c #e6e6ea",
"ek c #e6e6ee",
"b. c #e7e7e7",
"dw c #eaeaea",
"bX c #eaeaee",
"d4 c #eaeaf2",
"br c #ebebeb",
"bK c #ececec",
"bs c #eeeeee",
"c0 c #eeeef2",
"dM c #eeeef6",
"d2 c #f2f2f2",
"df c #f2f2f6",
"cg c #f2f2fa",
"b1 c #f6f6f6",
"cj c #f6f6fa",
"ci c #fafafa",
"cZ c #fafafe",
"ch c #fafefa",
"b0 c #fefafa",
"dN c #fefefa",
"bY c #fefefe",
"QtQtQtQtQtQtQtQtQtQtQtQtQtQtQtQtQtQtQtQtQtQtQtQtQtQtQtQtQtQtQtQtQtQtQtQtQtQt",
"QtQtQtQtQtQtQtQtQtQtQtQtQtQtQtQtQtQt.#.a.b.cQtQtQtQtQtQtQtQtQtQtQtQtQtQtQtQt",
"QtQtQtQtQtQtQtQtQtQtQtQtQtQtQtQt.d.e.f.g.h.i.j.kQtQtQtQtQtQtQtQtQtQtQtQtQtQt",
"QtQtQtQtQtQtQtQtQtQtQtQtQtQtQt.c.l.m.n.o.p.q.r.j.sQtQtQtQtQtQtQtQtQtQtQtQtQt",
"QtQtQtQtQtQtQtQtQtQtQtQtQtQt.m.t.u.v.w.x.y.z.A.B.C.DQtQtQtQtQtQtQtQtQtQtQtQt",
"QtQtQtQtQtQtQtQtQtQtQtQtQt.E.t.w.F.G.F.E.H.I.k.J.i.K.LQtQtQtQtQtQtQtQtQtQtQt",
"QtQtQtQtQtQtQtQtQtQtQtQtQt.M.N.F.O.P.Q.w.l.R.S.k.T.U.JQtQtQtQtQtQtQtQtQtQtQt",
"QtQtQtQtQtQtQtQtQtQtQtQtQt.y.V.W.P.X.Y.a.Z.0.1.2.3.4.5.wQtQtQtQtQtQtQtQtQtQt",
"QtQtQtQtQtQtQtQtQtQtQtQt.6.7.N.8.Y.Y.#.u.l.9.o.1#..g###aQtQtQtQtQtQtQtQtQtQt",
"QtQtQtQtQtQtQtQtQtQtQtQt.7#b#c.u#d#d#e#f#g#h#i#j#h#k#l#fQtQtQtQtQtQtQtQtQtQt",
"QtQtQtQtQtQtQtQtQtQtQtQt#j#m.7.n#c#c.H#h.9#n.m#c.n#k.SQtQtQtQtQtQtQtQtQtQtQt",
"QtQtQtQtQtQtQtQtQtQtQtQt#o.5.g.R.R.R#p#q.M#r#s.m.n#t#hQtQtQtQtQtQtQtQtQtQtQt",
"QtQtQtQtQtQtQtQtQtQtQtQtQt#u#u#v#v#v.2#w#x#s#c#r.n#y#zQtQtQtQtQtQtQtQtQtQtQt",
"QtQtQtQtQtQtQtQtQtQtQtQtQt#A#B#C#D#D.q#E#.#x.n#p#q#nQtQtQtQtQtQtQtQtQtQtQtQt",
"QtQtQtQtQtQtQtQtQtQtQtQtQtQt.k#F#G#G#G.k.z#w#H#t#aQtQtQtQtQtQtQtQtQtQtQtQtQt",
"QtQtQtQtQtQtQtQtQtQtQtQtQtQtQt#I#J#K#K#L#M#M#M#NQtQtQtQtQtQtQtQtQtQtQtQtQtQt",
"QtQtQtQtQtQtQtQtQtQtQtQtQtQtQtQt#O#P#Q#R#S#T#U#VQtQtQtQtQtQtQtQtQtQtQtQtQtQt",
"QtQtQtQtQtQtQtQtQtQtQtQtQtQt#W#X#Y#Z#0#1#2#3#4#5#6QtQtQtQtQtQtQtQtQtQtQtQtQt",
"QtQtQtQtQtQtQtQtQtQtQtQt#7#8#9a.a#aaabacadaeafagahaiajQtQtQtQtQtQtQtQtQtQtQt",
"QtQtQtQtQtQtQtQtQtQtQtakalamanaoapaqarasatauavawaxayazaA#aQtQtQtQtQtQtQtQtQt",
"QtQtQtQtQtQtQtQtQtQt.taBaCaDaEaFaGaHaIaJaKaLaMaNaOaPaQaRaS.zQtQtQtQtQtQtQtQt",
"QtQtQtQtQtQtQtQtQtaTaUaVaWaXaYaZaZaHaIa0a1a2a3a4a5a6a7a8a9.U.JQtQtQtQtQtQtQt",
"QtQtQtQtQtQtQtQt.V.Gb.b#babbbcbdaZaHaIbebfbgbhbibjbkblbmbnbobp#uQtQtQtQtQtQt",
"QtQtQtQtQtQtQtaTbqbrbsbtbubvbdbdaZaHaIbwbxbybzbAbBbCbDbEbFbGbHbIbJQtQtQtQtQt",
"QtQtQtQtQtQt#s.GbKb.bLbMbNbObdbdaZbPbQbRbSbTbUbVbWbXbYbZb0b1b2b3b4b5QtQtQtQt",
"QtQtQtQtQt#cb6.Xb.b7b8b9c.bObdbdc#cacbcccdcecfcgchcibY#wbYbYbYcjbVckQtQtQtQt",
"QtQtQtQt.E#zbq.Y.w#jclcmbNcnaYcobvcpcqcrcsctbWbYbYbYbY.zbYbYbYbYcucvcwQtQtQt",
"QtQtQtQtcxcyb7.w#iczcAcBbNcCcDbOcEcFcGcHcIcJcKcjbYbYbYcLbYbYbYcj.GcfcMQtQtQt",
"QtQtQt#s.lcN.acx#ncOcPcQcRcScTcEcpcUcVcWcXcYcjcZcZbYbY.RbYcib1c0c1c2c3QtQtQt",
"QtQtQt.6.naT#j#ac4c5c6c7c8cFbbcpc9d.d#dadbdcddb1cicZbYdeb1cZcjdfdddgdhQtQtQt",
"QtQtQt#i.H.H.y#hdidjdkdldmdndoc9dpdqdrdsdtcfdudfb1cibYc0dvdwcgdfc1dxdyQtQtQt",
"QtQtQt.L#x#p.M#AdzdAdkdBdCdDdEdpdFdGdHdIdJdKdLbXdMcjcjdNbsdOdwdMdubVdPQtQtQt",
"QtQtQt.2#p#p#x#xdQdRdkdBdSdTc8dUdVdWdXdYdZd0d1c1c0d2cgdfb1d3d3d4.bd5d6QtQtQt",
"QtQtQtQt.2#t.y#id7d8d9e.e#eaebecedc7eeefegeheiejekc0c0dfc0c0dMelemenQtQtQtQt",
"QtQtQtQtQtQtQtQtQteoepeqeresedetc7euevewexeyezeAeBd3b1d3dfd4cNeCeDeEQtQtQtQt",
"QtQtQtQtQtQtQtQtQtQteFeGeHeIeJeJeKeLeMeNeOePeQeRcteSeTeUeTeVeieWeXQtQtQtQtQt",
"QtQtQtQtQtQtQtQtQtQtQtQteYeZe0e0e1efe2e3e4e5e6e7e8e9f.f#fafbfcQtQtQtQtQtQtQt",
"QtQtQtQtQtQtQtQtQtQtQtQtQtQtQtfdfefffgfhfifjfkflfmfnfofpfqQtQtQtQtQtQtQtQtQt"};
