/* XPM */
static char *dbusy[]={
"38 38 228 2",
"Qt c None",
".V c #244618",
".U c #2a4a1e",
".T c #2a4e1e",
".S c #2e5224",
".7 c #36522e",
".N c #3a4236",
"#q c #3e6232",
"b# c #3e6e2e",
"a4 c #3e762a",
".6 c #405a38",
"#g c #405e36",
".v c #464646",
".M c #464a42",
".5 c #46623a",
".A c #4a4a4a",
".O c #4a524a",
"be c #4a7a3a",
"bB c #4a8e32",
"bC c #4a9e2e",
"bf c #4e7e3c",
"aY c #4e823e",
"aU c #50923a",
".i c #525252",
"#p c #526a4a",
"aO c #528e3e",
"bD c #52aa32",
".h c #565656",
".8 c #56724e",
"aZ c #568643",
"bn c #568a46",
"br c #56963e",
".p c #5a5a5a",
".P c #5a625a",
".4 c #5a7652",
"bg c #5a8e4a",
"bA c #5a9247",
"bw c #5aa63e",
".z c #5e5e5e",
"bz c #5e924b",
"a5 c #5e9a4a",
".K c #626262",
".R c #627e58",
".3 c #628257",
"bq c #62964e",
"## c #629a52",
"bj c #629e50",
"#r c #64765a",
"aN c #649058",
".g c #666666",
"bp c #669a52",
"bh c #669e53",
"bE c #66ba4a",
".u c #6a6a6a",
"#o c #6a8662",
"a0 c #6a9e56",
"bi c #6aa257",
".j c #6e6e6e",
"aH c #6e9060",
"#k c #6e9662",
"bo c #6ea25a",
"aV c #6fa65e",
".E c #727272",
".2 c #72926a",
".1 c #729a66",
"#a c #72aa61",
".W c #768e6e",
"#f c #76966a",
"aI c #76aa63",
"a6 c #76ae63",
".L c #797a79",
"aX c #7a9672",
"#n c #7a9a6e",
"#K c #7a9e6e",
"av c #7aae6a",
"a1 c #7db26b",
".f c #7e7e7e",
"#B c #7ea272",
"#e c #7ea670",
"ba c #7eaa72",
".o c #828282",
"bm c #82a676",
".0 c #82aa76",
".H c #868686",
"#A c #86b672",
"#u c #86be72",
"#m c #88ae7a",
"#Y c #89ba76",
".y c #8a8a8a",
"#h c #8a9e86",
"#s c #8ab27a",
"#t c #8ab67c",
"a# c #8abe78",
"ai c #8ac278",
".I c #8e8e8e",
".Q c #8e928e",
".Z c #8eae86",
"#b c #8eb67e",
"aJ c #8ec27a",
"#8 c #8ec67a",
"bG c #90b282",
".B c #929292",
"aK c #93be82",
"bk c #94b888",
"#d c #95c285",
"#V c #95ca84",
".e c #969696",
"aG c #969e96",
"#C c #96a692",
".t c #9a9a9a",
"#z c #9ac68a",
"a. c #9aca86",
"#G c #9ace87",
".n c #9e9e9e",
"aT c #9ea69e",
"#c c #9ec68e",
"#W c #9ed28e",
".J c #a2a2a2",
"aj c #a2c696",
".k c #a6a6a6",
"bF c #a6ba9e",
"#l c #a6d296",
".m c #aaaaaa",
"#L c #aabea2",
"a7 c #aac69e",
"#y c #aad69e",
"#v c #aada9a",
"aw c #aade9a",
".l c #aeaeae",
"#J c #aeda9e",
"#9 c #aede9a",
".b c #b2b2b2",
"#H c #b2e2a1",
".c c #b6b6b6",
".Y c #b6caac",
"#j c #b6ceae",
"#7 c #b6deaa",
"#w c #b6e2a6",
".q c #bababa",
".9 c #bac2b6",
"#x c #bae6aa",
"#. c #bcceb4",
".r c #bebebe",
"by c #bec8ac",
"#F c #bed8b4",
"#I c #beeab1",
".a c #c2c2c2",
"#X c #c2eeb6",
"#i c #c3cabf",
".s c #c6c6c6",
"#P c #cabab2",
".d c #cacaca",
"bx c #cad2be",
"#D c #cad2c6",
".X c #cadac2",
"aF c #cebaba",
"au c #cec6ba",
"#S c #cecaca",
".x c #cecece",
"bs c #ced2c2",
"a2 c #cedaca",
"bH c #cee2ca",
"#U c #ceeec2",
"ao c #d2bebe",
"#O c #d2c2b2",
"bc c #d2d2c6",
".# c #d2d2d2",
"bb c #d5ded2",
"bv c #d6968a",
"bt c #d6a696",
"#Q c #d6c2c2",
"#N c #d6d2d2",
".D c #d6d6d6",
"ax c #d6e2d2",
"at c #da7676",
"a8 c #da9286",
"ah c #dab6b6",
"#Z c #dad2ca",
"al c #dad6ca",
".G c #dadada",
"aa c #dec2ba",
"aS c #dec6c6",
"aM c #decaca",
"#R c #decece",
"aP c #ded6ce",
"ay c #dedad2",
".w c #dedede",
".C c #e1e2e1",
"ak c #e1eade",
"#0 c #e29e96",
"b. c #e68686",
"#5 c #e69e96",
".F c #e6e6e6",
"#T c #e6eae4",
"bl c #ea7672",
"#M c #eaeae9",
"#6 c #eeeeee",
"ab c #f06e6c",
"bu c #f07270",
"#E c #f1f2f1",
"aE c #f23232",
"a3 c #f23636",
"bd c #f26262",
"am c #f26662",
"#1 c #f27676",
"az c #f65e5a",
"ag c #f67e7e",
"#4 c #fa7272",
"aR c #fafafa",
"#2 c #fd5e5e",
"aD c #fe0e0e",
"aC c #fe1212",
"aB c #fe1a1a",
"a9 c #fe2222",
"aA c #fe2626",
"ar c #fe2a2a",
"as c #fe2e2e",
"aq c #fe3232",
"an c #fe3636",
"ap c #fe3e3e",
"ad c #fe4242",
"ae c #fe4646",
"ac c #fe4a4a",
"#3 c #fe5656",
"af c #fe5a5a",
"aW c #fed2d2",
"aL c #feeaea",
"aQ c #fefefe",
"QtQtQtQtQtQtQtQtQtQtQtQtQtQtQtQtQtQtQtQtQtQtQtQtQtQtQtQtQtQtQtQtQtQtQtQtQtQt",
"QtQtQtQtQtQtQtQtQtQtQtQtQtQtQtQtQtQt.#.a.b.c.#QtQtQtQtQtQtQtQtQtQtQtQtQtQtQt",
"QtQtQtQtQtQtQtQtQtQtQtQtQtQtQtQt.d.e.f.f.g.h.i.j.#QtQtQtQtQtQtQtQtQtQtQtQtQt",
"QtQtQtQtQtQtQtQtQtQtQtQtQtQtQt.c.k.l.m.n.o.j.p.i.i.qQtQtQtQtQtQtQtQtQtQtQtQt",
"QtQtQtQtQtQtQtQtQtQtQtQtQtQt.l.k.r.s.r.b.t.o.u.h.v.i.wQtQtQtQtQtQtQtQtQtQtQt",
"QtQtQtQtQtQtQtQtQtQtQtQtQt.r.k.a.x.#.x.q.k.y.j.z.i.A.BQtQtQtQtQtQtQtQtQtQtQt",
"QtQtQtQtQtQtQtQtQtQtQtQtQt.n.c.x.C.C.D.r.k.B.f.E.z.i.z.wQtQtQtQtQtQtQtQtQtQt",
"QtQtQtQtQtQtQtQtQtQtQtQt.s.t.c.D.C.F.G.a.m.t.H.o.E.g.u.rQtQtQtQtQtQtQtQtQtQt",
"QtQtQtQtQtQtQtQtQtQtQtQt.b.e.c.x.G.D.#.q.k.t.n.H.H.f.u.nQtQtQtQtQtQtQtQtQtQt",
"QtQtQtQtQtQtQtQtQtQtQtQt.e.I.l.r.s.d.r.b.n.n.J.k.n.y.E.lQtQtQtQtQtQtQtQtQtQt",
"QtQtQtQtQtQtQtQtQtQtQtQt.k.f.e.m.l.l.k.n.t.J.m.l.m.I.f.#QtQtQtQtQtQtQtQtQtQt",
"QtQtQtQtQtQtQtQtQtQtQtQt.q.u.f.B.B.B.e.B.t.m.b.m.m.B.nQtQtQtQtQtQtQtQtQtQtQt",
"QtQtQtQtQtQtQtQtQtQtQtQtQt.K.g.L.L.L.H.y.J.b.l.l.m.e.bQtQtQtQtQtQtQtQtQtQtQt",
"QtQtQtQtQtQtQtQtQtQtQtQtQt.J.v.z.K.z.j.H.H.n.m.B.B.nQtQtQtQtQtQtQtQtQtQtQtQt",
"QtQtQtQtQtQtQtQtQtQtQtQtQtQt.j.v.p.p.p.j.o.y.I.B.nQtQtQtQtQtQtQtQtQtQtQtQtQt",
"QtQtQtQtQtQtQtQtQtQtQtQtQtQtQt.L.M.N.N.O.P.P.P.QQtQtQtQtQtQtQtQtQtQtQtQtQtQt",
"QtQtQtQtQtQtQtQtQtQtQtQtQtQtQtQt.R.S.T.T.U.V.V.WQtQtQtQtQtQtQtQtQtQtQtQtQtQt",
"QtQtQtQtQtQtQtQtQtQtQtQtQt.X.Y.Z.0.1.2.3.4.5.6.7.8.9QtQtQtQtQtQtQtQtQtQtQtQt",
"QtQtQtQtQtQtQtQtQtQtQtQt#.###a#b#c#d#b#e#f.R.8.6.V#g#h#iQtQtQtQtQtQtQtQtQtQt",
"QtQtQtQtQtQtQtQtQtQtQt#j#k#a#d#l#l#l#d#m#n#o.R#p#g#q.5#r.J.DQtQtQtQtQtQtQtQt",
"QtQtQtQtQtQtQtQtQtQt.k#s#t#u#v#w#x#y#z#A#B.W#o#f#C#D#E.D.x.s.sQtQtQtQtQtQtQt",
"QtQtQtQtQtQtQtQtQt.q.s#F#z#G#H#I#I#J#c#t#e#K#L.F#M#N#O#P#Q#R#S.DQtQtQtQtQtQt",
"QtQtQtQtQtQtQtQt.q.##T#U#V#W#I#X#I#J#z#Y#m.Y#T#Z#0#1#2#3#2#4#5#R#NQtQtQtQtQt",
"QtQtQtQtQtQtQt.q.D#M#6#7#8#9#X#X#I#ya.a##j#Maaabacadaeac#3#3afagah.d.FQtQtQt",
"QtQtQtQtQtQt.l.##6.F.G#dai#H#X#X#I#Ja.ajakalamanadaeacac#3#3#3#3abao.#QtQtQt",
"QtQtQtQtQt.l.s.F.F.#.l#eai#9#U#X#I#Ja.#F#M#5apapadaeadaeadapaqarasatauQtQtQt",
"QtQtQtQt.r.b.D.G.r.k.1avaiaw#H#Iaw#W#zaxayazaqanaqaqaAaBaCaCaDaDaDaEaF.GQtQt",
"QtQtQtQt.J.d.#.r.JaGaHaIaJ#W#9#H#v#GaK#MayaLaLaLaLaLaLaLaLaLaLaLaLaLaM.#QtQt",
"QtQtQt.b.k.s.r.k.naNaOaIa##Waw#v#W#VaK#6aPaQaQaQaQaQaQaQaRaQaRaQaRaQaS.#QtQt",
"QtQtQt.b.m.q.k.naTaNaUaV#u#G#W#W#V#u#s.FalaWaWaWaWaWaWaWaWaWaWaWaWaWaS.#QtQt",
"QtQtQt.J.k.k.t.naXaYaZa0a1aJ#V#VaJ#Yava2#ZapaDaDaDaDaDaDaDaDaDaDaDa3ao.wQtQt",
"QtQtQt.B.n.e.t.J.3a4aZa5a6#Y#8aJ#YavaVa7.Ca8aAa9a9a9a9a9a9a9a9a9aAb..#QtQtQt",
"QtQtQt.H.B.e.J.J#rb#aZ##aVa1#u#YavaIa0babbbcamaqaqaqaqaqaqaqaqanbdaS.GQtQtQt",
"QtQtQtQt.H.B.t.JaHbebfbgbha6a1a1aIbibjbjbk.G#Oblacaeaeaeaeaeacabah.DQtQtQtQt",
"QtQtQtQtQtQtQtQtQtbmbfbn##aV#a#abobpbqbrbj#cbbbsbt#4#2#3#2bubv.xayQtQtQtQtQt",
"QtQtQtQtQtQtQtQtQtQt#baZbgbibhbibjbqbrbraUbwaJa2.Gbx#.byby#i.D.wQtQtQtQtQtQt",
"QtQtQtQtQtQtQtQtQtQtQtQt#BbzbgbzbgbAbraUbBbCbDbE#V#Fbb.C.w.w.FQtQtQtQtQtQtQt",
"QtQtQtQtQtQtQtQtQtQtQtQtQtQtQtbFbGava1a1avava##d#7bHQtQtQtQtQtQtQtQtQtQtQtQt"};
