/* XPM */
static char *dhidden[]={
"38 38 136 2",
"Qt c None",
".z c #9eae9a",
".1 c #9eb29a",
"#o c #9eb69a",
".2 c #a2aa9e",
".y c #a2ae9e",
".x c #a2b29e",
".v c #a2b69e",
"#a c #a2ba9a",
"#U c #a2c696",
".w c #a6b2a6",
".0 c #a6b69e",
"#C c #a6c69a",
"#T c #a6ce96",
"#Y c #a6d29a",
"#6 c #a6d696",
".s c #aaaaa6",
".I c #aab6a6",
"## c #aabaa6",
"#D c #aabea6",
"#n c #aac29e",
"#1 c #aac2a2",
"#H c #aac69e",
"#t c #aaca9e",
"#z c #aacaa2",
"#N c #aace9e",
"#S c #aad69a",
"#X c #aada9a",
"#5 c #aade9a",
".n c #aeaeae",
".r c #aeb2ae",
".H c #aebaaa",
"#V c #aebea6",
".3 c #aebeaa",
"#. c #aec2aa",
"#r c #aec6a6",
"#y c #aecaa6",
"#s c #aecea6",
"#M c #aed6a2",
"#4 c #aeda9e",
"#3 c #aedaa2",
"#R c #aede9e",
".i c #b2b2b2",
".Z c #b2baae",
"#h c #b2c6aa",
"#K c #b2caaa",
"ad c #b2cea6",
"aa c #b2ceaa",
"#B c #b2d2aa",
"#Q c #b2d6a2",
"#9 c #b2d6a6",
"ac c #b2daa2",
".h c #b6b6b6",
".t c #b6bab6",
".G c #b6c2b2",
"#m c #b6caae",
"#x c #b6ceaa",
"a# c #b6ceae",
"#G c #b6d2aa",
"#L c #b6d2ae",
".g c #bababa",
"#O c #babeba",
"#J c #bac2b6",
".u c #bac6b6",
"#0 c #bacab6",
"#g c #baceb2",
"#f c #baceb6",
"#2 c #bad2ae",
".K c #bad2b2",
"af c #badeae",
".l c #bebebe",
".Y c #becaba",
".F c #beceb6",
"#q c #bed2b6",
"#w c #bed6b6",
".S c #bed6ba",
".j c #c2c2c2",
"#W c #c2c6c2",
".9 c #c2cebe",
".E c #c2d2be",
"#A c #c2daba",
"#8 c #c2dabe",
"#Z c #c6c6c2",
".f c #c6c6c6",
".X c #c6d2be",
".8 c #c6d6be",
"#v c #c6d6c2",
".L c #c6dabe",
".D c #c6dac2",
"#E c #c6debe",
".e c #cacaca",
"ae c #cad6c6",
".C c #cadac2",
".7 c #cadec2",
".4 c #cae2c2",
"#e c #cae2c6",
".o c #cecece",
".Q c #ced6ca",
"#7 c #ced6ce",
".M c #cedec6",
"ab c #cedeca",
"#P c #cee2c2",
".P c #cee2c6",
".T c #cee6c6",
".d c #d2d2d2",
"#I c #d2d6d2",
"a. c #d2dece",
".W c #d2e2ca",
".O c #d2e6ca",
".N c #d2e6ce",
"#j c #d2eaca",
".m c #d6d6d6",
"#k c #d6eace",
".V c #d6ead2",
".k c #dadada",
".U c #daeed2",
"#d c #daeed6",
"#b c #daf2d2",
".b c #dedede",
".B c #deeada",
"#u c #def2d6",
"#F c #def2da",
".a c #e2e2e2",
".J c #e2eade",
".5 c #e2eede",
".6 c #e2f2da",
"#c c #e2f6da",
"#l c #e2f6de",
".R c #e6e6e2",
".c c #e6e6e6",
".A c #e6eee6",
"#i c #e6f6de",
".# c #eaeaea",
".q c #eeeeee",
".p c #f2f2f2",
"#p c #f6f6f6",
"QtQtQtQtQtQtQtQtQtQtQtQtQtQtQtQtQtQtQtQtQtQtQtQtQtQtQtQtQtQtQtQtQtQtQtQtQtQt",
"QtQtQtQtQtQtQtQtQtQtQtQtQtQtQtQtQtQt.#.a.b.bQtQtQtQtQtQtQtQtQtQtQtQtQtQtQtQt",
"QtQtQtQtQtQtQtQtQtQtQtQtQtQtQtQt.c.d.e.f.g.h.i.jQtQtQtQtQtQtQtQtQtQtQtQtQtQt",
"QtQtQtQtQtQtQtQtQtQtQtQtQtQtQt.b.k.k.k.d.e.l.h.i.iQtQtQtQtQtQtQtQtQtQtQtQtQt",
"QtQtQtQtQtQtQtQtQtQtQtQtQtQt.k.k.a.c.c.b.m.f.l.h.n.hQtQtQtQtQtQtQtQtQtQtQtQt",
"QtQtQtQtQtQtQtQtQtQtQtQtQt.b.k.a.#.#.#.b.m.o.l.g.h.n.oQtQtQtQtQtQtQtQtQtQtQt",
"QtQtQtQtQtQtQtQtQtQtQtQtQt.d.b.#.p.p.q.a.m.o.f.l.h.i.hQtQtQtQtQtQtQtQtQtQtQt",
"QtQtQtQtQtQtQtQtQtQtQtQtQt.d.a.q.p.p.q.c.k.d.e.e.j.g.lQtQtQtQtQtQtQtQtQtQtQt",
"QtQtQtQtQtQtQtQtQtQtQtQt.b.o.b.c.q.q.#.a.k.d.d.e.e.f.l.mQtQtQtQtQtQtQtQtQtQt",
"QtQtQtQtQtQtQtQtQtQtQtQt.d.o.k.a.c.c.a.b.d.d.k.m.m.o.j.kQtQtQtQtQtQtQtQtQtQt",
"QtQtQtQtQtQtQtQtQtQtQtQt.m.f.d.k.b.k.m.m.d.m.k.k.k.e.f.#QtQtQtQtQtQtQtQtQtQt",
"QtQtQtQtQtQtQtQtQtQtQtQt.a.l.f.o.o.d.d.o.m.k.b.k.k.o.mQtQtQtQtQtQtQtQtQtQtQt",
"QtQtQtQtQtQtQtQtQtQtQtQtQt.l.l.f.j.j.e.e.d.b.k.k.k.o.bQtQtQtQtQtQtQtQtQtQtQt",
"QtQtQtQtQtQtQtQtQtQtQtQtQt.m.n.h.g.g.l.e.e.m.k.o.d.mQtQtQtQtQtQtQtQtQtQtQtQt",
"QtQtQtQtQtQtQtQtQtQtQtQtQtQt.j.n.h.g.h.j.f.o.o.o.mQtQtQtQtQtQtQtQtQtQtQtQtQt",
"QtQtQtQtQtQtQtQtQtQtQtQtQtQtQt.f.r.s.s.r.t.t.t.oQtQtQtQtQtQtQtQtQtQtQtQtQtQt",
"QtQtQtQtQtQtQtQtQtQtQtQtQtQtQtQt.u.v.w.x.y.y.zQtQtQtQtQtQtQtQtQtQtQtQtQtQtQt",
"QtQtQtQtQtQtQtQtQtQtQtQtQt.A.B.C.D.E.F.u.G.H.I.w.G.aQtQtQtQtQtQtQtQtQtQtQtQt",
"QtQtQtQtQtQtQtQtQtQtQtQt.J.K.L.M.N.O.P.L.E.u.G.I.y.I.Q.RQtQtQtQtQtQtQtQtQtQt",
"QtQtQtQtQtQtQtQtQtQtQt.B.E.S.T.U.U.V.W.C.X.Y.u.Z.0.1.2.3.dQtQtQtQtQtQtQtQtQt",
"QtQtQtQtQtQtQtQtQtQt.m.C.P.4.U.5.6.U.N.7.8.9.u#.###a.z.y.i.eQtQtQtQtQtQtQtQt",
"QtQtQtQtQtQtQtQtQt.b.c.6.O.O#b#c#c#d.N#e.D#f#g#h.H.0.v.2.i.h.lQtQtQtQtQtQtQt",
"QtQtQtQtQtQtQtQt.a.#.p#i#j#k#l#l#i.U.N.7.8#g#m#h#.#n.v#o.r.j.j.fQtQtQtQtQtQt",
"QtQtQtQtQtQtQt.a.##p#p.6.T#b#l#i.6#d.O.P.C#q#g#r#s#t#a#a.0.j.m.f.dQtQtQtQtQt",
"QtQtQtQtQtQt.b.q#p#p.q.W.P#u#l#i#i.U.O.7#v#w#g#x#y#z#n#a.v.g.m.k.fQtQtQtQtQt",
"QtQtQtQtQt.k.a.p#p.#.k#v.4#b#i#l#c.U#j#e#A.K#B#B#s#y#t#C#D.l.o.k.o.eQtQtQtQt",
"QtQtQtQt.a.b.q.q.a.m.E#E.T#b#c#F#d#j.P.L.S#q#x#G#s#s#t#H#h.l.o.b.b.oQtQtQtQt",
"QtQtQtQt.m.c.#.a.m#I#q#A.4#k#b#u#b#j.P#A#w.K#G#B#s#s#t#t#H#J.j.m.b.m.aQtQtQt",
"QtQtQt.b.k.c.a.k.m#f#K#A.T#j#b.U#k.T#e#A.K#L#x#G#M#M#N#N#t#r#O.o.k.k.kQtQtQt",
"QtQtQt.b.k.b.m.d.m.F#L#w.4#j#k#k.O#P.C.S#w#L#B#B#Q#M#R#S#T#U#V#W.m.k.dQtQtQt",
"QtQtQt.m.k.k.d#I.9#h#m.K.L.4.O#j.T.7.L#q.K#G#G#M#Q#M#R#X#Y#U.H#Z.m.bQtQtQtQt",
"QtQtQt.o.d.o.m.m#0#1#K#q#A.4.T.4.7#E#w#w#2#G#B#Q#3#4#5#5#6#U#n#7QtQtQtQtQtQt",
"QtQtQt.e.d.o.d.m.u#D#K#w#w#E.4.4#8#A.K.K#L#G#9#Q#Q#Q#R#R#5#6#Ua.QtQtQtQtQtQt",
"QtQtQtQt.e.o.m.m.Y#h#ha##w#A#E#A#A#w#w#L#Gaa#M#M#M#4#4#X#X#6#UabQtQtQtQtQtQt",
"QtQtQtQtQtQtQtQtQt.C#h#m.K#w#A#A#w.K.Ka##G#B#Qac#3#5#R#X#X#6#N.BQtQtQtQtQtQt",
"QtQtQtQtQtQtQtQtQtQtab#Ka##w#w#w#w.K#x#Bad#Q#3#M#Q#R#5#5#X#B.WQtQtQtQtQtQtQt",
"QtQtQtQtQtQtQtQtQtQtQtQtae#g#ga#a##L#G#B#s#B#Q#R#4#4#4afQtQtQtQtQtQtQtQtQtQt",
"QtQtQtQtQtQtQtQtQtQtQtQtQtQtQtQt.C.D.L#A.L#E.P.PQtQtQtQtQtQtQtQtQtQtQtQtQtQt"};
