/* XPM */
static char * dhidden_xpm[] = {
"38 38 172 2",
"  	c None",
". 	c #A2AA9E",
"+ 	c #A6D29A",
"@ 	c #D2D2D2",
"# 	c #DAF2D2",
"$ 	c #A2BA9A",
"% 	c #CEE6C6",
"& 	c #B6BAB6",
"* 	c #C2D2BE",
"= 	c #DAEAD2",
"- 	c #EAF2E6",
"; 	c #B6C2B2",
"> 	c #CADAC2",
", 	c #CEDEC6",
"' 	c #C2C2C2",
") 	c #A2C696",
"! 	c #B6D2AA",
"~ 	c #EEF2EE",
"{ 	c #DADADA",
"] 	c #DEEADA",
"^ 	c #AAAAA6",
"/ 	c #BECEB6",
"( 	c #F6FAF6",
"_ 	c #D2DECE",
": 	c #A6CE96",
"< 	c #AADE9A",
"[ 	c #BAC6B6",
"} 	c #E2EEDE",
"| 	c #C2CEBE",
"1 	c #DEDEDE",
"2 	c #BECABA",
"3 	c #AEAEAE",
"4 	c #C2DABA",
"5 	c #AAC29E",
"6 	c #AAD69A",
"7 	c #BAD2AE",
"8 	c #A6BA9E",
"9 	c #CAD6C6",
"0 	c #BED6B6",
"a 	c #B6CAAE",
"b 	c #E2E6DE",
"c 	c #A6B2A6",
"d 	c #AACA9E",
"e 	c #CECECE",
"f 	c #AEB2AE",
"g 	c #DAE2D6",
"h 	c #9EB29A",
"i 	c #AED6A2",
"j 	c #CADEC2",
"k 	c #D2E6CA",
"l 	c #EEF6EA",
"m 	c #B2BAAE",
"n 	c #FAFEFA",
"o 	c #CED6CA",
"p 	c #E2EADE",
"q 	c #AACE9E",
"r 	c #E6EEE6",
"s 	c #AEC2AA",
"t 	c #AEDA9E",
"u 	c #C2C6C2",
"v 	c #D2EACA",
"w 	c #DEF2D6",
"x 	c #BABEBA",
"y 	c #C6DEBE",
"z 	c #B6CEAA",
"A 	c #B6B6B6",
"B 	c #C6CAC6",
"C 	c #D2D6D2",
"D 	c #E2F6DA",
"E 	c #EAEEEA",
"F 	c #BADEAE",
"G 	c #C6DABE",
"H 	c #AEBAAA",
"I 	c #B2CEA6",
"J 	c #CEE2C2",
"K 	c #F2F6EE",
"L 	c #CAE2C2",
"M 	c #C6D6BE",
"N 	c #BACEB2",
"O 	c #AEDE9E",
"P 	c #B2CAAA",
"Q 	c #E2E2E2",
"R 	c #EAEAEA",
"S 	c #D6EACE",
"T 	c #EAF2EA",
"U 	c #BAD2B6",
"V 	c #AEC6A6",
"W 	c #AECEA6",
"X 	c #A6C69A",
"Y 	c #9EB69A",
"Z 	c #9EAE9A",
"` 	c #AABEA6",
" .	c #B2D2AA",
"..	c #D2E2CA",
"+.	c #BABABA",
"@.	c #B2C6AA",
"#.	c #BACAB6",
"$.	c #B2B2AE",
"%.	c #F2F2EE",
"&.	c #FAFAF6",
"*.	c #EEEEEE",
"=.	c #F6F6F6",
"-.	c #DAEED2",
";.	c #E6F6DE",
">.	c #E6E6E2",
",.	c #AADA9A",
"'.	c #A6B69E",
").	c #B2D6A6",
"!.	c #BEBEBE",
"~.	c #B6D2AE",
"{.	c #B2DAA2",
"].	c #A6D696",
"^.	c #B2BEAE",
"/.	c #AEB6AA",
"(.	c #AEBEA6",
"_.	c #AACAA2",
":.	c #A2B29E",
"<.	c #BED2B6",
"[.	c #AABAA6",
"}.	c #AAB6A6",
"|.	c #DAEED6",
"1.	c #C6D2BE",
"2.	c #B2D6A2",
"3.	c #FEFEFA",
"4.	c #C6C6C2",
"5.	c #E2F2DA",
"6.	c #CACACA",
"7.	c #D6D6D6",
"8.	c #EAF6E2",
"9.	c #D2E6CE",
"0.	c #BACAB2",
"a.	c #CAE2C6",
"b.	c #C6DAC2",
"c.	c #BAC2B6",
"d.	c #A2AE9E",
"e.	c #AECAA6",
"f.	c #BED6BA",
"g.	c #BAD2B2",
"h.	c #E6E6E6",
"i.	c #AAC69E",
"j.	c #CEDECA",
"k.	c #DEF2DA",
"l.	c #B6CEAE",
"m.	c #E2F6DE",
"n.	c #BACEB6",
"o.	c #AEDAA2",
"p.	c #B2C2AA",
"q.	c #A2B69E",
"r.	c #CEE6CA",
"s.	c #BECEBA",
"t.	c #C2DABE",
"u.	c #D6EAD2",
"v.	c #F2F2F2",
"w.	c #FAFAFA",
"x.	c #A6B6A2",
"y.	c #FEFEFE",
"z.	c #C6C6C6",
"A.	c #B2B2B2",
"B.	c #C6D6C2",
"C.	c #CEE2C6",
"D.	c #AEC6AA",
"E.	c #DEEADE",
"F.	c #A6CE9A",
"G.	c #AAC2A2",
"H.	c #CADEC6",
"I.	c #B2CEAA",
"J.	c #D2E2CE",
"K.	c #BED2BA",
"L.	c #CED6CE",
"M.	c #F2F6F2",
"N.	c #AEBEAA",
"O.	c #C6D2C2",
"                                                                            ",
"                                y.=.R Q 1 1 R w.                            ",
"                              =.h.@ 6.z.+.A A.' R y.                        ",
"                            =.1 { { { @ 6.!.A A.A.1 y.                      ",
"                          =.{ { Q h.h.1 7.z.!.A 3 A v.                      ",
"                        y.1 { Q R R R 1 7.e !.+.A 3 e w.                    ",
"                        =.@ 1 R v.v.*.Q 7.e z.!.A A.A *.                    ",
"                        h.@ Q *.v.v.*.h.{ @ 6.6.' +.!.h.                    ",
"                        1 e 1 h.*.*.R Q { @ @ 6.6.z.!.7.y.                  ",
"                        @ e { Q h.h.Q 1 @ @ { 7.7.e ' { w.                  ",
"                        7.z.@ { 1 { 7.7.@ 7.{ { { 6.z.R                     ",
"                        Q !.z.e e @ @ e 7.{ 1 { { e 7.=.                    ",
"                        *.!.!.z.' ' 6.6.@ 1 { { { e 1 y.                    ",
"                          7.3 A +.+.!.6.6.7.{ e @ 7.=.                      ",
"                          =.' 3 A +.A ' z.e e e 7.v.                        ",
"                            v.z.f ^ ^ f & & & e *.                          ",
"                            w.r [ q.c :.d.d.Z | ~ n                         ",
"                          r ] > b.* / [ ; H }.c ; Q w.                      ",
"                        p g.G , 9.k C.G * [ ; }.d.}.o >.w.                  ",
"                    *.] * f.% -.-.u...> 1.2 [ m '.h . N.@ *.y.              ",
"                  v.7.> C.L -.} 5.-.9.j M | [ s [.$ Z d.A.6.h.w.            ",
"                v.1 h.5.k k # D D |.9.a.b.n.N @.H '.q.. A.A !.Q w.          ",
"              *.Q R v.;.v S m.m.;.-.9.j M N a @.s 5 q.Y f ' ' z.R y.        ",
"            v.Q R =.=.5.% # m.;.5.|.k C.> <.N V W d $ $ '.' 7.z.@ =.        ",
"          =.1 *.=.=.*...C.w m.;.;.-.k j B.0 N z e._.5 $ q.+.7.{ z.h.y.      ",
"        w.{ Q v.=.R { B.L # ;.m.D -.v a.4 g. . .W e.d X ` !.e { e 6.=.      ",
"      w.Q 1 *.*.Q 7.* y % # D k.|.v C.G f.<.z ! W W d i.@.!.e 1 1 e R       ",
"      =.7.h.R Q 7.C <.4 L S # w # v C.4 0 g.!  .W W d d i.c.' 7.1 7.Q       ",
"      1 { h.Q { 7.n.P 4 % v # -.S % a.4 g.~.z ! i i q q d V x e { { {       ",
"      1 { 1 7.@ 7./ ~.0 L v S S k J > f.0 ~. . .2.i O 6 : ) (.u 7.{ @       ",
"      7.{ { @ C | @.a g.G L k v % j G <.g.! ! i 2.i O ,.+ ) H 4.7.1 Q       ",
"      e @ e 7.7.#.G.P <.4 L % L j y 0 0 7 !  .2.o.t < < ].) 5 L.E *.=.      ",
"      6.@ e @ 7.[ ` P 0 0 y L L t.4 g.g.~.! ).2.2.2.O O < ].) _ w.          ",
"      h.6.e 7.7.2 @.@.l.0 4 y 4 4 0 0 ~.! I.i i i t t ,.,.].) j.n           ",
"      w.*.*.*.v.E > @.a g.0 4 4 0 g.g.l.!  .2.{.o.< O ,.,.].q ] 3.          ",
"                n ~ j.P l.0 0 0 0 g.z  .I 2.o.i 2.O < < ,. ...M.            ",
"                    w.T 9 N N l.l.~.!  .W  .2.O t t t F -.T &.              ",
"                        n ~ b 1 > b.G 4 G y C.C.w - l ( n                   "};
