/* XPM */
static char * dhidden_xpm[] = {
"46 46 432 2",
"  	c None",
". 	c #C8C8C8",
"+ 	c #C7C7C7",
"@ 	c #C3C3C3",
"# 	c #B3B3B3",
"$ 	c #A1A1A1",
"% 	c #979797",
"& 	c #969696",
"* 	c #9B9B9B",
"= 	c #9F9F9F",
"- 	c #B0B0B0",
"; 	c #BABABA",
"> 	c #C6C6C6",
", 	c #C9C9C9",
"' 	c #C5C5C5",
") 	c #7A7A7A",
"! 	c #616161",
"~ 	c #525252",
"{ 	c #4D4D4D",
"] 	c #5D5D5D",
"^ 	c #7B7B7B",
"/ 	c #8F8F8F",
"( 	c #C2C2C2",
"_ 	c #B7B7B7",
": 	c #797979",
"< 	c #7D7D7D",
"[ 	c #ADADAD",
"} 	c #717171",
"| 	c #959595",
"1 	c #828282",
"2 	c #BFBFBF",
"3 	c #A5A5A5",
"4 	c #BBBBBB",
"5 	c #BDBDBD",
"6 	c #7C7C7C",
"7 	c #B4B4B4",
"8 	c #C4C4C4",
"9 	c #8C8C8C",
"0 	c #999999",
"a 	c #C0C0C0",
"b 	c #A9A9A9",
"c 	c #858585",
"d 	c #C1C1C1",
"e 	c #A1A5A9",
"f 	c #677885",
"g 	c #5D707F",
"h 	c #7E7E7E",
"i 	c #B8B8B8",
"j 	c #929292",
"k 	c #BCBCBC",
"l 	c #BEBEBE",
"m 	c #B5B5B5",
"n 	c #808A92",
"o 	c #28455B",
"p 	c #002846",
"q 	c #023D65",
"r 	c #14547E",
"s 	c #15547E",
"t 	c #41586B",
"u 	c #969CA1",
"v 	c #B6B6B6",
"w 	c #818181",
"x 	c #808080",
"y 	c #ACACAC",
"z 	c #9FA2A5",
"A 	c #133650",
"B 	c #00355A",
"C 	c #116397",
"D 	c #227AB3",
"E 	c #207AB4",
"F 	c #0E598A",
"G 	c #002B4A",
"H 	c #2A475C",
"I 	c #848484",
"J 	c #9D9D9D",
"K 	c #B9B9B9",
"L 	c #7A858D",
"M 	c #002A49",
"N 	c #035080",
"O 	c #0F74B4",
"P 	c #1075B5",
"Q 	c #1176B6",
"R 	c #1376B6",
"S 	c #1477B5",
"T 	c #1075B4",
"U 	c #033F66",
"V 	c #9E9E9E",
"W 	c #AAAAAA",
"X 	c #B2B2B2",
"Y 	c #667580",
"Z 	c #002B4B",
"` 	c #013D65",
" .	c #096CAA",
"..	c #0B6EAC",
"+.	c #0C6FAE",
"@.	c #0D71B0",
"#.	c #0E72B2",
"$.	c #0F73B3",
"%.	c #0A6EAC",
"&.	c #6B7984",
"*.	c #AEAEAE",
"=.	c #B1B1B1",
"-.	c #AFAFAF",
";.	c #9A9A9A",
">.	c #79848B",
",.	c #002C4C",
"'.	c #003257",
").	c #02568B",
"!.	c #0666A3",
"~.	c #086AA7",
"{.	c #096CAB",
"].	c #0C6EAD",
"^.	c #0D70AF",
"/.	c #0D71B1",
"(.	c #0869A6",
"_.	c #003357",
":.	c #063150",
"<.	c #9A9C9E",
"[.	c #ABABAB",
"}.	c #8D8D8D",
"|.	c #888888",
"1.	c #A2A2A2",
"2.	c #9C9D9E",
"3.	c #0D3653",
"4.	c #003459",
"5.	c #003F67",
"6.	c #025C95",
"7.	c #0664A0",
"8.	c #0768A5",
"9.	c #096BA9",
"0.	c #0767A5",
"a.	c #0663A0",
"b.	c #025B94",
"c.	c #2B4C63",
"d.	c #A3A3A3",
"e.	c #576B79",
"f.	c #003256",
"g.	c #003D65",
"h.	c #004774",
"i.	c #01578F",
"j.	c #05639E",
"k.	c #0B6EAD",
"l.	c #05629E",
"m.	c #004875",
"n.	c #003B62",
"o.	c #003154",
"p.	c #7F878D",
"q.	c #A6A6A6",
"r.	c #A4A4A4",
"s.	c #878787",
"t.	c #8B8B8B",
"u.	c #20455F",
"v.	c #00385E",
"w.	c #00446F",
"x.	c #004E7F",
"y.	c #096AA8",
"z.	c #0E73B3",
"A.	c #0869A7",
"B.	c #02588F",
"C.	c #004E80",
"D.	c #00355B",
"E.	c #4A6375",
"F.	c #A8A8A8",
"G.	c #A0A0A0",
"H.	c #898989",
"I.	c #8A8A8A",
"J.	c #004069",
"K.	c #004C7C",
"L.	c #01568B",
"M.	c #035F98",
"N.	c #0D72B1",
"O.	c #0A6DAB",
"P.	c #01578C",
"Q.	c #004B7A",
"R.	c #003C64",
"S.	c #2A4D66",
"T.	c #A7A7A7",
"U.	c #00375E",
"V.	c #004571",
"W.	c #005184",
"X.	c #0E72B1",
"Y.	c #1175B5",
"Z.	c #1678B5",
"`.	c #1878B5",
" +	c #096AA9",
".+	c #005082",
"++	c #00426C",
"@+	c #164362",
"#+	c #004877",
"$+	c #035F9A",
"%+	c #086AA8",
"&+	c #1C79B4",
"*+	c #1F79B4",
"=+	c #005387",
"-+	c #004570",
";+	c #224B68",
">+	c #124669",
",+	c #004B7B",
"'+	c #025890",
")+	c #06639F",
"!+	c #2079B4",
"~+	c #237BB3",
"{+	c #247BB3",
"]+	c #277CB2",
"^+	c #257BB2",
"/+	c #1477B6",
"(+	c #01548A",
"_+	c #426277",
":+	c #45667B",
"<+	c #004A79",
"[+	c #025991",
"}+	c #0665A2",
"|+	c #257CB3",
"1+	c #287CB1",
"2+	c #2A7CB1",
"3+	c #1978B5",
"4+	c #0A6CAA",
"5+	c #015489",
"6+	c #004470",
"7+	c #6A7A85",
"8+	c #83888D",
"9+	c #014A79",
"0+	c #0C70AF",
"a+	c #2B7CB1",
"b+	c #2B7DB1",
"c+	c #267CB2",
"d+	c #217AB3",
"e+	c #0F74B3",
"f+	c #005084",
"g+	c #1B5073",
"h+	c #547082",
"i+	c #005083",
"j+	c #035F99",
"k+	c #1B79B4",
"l+	c #237AB3",
"m+	c #01578E",
"n+	c #004878",
"o+	c #79838A",
"p+	c #9C9C9C",
"q+	c #31607F",
"r+	c #1276B6",
"s+	c #004C7D",
"t+	c #496B80",
"u+	c #989898",
"v+	c #939393",
"w+	c #36627F",
"x+	c #01558B",
"y+	c #0666A2",
"z+	c #0C6FAD",
"A+	c #1275B5",
"B+	c #1D79B4",
"C+	c #1175B4",
"D+	c #365D78",
"E+	c #949494",
"F+	c #647884",
"G+	c #05619C",
"H+	c #1577B5",
"I+	c #04629D",
"J+	c #064D7C",
"K+	c #647681",
"L+	c #909090",
"M+	c #556572",
"N+	c #435563",
"O+	c #0D2C43",
"P+	c #002641",
"Q+	c #064671",
"R+	c #0A6DAC",
"S+	c #014F80",
"T+	c #033B61",
"U+	c #00223B",
"V+	c #283F51",
"W+	c #4C5C6A",
"X+	c #7D848A",
"Y+	c #8A8F94",
"Z+	c #2B485E",
"`+	c #002745",
" @	c #003053",
".@	c #08578B",
"+@	c #156FA8",
"@@	c #146A9F",
"#@	c #146598",
"$@	c #146292",
"%@	c #115A88",
"&@	c #0A598B",
"*@	c #095688",
"=@	c #03568B",
"-@	c #02578B",
";@	c #045589",
">@	c #095687",
",@	c #0A5789",
"'@	c #125A88",
")@	c #156293",
"!@	c #14669A",
"~@	c #146AA1",
"{@	c #0E67A0",
"]@	c #03426B",
"^@	c #002746",
"/@	c #173851",
"(@	c #5F6F7C",
"_@	c #8F9396",
":@	c #324E62",
"<@	c #00395F",
"[@	c #06568B",
"}@	c #0D6EAC",
"|@	c #0D6DA9",
"1@	c #0D6AA5",
"2@	c #0D68A2",
"3@	c #0D659D",
"4@	c #0D6299",
"5@	c #0D6196",
"6@	c #0D5F94",
"7@	c #0D5F93",
"8@	c #0D669E",
"9@	c #0D6BA6",
"0@	c #0D6EAA",
"a@	c #0866A2",
"b@	c #033F68",
"c@	c #0D324F",
"d@	c #62717C",
"e@	c #767676",
"f@	c #798289",
"g@	c #002E50",
"h@	c #00365B",
"i@	c #045D96",
"j@	c #0667A4",
"k@	c #0A6CA9",
"l@	c #0B6BA8",
"m@	c #0C6BA9",
"n@	c #0C6AA5",
"o@	c #0B6AA5",
"p@	c #0C69A5",
"q@	c #0C68A3",
"r@	c #0C68A2",
"s@	c #0C6AA6",
"t@	c #0B6BA9",
"u@	c #0A6BA8",
"v@	c #096CA9",
"w@	c #096AA7",
"x@	c #0666A4",
"y@	c #014875",
"z@	c #2D4B61",
"A@	c #919191",
"B@	c #757575",
"C@	c #506372",
"D@	c #002D4C",
"E@	c #003960",
"F@	c #014B7B",
"G@	c #04619C",
"H@	c #05639F",
"I@	c #096DAC",
"J@	c #0C6EAC",
"K@	c #0D6EAD",
"L@	c #0D6FAD",
"M@	c #025D96",
"N@	c #003052",
"O@	c #0D3654",
"P@	c #8D8F90",
"Q@	c #777777",
"R@	c #6A767F",
"S@	c #043252",
"T@	c #003A62",
"U@	c #00436E",
"V@	c #004D7D",
"W@	c #05629D",
"X@	c #04609A",
"Y@	c #01588F",
"Z@	c #00375D",
"`@	c #003254",
" #	c #25475F",
".#	c #284961",
"+#	c #005285",
"@#	c #025B93",
"##	c #0665A1",
"$#	c #004F81",
"%#	c #00416B",
"&#	c #5D666D",
"*#	c #687178",
"=#	c #023559",
"-#	c #00446E",
";#	c #005488",
">#	c #045F9A",
",#	c #0664A1",
"'#	c #0767A4",
")#	c #025C96",
"!#	c #004876",
"~#	c #00416A",
"{#	c #00365C",
"]#	c #27475E",
"^#	c #51697A",
"/#	c #004979",
"(#	c #005287",
"_#	c #025A92",
":#	c #1677B5",
"<#	c #004673",
"[#	c #113D5E",
"}#	c #6D7E8B",
"|#	c #004D7F",
"1#	c #025F99",
"2#	c #005185",
"3#	c #004068",
"4#	c #1F4865",
"5#	c #A5A5A6",
"6#	c #144769",
"7#	c #617482",
"8#	c #567184",
"9#	c #004775",
"0#	c #004978",
"a#	c #07426A",
"b#	c #2F5D7B",
"c#	c #02578F",
"d#	c #1979B4",
"e#	c #1E79B4",
"f#	c #1377B6",
"g#	c #848C93",
"h#	c #207AB3",
"i#	c #01568C",
"j#	c #025A91",
"k#	c #1074B4",
"l#	c #1778B5",
"m#	c #04619B",
"n#	c #0766A2",
"o#	c #0A6CAB",
"p#	c #1173B2",
"q#	c #1475B4",
"r#	c #1676B4",
"s#	c #1174B4",
"t#	c #0E71B1",
"u#	c #035C96",
"v#	c #035E97",
"w#	c #04609B",
"x#	c #04629E",
"y#	c #035D96",
"                                                                                            ",
"      . + + @ # $ % % % % % % % % % % % % % % % % % % % % % % % % % % & * = - ; > , ,       ",
"      . + ' - ) ! ~ ~ ~ ~ ~ ~ ~ ~ ~ ~ ~ ~ ~ ~ ~ ~ ~ ~ ~ ~ ~ ~ ~ ~ ~ ~ ~ { ] ^ / ( , ,       ",
"      + + _ : < [ , , , , , , , , , , , , , , , , , , , , , , , , , , . , - ^ } | ' ,       ",
"      . > % 1 @ , , , , , , , , , , , , , , , , , , , , , , , , , , , + + , 2 3 : 4 ,       ",
"      + 5 6 7 @ , . . . . . . . . . + + > ' 8 @ 8 ' > + + . . . . . . . + . , , 9 0 ,       ",
"      a b c d 8 ( > > > > > > ' @ ( 2 5 e f g g g f e 5 a @ 8 ' > > > @ @ d a ( [ h +       ",
"      i j = k k 2 l l l l 5 k ; m n o p q r s s s r q p t u v ; k 5 l k 2 5 5 i k w k       ",
"      - x y 7 i ; 5 5 5 k ; v z A B C D E E E E E E E E F G H z v 4 k l k i _ i - I y       ",
"      J 6 [ - 7 i K K i m - L M N O P Q Q Q R S Q Q Q Q T O U M L - v i i _ 7 - [ % V       ",
"      & < W [ - m v m X [ Y Z `  ...+.@.#.#.$.$.$.#.#.@.+.%. .` Z &.*.X m 7 =.-.b ;.&       ",
"      9 < 3 b [ =.# - W >.,.'.).!.~.{...].^./././.^.]... .(.!.)._.:.<.[.- - *.[ 3 V }.      ",
"      |.6 1.3 W *.-.W 2.3.4.5.6.7.8.{...^./././././.^...9.0.a.b.5._.c.d.W [ y W 1.$ |.      ",
"      |.: $ 3 W [ [ 3 e.f.g.h.i.j.(.{...^.@./././.@.^.k.9.0.l.i.m.n.o.p.q.[.[.b r.$ s.      ",
"      t.: $ 3 W [ W $ u.v.w.x.i.7.y...^.#.z.O T O z.#.^.%.A.l.B.C.w.D.E.d.b W F.3 G.H.      ",
"      I.: $ 3 [.[ b J 4.J.K.L.M.8.k.N.P Q Q Q Q Q Q Q P @.O.!.M.P.Q.R.S.G.T.b b d.= I.      ",
"      |.: $ 3 [.y T.;.U.V.W.6.7.O.X.Y.S Z.`.`.`.`.`.Z.S T @. +7.b..+++@+V 3 b b $ = I.      ",
"      I.: 1.3 [.W q.;.n.#+L.$+%+@.Y.`.&+*+E E E E E *+&+S T k.8.$+=+-+;+J 3 b b d.G.H.      ",
"      I.: 1.3 [.[.T.;.>+,+'+)+%.Y.`.!+~+{+{+]+]+^+{+{+D &+/+#.9.l.(+V._+V 3 b b d.G.H.      ",
"      I.: 1.3 [.[.F.J :+<+[+}++.S *+~+|+1+2+2+2+2+2+]+{+E 3+O 4+l.5+6+7+= T.b b d.G.H.      ",
"      I.: 1.3 [.[ W = 8+9+i.}+0+S !+{+]+2+a+b+b+b+2+2+c+d+`.e+9.$+f+g+& 1.b W b d.G.H.      ",
"      I.: 1.3 [.[ y 3 ;.h+i+j+ +Y.k+l+c+2+2+b+b+2+2+c+~+&+Y.k.l.m+n+o+p+q.W [.b d.G.H.      ",
"      I.: 1.3 [.[ *.b G.| q+(+l.0+r+&+~+]+2+a+2+2+c+l+&+Y.k.}+[+s+t+u+1.W [ [.b d.G.H.      ",
"      I.: 1.3 [.[ -.y q.V v+w+x+y+z+A+B+~+c+]+]+{+l+&+C+..7.'+s+D+E+G.T.[ [ [.b d.G.H.      ",
"      I.: 1.3 [.[ - [ b d.;./ F+P.G+ .$.H+&+E E &+H+O {.I+L.J+K+L+p+3 W -.*.[.b d.G.H.      ",
"      t.: 1.r.[ [ [ y F.d.M+N+O+P+Q+'+G+(.R+@.@.+.y.7.b.S+T+U+V+W+X+r.b [ y W b 1.$ |.      ",
"      I.: 3 r.[.[.T.Y+Z+`+ @.@+@@@#@$@%@&@*@=@-@;@>@,@'@)@!@~@{@]@^@/@(@3 q.T.3 1.$ t.      ",
"      |.: G.V 3 _@:@G <@[@+.].}@|@1@2@3@4@5@6@7@6@5@4@8@2@9@|@0@].a@b@,.c@d@$ 1.1.= H.      ",
"      |.e@J * f@G g@h@i@j@(.9. .k@l@m@n@o@p@q@r@q@p@o@s@t@u@v@9.w@8.x@y@o.,.z@& ;.;.|.      ",
"      A@B@E+C@D@f.E@F@G@H@x@(. .I@......].J@K@}@K@L@].....%.I@y.x@}+l.M@R.h@N@O@P@9 /       ",
"      J Q@R@S@_.T@U@V@$+W@y+8.9.R+].+.@./.#.#.#.#.#./.^.z+..{.y.x@7.X@Y@V.5.Z@`@ #x u+      ",
"      r.: .#4.R.-+s++#@#l.x@y.O.+.@.#.#.z.O O O O O #.#./.^.k.4+(.##j+x+$##+%#<@f.&#G.      ",
"      [ *#=#T@-#K.;#'+>#,#y.k.^.z.T P P Q Q Q Q Q Q Q Q T O @.+. .'#I+)#L.i+!#~#{#]#F.      ",
"      7 ^#U.++/#(#_#X@!.y.+./.T Q S :#`.`.`.`.`.`.`.`.`.S R Q z.^.{.'#j.6.L.x.<#R.[#*.      ",
"      7 }#n.V.|#m+1#}+ ++.$.Y.:#k+&+*+!+E E E E E E E *+B+k+`.R O @. .x@G@_#2#<+3#4#-       ",
"      v 5#6#<#f+@#)+A.+.$.R `.B+d+~+{+{+{+^+]+]+]+{+{+{+~+d+!+k+R O +.y.)+)#;#Q.J.7#=.      ",
"      K -.8#9#i+b.}+ +@.Q `.*+~+{+c+1+2+2+2+2+2+2+2+2+2+c+{+~+*+`.Q ^. .H@6.2#0#a#b 7       ",
"      k 7 W b#s+c#l.%+^.Y.d#!+~+|+2+2+2+a+b+b+b+b+a+2+2+]+{+~+e#f#O k.8.$+i.s+V.g#- i       ",
"                .+_#l.9.@.r+`.h#~+c+2+2+2+a+b+b+2+2+1+c+~+h#&+R X.k.!.$+i#C.                ",
"                  .+B.W@(.0+T `.!+l+{+]+2+2+2+2+1+]+{+D e#`.Y.^. +7.b.;#,+                  ",
"                        j#l.(.^.k#l#B+E ~+{+{+{+D E &+:#C+@.9.7.b.(+                        ",
"                              m#n#o#@.p#q#r#l#r#q#s#t#k.y.)+u#L.                            ",
"                                      v#w#x#l.l.x#w#y#                                      ",
"                                                                                            ",
"                                                                                            ",
"                                                                                            "};
