/* XPM */
static char *dlunch[]={
"38 38 468 2",
"Qt c None",
"bd c #1e3217",
"aF c #204414",
"#X c #224417",
"bc c #224516",
"aX c #234b15",
"aE c #234d16",
"#W c #244618",
"aY c #253e1d",
"dQ c #265d8a",
"am c #28481d",
"#V c #284a1d",
"bb c #284f1b",
"#U c #2a4d1f",
"dA c #2a60c0",
"fb c #2a7345",
"#T c #2d5021",
"aW c #2e5a1e",
"#S c #2f5324",
"eW c #2f712e",
"bq c #315945",
"d6 c #326450",
"di c #326eda",
"aD c #335727",
"eo c #346da9",
"eF c #346e32",
"fc c #367895",
"#9 c #37512e",
"dF c #3768d0",
"fa c #378b19",
"#M c #384036",
"bp c #3b622d",
"eX c #3b7eb7",
"be c #3d3d3d",
"dl c #3e3e52",
"bG c #3e653f",
"cP c #3e6989",
"dY c #3e6e2e",
"#8 c #3f5937",
"aV c #3f6134",
"dH c #3f772b",
"eG c #3f85dd",
"br c #406b7f",
"c4 c #406ebd",
"eV c #418d28",
"al c #425b3a",
"an c #425e39",
"ba c #435a3c",
"f# c #439627",
"#L c #444b42",
"cz c #446d58",
".D c #454545",
"en c #457933",
"#D c #464646",
"b0 c #466b48",
"do c #467ade",
"b# c #477636",
".L c #484848",
"dW c #4873c0",
"f. c #489a2b",
"#H c #494949",
"ed c #497a38",
"e9 c #498e32",
"#7 c #4a6441",
"#N c #4b5248",
"bv c #4b6290",
"aU c #4c7140",
"ew c #4c7e3b",
"eE c #4c8937",
"ee c #4d7e3c",
"fd c #4d81c6",
"eU c #4d8f36",
"aG c #4e6348",
"dq c #4e813c",
"aZ c #4f4f4f",
"aC c #4f6748",
"e8 c #4f9338",
".V c #505050",
".j c #515151",
"d. c #5179cf",
"bH c #517aa5",
".s c #525252",
"eu c #5285d6",
"bw c #535e70",
"dz c #537f44",
"bo c #538242",
"cW c #538e3f",
".i c #545454",
"eK c #5492ec",
"eT c #54973d",
".E c #555555",
"a. c #55734c",
"cl c #557da8",
"fg c #5582b9",
"dP c #558345",
"ff c #5583cf",
"dr c #558743",
"eD c #55953e",
"e7 c #55963e",
".C c #565656",
"ak c #56704e",
"eM c #568745",
"e2 c #5689d1",
"ex c #578945",
"bs c #587ab7",
"d5 c #588a47",
"db c #589144",
".r c #595959",
"bu c #597ab8",
"em c #599246",
"eS c #599344",
"#I c #5a5a5a",
"#O c #5a6258",
"cT c #5a7cb8",
"#6 c #5b7552",
"dh c #5b844d",
"eN c #5b8f49",
"ef c #5b9049",
"b. c #5c864d",
"bF c #5c884e",
"e6 c #5c904a",
"#E c #5d5d5d",
"e5 c #5d904a",
".U c #5e5e5e",
"d7 c #5e8ae2",
"fe c #5e8ede",
"e4 c #5e914c",
"eC c #5e9849",
"#F c #5f5f5f",
"ck c #5f8852",
".K c #606060",
"dX c #607757",
"aB c #607c56",
"#R c #608055",
"dG c #608254",
"eR c #60964d",
"aT c #617e57",
"c3 c #618953",
"bn c #618e52",
"aj c #637f59",
"#5 c #638259",
"da c #638e55",
"dI c #639a51",
"#w c #646464",
"ab c #649852",
"el c #649b51",
"eB c #649b52",
"ey c #649c52",
".h c #656565",
"dC c #666666",
"bQ c #666b74",
"bP c #6683b5",
"cO c #669058",
"eQ c #669e53",
".7 c #676767",
"cV c #679259",
"eO c #679f55",
".8 c #686868",
"ds c #689e55",
"d4 c #689e56",
"eg c #689f55",
"eP c #68a055",
".B c #696969",
"a9 c #69915b",
"dO c #699f58",
"bt c #6a8ed6",
"aA c #6b8961",
"cr c #6b8fc4",
"#c c #6c6c6c",
"b1 c #6c9ad2",
"dc c #6ca35a",
"cH c #6d935f",
"cy c #6d9a5d",
"#4 c #6e8f62",
"ar c #6e9760",
"dZ c #6ea55c",
".q c #6f6f6f",
"ez c #6fa65d",
".k c #707070",
"#o c #727272",
"cD c #727e97",
"ec c #728b69",
"aS c #729068",
"ea c #7296de",
"as c #72a95f",
".6 c #737373",
"cs c #739966",
"dy c #73a661",
"ac c #73a960",
"eA c #73aa60",
"ek c #73aa61",
"ai c #749469",
"bZ c #749768",
"cX c #74aa61",
"eh c #74ab62",
"dJ c #74ac62",
"#Y c #758f6d",
"d3 c #75a964",
"cI c #76ac63",
"#K c #777876",
"ct c #77ae64",
"#3 c #789a6c",
"az c #799d6d",
"cS c #7a7a7a",
"dp c #7a9771",
"#x c #7b7b7b",
"fn c #7bad6a",
"fm c #7bae6a",
"fo c #7baf69",
"dt c #7bb268",
"bE c #7ca16e",
"c# c #7ca4e0",
"fl c #7cae6a",
"dN c #7cae6b",
"ej c #7cb369",
".T c #7d7d7d",
"ca c #7d828e",
"aR c #7da271",
"a8 c #7da470",
"bm c #7da66f",
"ce c #7da76f",
"dg c #7dab6e",
"d0 c #7db46a",
"fh c #7e97b4",
"cA c #7e9ede",
"d2 c #7eb16d",
"ei c #7eb56b",
".g c #7f7f7f",
"fk c #7faf6e",
"#p c #808080",
"ah c #80a772",
".f c #818181",
"ev c #81a775",
".A c #828282",
"cj c #82b272",
"#G c #838383",
"eb c #8398b8",
"e3 c #83a478",
"#2 c #83aa76",
".5 c #848484",
"c2 c #84b474",
"d1 c #84ba72",
".p c #858585",
"ay c #85ae77",
"dx c #85b773",
"dd c #85bc72",
"#b c #868686",
"cN c #86b875",
"dK c #86bc73",
".4 c #878787",
"bY c #87b877",
"dM c #88b977",
"aK c #88be76",
"aQ c #89b37b",
"a7 c #89b878",
"bl c #89bb77",
"#y c #8a8a8a",
"ep c #8aa2de",
"df c #8abd78",
"cf c #8ac077",
".J c #8b8b8b",
"ao c #8b9d86",
"aJ c #8bb67c",
"cY c #8bc178",
"#n c #8c8c8c",
"aI c #8cb17f",
"ad c #8cb67d",
"bD c #8cba7b",
"bU c #8cc279",
"#J c #8d8d8d",
"#P c #8d928c",
"ag c #8db77e",
"dw c #8dc27a",
"du c #8dc37a",
"#e c #8e8e8e",
"cC c #8ea2da",
"dR c #8ea6e2",
"fq c #8ebb7e",
"fp c #8ebd7e",
"dL c #8ec47b",
"#1 c #8faf85",
".M c #909090",
"cx c #90c17f",
"#v c #919191",
"fj c #91b186",
"at c #91c57f",
"bB c #91c77f",
".S c #929292",
"bI c #92aae2",
"eL c #92b686",
"#s c #939393",
"#A c #949494",
"#r c #959595",
"bT c #95bf87",
"ax c #95c086",
"c1 c #95c983",
"#. c #969696",
"cG c #969e94",
"bO c #96aee2",
"a3 c #96c885",
"bh c #96ca83",
"ci c #96ca84",
"de c #96cb84",
".3 c #979797",
".e c #989898",
"bX c #98cb86",
"dv c #98cc86",
"#a c #999999",
"af c #99c589",
"cM c #99cd86",
"a4 c #99cd87",
".z c #9a9a9a",
"eH c #9aaede",
".o c #9b9b9b",
"ae c #9bc68b",
".N c #9c9c9c",
"aP c #9cc78d",
"#d c #9d9d9d",
"#k c #9e9e9e",
"et c #9eaad6",
"dj c #9eaed2",
"cw c #9ed18c",
"cZ c #9ed28c",
"#j c #9f9f9f",
"d# c #9fa59d",
"cJ c #9fd28c",
"bi c #9fd28d",
"#z c #a0a0a0",
"#q c #a1a1a1",
"fr c #a1ca93",
"#C c #a2a2a2",
"cm c #a2b2e2",
"cQ c #a2b6ea",
"#m c #a3a3a3",
"#l c #a4a4a4",
"cE c #a5a5a5",
"aw c #a5d096",
".l c #a6a6a6",
"dV c #a6a6aa",
"b6 c #a6aaa6",
"dn c #a6aabe",
"eJ c #a6b2da",
"fi c #a6bb9f",
"au c #a6d297",
".I c #a7a7a7",
".2 c #a8a8a8",
".u c #a9a9a9",
"cL c #a9db98",
".n c #aaaaaa",
"d8 c #aaaabe",
"b2 c #aab6de",
"av c #aad59c",
"ch c #aadb98",
"aL c #aadb99",
"#t c #ababab",
"bC c #abdd9a",
".m c #acacac",
"bW c #acda9c",
"c0 c #acdd9a",
"#f c #adadad",
"aO c #add89e",
"cu c #adde9b",
"c. c #aebade",
".y c #afafaf",
"bV c #afe09e",
"#i c #b0b0b0",
"cd c #b0b1b0",
"cK c #b0e19f",
"#u c #b1b1b1",
".b c #b2b2b2",
"eY c #b2bade",
"a5 c #b2e2a1",
".9 c #b3b3b3",
"#B c #b4b4b4",
"#0 c #b4cbab",
".c c #b5b5b5",
"bL c #b6b6be",
"bJ c #b6c2ea",
"aq c #b6ccaf",
"aM c #b6e1a7",
".O c #b7b7b7",
"bA c #b7dda9",
".Y c #b8b8b8",
"a# c #b8c2b4",
"a0 c #bababa",
"e1 c #bac2e2",
"bN c #bacaee",
"aN c #bae5ab",
".t c #bbbbbb",
".F c #bcbcbc",
"aa c #bcceb6",
"a2 c #bcdcb0",
".v c #bdbdbd",
"cg c #bdeaae",
"eI c #bebeca",
"b3 c #bebece",
"dE c #bec2ce",
"c5 c #bec6de",
"cv c #beeaae",
"bj c #beebaf",
".x c #bfbfbf",
"a6 c #bfeab0",
".a c #c0c0c0",
"#h c #c1c1c1",
"cB c #c2c2ce",
"e0 c #c2c6d2",
"cb c #c3c3c3",
"ap c #c3cac0",
"bk c #c3eeb4",
"a1 c #c4c4c4",
".w c #c5c5c5",
"cU c #c6c6c6",
"b9 c #c6cad2",
"c9 c #c6cae2",
".X c #c7c7c7",
"cF c #c8c8c8",
"#Z c #c8d9c2",
"#g c #c9c9c9",
".d c #cacaca",
"#Q c #cad7c6",
"## c #cccccc",
"bg c #ccedc0",
".G c #cfcfcf",
"cc c #d0d0d0",
".# c #d1d1d1",
".H c #d2d2d2",
"dk c #d2d2d6",
".Z c #d5d5d5",
".R c #d6d6d6",
"dS c #d6d6de",
"eZ c #d6daea",
"bx c #d7d7d7",
".1 c #d8d8d8",
"aH c #d9d9d9",
"bS c #dadada",
".W c #dcdcdc",
"eq c #dedae2",
"bK c #dedaf2",
"cR c #dedede",
"dB c #dedee2",
"bM c #dedef2",
"es c #e2dee6",
".P c #e2e2e2",
"e. c #e2e2e6",
".Q c #e3e3e3",
".0 c #e5e5e5",
"c8 c #e6e6ea",
"er c #e6e6ee",
"bf c #e7e7e7",
"dD c #eaeaea",
"b4 c #eaeaee",
"e# c #eaeaf2",
"by c #ebebeb",
"bR c #ececec",
"bz c #eeeeee",
"c7 c #eeeef2",
"dT c #eeeef6",
"d9 c #f2f2f2",
"dm c #f2f2f6",
"cn c #f2f2fa",
"b8 c #f6f6f6",
"cq c #f6f6fa",
"cp c #fafafa",
"c6 c #fafafe",
"co c #fafefa",
"b7 c #fefafa",
"dU c #fefefa",
"b5 c #fefefe",
"QtQtQtQtQtQtQtQtQtQtQtQtQtQtQtQtQtQtQtQtQtQtQtQtQtQtQtQtQtQtQtQtQtQtQtQtQtQt",
"QtQtQtQtQtQtQtQtQtQtQtQtQtQtQtQtQtQt.#.a.b.cQtQtQtQtQtQtQtQtQtQtQtQtQtQtQtQt",
"QtQtQtQtQtQtQtQtQtQtQtQtQtQtQtQt.d.e.f.g.h.i.j.k.#QtQtQtQtQtQtQtQtQtQtQtQtQt",
"QtQtQtQtQtQtQtQtQtQtQtQtQtQtQt.c.l.m.n.o.p.q.r.j.s.tQtQtQtQtQtQtQtQtQtQtQtQt",
"QtQtQtQtQtQtQtQtQtQtQtQtQtQt.m.u.v.w.x.y.z.A.B.C.D.EQtQtQtQtQtQtQtQtQtQtQtQt",
"QtQtQtQtQtQtQtQtQtQtQtQtQt.F.u.x.G.H.G.F.I.J.k.K.i.L.MQtQtQtQtQtQtQtQtQtQtQt",
"QtQtQtQtQtQtQtQtQtQtQtQtQt.N.O.G.P.Q.R.x.l.S.T.k.U.V.K.WQtQtQtQtQtQtQtQtQtQt",
"QtQtQtQtQtQtQtQtQtQtQtQt.X.z.Y.Z.Q.0.1.a.2.3.4.5.6.7.8.xQtQtQtQtQtQtQtQtQtQt",
"QtQtQtQtQtQtQtQtQtQtQtQt.9#..O##.1.1.#.v.l#a.o.4#b.g#c#dQtQtQtQtQtQtQtQtQtQt",
"QtQtQtQtQtQtQtQtQtQtQtQt#.#e#f.v#g#g#h#i#j#k#l#m#k#n#o#iQtQtQtQtQtQtQtQtQtQt",
"QtQtQtQtQtQtQtQtQtQtQtQt#m#p#..n#f#f.I#k#a#q.m#f.n#n.T.#QtQtQtQtQtQtQtQtQtQt",
"QtQtQtQtQtQtQtQtQtQtQtQt.t.8.g.S.S.S#r#s.N#t#u.m.n#v#kQtQtQtQtQtQtQtQtQtQtQt",
"QtQtQtQtQtQtQtQtQtQtQtQtQt#w#w#x#x#x.5#y#z#u#f#t.n#A#BQtQtQtQtQtQtQtQtQtQtQt",
"QtQtQtQtQtQtQtQtQtQtQtQtQt#C#D#E#F#F.q#G#b#z.n#r#s#qQtQtQtQtQtQtQtQtQtQtQtQt",
"QtQtQtQtQtQtQtQtQtQtQtQtQtQt.k#H#I#I#I.k.A#y#J#v#dQtQtQtQtQtQtQtQtQtQtQtQtQt",
"QtQtQtQtQtQtQtQtQtQtQtQtQtQtQt#K#L#M#M#N#O#O#O#PQtQtQtQtQtQtQtQtQtQtQtQtQtQt",
"QtQtQtQtQtQtQtQtQtQtQtQtQtQtQt#Q#R#S#T#U#V#W#X#YQtQtQtQtQtQtQtQtQtQtQtQtQtQt",
"QtQtQtQtQtQtQtQtQtQtQtQtQt#Z#0#1#2#3#4#5#6#7#8#9a.a#QtQtQtQtQtQtQtQtQtQtQtQt",
"QtQtQtQtQtQtQtQtQtQtQtQtaaabacadaeafagahaiajakalamanaoapQtQtQtQtQtQtQtQtQtQt",
"QtQtQtQtQtQtQtQtQtQtQtaqarasatauavawaxayazaAaBaCaDaEaFaG#daHQtQtQtQtQtQtQtQt",
"QtQtQtQtQtQtQtQtQtQt.uaIaJaKaLaMaNaOaPaQaRaSaTaUaVaWaXaYaZ.A.wQtQtQtQtQtQtQt",
"QtQtQtQtQtQtQtQtQta0a1a2a3a4a5a6a6aOaPa7a8a9b.b#babbbcbdbe.V.KQtQtQtQtQtQtQt",
"QtQtQtQtQtQtQtQt.Y.Hbfbgbhbibjbka6aOaPblbmbnbobpbqbrbsbtbubvbw#wQtQtQtQtQtQt",
"QtQtQtQtQtQtQta0bxbybzbAbBbCbkbka6aOaPbDbEbFbGbHbIbJbKbLbMbNbObPbQQtQtQtQtQt",
"QtQtQtQtQtQt#u.HbRbfbSbTbUbVbkbka6bWbXbYbZb0b1b2b3b4b5b6b7b8b9c.c#caQtQtQtQt",
"QtQtQtQtQt#fcb.0bfcccdcecfbVbkbkcgchcicjckclcmcncocpb5#yb5b5b5cqb2crQtQtQtQt",
"QtQtQtQt.F#Bbx.1.x#mcsctbUcua5cvbCcwcxcyczcAb3b5b5b5b5.Ab5b5b5b5cBcCcDQtQtQt",
"QtQtQtQtcEcFcc.x#lcGcHcIbUcJcKbVcLcMcNcOcPcQcRcqb5b5b5cSb5b5b5cq.HcmcTQtQtQt",
"QtQtQt#u.lcU.acE#qcVcWcXcYcZc0cLcwc1c2c3c4c5cqc6c6b5b5.Sb5cpb8c7c8c9d.QtQtQt",
"QtQtQt.9.na0#m#dd#dadbdcddcMbicwdedfdgdhdidjdkb8cpc6b5dlb8c6cqdmdkdndoQtQtQt",
"QtQtQt#l.I.I.z#kdpdqdrdsdtdudvdedwdxdydzdAcmdBdmb8cpb5c7dCdDcndmc8dEdFQtQtQt",
"QtQtQt.M#z#r.N#CdGdHdrdIdJdKdLdwdMdNdOdPdQdRdSb4dTcqcqdUbzdVdDdTdBb2dWQtQtQt",
"QtQtQt.5#r#r#z#zdXdYdrdIdZd0ddd1d2d3d4d5d6d7d8c8c7d9cndmb8e.e.e#.beaebQtQtQt",
"QtQtQtQt.5#v.z#lecedeeefegeheiejekdcelemeneoepeqerc7c7dmc7c7dTeseteuQtQtQtQt",
"QtQtQtQtQtQtQtQtQtevewexeyezekeAdceBeCeDeEeFeGeHeIe.b8e.dme#cUeJeKQtQtQtQtQt",
"QtQtQtQtQtQtQtQtQtQteLeMeNeOePePeQeReSeTeUeVeWeXcAeYeZe0eZe1epe2QtQtQtQtQtQt",
"QtQtQtQtQtQtQtQtQtQtQtQte3e4e5e5e6eme7e8e9f.f#fafbfcfdfefffgfhQtQtQtQtQtQtQt",
"QtQtQtQtQtQtQtQtQtQtQtQtQtQtQtfifjfkflfmfnfofpfqfrQtQtQtQtQtQtQtQtQtQtQtQtQt"};
