/* XPM */
static char * donline_xpm[] = {
"38 38 94 2",
"  	c None",
". 	c #E3E3E3",
"+ 	c #A5A5A5",
"@ 	c #7B7B7B",
"# 	c #505050",
"$ 	c #E9E9E9",
"% 	c #FCFCFC",
"& 	c #C1C1C1",
"* 	c #9E9E9E",
"= 	c #8A8A8A",
"- 	c #646464",
"; 	c #D1D1D1",
"> 	c #B4B4B4",
", 	c #B5B5B5",
"' 	c #C3C3C3",
") 	c #AEAEAE",
"! 	c #404040",
"~ 	c #F3F3F3",
"{ 	c #CACACA",
"] 	c #CBCBCB",
"^ 	c #5E5E5E",
"/ 	c #949494",
"( 	c #C4C4C4",
"_ 	c #E1E1E1",
": 	c #DFDFDF",
"< 	c #9D9D9D",
"[ 	c #8E8E8E",
"} 	c #797979",
"| 	c #D2D2D2",
"1 	c #EEEEEE",
"2 	c #848484",
"3 	c #6A6A6A",
"4 	c #C5C5C5",
"5 	c #B2B2B2",
"6 	c #A6A6A6",
"7 	c #979797",
"8 	c #868686",
"9 	c #999999",
"0 	c #929292",
"a 	c #B1B1B1",
"b 	c #ABABAB",
"c 	c #A1A1A1",
"d 	c #E6E6E6",
"e 	c #D5D5D5",
"f 	c #F6F6F6",
"g 	c #F2F2F2",
"h 	c #FAFCFA",
"i 	c #6E8A65",
"j 	c #1A400E",
"k 	c #9CB494",
"l 	c #E4E9E2",
"m 	c #7EA571",
"n 	c #5E7B54",
"o 	c #4D6446",
"p 	c #36502D",
"q 	c #5B8E49",
"r 	c #669E53",
"s 	c #96C386",
"t 	c #CCD1CA",
"u 	c #487937",
"v 	c #7EB56B",
"w 	c #A1CB92",
"x 	c #86AE78",
"y 	c #9FD28D",
"z 	c #B4DFA5",
"A 	c #305E20",
"B 	c #8EC47B",
"C 	c #B0E19F",
"D 	c #C3EEB4",
"E 	c #7C9D71",
"F 	c #3D8425",
"G 	c #236A0B",
"H 	c #26401E",
"I 	c #84B274",
"J 	c #62994F",
"K 	c #498E32",
"L 	c #54973D",
"M 	c #6FA65D",
"N 	c #328615",
"O 	c #4AA52B",
"P 	c #2C9209",
"Q 	c #B0B0B0",
"R 	c #43B11D",
"S 	c #6E9262",
"T 	c #3AAB13",
"U 	c #516A48",
"V 	c #296A13",
"W 	c #C0C0C0",
"X 	c #E5E5E5",
"Y 	c #D7E6D3",
"Z 	c #F0F3F0",
"` 	c #56A13C",
" .	c #6D9460",
"..	c #ABD59D",
"                                . + @ @ @ # # # @ $                         ",
"                            % & * + + + = @ - # # # ;                       ",
"                          % > * , ' ' ) + = @ - # ! ! ~                     ",
"                          { * , ' ] ] ] ) + @ - ^ # ! / %                   ",
"                        ~ * , ( _ : : ] > < [ } ^ ^ ! ! ;                   ",
"                        { [ , | _ 1 : ] > < [ } 2 ^ 3 ! 4                   ",
"                        > * , | _ _ _ | 5 6 7 [ 2 8 3 3 2 %                 ",
"                        * [ , ( | | | ( 5 9 7 + 2 8 0 3 3 ~                 ",
"                        } [ 6 , ( ( ( 5 6 9 + + a b 0 3 c %                 ",
"                        < } [ 6 6 6 6 9 9 7 + a b b 0 3 4                   ",
"                        > ^ } [ [ [ [ 7 [ + a a b b 0 0 d                   ",
"                        ; ^ ^ } } } } [ 2 a a b b b 0 c %                   ",
"                        1 < ! ^ ^ ^ ^ 2 2 8 b b 0 0 0 $                     ",
"                          ~ - ! ^ ^ ^ ^ 8 8 0 0 0 0 e                       ",
"                          f ~ - ! ! ! ! 3 3 3 3 0 e                         ",
"                            g h i j j j j j j j k                           ",
"                            l k m i n n o o p p p i l                       ",
"                          q r m s s s m m i n o p j o t h                   ",
"                        u r v s w w s x m i n n o p j j o ; %               ",
"                    [ r m v y z z z w s m m i n o A A j j ! @ ~             ",
"                  * + w s B C z D z w s m E i n u o A A j ! ^ - ;           ",
"                * ' : D B y C D D z w s v E q q u o A A j ! ^ ^ ! ;         ",
"              * ' 1 1 D B y D D D z w s v E q q u u F A G H 3 2 8 - $       ",
"            * | 1 1 1 y B C D D D z w s I E J q u K F A A G ! b b 3 / %     ",
"          * ( 1 1 _ | v B C D D D z y B I E J q L K F F A G ! 8 a b 3 ;     ",
"        6 , _ 1 _ ( 6 M B C D D D C y B I M J L L K K F N G 3 3 a a 8 2 ~   ",
"      ( 6 | _ | 5 9 J v B C C D C y y I M M J L L K K F F N 3 3 b a a 0 ;   ",
"      * ( | | 5 9 + q v B y C C C y B I M J J L L K K F F N 3 3 8 a a 0 4   ",
"    5 * ( | 5 9 + F q v B y C C y y B I M J J L L O O F F N P 3 3 a a b Q   ",
"    , 6 ( 5 9 + b F r M B y y y y B I I M J L L L O O R R N N G 3 2 a b /   ",
"    5 6 , 9 [ b S u q M v B y y B B I M J J L L O O O R R T N G U 2 + b c   ",
"    [ 6 * 7 a 0 N u q r v B B B B I M M J J L L O O O R R T N V 3 9 W W X   ",
"    [ * [ [ b 0 A u q r M v B B I I M J J L L L O O O R R T T P G Y   %     ",
"    } [ 7 + b 0 A u q r M v v v v M M J J L L O O O O R R T T P G t         ",
"      } [ 2 b c q u u q r M v v M M J J L L L O O O R R R T T P G Y         ",
"              ~ Z q u q r M M M M J J L L L O O O O R R R T T P ` Z         ",
"                  Z I u q r r r r J q L L K O O O O R R R T T  .l           ",
"                    h l E q q q q q L L K K O O R R R R O ..l h             "};
