/* XPM */
static char * dinactive_xpm[] = {
"38 38 509 2",
"  	c None",
". 	c #B2BAB2",
"+ 	c #829A82",
"@ 	c #5F845E",
"# 	c #527D50",
"$ 	c #466A4A",
"% 	c #7E8272",
"& 	c #E1E1E1",
"* 	c #8A9D8F",
"= 	c #4F975F",
"- 	c #6E985E",
"; 	c #619356",
"> 	c #386038",
", 	c #1E421E",
"' 	c #122E29",
") 	c #929292",
"! 	c #E2E6E2",
"~ 	c #80B379",
"{ 	c #92C078",
"] 	c #92B67E",
"^ 	c #81AA6B",
"/ 	c #6E925E",
"( 	c #4A795A",
"_ 	c #1E4032",
": 	c #021A12",
"< 	c #8E8F93",
"[ 	c #A0ABA7",
"} 	c #72BE82",
"| 	c #9FD291",
"1 	c #AFD898",
"2 	c #9AC981",
"3 	c #719D6A",
"4 	c #525E62",
"5 	c #2F5347",
"6 	c #AFAFB1",
"7 	c #CEC8C7",
"8 	c #5E9472",
"9 	c #52AC81",
"0 	c #8ED1A1",
"a 	c #A2E6A2",
"b 	c #92C296",
"c 	c #70A07A",
"d 	c #4E8578",
"e 	c #3E7076",
"f 	c #22555F",
"g 	c #12425E",
"h 	c #021430",
"i 	c #626E7E",
"j 	c #DEDADE",
"k 	c #A0ABA8",
"l 	c #3E906C",
"m 	c #62BA90",
"n 	c #8ED79F",
"o 	c #B0E8B0",
"p 	c #9ED9A5",
"q 	c #6EA796",
"r 	c #12467E",
"s 	c #022951",
"t 	c #0E2E76",
"u 	c #C2C8C8",
"v 	c #819A8A",
"w 	c #61B392",
"x 	c #92DBAC",
"y 	c #A2DBA5",
"z 	c #92D0A8",
"A 	c #7EB6A2",
"B 	c #62A39E",
"C 	c #41899F",
"D 	c #316F8F",
"E 	c #205A78",
"F 	c #022260",
"G 	c #6E8E7E",
"H 	c #328A6E",
"I 	c #5EB090",
"J 	c #72C799",
"K 	c #8ED1AE",
"L 	c #82BFA6",
"M 	c #6EAEAE",
"N 	c #5196A1",
"O 	c #3E819B",
"P 	c #2E6B9F",
"Q 	c #1E5A9E",
"R 	c #104490",
"S 	c #023292",
"T 	c #728A82",
"U 	c #2E7A5F",
"V 	c #509C84",
"W 	c #70B8A0",
"X 	c #62AEA2",
"Y 	c #2E729E",
"Z 	c #2267A9",
"` 	c #1253B8",
" .	c #0E44AF",
"..	c #B2B6B5",
"+.	c #7E8A9E",
"@.	c #216656",
"#.	c #38866A",
"$.	c #4E8C7E",
"%.	c #529A92",
"&.	c #4E9291",
"*.	c #40879D",
"=.	c #2E739E",
"-.	c #2063A5",
";.	c #1C5BA8",
">.	c #104DAF",
",.	c #022692",
"'.	c #425E90",
").	c #C1C0C0",
"!.	c #215B56",
"~.	c #327975",
"{.	c #317874",
"].	c #2F7396",
"^.	c #2D6680",
"/.	c #1D5986",
"(.	c #184F92",
"_.	c #567865",
":.	c #B8BB2B",
"<.	c #F0E204",
"[.	c #5C6A54",
"}.	c #8F9095",
"|.	c #CECCCF",
"1.	c #627672",
"2.	c #023E32",
"3.	c #225359",
"4.	c #205C68",
"5.	c #1E5661",
"6.	c #1A4660",
"7.	c #546F43",
"8.	c #D3CC11",
"9.	c #6D7E6D",
"0.	c #B2B7B6",
"a.	c #C0C0C0",
"b.	c #022A2E",
"c.	c #124541",
"d.	c #11423E",
"e.	c #0F374E",
"f.	c #0C2F54",
"g.	c #435534",
"h.	c #C4BD11",
"i.	c #8A8F28",
"j.	c #BFB921",
"k.	c #9C9E9E",
"l.	c #D2D6D2",
"m.	c #506456",
"n.	c #022A2D",
"o.	c #022542",
"p.	c #022248",
"q.	c #011C3A",
"r.	c #011332",
"s.	c #011136",
"t.	c #A5A11C",
"u.	c #AAA971",
"v.	c #CDCBCE",
"w.	c #909A95",
"x.	c #2E4A2E",
"y.	c #1C3E29",
"z.	c #0D3141",
"A.	c #0A1D2E",
"B.	c #0A1B2A",
"C.	c #444D20",
"D.	c #C9C21B",
"E.	c #B6B6B6",
"F.	c #E1E5E1",
"G.	c #6EA078",
"H.	c #68A570",
"I.	c #6C9666",
"J.	c #517949",
"K.	c #3E553B",
"L.	c #374A28",
"M.	c #D6CC07",
"N.	c #7E8517",
"O.	c #ADA82F",
"P.	c #D6CF44",
"Q.	c #729282",
"R.	c #509C62",
"S.	c #78BC80",
"T.	c #8EC880",
"U.	c #93B97E",
"V.	c #71935B",
"W.	c #4D6640",
"X.	c #888D1D",
"Y.	c #D2D2D2",
"Z.	c #92A29A",
"`.	c #5E8A6B",
" +	c #5EAE72",
".+	c #82C682",
"++	c #9ED492",
"@+	c #ABD496",
"#+	c #91B980",
"$+	c #768E5E",
"%+	c #4B633F",
"&+	c #898E1E",
"*+	c #C0BC11",
"=+	c #999F1C",
"-+	c #7E8E24",
";+	c #536F3B",
">+	c #112C1D",
",+	c #0F2B44",
"'+	c #7FB276",
")+	c #82C282",
"!+	c #8FD89F",
"~+	c #B2E19D",
"{+	c #AAD796",
"]+	c #93B681",
"^+	c #718F62",
"/+	c #4C6B47",
"(+	c #3F5B44",
"_+	c #536B31",
":+	c #667F42",
"<+	c #4D6A35",
"[+	c #2B4D42",
"}+	c #1F4551",
"|+	c #082652",
"1+	c #204753",
"2+	c #6E7692",
"3+	c #AEB2B2",
"4+	c #90CA82",
"5+	c #B2EBB7",
"6+	c #92D692",
"7+	c #82CE92",
"8+	c #9FE29F",
"9+	c #B8E9A5",
"0+	c #9EC78B",
"a+	c #8AA978",
"b+	c #B5BA2A",
"c+	c #95A330",
"d+	c #2D5F5F",
"e+	c #205161",
"f+	c #12333B",
"g+	c #103A4E",
"h+	c #5E666E",
"i+	c #6EA686",
"j+	c #C2F6AE",
"k+	c #B5E5A0",
"l+	c #90D9A0",
"m+	c #AEEEB4",
"n+	c #AED8A0",
"o+	c #97BC8B",
"p+	c #779267",
"q+	c #ADAF24",
"r+	c #98A22B",
"s+	c #B9B819",
"t+	c #66915F",
"u+	c #32666E",
"v+	c #1E518B",
"w+	c #103652",
"x+	c #62707E",
"y+	c #68A670",
"z+	c #92E2AE",
"A+	c #BEF4B9",
"B+	c #91D9AE",
"C+	c #72C69A",
"D+	c #ADEDB3",
"E+	c #B1E09E",
"F+	c #94BD90",
"G+	c #6E8861",
"H+	c #486450",
"I+	c #4A6141",
"J+	c #CFC913",
"K+	c #9DAE3D",
"L+	c #3D7476",
"M+	c #306886",
"N+	c #21606C",
"O+	c #205262",
"P+	c #12324E",
"Q+	c #215A8D",
"R+	c #12558B",
"S+	c #022460",
"T+	c #B2F4B8",
"U+	c #AEEEB8",
"V+	c #92D2BE",
"W+	c #6EB599",
"X+	c #AAE8B4",
"Y+	c #ADDEA8",
"Z+	c #8BB07B",
"`+	c #618265",
" @	c #516747",
".@	c #CFC911",
"+@	c #B8BF2A",
"@@	c #4D7E7A",
"#@	c #3A7881",
"$@	c #316F8C",
"%@	c #2E6280",
"&@	c #1E4A7E",
"*@	c #103C68",
"=@	c #0E3D91",
"-@	c #1A61C2",
";@	c #104A92",
">@	c #1E3A6E",
",@	c #A2EAB6",
"'@	c #A1E9B5",
")@	c #7EC6A7",
"!@	c #62ACA8",
"~@	c #5EA890",
"{@	c #A9E7B3",
"]@	c #9AD6A8",
"^@	c #7EA780",
"/@	c #5A7B5B",
"(@	c #D0C911",
"_@	c #E5DB0A",
":@	c #789B54",
"<@	c #6B9868",
"[@	c #5F8C73",
"}@	c #205778",
"|@	c #12496A",
"1@	c #102E5E",
"2@	c #0E307E",
"3@	c #1E61B3",
"4@	c #023488",
"5@	c #9BDBAC",
"6@	c #6BB19E",
"7@	c #4D9198",
"8@	c #538C83",
"9@	c #4E9F7E",
"0@	c #6EC095",
"a@	c #90DEAB",
"b@	c #98D6A9",
"c@	c #94C597",
"d@	c #6C946E",
"e@	c #4B6D55",
"f@	c #C3C726",
"g@	c #326E92",
"h@	c #1150A4",
"i@	c #2F4783",
"j@	c #6AAF9D",
"k@	c #47868D",
"l@	c #265B89",
"m@	c #CDD424",
"n@	c #C8D93F",
"o@	c #C2D955",
"p@	c #95BF79",
"q@	c #6E9473",
"r@	c #51715A",
"s@	c #58734A",
"t@	c #657D41",
"u@	c #6B864F",
"v@	c #8CA045",
"w@	c #94AA47",
"x@	c #789E60",
"y@	c #2E6EA6",
"z@	c #22689C",
"A@	c #1E589F",
"B@	c #123C7E",
"C@	c #498A91",
"D@	c #245580",
"E@	c #143B6B",
"F@	c #396345",
"G@	c #70943A",
"H@	c #DCD712",
"I@	c #B9D250",
"J@	c #74A882",
"K@	c #608D7A",
"L@	c #4D7979",
"M@	c #45716B",
"N@	c #3A6E76",
"O@	c #357082",
"P@	c #39758D",
"Q@	c #307598",
"R@	c #2F729D",
"S@	c #21619F",
"T@	c #022D75",
"U@	c #0F336C",
"V@	c #1E68C0",
"W@	c #1E4AA2",
"X@	c #29678D",
"Y@	c #0C3976",
"Z@	c #0B3251",
"`@	c #4F6D2B",
" #	c #BFC015",
".#	c #C0D248",
"+#	c #8FC790",
"@#	c #78B796",
"##	c #65A796",
"$#	c #5F9074",
"%#	c #548A83",
"&#	c #44808A",
"*#	c #3B7C90",
"=#	c #3B7A93",
"-#	c #2F76A2",
";#	c #11438D",
">#	c #226A8E",
",#	c #0E48AC",
"'#	c #194882",
")#	c #09285E",
"!#	c #80891E",
"~#	c #C4C71A",
"{#	c #75A768",
"]#	c #79BF9C",
"^#	c #7CC3A4",
"/#	c #7DBC9E",
"(#	c #6CABAB",
"_#	c #609D95",
":#	c #50979F",
"<#	c #4C8896",
"[#	c #3F869B",
"}#	c #327D9A",
"|#	c #3077A3",
"1#	c #2269AF",
"2#	c #285AAE",
"3#	c #0D3B74",
"4#	c #0B2B5A",
"5#	c #3B5625",
"6#	c #A1A717",
"7#	c #E4D908",
"8#	c #D4D51C",
"9#	c #BACC44",
"0#	c #8BC382",
"a#	c #6DB397",
"b#	c #60A797",
"c#	c #5D9B9C",
"d#	c #4D929E",
"e#	c #3E809A",
"f#	c #3077A4",
"g#	c #9EA1A1",
"h#	c #0C3791",
"i#	c #01245F",
"j#	c #143D33",
"k#	c #1F4B3B",
"l#	c #2C5B4D",
"m#	c #749942",
"n#	c #A9C037",
"o#	c #DFDC16",
"p#	c #ADC84C",
"q#	c #6CA997",
"r#	c #568F90",
"s#	c #4A8587",
"t#	c #A6B841",
"u#	c #759F68",
"v#	c #307A96",
"w#	c #2F74A0",
"x#	c #2E6DA5",
"y#	c #1B4B9E",
"z#	c #445C7A",
"A#	c #31564E",
"B#	c #215945",
"C#	c #2E6A51",
"D#	c #3D7D62",
"E#	c #508F7B",
"F#	c #5CA185",
"G#	c #599F89",
"H#	c #549681",
"I#	c #437E77",
"J#	c #3D6E79",
"K#	c #5B866B",
"L#	c #D7D315",
"M#	c #A6B53F",
"N#	c #2A6BAC",
"O#	c #3B7695",
"P#	c #1E61B2",
"Q#	c #1151B8",
"R#	c #023A8A",
"S#	c #C9C7CA",
"T#	c #C7CBC7",
"U#	c #909393",
"V#	c #286B53",
"W#	c #2B765E",
"X#	c #448158",
"Y#	c #569280",
"Z#	c #5AA18A",
"`#	c #599986",
" $	c #458C6F",
".$	c #3C706F",
"+$	c #2E6165",
"@$	c #768D45",
"#$	c #A3AE2C",
"$$	c #567A5B",
"%$	c #527C71",
"&$	c #C8C924",
"*$	c #1458B2",
"=$	c #9CA6A3",
"-$	c #4D816E",
";$	c #3B8664",
">$	c #4D9780",
",$	c #4F9A82",
"'$	c #4B8C7D",
")$	c #467D71",
"!$	c #3A7866",
"~$	c #31646D",
"{$	c #2C5B6E",
"]$	c #22536C",
"^$	c #1F4A70",
"/$	c #46675C",
"($	c #83973C",
"_$	c #507565",
":$	c #1E5AAE",
"<$	c #629282",
"[$	c #4F9565",
"}$	c #4D9080",
"|$	c #4A8578",
"1$	c #3C7575",
"2$	c #326870",
"3$	c #336162",
"4$	c #26576E",
"5$	c #255368",
"6$	c #214A71",
"7$	c #20496F",
"8$	c #224E77",
"9$	c #4E6D82",
"0$	c #969F6B",
"a$	c #CCCACD",
"b$	c #C6C4C7",
"c$	c #C5C5C5",
"d$	c #BFBFBF",
"e$	c #B8B8B8",
"f$	c #ADABAE",
"g$	c #A7A6A8",
"h$	c #ABAAAC",
"i$	c #BDBDBD",
"j$	c #CBCFCB",
"                                                                            ",
"                            . + @ # $ $ % .                                 ",
"                        & * = - - ; # > , ' ) &                             ",
"                      ! * = ~ { ] ^ / ( > _ : < !                           ",
"                      [ = } | 1 2 ] 3 @ 4 5 ' : 6                           ",
"                    7 8 9 0 a 1 1 b c d e f g h i j                         ",
"                    k l m n o o p b q d e f r s t u                         ",
"                    v l w x y y z A B C D E r t F 6                         ",
"                  & G H I J K K L M N O P Q R S F 6                         ",
"                  ! T U V I W W X N C Y Z `  .S t ..                        ",
"                    +.@.#.$.%.%.&.*.=.-.;.>. .,.'.).                        ",
"                    6 !.@.~.~.{.].^./.(._.:.<.[.}.|.                        ",
"                    & 1.2.3.!.4.5.6.7.8.<.<.<.9.0.&                         ",
"                      a.5 b.c.d.e.f.g.h.i.<.j.k.l.                          ",
"                        0.m.n.o.p.q.r.s.t.<.u.v.!                           ",
"                          w.x.y.z.A.B.C.<.D.E.F.                            ",
"                      j w.G.H.I.J.K.L.M.<.N.O.P.                            ",
"                    |.Q.R.S.T.U.V.W.X.<.<.<.<.<.}.Y.                        ",
"                  Z.`. +.+++@+#+$+%+&+*+=+-+;+>+,+m.w.                      ",
"              u G '+S.)+!+~+{+]+^+/+(+_+:+<+[+}+|+,+1+2+j                   ",
"            3+G.4+5+6+7+8+9+0+a+b+<.<.<.<.c+d+e+f+,+g+g+h+l.                ",
"          3+i+6+j+k+7+l+m+n+o+p+q+r+s+<.<.t+u+3.1+,+g+v+w+x+&               ",
"          y+z+j+A+B+C+l+D+E+F+G+H+I+J+<.K+L+M+N+O+P+|+Q+R+S+}.              ",
"          6+T+U+V+W+C+z+X+Y+Z+`+ @.@<.+@@@#@$@%@&@*@|+=@-@;@>@a.            ",
"          ,@'@)@!@~@C+z+{@]@^@/@(@<._@:@<@[@$@%@}@|@1@2@3@3@4@+.            ",
"          5@6@7@8@9@0@a@b@c@d@e@<.<.<.<.<.f@g@M+Q+&@*@S+h@3@h@i@&           ",
"          j@k@l@<.<.m@n@o@p@q@r@s@t@u@v@w@x@y@z@A@v+B@S+=@3@-@=@l.          ",
"          C@D@E@F@G@H@<.<.I@J@K@L@M@N@O@P@Q@R@z@S@v+B@T@U@S@V@W@Y.          ",
"          X@Y@Z@`@ #<.<..#+#@###$#%#&#*#=#-#g@z@S@A@;#4@*@>#V@,#|.          ",
"          '#)#!#<.<.~#{#]#^#/#(#_#:#<#[#}#|#y@1#3@A@;@2@U@$@1#2#Y.          ",
"          3#4#5#6#7#<.8#9#0#a#b#c#d#C e#f#f#y@1#3@A@h@4@i@g#k 0.j           ",
"          h#i#j#k#l#m#n#o#p#q#r#s#t#u#v#w#x#1#1#3@A@h@4@U@a.j               ",
"          y#z#A#B#C#D#E#F#G#H#I#J#<.<.K#L#M#N#O#P#A@Q#R#T@a.&               ",
"          S#T#U#V#W#X#Y#Z#`# $.$+$@$#$$$<.<.%$<.&$*$Q#,.2+|.                ",
"                =$-$;$>$,$'$)$!$~${$]$^$/$($_$<.<.h@:$+.a.&                 ",
"                  |.Z.<$[$}$|$1$2$3$4$5$6$7$8$9$0$w.a.|.&                   ",
"                      & l.v.a$S#b$c$d$e$f$g$h$i$j$j                         ",
"                                                                            "};
