<?xml version="1.0" encoding="UTF-8" standalone="no"?>
<!-- Created with Inkscape (http://www.inkscape.org/) -->
<svg
   xmlns:dc="http://purl.org/dc/elements/1.1/"
   xmlns:cc="http://web.resource.org/cc/"
   xmlns:rdf="http://www.w3.org/1999/02/22-rdf-syntax-ns#"
   xmlns:svg="http://www.w3.org/2000/svg"
   xmlns="http://www.w3.org/2000/svg"
   xmlns:xlink="http://www.w3.org/1999/xlink"
   xmlns:sodipodi="http://sodipodi.sourceforge.net/DTD/sodipodi-0.dtd"
   xmlns:inkscape="http://www.inkscape.org/namespaces/inkscape"
   width="210"
   height="118"
   id="svg2820"
   sodipodi:version="0.32"
   inkscape:version="0.45"
   sodipodi:modified="true"
   version="1.0">
  <defs
     id="defs2822">
    <linearGradient
       id="linearGradient27330">
      <stop
         style="stop-color:white;stop-opacity:1;"
         offset="0"
         id="stop27332" />
      <stop
         style="stop-color:white;stop-opacity:0;"
         offset="1"
         id="stop27334" />
    </linearGradient>
    <linearGradient
       inkscape:collect="always"
       xlink:href="#linearGradient27330"
       id="linearGradient12394"
       gradientUnits="userSpaceOnUse"
       gradientTransform="matrix(-0.337096,0,0,0.3333927,214.71991,459.84538)"
       x1="-14.962014"
       y1="-3.1428523"
       x2="-14.962014"
       y2="14.491574" />
    <linearGradient
       id="linearGradient30034">
      <stop
         style="stop-color:white;stop-opacity:1;"
         offset="0"
         id="stop30036" />
      <stop
         style="stop-color:#aaa;stop-opacity:1;"
         offset="1"
         id="stop30038" />
    </linearGradient>
    <linearGradient
       inkscape:collect="always"
       xlink:href="#linearGradient30034"
       id="linearGradient12397"
       gradientUnits="userSpaceOnUse"
       gradientTransform="matrix(-0.3624019,0,0,0.3624014,214.31102,459.43366)"
       x1="-15"
       y1="33.375721"
       x2="-15"
       y2="12.047798" />
    <linearGradient
       id="linearGradient3193">
      <stop
         style="stop-color:white;stop-opacity:1;"
         offset="0"
         id="stop3195" />
      <stop
         style="stop-color:white;stop-opacity:0;"
         offset="1"
         id="stop3197" />
    </linearGradient>
    <linearGradient
       inkscape:collect="always"
       xlink:href="#linearGradient3193"
       id="linearGradient12400"
       gradientUnits="userSpaceOnUse"
       gradientTransform="matrix(1.07712,0,0,0.96601,-9.6545589,444.71556)"
       x1="124.95133"
       y1="14.231901"
       x2="124.95133"
       y2="85.224281" />
    <radialGradient
       inkscape:collect="always"
       xlink:href="#linearGradient3181"
       id="radialGradient10236"
       gradientUnits="userSpaceOnUse"
       gradientTransform="matrix(0.8830287,0.2427443,-0.2369909,0.8621011,19.267822,-2.385598)"
       cx="20.363218"
       cy="32.94463"
       fx="20.363218"
       fy="32.94463"
       r="18" />
    <linearGradient
       inkscape:collect="always"
       xlink:href="#linearGradient3181"
       id="linearGradient10234"
       gradientUnits="userSpaceOnUse"
       gradientTransform="matrix(0.6444657,0,0,0.6515962,22.043684,4.411802)"
       x1="16.682186"
       y1="6.7142854"
       x2="15.39978"
       y2="16.954044" />
    <radialGradient
       inkscape:collect="always"
       xlink:href="#linearGradient2877"
       id="radialGradient10232"
       gradientUnits="userSpaceOnUse"
       gradientTransform="matrix(0.977319,0,0,0.97117,6.415781,0.474181)"
       cx="7.8002377"
       cy="15.865211"
       fx="7.8002377"
       fy="15.865211"
       r="9.8571424" />
    <linearGradient
       inkscape:collect="always"
       xlink:href="#linearGradient18483"
       id="linearGradient10230"
       gradientUnits="userSpaceOnUse"
       gradientTransform="matrix(0.7369063,0,0,0.7902133,14.978363,6.269365)"
       x1="-1.4335916"
       y1="10.880456"
       x2="29.666786"
       y2="20.197186" />
    <radialGradient
       inkscape:collect="always"
       xlink:href="#linearGradient2877"
       id="radialGradient10228"
       gradientUnits="userSpaceOnUse"
       gradientTransform="matrix(0.63388,-0.1340183,0.3123073,1.4771485,7.4217541,-13.758369)"
       cx="36.406609"
       cy="36.238743"
       fx="36.406609"
       fy="36.238743"
       r="4.6423826" />
    <linearGradient
       inkscape:collect="always"
       xlink:href="#linearGradient2877"
       id="linearGradient10226"
       gradientUnits="userSpaceOnUse"
       gradientTransform="matrix(0.7369063,0,0,0.7902133,14.762871,6.373738)"
       x1="-6.4336267"
       y1="5.3437724"
       x2="18.901718"
       y2="23.053406" />
    <linearGradient
       inkscape:collect="always"
       xlink:href="#linearGradient3104"
       id="linearGradient10224"
       gradientUnits="userSpaceOnUse"
       gradientTransform="matrix(0.765748,0,0,0.765748,13.714831,7.30414)"
       x1="18.677511"
       y1="44.428509"
       x2="19.653311"
       y2="38.619789" />
    <linearGradient
       id="linearGradient17246">
      <stop
         style="stop-color:#5b8c28;stop-opacity:1;"
         offset="0"
         id="stop17248" />
      <stop
         style="stop-color:#5b8b28;stop-opacity:1;"
         offset="1"
         id="stop17250" />
    </linearGradient>
    <linearGradient
       inkscape:collect="always"
       xlink:href="#linearGradient17246"
       id="linearGradient10222"
       gradientUnits="userSpaceOnUse"
       gradientTransform="matrix(0.765748,0,0,0.765748,13.838583,6.869795)"
       x1="35.542805"
       y1="23.287086"
       x2="28.8291"
       y2="45" />
    <linearGradient
       id="linearGradient2877">
      <stop
         style="stop-color:#ddf0c9;stop-opacity:1;"
         offset="0"
         id="stop2879" />
      <stop
         style="stop-color:#5b8b28;stop-opacity:1;"
         offset="1"
         id="stop2881" />
    </linearGradient>
    <radialGradient
       inkscape:collect="always"
       xlink:href="#linearGradient2877"
       id="radialGradient10220"
       gradientUnits="userSpaceOnUse"
       gradientTransform="matrix(0.7022353,0.142182,-0.1038584,0.5129541,18.113439,10.434538)"
       cx="20.145008"
       cy="35.484245"
       fx="20.145008"
       fy="35.484245"
       r="18" />
    <linearGradient
       inkscape:collect="always"
       xlink:href="#linearGradient25399"
       id="linearGradient10218"
       gradientUnits="userSpaceOnUse"
       gradientTransform="matrix(0.765748,0,0,0.765748,13.782514,7.385841)"
       x1="8.34375"
       y1="37.4375"
       x2="10.124999"
       y2="37.4375" />
    <linearGradient
       id="linearGradient25399">
      <stop
         id="stop25401"
         offset="0"
         style="stop-color:#283e11;stop-opacity:1;" />
      <stop
         id="stop25403"
         offset="1"
         style="stop-color:#5b8b28;stop-opacity:1;" />
    </linearGradient>
    <linearGradient
       inkscape:collect="always"
       xlink:href="#linearGradient25399"
       id="linearGradient10216"
       gradientUnits="userSpaceOnUse"
       gradientTransform="matrix(0.765748,0,0,0.765748,13.599291,7.507189)"
       x1="30.161375"
       y1="36.096104"
       x2="27.731932"
       y2="36.74707" />
    <radialGradient
       inkscape:collect="always"
       xlink:href="#linearGradient3181"
       id="radialGradient10214"
       gradientUnits="userSpaceOnUse"
       gradientTransform="matrix(-0.7791309,0.2141829,0.2091063,0.7606656,25.586848,-3.627759)"
       cx="20.363218"
       cy="32.94463"
       fx="20.363218"
       fy="32.94463"
       r="18" />
    <linearGradient
       id="linearGradient3181">
      <stop
         id="stop3183"
         offset="0"
         style="stop-color:white;stop-opacity:1;" />
      <stop
         id="stop3185"
         offset="1"
         style="stop-color:white;stop-opacity:0;" />
    </linearGradient>
    <linearGradient
       inkscape:collect="always"
       xlink:href="#linearGradient3181"
       id="linearGradient10212"
       gradientUnits="userSpaceOnUse"
       gradientTransform="matrix(-0.5686373,0,0,0.5749289,23.137598,2.369854)"
       x1="16.682186"
       y1="6.7142854"
       x2="15.39978"
       y2="16.954044" />
    <radialGradient
       inkscape:collect="always"
       xlink:href="#linearGradient2857"
       id="radialGradient10210"
       gradientUnits="userSpaceOnUse"
       gradientTransform="matrix(0.977319,0,0,0.97117,6.415781,0.474181)"
       cx="7.8002377"
       cy="15.865211"
       fx="7.8002377"
       fy="15.865211"
       r="9.8571424" />
    <linearGradient
       id="linearGradient18483">
      <stop
         id="stop18485"
         offset="0"
         style="stop-color:white;stop-opacity:1;" />
      <stop
         id="stop18487"
         offset="1"
         style="stop-color:white;stop-opacity:0;" />
    </linearGradient>
    <linearGradient
       inkscape:collect="always"
       xlink:href="#linearGradient18483"
       id="linearGradient10208"
       gradientUnits="userSpaceOnUse"
       gradientTransform="matrix(-0.6502013,0,0,0.6972362,29.37161,4.008854)"
       x1="-1.4335916"
       y1="10.880456"
       x2="29.666786"
       y2="20.197186" />
    <radialGradient
       inkscape:collect="always"
       xlink:href="#linearGradient2857"
       id="radialGradient10206"
       gradientUnits="userSpaceOnUse"
       gradientTransform="matrix(-0.5592972,-0.1182496,-0.275561,1.303346,36.039098,-13.6624)"
       cx="36.406609"
       cy="36.238743"
       fx="36.406609"
       fy="36.238743"
       r="4.6423826" />
    <linearGradient
       inkscape:collect="always"
       xlink:href="#linearGradient2857"
       id="linearGradient10204"
       gradientUnits="userSpaceOnUse"
       gradientTransform="matrix(-0.6502013,0,0,0.6972362,29.561742,4.100947)"
       x1="-9.5250788"
       y1="0.072172433"
       x2="18.901718"
       y2="23.053406" />
    <linearGradient
       inkscape:collect="always"
       id="linearGradient3104">
      <stop
         style="stop-color:white;stop-opacity:1;"
         offset="0"
         id="stop3106" />
      <stop
         style="stop-color:white;stop-opacity:0;"
         offset="1"
         id="stop3108" />
    </linearGradient>
    <linearGradient
       inkscape:collect="always"
       xlink:href="#linearGradient3104"
       id="linearGradient10202"
       gradientUnits="userSpaceOnUse"
       gradientTransform="matrix(-0.6756495,0,0,0.6756495,30.486473,4.921877)"
       x1="18.677511"
       y1="44.428509"
       x2="19.653311"
       y2="38.619789" />
    <linearGradient
       id="linearGradient4599">
      <stop
         style="stop-color:#28578c;stop-opacity:1;"
         offset="0"
         id="stop4601" />
      <stop
         style="stop-color:#28578c;stop-opacity:1;"
         offset="1"
         id="stop4603" />
    </linearGradient>
    <linearGradient
       inkscape:collect="always"
       xlink:href="#linearGradient4599"
       id="linearGradient10200"
       gradientUnits="userSpaceOnUse"
       gradientTransform="matrix(-0.6756495,0,0,0.6756495,30.377279,4.538638)"
       x1="35.542805"
       y1="23.287086"
       x2="28.8291"
       y2="45" />
    <linearGradient
       id="linearGradient2857">
      <stop
         style="stop-color:#c9dbf0;stop-opacity:1;"
         offset="0"
         id="stop2859" />
      <stop
         style="stop-color:#28578c;stop-opacity:1;"
         offset="1"
         id="stop2861" />
    </linearGradient>
    <radialGradient
       inkscape:collect="always"
       xlink:href="#linearGradient2857"
       id="radialGradient10198"
       gradientUnits="userSpaceOnUse"
       gradientTransform="matrix(-0.6196097,0.1254528,9.1638381e-2,0.4525995,26.605409,7.683949)"
       cx="20.145008"
       cy="35.484245"
       fx="20.145008"
       fy="35.484245"
       r="18" />
    <linearGradient
       inkscape:collect="always"
       xlink:href="#linearGradient2823"
       id="linearGradient10196"
       gradientUnits="userSpaceOnUse"
       gradientTransform="matrix(-0.6756495,0,0,0.6756495,30.426753,4.993965)"
       x1="8.34375"
       y1="37.4375"
       x2="10.124999"
       y2="37.4375" />
    <linearGradient
       id="linearGradient2823">
      <stop
         style="stop-color:#11263e;stop-opacity:1;"
         offset="0"
         id="stop2825" />
      <stop
         style="stop-color:#28578c;stop-opacity:1;"
         offset="1"
         id="stop2827" />
    </linearGradient>
    <linearGradient
       inkscape:collect="always"
       xlink:href="#linearGradient2823"
       id="linearGradient10194"
       gradientUnits="userSpaceOnUse"
       gradientTransform="matrix(-0.6756495,0,0,0.6756495,30.58842,5.101036)"
       x1="30.161375"
       y1="36.096104"
       x2="27.731932"
       y2="36.74707" />
    <filter
       inkscape:collect="always"
       id="filter28382">
      <feGaussianBlur
         inkscape:collect="always"
         stdDeviation="0.83488603"
         id="feGaussianBlur28384" />
    </filter>
    <linearGradient
       id="linearGradient12318">
      <stop
         id="stop12320"
         offset="0"
         style="stop-color:#ffffff;stop-opacity:1;" />
      <stop
         id="stop12322"
         offset="1"
         style="stop-color:#ffffff;stop-opacity:0;" />
    </linearGradient>
    <linearGradient
       inkscape:collect="always"
       xlink:href="#linearGradient12318"
       id="linearGradient14459"
       gradientUnits="userSpaceOnUse"
       gradientTransform="matrix(0.5661194,0,0,0.5661194,21.241696,453.86619)"
       x1="15.279443"
       y1="6.7133064"
       x2="15.279443"
       y2="18.093065" />
    <linearGradient
       id="linearGradient12310">
      <stop
         id="stop12312"
         offset="0"
         style="stop-color:#ffdcb9;stop-opacity:1;" />
      <stop
         id="stop12314"
         offset="1"
         style="stop-color:#b45a00;stop-opacity:1;" />
    </linearGradient>
    <radialGradient
       inkscape:collect="always"
       xlink:href="#linearGradient12310"
       id="radialGradient12387"
       gradientUnits="userSpaceOnUse"
       cx="15.428572"
       cy="19.608381"
       fx="15.428572"
       fy="19.608381"
       r="9.8571424" />
    <linearGradient
       id="linearGradient12324">
      <stop
         style="stop-color:#ffdcb9;stop-opacity:1;"
         offset="0"
         id="stop12326" />
      <stop
         style="stop-color:#783c00;stop-opacity:1;"
         offset="1"
         id="stop12328" />
    </linearGradient>
    <linearGradient
       inkscape:collect="always"
       xlink:href="#linearGradient12324"
       id="linearGradient12385"
       gradientUnits="userSpaceOnUse"
       x1="286.2713"
       y1="257.26544"
       x2="286.2713"
       y2="69.638069" />
    <linearGradient
       id="linearGradient6338">
      <stop
         style="stop-color:white;stop-opacity:1;"
         offset="0"
         id="stop6340" />
      <stop
         style="stop-color:white;stop-opacity:0;"
         offset="1"
         id="stop6342" />
    </linearGradient>
    <linearGradient
       inkscape:collect="always"
       xlink:href="#linearGradient6338"
       id="linearGradient12434"
       gradientUnits="userSpaceOnUse"
       gradientTransform="matrix(0.997338,0,0,1.000413,-4.3158701,446.56179)"
       x1="123.21429"
       y1="6.3497601"
       x2="123.21429"
       y2="20.749748" />
    <linearGradient
       id="linearGradient14308">
      <stop
         style="stop-color:#cccccf;stop-opacity:1;"
         offset="0"
         id="stop14310" />
      <stop
         style="stop-color:white;stop-opacity:1;"
         offset="1"
         id="stop14312" />
    </linearGradient>
    <linearGradient
       inkscape:collect="always"
       xlink:href="#linearGradient14308"
       id="linearGradient12437"
       gradientUnits="userSpaceOnUse"
       gradientTransform="matrix(1.0824719,0,0,0.983181,-10.2199,443.62952)"
       x1="124.95133"
       y1="86.186073"
       x2="124.95133"
       y2="130.05101" />
    <linearGradient
       id="linearGradient3663">
      <stop
         style="stop-color:#3d6a8b;stop-opacity:1;"
         offset="0"
         id="stop3665" />
      <stop
         style="stop-color:#b5d3df;stop-opacity:1;"
         offset="1"
         id="stop3667" />
    </linearGradient>
    <linearGradient
       inkscape:collect="always"
       xlink:href="#linearGradient3663"
       id="linearGradient12440"
       gradientUnits="userSpaceOnUse"
       gradientTransform="matrix(1.049715,0,0,1.016491,-6.2144171,438.34435)"
       x1="118.94418"
       y1="-48.587742"
       x2="118.94418"
       y2="84.709953" />
  </defs>
  <sodipodi:namedview
     id="base"
     pagecolor="#ffffff"
     bordercolor="#666666"
     borderopacity="1.0"
     gridtolerance="10000"
     guidetolerance="10"
     objecttolerance="10"
     inkscape:pageopacity="0.0"
     inkscape:pageshadow="2"
     inkscape:zoom="0.35"
     inkscape:cx="375"
     inkscape:cy="520"
     inkscape:document-units="px"
     inkscape:current-layer="layer1"
     inkscape:window-width="750"
     inkscape:window-height="574"
     inkscape:window-x="918"
     inkscape:window-y="46" />
  <metadata
     id="metadata2825">
    <rdf:RDF>
      <cc:Work
         rdf:about="">
        <dc:format>image/svg+xml</dc:format>
        <dc:type
           rdf:resource="http://purl.org/dc/dcmitype/StillImage" />
      </cc:Work>
    </rdf:RDF>
  </metadata>
  <g
     inkscape:label="Layer 1"
     inkscape:groupmode="layer"
     id="layer1"
     transform="translate(-175,-421.93361)">
    <g
       id="g14575"
       inkscape:export-filename="/media/usbdisk/Kubuntu/Emerald2.0/PNG/notifystate.png"
       inkscape:export-xdpi="90"
       inkscape:export-ydpi="90"
       transform="translate(155,-33.647623)">
      <rect
         y="456.08347"
         x="20.502228"
         height="116.99554"
         width="208.99554"
         id="rect10104"
         style="fill:url(#linearGradient12440);fill-opacity:1;fill-rule:evenodd;stroke:#002f50;stroke-width:1.00446093;stroke-linecap:round;stroke-linejoin:round;stroke-miterlimit:4;stroke-dasharray:none;stroke-dashoffset:0;stroke-opacity:1" />
      <rect
         y="473.56961"
         x="22.638451"
         height="97.428818"
         width="204.79604"
         id="rect10106"
         style="fill:url(#linearGradient12437);fill-opacity:1;fill-rule:evenodd;stroke:#24587c;stroke-width:0.99448919;stroke-linecap:round;stroke-linejoin:round;stroke-miterlimit:4;stroke-dasharray:none;stroke-dashoffset:0;stroke-opacity:1" />
      <rect
         y="456.56595"
         x="20.973759"
         height="10.718717"
         width="208.01608"
         id="rect10108"
         style="color:#000000;fill:url(#linearGradient12434);fill-opacity:1;fill-rule:evenodd;stroke:none;stroke-width:1;stroke-linecap:round;stroke-linejoin:round;marker:none;marker-start:none;marker-mid:none;marker-end:none;stroke-miterlimit:4;stroke-dasharray:none;stroke-dashoffset:0;stroke-opacity:1;visibility:visible;display:inline;overflow:visible" />
      <g
         id="g14483">
        <path
           sodipodi:type="arc"
           style="fill:url(#linearGradient12385);fill-opacity:1;fill-rule:evenodd;stroke:none;stroke-width:4;stroke-linecap:square;stroke-linejoin:miter;stroke-miterlimit:4;stroke-dasharray:none;stroke-opacity:1"
           id="path12376"
           sodipodi:cx="270.53552"
           sodipodi:cy="86.002861"
           sodipodi:rx="170.60156"
           sodipodi:ry="170.60156"
           d="M 441.13708 86.002861 A 170.60156 170.60156 0 1 1  99.93396,86.002861 A 170.60156 170.60156 0 1 1  441.13708 86.002861 z"
           transform="matrix(4.396261e-2,0,0,4.2051195e-2,18.080818,460.70458)" />
        <path
           sodipodi:type="arc"
           style="fill:url(#radialGradient12387);fill-opacity:1;fill-rule:evenodd;stroke:none;stroke-width:0.56549829;stroke-linecap:round;stroke-linejoin:round;stroke-miterlimit:4;stroke-dasharray:none;stroke-dashoffset:0;stroke-opacity:1"
           id="path15852"
           sodipodi:cx="15.428572"
           sodipodi:cy="16.571428"
           sodipodi:rx="9.8571424"
           sodipodi:ry="9.8571424"
           d="M 25.285714 16.571428 A 9.8571424 9.8571424 0 1 1  5.5714293,16.571428 A 9.8571424 9.8571424 0 1 1  25.285714 16.571428 z"
           transform="matrix(0.6616337,0,0,0.6616337,19.7662,453.0308)" />
        <path
           style="fill:url(#linearGradient14459);fill-opacity:1;fill-rule:evenodd;stroke:none;stroke-width:0.56549829;stroke-linecap:round;stroke-linejoin:round;stroke-miterlimit:4;stroke-dashoffset:0;stroke-opacity:1"
           d="M 25.496786,459.94403 C 26.350502,458.46535 28.142313,457.66727 29.976112,457.66727 C 31.787316,457.66727 33.576258,458.41284 34.41755,459.87 C 38.587103,467.09188 21.458406,466.93871 25.496786,459.94403 z "
           id="path15854"
           sodipodi:nodetypes="csss" />
      </g>
      <g
         style="opacity:0.3"
         transform="matrix(1.8181817,0,0,1.8181817,-498.94535,242.1995)"
         id="g10118">
        <path
           style="opacity:0.8;fill:#000000;fill-opacity:1;fill-rule:evenodd;stroke:none;stroke-width:1px;stroke-linecap:butt;stroke-linejoin:miter;stroke-opacity:1;filter:url(#filter28382)"
           d="M 13.703125,5.0525731 C 9.8638902,5.0525731 6.7343752,8.1820881 6.7343752,12.021323 C 6.7343772,14.270811 7.7949882,16.280992 9.4531252,17.552573 C 2.3156062,20.318175 1.2031252,29.63971 1.2031252,34.271323 C 2.4480542,35.653919 4.6459322,36.019095 6.7031252,35.521323 C 6.9166262,34.909563 7.0072332,34.633629 7.1718752,34.146323 C 7.8918382,35.199961 8.5224702,35.688112 9.7968752,36.115073 C 9.7998422,36.128272 9.7938932,36.133071 9.7968752,36.146323 C 12.581875,36.304029 15.574973,36.070928 18.515625,35.240073 C 18.475776,35.697912 18.453125,36.149463 18.453125,36.583823 C 18.468888,36.67164 18.511083,36.785708 18.546875,36.896323 C 18.660093,37.381283 18.867874,37.839357 19.328125,38.146323 C 19.344633,38.159683 19.373658,38.164881 19.390625,38.177573 C 19.468307,38.2251 19.548981,38.264114 19.640625,38.302573 C 19.654074,38.308948 19.658198,38.327894 19.671875,38.333823 C 19.777039,38.375723 19.890874,38.398877 20.015625,38.427573 C 20.020174,38.414968 20.011098,38.408871 20.015625,38.396323 L 21.390625,38.083823 C 21.354587,38.552234 21.335411,38.805319 21.296875,39.365073 C 26.361245,42.303308 31.996664,43.182297 37.046875,42.896323 C 37.049853,42.883093 37.043911,42.878257 37.046875,42.865073 C 38.505227,42.376485 39.189596,41.802104 40.015625,40.583823 C 40.207582,41.152185 40.326543,41.487945 40.578125,42.208823 C 42.909646,42.772973 45.385935,42.33829 46.796875,40.771323 C 46.796875,36.114674 45.789782,27.273031 39.921875,23.146323 L 39.890625,23.115073 C 39.153204,22.600577 38.351938,22.182089 37.453125,21.833823 C 39.326635,20.392303 40.515626,18.097475 40.515625,15.552573 C 40.515625,11.201372 36.991824,7.6775731 32.640625,7.6775731 C 28.289424,7.6775731 24.765624,11.201372 24.765625,15.552573 C 24.765625,18.046843 25.893054,20.295349 27.703125,21.740073 C 26.507324,22.1891 25.437402,22.808236 24.484375,23.552573 C 23.36757,21.330778 21.686302,19.333082 19.390625,18.083823 L 19.234375,18.021323 C 18.847273,17.818408 18.437218,17.6476 18.015625,17.490073 C 19.621996,16.215701 20.640625,14.229549 20.640625,12.021323 C 20.640627,8.1820881 17.54236,5.0525731 13.703125,5.0525731 z "
           id="path10120"
           transform="matrix(0.9650446,0,0,0.9650446,353.12076,137.91744)" />
        <g
           id="g10122"
           transform="translate(352.28183,137.07852)">
          <path
             id="path10124"
             sodipodi:nodetypes="cccc"
             d="M 10.403392,35.505263 C 12.496457,31.551325 11.76391,22.269599 5.758302,21.781133 C 9.6512587,22.716579 10.095346,28.026792 7.8274785,33.520543 C 8.545356,34.597359 9.1443238,35.083441 10.403392,35.505263 z "
             style="fill:url(#linearGradient10194);fill-opacity:1;fill-rule:evenodd;stroke:none;stroke-width:1px;stroke-linecap:butt;stroke-linejoin:miter;stroke-opacity:1" />
          <path
             id="path10126"
             sodipodi:nodetypes="cccc"
             d="M 24.789303,31.745462 L 23.333494,27.594923 L 23.585803,31.47098 L 24.789303,31.745462 z "
             style="fill:url(#linearGradient10196);fill-opacity:1;fill-rule:evenodd;stroke:none;stroke-width:1px;stroke-linecap:butt;stroke-linejoin:miter;stroke-opacity:1" />
          <rect
             transform="scale(-1,1)"
             height="17.838528"
             x="-25.820135"
             y="17.43018"
             width="23.108648"
             id="rect10128"
             style="fill:none;stroke:none" />
          <path
             id="path10130"
             sodipodi:nodetypes="ccccccsc"
             d="M 2.1689118,33.749184 C 3.3610073,35.073107 5.4455583,35.419026 7.4154475,34.942379 C 9.4237124,29.187937 8.951328,29.147558 10.386453,35.524463 C 14.653349,35.766082 19.419023,35.046714 23.697881,32.564215 C 23.349672,26.953127 23.02175,26.909769 24.786646,31.76095 C 25.575064,31.654721 26.009208,30.67345 26.09475,30.196902 C 26.09475,24.840053 22.54083,17.019096 14.474779,16.974382 C 3.6422972,16.914662 2.1689118,28.492822 2.1689118,33.749184 z "
             style="color:#000000;fill:url(#radialGradient10198);fill-opacity:1;fill-rule:nonzero;stroke:#ff0000;stroke-width:0.33782473;stroke-linecap:round;stroke-linejoin:round;marker:none;marker-start:none;marker-mid:none;marker-end:none;stroke-miterlimit:4;stroke-dashoffset:0;stroke-opacity:0;visibility:visible;display:inline;overflow:visible" />
          <path
             sodipodi:nodetypes="cccsscccsc"
             id="path10132"
             d="M 5.6527297,21.556559 C 11.924989,22.033002 12.690063,31.086256 10.504064,34.942865 C 10.47904,34.936604 10.462502,34.928461 10.43791,34.922271 C 10.395915,34.669688 10.288478,34.187272 10.085085,33.254131 C 9.8422799,32.140171 9.5959038,30.589218 9.1060937,30.627933 C 8.8179268,30.650709 8.5362595,31.369332 8.3209636,31.853718 C 9.8062823,27.093144 9.2054654,22.35384 5.6527297,21.556559 z M 9.6220037,34.716327 C 9.6884356,34.729338 9.761751,34.73458 9.8204664,34.757517 C 9.7587673,34.740728 9.6811135,34.732966 9.6220037,34.716327 z "
             style="fill:url(#linearGradient10200);fill-opacity:1;fill-rule:evenodd;stroke:none;stroke-width:1px;stroke-linecap:butt;stroke-linejoin:miter;stroke-opacity:1;display:inline" />
          <path
             id="path10134"
             sodipodi:nodetypes="ccccccsssc"
             d="M 2.5272291,33.510306 C 3.6770966,34.580861 5.3209963,35.018481 7.2064296,34.584062 C 8.623501,30.687656 9.2200666,28.759381 10.655192,35.136285 C 14.922087,35.377905 19.060705,34.777977 23.339564,32.295478 C 23.12104,27.997341 23.717311,27.579867 24.942129,31.332668 C 25.312135,31.280705 25.729219,30.678643 25.796152,30.137183 C 25.796152,26.435462 24.071992,22.508192 20.462101,19.566606 C 18.198062,17.721712 18.400252,20.272771 14.35534,20.497834 C 11.410975,20.661661 10.405272,19.11814 8.6844542,20.464457 C 4.0839704,24.063739 2.5272291,29.684858 2.5272291,33.510306 z "
             style="color:#000000;fill:none;fill-opacity:1;fill-rule:nonzero;stroke:url(#linearGradient10202);stroke-width:0.20269486;stroke-linecap:butt;stroke-linejoin:miter;marker:none;marker-start:none;marker-mid:none;marker-end:none;stroke-miterlimit:4;stroke-dasharray:none;stroke-dashoffset:0;stroke-opacity:1;visibility:visible;display:inline;overflow:visible" />
          <path
             sodipodi:nodetypes="ccccc"
             id="path10136"
             d="M 18.267569,17.661535 C 16.116021,19.15997 13.56882,19.806504 9.9274168,17.799203 L 7.970099,18.848729 C 14.362871,21.880713 17.119264,21.200266 19.576929,18.235267 L 18.267569,17.661535 z "
             style="fill:url(#linearGradient10204);fill-opacity:1;fill-rule:evenodd;stroke:#ffffff;stroke-width:0.48665428;stroke-miterlimit:4;stroke-opacity:0;display:inline" />
          <path
             sodipodi:nodetypes="csccsc"
             id="path10138"
             d="M 7.0231606,23.061683 C 8.4089562,23.54416 8.8646674,27.502088 8.3246834,30.394501 C 8.0562898,31.832145 7.666355,33.144113 6.9374856,34.299569 C 5.3949433,34.550611 4.0757225,34.229387 3.0304832,33.564828 C 3.031784,33.451557 3.066369,33.384748 3.0304832,33.26915 C 2.2114621,30.630845 4.0676331,22.289118 7.0231606,23.061683 z "
             style="opacity:0.6;fill:url(#radialGradient10206);fill-opacity:1;fill-rule:evenodd;stroke:#ffffff;stroke-width:0.56395513;stroke-miterlimit:4;stroke-opacity:0;display:inline" />
          <path
             sodipodi:nodetypes="cssss"
             id="path10140"
             d="M 17.732854,17.770449 C 15.878208,19.02203 13.500893,18.931894 10.259684,17.876515 C 9.8918144,17.756732 9.7531112,18.179997 9.9204125,18.269324 C 12.966095,19.895516 15.652965,20.04723 18.174534,18.035927 C 18.418143,17.841616 17.963075,17.615088 17.732854,17.770449 z "
             style="fill:url(#linearGradient10208);fill-opacity:1;fill-rule:evenodd;stroke:#ffffff;stroke-width:0.48665428;stroke-miterlimit:4;stroke-opacity:0;display:inline" />
          <path
             sodipodi:ry="9.8571424"
             sodipodi:rx="9.8571424"
             transform="matrix(-0.6756495,0,0,0.6756495,24.54713,1.23449)"
             d="M 25.285714 16.571428 A 9.8571424 9.8571424 0 1 1  5.5714293,16.571428 A 9.8571424 9.8571424 0 1 1  25.285714 16.571428 z"
             sodipodi:type="arc"
             sodipodi:cy="16.571428"
             sodipodi:cx="15.428572"
             id="path10142"
             style="fill:url(#radialGradient10210);fill-opacity:1;fill-rule:evenodd;stroke:none;stroke-width:0.5;stroke-linecap:round;stroke-linejoin:round;stroke-miterlimit:4;stroke-dasharray:none;stroke-dashoffset:0;stroke-opacity:1" />
          <path
             id="path10144"
             sodipodi:nodetypes="csss"
             d="M 18.721785,8.333595 C 17.693897,7.050661 16.123319,6.230091 14.364336,6.230091 C 12.589616,6.230091 10.895992,6.987184 9.9794275,8.368139 C 5.1928607,15.57989 23.700639,15.464885 18.721785,8.333595 z "
             style="fill:url(#linearGradient10212);fill-opacity:1;fill-rule:evenodd;stroke:none;stroke-width:0.2;stroke-linecap:round;stroke-linejoin:round;stroke-miterlimit:4;stroke-dashoffset:0;stroke-opacity:1" />
          <path
             id="path10146"
             sodipodi:nodetypes="ccccccsssc"
             d="M 2.1689118,33.749184 C 3.6566041,34.355229 5.0655055,34.65892 7.4154475,34.942379 C 9.4237124,29.187937 8.951328,29.147558 10.386453,35.524463 C 14.653349,35.766082 19.419023,35.046714 23.697881,32.564215 C 23.319812,27.072567 22.994915,26.780727 24.792831,31.762011 C 25.729729,31.5465 25.982587,30.862925 26.089627,30.196902 C 26.089627,26.389399 23.706934,20.850456 19.635102,18.7141 C 17.903478,17.805575 18.595,19.598358 15.226396,20.058062 C 10.862561,20.653583 10.26457,18.375288 8.2459231,19.975267 C 3.7698642,23.522991 2.1689118,30.204142 2.1689118,33.749184 z "
             style="opacity:0.4;color:#000000;fill:url(#radialGradient10214);fill-opacity:1;fill-rule:nonzero;stroke:#ff0000;stroke-width:0.33782473;stroke-linecap:butt;stroke-linejoin:miter;marker:none;marker-start:none;marker-mid:none;marker-end:none;stroke-miterlimit:4;stroke-dashoffset:0;stroke-opacity:0;visibility:visible;display:inline;overflow:visible" />
          <path
             id="path10148"
             sodipodi:nodetypes="cccc"
             d="M 36.476009,41.965849 C 34.103831,37.48465 34.934064,26.965197 41.740525,26.411594 C 37.328439,27.471782 36.825132,33.490117 39.395422,39.716465 C 38.581815,40.936876 37.902974,41.487777 36.476009,41.965849 z "
             style="fill:url(#linearGradient10216);fill-opacity:1;fill-rule:evenodd;stroke:none;stroke-width:1px;stroke-linecap:butt;stroke-linejoin:miter;stroke-opacity:1" />
          <path
             id="path10150"
             sodipodi:nodetypes="cccc"
             d="M 20.171723,37.704675 L 21.821664,33.000658 L 21.53571,37.39359 L 20.171723,37.704675 z "
             style="fill:url(#linearGradient10218);fill-opacity:1;fill-rule:evenodd;stroke:none;stroke-width:1px;stroke-linecap:butt;stroke-linejoin:miter;stroke-opacity:1" />
          <rect
             height="20.217312"
             x="19.003428"
             y="21.480438"
             width="26.190208"
             id="rect10152"
             style="fill:none;stroke:none" />
          <path
             id="path10154"
             sodipodi:nodetypes="ccccccsc"
             d="M 45.808564,39.975596 C 44.457501,41.476065 42.094973,41.868113 39.862397,41.327905 C 37.586328,34.806102 38.121706,34.760339 36.495206,41.987609 C 31.659316,42.261449 26.258135,41.446152 21.408687,38.63261 C 21.803329,32.273278 22.174981,32.224138 20.174733,37.722229 C 19.28118,37.601834 18.789141,36.48971 18.692193,35.949614 C 18.692193,29.878423 22.720031,21.014535 31.861698,20.963858 C 44.138701,20.896175 45.808564,34.018292 45.808564,39.975596 z "
             style="color:#000000;fill:url(#radialGradient10220);fill-opacity:1;fill-rule:nonzero;stroke:#ff0000;stroke-width:0.38287398;stroke-linecap:round;stroke-linejoin:round;marker:none;marker-start:none;marker-mid:none;marker-end:none;stroke-miterlimit:4;stroke-dashoffset:0;stroke-opacity:0;visibility:visible;display:inline;overflow:visible" />
          <path
             sodipodi:nodetypes="cccsscccsc"
             id="path10156"
             d="M 41.860175,26.157073 C 34.751505,26.69705 33.884408,36.957563 36.361911,41.328455 C 36.390272,41.321359 36.409016,41.31213 36.436888,41.305115 C 36.484482,41.01885 36.606246,40.472103 36.836761,39.414527 C 37.111945,38.152019 37.391175,36.394245 37.946302,36.438122 C 38.272896,36.463936 38.592124,37.278388 38.83613,37.827367 C 37.152743,32.431966 37.833679,27.060672 41.860175,26.157073 z M 37.361595,41.071708 C 37.286304,41.086454 37.203212,41.092395 37.136667,41.11839 C 37.206594,41.099362 37.294603,41.090565 37.361595,41.071708 z "
             style="fill:url(#linearGradient10222);fill-opacity:1;fill-rule:evenodd;stroke:none;stroke-width:1px;stroke-linecap:butt;stroke-linejoin:miter;stroke-opacity:1;display:inline" />
          <path
             id="path10158"
             sodipodi:nodetypes="ccccccsssc"
             d="M 45.402464,39.704863 C 44.099261,40.918177 42.236146,41.414154 40.099288,40.921805 C 38.493249,36.50581 37.817131,34.320398 36.190631,41.547668 C 31.354741,41.821508 26.664234,41.141578 21.814786,38.328036 C 22.06245,33.456738 21.386665,32.983594 19.998517,37.236834 C 19.579171,37.177942 19.106468,36.495595 19.030609,35.881931 C 19.030609,31.686582 20.984688,27.235607 25.075961,23.901757 C 27.641911,21.810845 27.41276,24.702091 31.997064,24.957166 C 35.334063,25.142839 36.473878,23.393488 38.424167,24.919337 C 43.63813,28.998587 45.402464,35.369288 45.402464,39.704863 z "
             style="color:#000000;fill:none;fill-opacity:1;fill-rule:nonzero;stroke:url(#linearGradient10224);stroke-width:0.22972441;stroke-linecap:butt;stroke-linejoin:miter;marker:none;marker-start:none;marker-mid:none;marker-end:none;stroke-miterlimit:4;stroke-dasharray:none;stroke-dashoffset:0;stroke-opacity:1;visibility:visible;display:inline;overflow:visible" />
          <path
             sodipodi:nodetypes="ccccc"
             id="path10160"
             d="M 27.563136,21.742643 C 30.001594,23.440896 32.888467,24.173646 37.015455,21.898669 L 39.233783,23.088151 C 31.988529,26.524452 28.864568,25.753268 26.079171,22.392883 L 27.563136,21.742643 z "
             style="fill:url(#linearGradient10226);fill-opacity:1;fill-rule:evenodd;stroke:#ffffff;stroke-width:0.55155009;stroke-miterlimit:4;stroke-opacity:0;display:inline" />
          <path
             sodipodi:nodetypes="csccsc"
             id="path10162"
             d="M 40.306996,27.862906 C 38.736403,28.409721 38.219923,32.895443 38.831914,36.173562 C 39.136098,37.802918 39.578031,39.289838 40.404096,40.599375 C 42.152338,40.883893 43.647478,40.519834 44.832101,39.766655 C 44.830627,39.638279 44.79143,39.562562 44.832101,39.431548 C 45.760339,36.441423 43.656646,26.987319 40.306996,27.862906 z "
             style="opacity:0.6;fill:url(#radialGradient10228);fill-opacity:1;fill-rule:evenodd;stroke:#ffffff;stroke-width:0.63915902;stroke-miterlimit:4;stroke-opacity:0;display:inline" />
          <path
             sodipodi:nodetypes="cssss"
             id="path10164"
             d="M 28.169156,21.866081 C 30.271121,23.284562 32.965452,23.182406 36.63888,21.986291 C 37.055805,21.850535 37.213004,22.330242 37.023393,22.431482 C 33.571567,24.274528 30.5264,24.446473 27.668577,22.166961 C 27.392482,21.946738 27.908235,21.690002 28.169156,21.866081 z "
             style="fill:url(#linearGradient10230);fill-opacity:1;fill-rule:evenodd;stroke:#ffffff;stroke-width:0.55155009;stroke-miterlimit:4;stroke-opacity:0;display:inline" />
          <path
             sodipodi:ry="9.8571424"
             sodipodi:rx="9.8571424"
             transform="matrix(0.765748,0,0,0.765748,20.446189,3.125037)"
             d="M 25.285714 16.571428 A 9.8571424 9.8571424 0 1 1  5.5714293,16.571428 A 9.8571424 9.8571424 0 1 1  25.285714 16.571428 z"
             sodipodi:type="arc"
             sodipodi:cy="16.571428"
             sodipodi:cx="15.428572"
             id="path10166"
             style="fill:url(#radialGradient10232);fill-opacity:1;fill-rule:evenodd;stroke:none;stroke-width:0.5;stroke-linecap:round;stroke-linejoin:round;stroke-miterlimit:4;stroke-dasharray:none;stroke-dashoffset:0;stroke-opacity:1" />
          <path
             id="path10168"
             sodipodi:nodetypes="csss"
             d="M 27.04835,11.170814 C 28.213307,9.716799 29.993324,8.786806 31.986869,8.786806 C 33.99825,8.786806 35.91772,9.644857 36.956508,11.209964 C 42.381368,19.383409 21.405561,19.253068 27.04835,11.170814 z "
             style="fill:url(#linearGradient10234);fill-opacity:1;fill-rule:evenodd;stroke:none;stroke-width:0.2;stroke-linecap:round;stroke-linejoin:round;stroke-miterlimit:4;stroke-dashoffset:0;stroke-opacity:1" />
          <path
             id="path10170"
             sodipodi:nodetypes="ccccccsssc"
             d="M 45.808564,39.975596 C 44.122486,40.662457 42.525706,41.006646 39.862397,41.327905 C 37.586328,34.806102 38.121706,34.760339 36.495206,41.987609 C 31.659316,42.261449 26.258135,41.446152 21.408687,38.63261 C 21.837171,32.408645 22.205393,32.077888 20.167725,37.723431 C 19.10589,37.479181 18.819312,36.704451 18.697999,35.949614 C 18.697999,31.634377 21.398426,25.35681 26.013241,22.935569 C 27.975779,21.905891 27.192042,23.937743 31.009852,24.45875 C 35.955608,25.133684 36.633343,22.551576 38.921177,24.364914 C 43.994123,28.38573 45.808564,35.957819 45.808564,39.975596 z "
             style="opacity:0.4;color:#000000;fill:url(#radialGradient10236);fill-opacity:1;fill-rule:nonzero;stroke:#ff0000;stroke-width:0.38287398;stroke-linecap:butt;stroke-linejoin:miter;marker:none;marker-start:none;marker-mid:none;marker-end:none;stroke-miterlimit:4;stroke-dashoffset:0;stroke-opacity:0;visibility:visible;display:inline;overflow:visible" />
        </g>
      </g>
      <path
         sodipodi:nodetypes="ccccc"
         id="path10172"
         d="M 23.041352,474.13273 L 226.82491,474.13273 C 226.82491,474.13273 226.82491,493.55176 226.82491,518.68878 C 175.87902,529.82779 73.987239,529.82779 23.041352,518.68878 C 23.041352,489.61416 23.041352,474.13273 23.041352,474.13273 z "
         style="fill:url(#linearGradient12400);fill-opacity:1;fill-rule:evenodd;stroke:none;stroke-width:0.98609644;stroke-linecap:round;stroke-linejoin:round;stroke-miterlimit:4;stroke-dashoffset:0;stroke-opacity:1" />
      <path
         sodipodi:nodetypes="ccccccccc"
         id="path10174"
         d="M 224.37113,458.29469 C 224.37113,458.29469 215.86075,458.29469 215.86075,458.29469 C 214.34698,458.29469 213.58618,459.06668 213.58618,460.55976 C 213.58618,460.55976 213.58618,469.0613 213.58618,469.0613 C 213.58618,470.5876 214.35807,471.34112 215.84424,471.34112 C 215.84424,471.34112 224.34755,471.34112 224.34755,471.34112 C 225.86933,471.34112 226.63264,470.58398 226.63264,469.0613 C 226.63264,469.0613 226.63264,460.57824 226.63264,460.57824 C 226.63264,459.36113 225.86891,458.29469 224.37113,458.29469 z "
         style="color:#000000;fill:url(#linearGradient12397);fill-opacity:1;fill-rule:nonzero;stroke:#666666;stroke-width:0.95356917;stroke-linecap:butt;stroke-linejoin:miter;marker:none;marker-start:none;marker-mid:none;marker-end:none;stroke-miterlimit:4;stroke-dasharray:none;stroke-dashoffset:0;stroke-opacity:1;visibility:visible;display:inline;overflow:visible" />
      <path
         sodipodi:nodetypes="ccccccc"
         id="path10176"
         d="M 224.07754,458.79758 C 224.07754,458.79758 216.16143,458.79758 216.16143,458.79758 C 214.75337,458.79758 214.04569,459.50777 214.04569,460.88134 C 214.04569,460.88134 214.04569,463.11993 214.04569,463.11993 C 214.04569,465.94341 226.18113,466.02211 226.18113,463.11993 C 226.18113,463.11993 226.18113,460.89834 226.18113,460.89834 C 226.18113,459.77865 225.47074,458.79758 224.07754,458.79758 z "
         style="color:#000000;fill:url(#linearGradient12394);fill-opacity:1;fill-rule:nonzero;stroke:none;stroke-width:1.00042391;stroke-linecap:butt;stroke-linejoin:miter;marker:none;marker-start:none;marker-mid:none;marker-end:none;stroke-miterlimit:4;stroke-dasharray:none;stroke-dashoffset:0;stroke-opacity:1;visibility:visible;display:inline;overflow:visible" />
      <text
         sodipodi:linespacing="125%"
         id="text10178"
         y="468.09915"
         x="216.23929"
         style="font-size:12px;font-style:normal;font-variant:normal;font-weight:bold;font-stretch:normal;text-align:start;line-height:125%;writing-mode:lr-tb;text-anchor:start;fill:#666666;fill-opacity:1;stroke:none;stroke-width:1px;stroke-linecap:butt;stroke-linejoin:miter;stroke-opacity:1;font-family:Bitstream Vera Sans"
         xml:space="preserve"><tspan
           y="468.09915"
           x="216.23929"
           id="tspan10180"
           sodipodi:role="line">x</tspan></text>
    </g>
  </g>
</svg>
