/* XPM */
static char * dhidden_xpm[] = {
"38 38 225 2",
"  	c None",
". 	c #E5F0E7",
"+ 	c #D6E6DB",
"@ 	c #CEDACA",
"# 	c #C5D4C4",
"$ 	c #C9D2C7",
"% 	c #DAE0DB",
"& 	c #CFE2D2",
"* 	c #CEDDC6",
"= 	c #C2D2BD",
"- 	c #B6C4B5",
"; 	c #B7C1BA",
"> 	c #C8CDCA",
", 	c #D0D3D5",
"' 	c #DCECDF",
") 	c #C8DDC8",
"! 	c #CEE2CA",
"~ 	c #ACBAB5",
"{ 	c #ACB9B7",
"] 	c #BEC6CA",
"^ 	c #DDEBE4",
"/ 	c #C6DFD0",
"( 	c #C9E2CE",
"_ 	c #D7EBD2",
": 	c #D8E9D3",
"< 	c #B4C8C0",
"[ 	c #B1BABA",
"} 	c #A6B3B6",
"| 	c #AFB6B9",
"1 	c #D3D7DC",
"2 	c #C8E1D7",
"3 	c #C3E1D0",
"4 	c #D0E9D3",
"5 	c #DAF1DA",
"6 	c #C3D6CC",
"7 	c #BCCBC7",
"8 	c #AAC0C7",
"9 	c #A6B5BE",
"0 	c #A8B1BE",
"a 	c #BDC3CE",
"b 	c #E2EEE9",
"c 	c #C2DBD0",
"d 	c #CEECDB",
"e 	c #D8F2DF",
"f 	c #DBF1DF",
"g 	c #D4E9DC",
"h 	c #CCE2DD",
"i 	c #BAD5D3",
"j 	c #B3CDD0",
"k 	c #A6BFCA",
"l 	c #A5B8C8",
"m 	c #A4B0C4",
"n 	c #AFB5C6",
"o 	c #E4E5EB",
"p 	c #D1E0DB",
"q 	c #BCD9CE",
"r 	c #C0DDD1",
"s 	c #CBE8D8",
"t 	c #CEEBDE",
"u 	c #D6EFE1",
"v 	c #CBE1D6",
"w 	c #C7DCD7",
"x 	c #BCD2D7",
"y 	c #B2C9D4",
"z 	c #ACC3D9",
"A 	c #A9BACF",
"B 	c #A1B2CE",
"C 	c #A7B5CD",
"D 	c #E3E6EE",
"E 	c #B2D0C5",
"F 	c #CDE6DA",
"G 	c #C8E3DA",
"H 	c #B9D5D7",
"I 	c #B4CED9",
"J 	c #B4C9DC",
"K 	c #AFBFD7",
"L 	c #9DB7DD",
"M 	c #AFB7D0",
"N 	c #DEE3ED",
"O 	c #DAE5E4",
"P 	c #B2CCC6",
"Q 	c #B5D0C9",
"R 	c #BAD7D0",
"S 	c #BDD6D3",
"T 	c #ADC7DA",
"U 	c #ADC4DF",
"V 	c #A5BCE0",
"W 	c #B8C3DD",
"X 	c #DEE7E7",
"Y 	c #BCCECA",
"Z 	c #B2CBC8",
"` 	c #A7C7C0",
" .	c #B3CED5",
"..	c #ADC9D7",
"+.	c #A4BEDA",
"@.	c #9FB3D7",
"#.	c #CBD3E6",
"$.	c #B9CDC8",
"%.	c #ABBFBF",
"&.	c #ABC0BE",
"*.	c #A8C1C4",
"=.	c #A3BDCE",
"-.	c #A3B8D8",
";.	c #B0BDD9",
">.	c #A5B8BA",
",.	c #ABBBBF",
"'.	c #A3B6C8",
").	c #B4BEDD",
"!.	c #D0D7E7",
"~.	c #E4E6E7",
"{.	c #B0B9CC",
"].	c #CAD3E3",
"^.	c #E6ECEC",
"/.	c #B5C6BB",
"(.	c #B0BFB8",
"_.	c #AAB7BA",
":.	c #B4C2C4",
"<.	c #D2D8D8",
"[.	c #FDEEE7",
"}.	c #BFCDC2",
"|.	c #C8D1D2",
"1.	c #FAE9DF",
"2.	c #FBE0D0",
"3.	c #FDD9C8",
"4.	c #C9D8D4",
"5.	c #C0CDCB",
"6.	c #BFC9C8",
"7.	c #FBE1D4",
"8.	c #FDD6C0",
"9.	c #FFCFB8",
"0.	c #FBDFD4",
"a.	c #BDCDE0",
"b.	c #B7C1D7",
"c.	c #C1C2C1",
"d.	c #E5D6CB",
"e.	c #FDD8C3",
"f.	c #FED5BC",
"g.	c #FFD2BA",
"h.	c #FECBB3",
"i.	c #F3D3C9",
"j.	c #B4C2D0",
"k.	c #CEC0BC",
"l.	c #F0D2C0",
"m.	c #FEC7AF",
"n.	c #F9CFBF",
"o.	c #D5EED8",
"p.	c #D1EEDB",
"q.	c #DEF7E1",
"r.	c #B4BFD2",
"s.	c #ADBBC9",
"t.	c #C6BEBB",
"u.	c #E9CCBD",
"v.	c #D5ECDC",
"w.	c #DDF0DF",
"x.	c #CCDBE0",
"y.	c #F0CEB9",
"z.	c #FDC4AD",
"A.	c #C9E6D9",
"B.	c #D4E4E1",
"C.	c #C1B8BB",
"D.	c #D2EBDF",
"E.	c #CEE6DD",
"F.	c #C3DED8",
"G.	c #C3D3DD",
"H.	c #AABAD2",
"I.	c #B5B4BE",
"J.	c #D9C0B5",
"K.	c #F6CDB4",
"L.	c #FED1B5",
"M.	c #FFCFB3",
"N.	c #F8C5AF",
"O.	c #C3DDDA",
"P.	c #CADCDC",
"Q.	c #BBC6D9",
"R.	c #A5BCD3",
"S.	c #C8B9B9",
"T.	c #F2DCD8",
"U.	c #C4E2D5",
"V.	c #ABB7CC",
"W.	c #E7C8B5",
"X.	c #FCC9AB",
"Y.	c #F2E4DD",
"Z.	c #B8D5CA",
"`.	c #BED3DB",
" +	c #B4C4D3",
".+	c #F8CAAA",
"++	c #EDCCAC",
"@+	c #F3EDDE",
"#+	c #C2DCD4",
"$+	c #B5D1D7",
"%+	c #A9C3D6",
"&+	c #AEC9CC",
"*+	c #AFBBCE",
"=+	c #CCBCB1",
"-+	c #F4D1A2",
";+	c #F3DEB3",
">+	c #AEC9C8",
",+	c #BBDACD",
"'+	c #AEC8D0",
")+	c #C9C6B2",
"!+	c #F6DCAA",
"~+	c #F4D7AF",
"{+	c #F6E4AD",
"]+	c #F3E5BD",
"^+	c #A0C2BA",
"/+	c #C4CCB2",
"(+	c #F5E5B1",
"_+	c #FBE9AF",
":+	c #EDE6CE",
"<+	c #A2C5B9",
"[+	c #A1C7B7",
"}+	c #B5C8B6",
"|+	c #E1DAB9",
"1+	c #F0E2B4",
"2+	c #D2DEDE",
"3+	c #D6E3E7",
"4+	c #D5E1EC",
"5+	c #DAE3EE",
"6+	c #DDE6ED",
"7+	c #CFD9E2",
"8+	c #E7E4DC",
"9+	c #F0E7CA",
"0+	c #DFE9E9",
"a+	c #BACFDD",
"b+	c #C0D0E0",
"                                                                            ",
"                                                                            ",
"                              . + @ # $ $ %                                 ",
"                            + & * = = - - ; > ,                             ",
"                          ' ) ! ! * * = - ~ { ]                             ",
"                        ^ / ( _ _ : ) # < [ } | 1                           ",
"                        2 3 4 5 _ : & 6 7 8 9 0 a                           ",
"                      b c 3 d e f g h i j k l m n o                         ",
"                      p q r s t u v w x y z A B C D                         ",
"                      p E q r F G h H I J K L B M N                         ",
"                      O P Q R S S H I T U V L L W                           ",
"                      X Y Z ` Q j  ...z +.V L @.#.                          ",
"                        $.%.&.&.*.k =.K -.L @.;.N                           ",
"                          7 { >.,.9 '.C B -.).!.                            ",
"                          ~.7 { } 9 0 m m {.].                              ",
"                          ^.p /.(.{ >._._.:.<.                [.[.          ",
"                        . + ) ) ) }.}./.- (.; |.~.        1.2.3.3.2.        ",
"                      . v ( 4 & 4.|.5.7 7 (.~ [ 6.<.  7.2.3.8.8.9.9.0.      ",
"                    ' : ( 4 _ + a.K b.a ] :.:.} | c.d.2.e.8.f.g.9.h.i.      ",
"                . ' _ 4 4 5 5 + a.).).;.K j.:.,.| k.l.8.f.f.9.9.9.m.n.      ",
"              . f f f o.p.q.q.' ].).).).).;.r.s.t.u.e.8.g.g.9.9.h.m.n.      ",
"            ^ v.o.5 e p.o.q.q.w.x.W ).).).).;.{.k.y.f.f.g.9.9.9.h.z.n.      ",
"          . t e e v.F A.p.q.q.w.B.a.).).).).M M C.y.f.g.g.g.9.9.h.z.n.      ",
"          D.p.e D.E.F.A.p.q.q.w.+ G.W ).;.;.H.H.I.J.K.f.L.L.M.M.m.N.i.      ",
"        ^ s t E.O.H R A.d e f w.g P.Q.).;.H.A R.n S.y.f.L.L.M.M.m.N.T.      ",
"        E.U.t O.I  .R U.d e e u g w G.b.;.H.A A V.C.W.L.L.L.L.X.X.K.Y.      ",
"      b 2 U.O.I ..y Z.U.d d d g G O.`. +r.R.A A n I.J.K.X.h.M.X..+++@+      ",
"      B.#+R $+%+R.&+Z.r A.s t F h O.x I T *+A A A 0 =+++L..+.+.+-+;+@+      ",
"      w Z.i ..+.=.>+E ,+A.s U.2 O.O.x $+'+k =.A l _.)+;+!+;+~+!+{+]+@+      ",
"      O.E '+%++.=.` Z.q r U.2 #+#+i $+ .&+>+,.k *.^+/+(+{+_+_+_+{+:+        ",
"      h S j T U ..Z Z.,+r / #+F.i H $+I '+>+^+^+<+[+}+|+(+_+_+_+1+@+        ",
"      2+3+3+4+5+6+w Z.Z.q r q R S j  .....'+` [+[+[+&.> |+1+_+1+:+          ",
"                  2+B.#+R c R R i j  ...T T y ` <+[+>+7+8+:+9+:+            ",
"                      0+B.w w 4.i $+I I a+a.b+`.Q E w                       ",
"                          0+O 0+O 3+6+4+4+4+5+6+3+3+O                       ",
"                                                                            ",
"                                                                            ",
"                                                                            "};
