/* XPM */
static char * doffline_xpm[] = {
"38 38 256 2",
"  	c None",
". 	c #652243",
"+ 	c #68252C",
"@ 	c #6B2337",
"# 	c #5F2261",
"$ 	c #612452",
"% 	c #682738",
"& 	c #662E2F",
"* 	c #602C4B",
"= 	c #592B6F",
"- 	c #702B32",
"; 	c #692953",
"> 	c #772B30",
", 	c #742E2B",
"' 	c #772844",
") 	c #642C63",
"! 	c #66304A",
"~ 	c #812839",
"{ 	c #743228",
"] 	c #6F2D52",
"^ 	c #70333B",
"/ 	c #5C4031",
"( 	c #653653",
"_ 	c #6D3254",
": 	c #772D56",
"< 	c #66355D",
"[ 	c #7B3330",
"} 	c #72334C",
"| 	c #663373",
"1 	c #7C2F4E",
"2 	c #6E345B",
"3 	c #62432F",
"4 	c #633869",
"5 	c #6C394D",
"6 	c #703C36",
"7 	c #733A3B",
"8 	c #783354",
"9 	c #62472C",
"0 	c #693F44",
"a 	c #793C2E",
"b 	c #703C4A",
"c 	c #942F35",
"d 	c #7B3566",
"e 	c #6A473A",
"f 	c #7A3962",
"g 	c #6E4062",
"h 	c #863D34",
"i 	c #81366F",
"j 	c #A13231",
"k 	c #803B5B",
"l 	c #804043",
"m 	c #83432B",
"n 	c #744064",
"o 	c #803F58",
"p 	c #844532",
"q 	c #774171",
"r 	c #A03832",
"s 	c #863C64",
"t 	c #A93724",
"u 	c #80415F",
"v 	c #7F4B2D",
"w 	c #774A4A",
"x 	c #963E3B",
"y 	c #80493D",
"z 	c #764B50",
"A 	c #754769",
"B 	c #754B55",
"C 	c #764A60",
"D 	c #883F6C",
"E 	c #7C4D49",
"F 	c #924055",
"G 	c #7E4A5D",
"H 	c #7F4F45",
"I 	c #AD3D34",
"J 	c #814A69",
"K 	c #8C4566",
"L 	c #90484D",
"M 	c #A44622",
"N 	c #7D5157",
"O 	c #7D5643",
"P 	c #944A4A",
"Q 	c #8D4F45",
"R 	c #9B4F21",
"S 	c #7C5463",
"T 	c #C03C2B",
"U 	c #82574B",
"V 	c #7F5369",
"W 	c #925242",
"X 	c #8D554E",
"Y 	c #835862",
"Z 	c #96524F",
"` 	c #89556E",
" .	c #975937",
"..	c #3B73A8",
"+.	c #4F6B9E",
"@.	c #905274",
"#.	c #865F4C",
"$.	c #A0544E",
"%.	c #8E5B62",
"&.	c #88605E",
"*.	c #876063",
"=.	c #925873",
"-.	c #8E5D69",
";.	c #9C5E41",
">.	c #8A6456",
",.	c #A2585D",
"'.	c #A45B48",
").	c #8E635C",
"!.	c #D74826",
"~.	c #8D6652",
"{.	c #8C684D",
"].	c #9B5C6D",
"^.	c #9B6153",
"/.	c #F4411D",
"(.	c #FD4119",
"_.	c #E15015",
":.	c #DB4D36",
"<.	c #A75C78",
"[.	c #986A58",
"}.	c #A55D7D",
"|.	c #A4645F",
"1.	c #F54A16",
"2.	c #966E5A",
"3.	c #996C5F",
"4.	c #996D66",
"5.	c #A16E4C",
"6.	c #AD684D",
"7.	c #FD491A",
"8.	c #E85030",
"9.	c #977358",
"0.	c #A06D62",
"a.	c #F14F26",
"b.	c #AA6F44",
"c.	c #9D7259",
"d.	c #ED5908",
"e.	c #B6636A",
"f.	c #A36C6E",
"g.	c #B3617F",
"h.	c #B36665",
"i.	c #FF4C26",
"j.	c #AF6675",
"k.	c #A66B75",
"l.	c #9A7761",
"m.	c #CD672D",
"n.	c #A37651",
"o.	c #E85839",
"p.	c #A47462",
"q.	c #FF531F",
"r.	c #A97363",
"s.	c #9F7869",
"t.	c #F65538",
"u.	c #AD7749",
"v.	c #D3634D",
"w.	c #EE6119",
"x.	c #FF552F",
"y.	c #AF765B",
"z.	c #B3716B",
"A.	c #A97670",
"B.	c #EC5C49",
"C.	c #FE5A28",
"D.	c #A27E68",
"E.	c #A58064",
"F.	c #FF5C31",
"G.	c #A87E6A",
"H.	c #C2716B",
"I.	c #AB7D70",
"J.	c #F26B15",
"K.	c #B67A72",
"L.	c #B77687",
"M.	c #EE6E1F",
"N.	c #B0825D",
"O.	c #BC767D",
"P.	c #FD6239",
"Q.	c #768FB8",
"R.	c #BB7C69",
"S.	c #FE6340",
"T.	c #AC866A",
"U.	c #B4826A",
"V.	c #E77528",
"W.	c #BE815A",
"X.	c #AF8570",
"Y.	c #C0788B",
"Z.	c #C27A7C",
"`.	c #FB6847",
" +	c #EA6B66",
".+	c #BC855C",
"++	c #C87788",
"@+	c #B18A68",
"#+	c #B9866E",
"$+	c #EF7B1B",
"%+	c #D57A6A",
"&+	c #B98A65",
"*+	c #C77C8B",
"=+	c #ED7A34",
"-+	c #C58571",
";+	c #D37C7D",
">+	c #DF7E52",
",+	c #D07C88",
"'+	c #B98C72",
")+	c #C98183",
"!+	c #FB7057",
"~+	c #FA705D",
"{+	c #C58678",
"]+	c #E77D4E",
"^+	c #C0906A",
"/+	c #F9821A",
"(+	c #EB7A6D",
"_+	c #BF9070",
":+	c #C48F71",
"<+	c #C98D71",
"[+	c #D08A7E",
"}+	c #D1898A",
"|+	c #D38D81",
"1+	c #DF8787",
"2+	c #DC8793",
"3+	c #ED866E",
"4+	c #C99872",
"5+	c #F6826F",
"6+	c #D98B93",
"7+	c #DB8B8F",
"8+	c #E88785",
"9+	c #D6928B",
"0+	c #E78D88",
"a+	c #E5918A",
"b+	c #E58F9B",
"c+	c #FE897C",
"d+	c #F68C86",
"e+	c #E49397",
"f+	c #E3949D",
"g+	c #E5988D",
"h+	c #EF9596",
"i+	c #E9989B",
"j+	c #FE9287",
"k+	c #EC9997",
"l+	c #A0B7D6",
"m+	c #FA9794",
"n+	c #ABB6D1",
"o+	c #EF9DA0",
"p+	c #F09EA1",
"q+	c #F29E9C",
"r+	c #F79D9D",
"s+	c #F69DA3",
"t+	c #A7BFD0",
"u+	c #F4A1A5",
"v+	c #FCA1A1",
"w+	c #B9BDCD",
"x+	c #FDA3A9",
"y+	c #B7BFD4",
"z+	c #F8A6A9",
"A+	c #FCA8A5",
"B+	c #C8D0E6",
"C+	c #C9D5E3",
"D+	c #D8DCEC",
"E+	c #D6E2F0",
"F+	c #DBE4EC",
"G+	c #E7E4E9",
"                                                                            ",
"                                                                            ",
"                                R.6.;.'.'.                                  ",
"                            R.n.5. . .m m h $.                              ",
"                            y.b.u.b.b. .m { , L                             ",
"                          c.n..+.+W.5.;.y [ + > e.                          ",
"                        p.9.N.^+.+W.p.^.Q b % @ F                           ",
"                        [.9.T._+_+U.A.&.N 5 ! . '                           ",
"                      z.~.2.E.X.#+y.0.%.G g 2 $ ;                           ",
"                      z.O ~.2.I.s.A.*.V J q = $ :                           ",
"                        U U >.).).*.V A q | = = D                           ",
"                        X E e U Y S C g 4 4 = ) }.                          ",
"                        |.6 6 6 0 5 ( 2 ) = # q                             ",
"                          X , & ^ % * < $ ) d g.                            ",
"                            Z , + % @ . * 8 }.                              ",
"                            z.y a , & ^ - l h.                              ",
"                          R.5.5.5.W W a m a h ,.            !+`.`.!+        ",
"                        p.n.N.y.|.,.Z Q P a a [ Z e.    !+`.S.S.x.F.~+      ",
"                      W.n.N..+R.=.2 K F L l l + > x v.!+S.P.P.F.C.C.B.      ",
"                    .+N.N.^+&+R.@.i i d d u l ^ > r o.P.P.P.C.x.x./.t.      ",
"                      &+@+4+4+#+<.i q i d q u } r :.`.P.F.x.F.x.i.i.t.      ",
"                &+&+  @+@+4+_+:+k.D i d i i d 1 I o.F.P.x.x.C.x.7.(.t.      ",
"            X.'+  '+G.E.@+4+4+:+K.@.i i i i ] : c 8.F.F.F.x.x.F.i./.t.      ",
"          X.T.  X.p.4.D.@+4+4+:+r.].D q d d 2 2 ~ T 8.P.F.C.q.C.7./.B.      ",
"          E.X.I.4.*.>.D.T.'+_+<+U.f.K i q 2 2 2 ' I 8.F.C.C.i.C.7.a. +      ",
"        I.9.X.4.V S >.E.T._+_+'+U.4.].k d 2 _ ( ] c !.C.x.C.C.7.7.a.        ",
"        G.l.4.V C C >.l.T.T.T.#+I.4.-.u k 2 _ _ ' ~ T a.7.C.7.q.1._.        ",
"      z.3.>.S g < z #.2.D.E.X.p.A.4.%.S A } _ ( 2 @ t _.C.1.1.1.d.V.        ",
"      4.#.&.V 4 ( w O {.D.E.l.p.4.f.%.S S 5 ( _ ! ^ M M.J.V.w.M.$+=+        ",
"      4.U B g 4 ( e #.~.2.G.l.s.>.&.S Y z w ^ 5 0 /  .$+$+$+$+/+M.>+        ",
"      A.).N A q C w >.{.2.c.3.4.&.*.S V B w / / 3 9 v m.$+/+/+/+V.          ",
"        O.A.L.L.  3.#.>.~.2.~.>.).N S C C B e 9 9 9 7 $.m.V.$+V.>+          ",
"                    K.3.>.[.>.).&.N S C A A C e 3 9 w j.  >+]+>+            ",
"                        K.|.f.|.&.Y V V ` @.=.-.U O 4.                      ",
"                            K.    O.O.L.L.    O.O.O.                        ",
"                                                                            ",
"                                                                            ",
"                                                                            "};
