/* XPM */
static char * donline_xpm[] = {
"38 38 220 2",
"  	c None",
". 	c #BDD8C2",
"+ 	c #96BFA3",
"@ 	c #809F77",
"# 	c #699067",
"$ 	c #738B6F",
"% 	c #A1AFA3",
"& 	c #84B58C",
"* 	c #80A86D",
"= 	c #618A55",
"- 	c #426741",
"; 	c #465E4E",
"> 	c #717F77",
", 	c #BBC0C3",
"' 	c #A4CEAD",
") 	c #72A771",
"! 	c #82B676",
"~ 	c #294E40",
"{ 	c #284946",
"] 	c #566D77",
"^ 	c #A7CDBB",
"/ 	c #6BAE86",
"( 	c #75B580",
"_ 	c #98CC8C",
": 	c #9BC68E",
"< 	c #3E705C",
"[ 	c #354E4C",
"} 	c #193B43",
"| 	c #2F434A",
"1 	c #8E99A6",
"2 	c #70B397",
"3 	c #64B187",
"4 	c #87C88E",
"5 	c #9FDCA1",
"6 	c #64957C",
"7 	c #53796F",
"8 	c #245C6E",
"9 	c #184057",
"0 	c #1D3658",
"a 	c #556481",
"b 	c #B6D3C6",
"c 	c #61A387",
"d 	c #82CEA3",
"e 	c #9ADEAE",
"f 	c #A3DCAD",
"g 	c #91C7A5",
"h 	c #7CB4A8",
"i 	c #4D928F",
"j 	c #3A7D85",
"k 	c #1A5977",
"l 	c #174870",
"m 	c #133468",
"n 	c #2F406C",
"o 	c #B9BDCD",
"p 	c #88AFA2",
"q 	c #539D80",
"r 	c #5CA988",
"s 	c #7AC49A",
"t 	c #82CCAB",
"u 	c #96D6B3",
"v 	c #7AB295",
"w 	c #6FA598",
"x 	c #538C97",
"y 	c #377490",
"z 	c #28639D",
"A 	c #204E83",
"B 	c #0D3881",
"C 	c #1B407E",
"D 	c #B8BFD5",
"E 	c #39856A",
"F 	c #7EBFA0",
"G 	c #70B7A0",
"H 	c #4A9299",
"I 	c #3C819E",
"J 	c #3D73A6",
"K 	c #315998",
"L 	c #0044A7",
"M 	c #2F4585",
"N 	c #AAB7D2",
"O 	c #9FBCBB",
"P 	c #397B6D",
"Q 	c #408674",
"R 	c #4E9886",
"S 	c #55968D",
"T 	c #2C6F9F",
"U 	c #2B66AE",
"V 	c #1552B0",
"W 	c #4764A7",
"X 	c #BED0D0",
"Y 	c #538277",
"Z 	c #377870",
"` 	c #1B6E5D",
" .	c #3A8093",
"..	c #2B7497",
"+.	c #1356A1",
"@.	c #073A98",
"#.	c #798EBF",
"$.	c #739B90",
"%.	c #275B5B",
"&.	c #275D57",
"*.	c #1D6068",
"=.	c #125481",
"-.	c #10479A",
";.	c #32549E",
">.	c #15474D",
",.	c #274F5B",
"'.	c #104370",
").	c #3D57A8",
"!.	c #8797C3",
"~.	c #344A7B",
"{.	c #778FB7",
"].	c #416C50",
"^.	c #345B48",
"/.	c #22454E",
"(.	c #3C6268",
"_.	c #8B9C9C",
":.	c #FAD4C1",
"<.	c #597D62",
"[.	c #71888C",
"}.	c #F4C8AE",
"|.	c #F5AF86",
"1.	c #FB9E70",
"2.	c #5C7E7A",
"3.	c #5B7371",
"4.	c #FB965C",
"5.	c #FF8448",
"6.	c #F7AE91",
"7.	c #547FB0",
"8.	c #455F98",
"9.	c #5F615E",
"0.	c #BD967A",
"a.	c #FB9B65",
"b.	c #FE9253",
"c.	c #FF8B4C",
"d.	c #FE7A3A",
"e.	c #E08F74",
"f.	c #3E6186",
"g.	c #825D51",
"h.	c #D88A5C",
"i.	c #FD6E2F",
"j.	c #F1845A",
"k.	c #93D39B",
"l.	c #89D3A2",
"m.	c #AAEBB1",
"n.	c #3D5B8C",
"o.	c #2A4F73",
"p.	c #6D5850",
"q.	c #C67B54",
"r.	c #92CFA6",
"s.	c #A9DAAD",
"t.	c #7BA2B0",
"u.	c #DA804B",
"v.	c #FB662B",
"w.	c #73C09D",
"x.	c #91BBB2",
"y.	c #5E4750",
"z.	c #8CCDAC",
"A.	c #80BEA9",
"B.	c #64AB9B",
"C.	c #658EA7",
"D.	c #234E8C",
"E.	c #403E57",
"F.	c #9E5D41",
"G.	c #E97D3E",
"H.	c #FE893F",
"I.	c #FF833A",
"J.	c #EE6931",
"K.	c #63A79F",
"L.	c #76A4A6",
"M.	c #4F6B9E",
"N.	c #17528D",
"O.	c #724B49",
"P.	c #DEA69A",
"Q.	c #68B694",
"R.	c #26457B",
"S.	c #C17040",
"T.	c #F97427",
"U.	c #DFBBA8",
"V.	c #489276",
"W.	c #568EA2",
"X.	c #3C668D",
"Y.	c #ED7622",
"Z.	c #D27B29",
"`.	c #E1D1AB",
" +	c #62A690",
".+	c #418999",
"++	c #216495",
"@+	c #2D737C",
"#+	c #305080",
"$+	c #7C5336",
"%+	c #E4880F",
"&+	c #E2AA3A",
"*+	c #2D7472",
"=+	c #4FA17D",
"-+	c #2D7286",
";+	c #756C38",
">+	c #E9A523",
",+	c #E49830",
"'+	c #E9BB2C",
")+	c #E1BC55",
"!+	c #09614D",
"~+	c #667B39",
"{+	c #E5BC35",
"]+	c #F7C82F",
"^+	c #D1BF81",
"/+	c #0E694A",
"(+	c #0D6E44",
"_+	c #407243",
":+	c #B2A04A",
"<+	c #DAB53D",
"[+	c #95B7C1",
"}+	c #93B3CE",
"|+	c #9FB7D5",
"1+	c #A8BFD1",
"2+	c #839EB5",
"3+	c #C1BAA6",
"4+	c #D9C177",
"5+	c #AEC6C6",
"6+	c #4E83A7",
"7+	c #5D86AF",
"                                                                            ",
"                                                                            ",
"                              . + @ # $ $ %                                 ",
"                            + & * = = - - ; > ,                             ",
"                          ' ) ! ! * * = - ~ { ]                             ",
"                        ^ / ( _ _ : ) # < [ } | 1                           ",
"                        2 3 4 5 _ : & 6 7 8 9 0 a                           ",
"                      b c 3 d e f g h i j k l m n o                         ",
"                      p q r s t u v w x y z A B C D                         ",
"                      p E q r F G h H I J K L B M N                         ",
"                      O P Q R S S H I T U V L L W                           ",
"                      X Y Z ` Q j  ...z +.V L @.#.                          ",
"                        $.%.&.&.*.k =.K -.L @.;.N                           ",
"                          7 { >.,.9 '.C B -.).!.                            ",
"                          , 7 { } 9 0 m m ~.{.                              ",
"                          X p ].^.{ >././.(._.                :.:.          ",
"                        . + ) ) ) <.<.].- ^.; [.,         }.|.1.1.|.        ",
"                      . v ( 4 & $.[.2.7 7 ^.~ [ 3._.  :.|.1.4.4.5.5.6.      ",
"                    ' : ( 4 _ + 7.K 8.a ] (.(.} | 9.0.|.a.4.b.c.5.d.e.      ",
"                . ' _ 4 4 5 5 + 7.).).;.K f.(.,.| g.h.4.b.b.5.5.5.i.j.      ",
"              . f f f k.l.m.m.' {.).).).).;.n.o.p.q.a.4.c.c.5.5.d.i.j.      ",
"            ^ r.k.5 e l.k.m.m.s.t.W ).).).).;.~.g.u.b.b.c.5.5.5.d.v.j.      ",
"          . t e e r.F w.l.m.m.s.x.7.).).).).M M y.u.b.c.c.c.5.5.d.v.j.      ",
"          z.l.e z.A.B.w.l.m.m.s.+ C.W ).;.;.D.D.E.F.G.b.H.H.I.I.i.J.e.      ",
"        ^ s t A.K.H R w.d e f s.g L.M.).;.D.A N.n O.u.b.H.H.I.I.i.J.P.      ",
"        A.Q.t K.I  .R Q.d e e u g w C.8.;.D.A A R.y.S.H.H.H.H.T.T.G.U.      ",
"      b 2 Q.K.I ..y V.Q.d d d g G K.W.X.n.N.A A n E.F.G.T.d.I.T.Y.Z.`.      ",
"      x. +R .+++N.@+V.r w.s t F h K.x I T #+A A A 0 $+Z.H.Y.Y.Y.%+&+`.      ",
"      w V.i ..+.=.*+E =+w.s Q.2 K.K.x .+-+k =.A l /.;+&+>+&+,+>+'+)+`.      ",
"      K.E -++++.=.` V.q r Q.2  + +i .+ .@+*+,.k *.!+~+{+'+]+]+]+'+^+        ",
"      h S j T U ..Z V.=+r /  +B.i H .+I -+*+!+!+/+(+_+:+{+]+]+]+<+`.        ",
"      X [+[+}+|+1+w V.V.q r q R S j  .....-+` (+(+(+&.> :+<+]+<+^+          ",
"                  X x. +R c R R i j  ...T T y ` /+(+*+2+3+^+4+^+            ",
"                      5+x.w w $.i .+I I 6+7.7+W.Q E w                       ",
"                          5+O 5+O [+1+}+}+}+|+1+[+[+O                       ",
"                            X                     5+                        ",
"                                                                            ",
"                                                                            "};
