/* XPM */
static char * dphone_xpm[] = {
"38 38 441 2",
"  	c None",
". 	c #BED8C3",
"+ 	c #97BFA3",
"@ 	c #809E77",
"# 	c #698F67",
"$ 	c #738A6F",
"% 	c #728A6E",
"& 	c #A0AEA2",
"* 	c #97BFA4",
"= 	c #85B58D",
"- 	c #80A76E",
"; 	c #628A57",
"> 	c #426741",
", 	c #465E4E",
"' 	c #707E76",
") 	c #B8BDC0",
"! 	c #A9D0B1",
"~ 	c #73A772",
"{ 	c #82B577",
"] 	c #83B677",
"^ 	c #81A86F",
"/ 	c #80A86D",
"( 	c #618A55",
"_ 	c #294E40",
": 	c #284946",
"< 	c #566C76",
"[ 	c #ADD0BF",
"} 	c #71AF8A",
"| 	c #78B382",
"1 	c #98CB8D",
"2 	c #99CC8D",
"3 	c #9CC68F",
"4 	c #72A771",
"5 	c #699067",
"6 	c #3E705C",
"7 	c #354E4C",
"8 	c #193B43",
"9 	c #30434A",
"0 	c #89939F",
"a 	c #79B79D",
"b 	c #68AF88",
"c 	c #8AC691",
"d 	c #A2DAA4",
"e 	c #99CC8E",
"f 	c #84B58C",
"g 	c #64957C",
"h 	c #53796F",
"i 	c #245C6E",
"j 	c #184057",
"k 	c #233A5A",
"l 	c #55637E",
"m 	c #B6D3C6",
"n 	c #68A58B",
"o 	c #86CCA4",
"p 	c #9EDDB1",
"q 	c #A7DCB1",
"r 	c #97C9AA",
"s 	c #7CB4A8",
"t 	c #4D928F",
"u 	c #3A7D85",
"v 	c #1B5977",
"w 	c #1A4970",
"x 	c #1B3A6A",
"y 	c #34436C",
"z 	c #B2B6C5",
"A 	c #88AFA2",
"B 	c #5A9E83",
"C 	c #60A789",
"D 	c #7EC29C",
"E 	c #87CCAD",
"F 	c #9BD6B6",
"G 	c #7AB295",
"H 	c #6FA598",
"I 	c #538C97",
"J 	c #377490",
"K 	c #28639C",
"L 	c #204E83",
"M 	c #0F3981",
"N 	c #23457E",
"O 	c #B3B9CE",
"P 	c #40866D",
"Q 	c #579B81",
"R 	c #62A98A",
"S 	c #83BEA2",
"T 	c #72B7A0",
"U 	c #4A9299",
"V 	c #3C819E",
"W 	c #3D73A5",
"X 	c #315998",
"Y 	c #0346A6",
"Z 	c #103A81",
"` 	c #314785",
" .	c #A7B3CC",
"..	c #9FBCBB",
"+.	c #417E71",
"@.	c #448574",
"#.	c #539787",
"$.	c #57968D",
"%.	c #55968D",
"&.	c #2C6F9F",
"*.	c #2B66AE",
"=.	c #1552AF",
"-.	c #0144A7",
";.	c #0446A7",
">.	c #4965A7",
",.	c #BED0D0",
"'.	c #5B867C",
").	c #3B766F",
"!.	c #226F5F",
"~.	c #408674",
"{.	c #3A8092",
"].	c #2B7496",
"^.	c #28639D",
"/.	c #1356A1",
"(.	c #1652AF",
"_.	c #083A98",
":.	c #7A8EBE",
"<.	c #7A9F95",
"[.	c #2B5B5B",
"}.	c #285D57",
"|.	c #275D57",
"1.	c #1D6068",
"2.	c #1A5977",
"3.	c #125481",
"4.	c #315997",
"5.	c #10479A",
"6.	c #32549E",
"7.	c #AAB6D1",
"8.	c #597C73",
"9.	c #284846",
"0.	c #15474D",
"a.	c #274F5B",
"b.	c #104370",
"c.	c #1B407E",
"d.	c #0D3881",
"e.	c #13499A",
"f.	c #3F58A8",
"g.	c #8796C1",
"h.	c #BBC0C3",
"i.	c #53786E",
"j.	c #1D3658",
"k.	c #133468",
"l.	c #344A7B",
"m.	c #778EB6",
"n.	c #416C50",
"o.	c #345A47",
"p.	c #284845",
"q.	c #22454E",
"r.	c #3C6267",
"s.	c #8A9B9B",
"t.	c #FAD4C1",
"u.	c #FADED0",
"v.	c #303434",
"w.	c #3A3A3A",
"x.	c #BDD8C2",
"y.	c #96BFA3",
"z.	c #597D62",
"A.	c #416640",
"B.	c #335A47",
"C.	c #455D4D",
"D.	c #71888B",
"E.	c #F3C9AF",
"F.	c #F5AF86",
"G.	c #FB9E70",
"H.	c #D99675",
"I.	c #020202",
"J.	c #2A2D2F",
"K.	c #75B580",
"L.	c #87C88E",
"M.	c #739B90",
"N.	c #71888C",
"O.	c #5C7E7A",
"P.	c #345B47",
"Q.	c #294E3F",
"R.	c #354E49",
"S.	c #5A726E",
"T.	c #505A5F",
"U.	c #596265",
"V.	c #546652",
"W.	c #6A6A6A",
"X.	c #F1A87F",
"Y.	c #F2AA80",
"Z.	c #0E1212",
"`.	c #E4B09B",
" +	c #A4CEAD",
".+	c #9BC68E",
"++	c #98CC8C",
"@+	c #547FB0",
"#+	c #455F98",
"$+	c #556481",
"%+	c #566D77",
"&+	c #1C3D42",
"*+	c #324344",
"=+	c #424A4D",
"-+	c #252D32",
";+	c #323D42",
">+	c #364C52",
",+	c #273237",
"'+	c #60696D",
")+	c #3B4143",
"!+	c #4B4B4B",
"~+	c #E08F74",
"{+	c #9FDCA1",
"]+	c #3D57A8",
"^+	c #3E6185",
"/+	c #3E6366",
"(+	c #335558",
"_+	c #49565A",
":+	c #425458",
"<+	c #3E464E",
"[+	c #4A5A60",
"}+	c #3E4E54",
"|+	c #060606",
"1+	c #FA763C",
"2+	c #F1845A",
"3+	c #A3DCAD",
"4+	c #A4DBAE",
"5+	c #A3DBAC",
"6+	c #93D39B",
"7+	c #89D3A2",
"8+	c #AAEBB1",
"9+	c #778FB7",
"0+	c #3D57A7",
"a+	c #32549D",
"b+	c #3F5D87",
"c+	c #4E5E56",
"d+	c #3E4E5E",
"e+	c #9AAABA",
"f+	c #5E828E",
"g+	c #1B2226",
"h+	c #666666",
"i+	c #FD6E2F",
"j+	c #A7CDBB",
"k+	c #92CFA6",
"l+	c #94D39C",
"m+	c #9FDBA1",
"n+	c #9ADEAE",
"o+	c #A9DAAD",
"p+	c #7BA2B0",
"q+	c #4764A7",
"r+	c #3E58A6",
"s+	c #3D5F88",
"t+	c #464E52",
"u+	c #7A8A9E",
"v+	c #BACEDA",
"w+	c #B9BFC5",
"x+	c #818A8F",
"y+	c #1E262A",
"z+	c #9A9A9A",
"A+	c #FB662B",
"B+	c #82CCAB",
"C+	c #9BDEAF",
"D+	c #9ADDAE",
"E+	c #7EBFA0",
"F+	c #73C09D",
"G+	c #91BBB2",
"H+	c #627666",
"I+	c #3B4A51",
"J+	c #A6BAC6",
"K+	c #BDCDCF",
"L+	c #B1C9D0",
"M+	c #8A989C",
"N+	c #425A62",
"O+	c #666E6E",
"P+	c #F77E43",
"Q+	c #FB692F",
"R+	c #8CCDAC",
"S+	c #8BD3A3",
"T+	c #8DCDAC",
"U+	c #80BEA9",
"V+	c #64AB9B",
"W+	c #658EA7",
"X+	c #365898",
"Y+	c #75828F",
"Z+	c #B6B6B7",
"`+	c #B2BECA",
" @	c #4F565C",
".@	c #D37945",
"+@	c #F47137",
"@@	c #ED733F",
"#@	c #7CC49B",
"$@	c #83CBAB",
"%@	c #81BEA9",
"&@	c #64A79F",
"*@	c #4E9886",
"=@	c #82CEA3",
"-@	c #91C7A5",
";@	c #76A4A6",
">@	c #4F6B9E",
",@	c #33559C",
"'@	c #295289",
")@	c #AACEDA",
"!@	c #BABABA",
"~@	c #6E7B82",
"{@	c #F3813E",
"]@	c #F68440",
"^@	c #F26F35",
"/@	c #EA703C",
"(@	c #E0ACA1",
"_@	c #82BFAA",
":@	c #69B594",
"<@	c #66A8A0",
"[@	c #3A8093",
"}@	c #68B694",
"|@	c #96D6B3",
"1@	c #33569C",
"2@	c #3B5C8A",
"3@	c #283E42",
"4@	c #B6CAD2",
"5@	c #F38743",
"6@	c #F37831",
"7@	c #F0762F",
"8@	c #E17D43",
"9@	c #DFBEAD",
"0@	c #B7D3C7",
"a@	c #70B397",
"b@	c #68B594",
"c@	c #63A79F",
"d@	c #3D819E",
"e@	c #2B7497",
"f@	c #489276",
"g@	c #70B7A0",
"h@	c #568EA2",
"i@	c #3C668D",
"j@	c #405F88",
"k@	c #52767E",
"l@	c #9AA2A6",
"m@	c #DA7B4C",
"n@	c #F58340",
"o@	c #E87A2D",
"p@	c #CD7D31",
"q@	c #DFD0AD",
"r@	c #93BCB3",
"s@	c #62A590",
"t@	c #428999",
"u@	c #226495",
"v@	c #17528D",
"w@	c #2D737C",
"x@	c #5CA988",
"y@	c #7AC49A",
"z@	c #3C819D",
"A@	c #7A847A",
"B@	c #495256",
"C@	c #56828A",
"D@	c #517A82",
"E@	c #E5782B",
"F@	c #EA7624",
"G@	c #EC7623",
"H@	c #E38810",
"I@	c #E0A93C",
"J@	c #E0D0AB",
"K@	c #70A598",
"L@	c #2C7497",
"M@	c #1456A1",
"N@	c #2D7472",
"O@	c #39856A",
"P@	c #4FA17D",
"Q@	c #458A95",
"R@	c #868686",
"S@	c #528A9A",
"T@	c #2A4A52",
"U@	c #3C626A",
"V@	c #525252",
"W@	c #E1A32B",
"X@	c #D6A63A",
"Y@	c #E39730",
"Z@	c #E8A423",
"`@	c #E8BA2C",
" #	c #E0BB55",
".#	c #E0D0AA",
"+#	c #65A79F",
"@#	c #2E7286",
"##	c #1456A0",
"$#	c #1B6E5D",
"%#	c #539D80",
"&#	c #62A690",
"*#	c #418998",
"=#	c #477E87",
"-#	c #4E707A",
";#	c #5696A2",
">#	c #5E767E",
",#	c #BDA141",
"'#	c #DFB730",
")#	c #F5C72E",
"!#	c #F6C72F",
"~#	c #D0BE81",
"{#	c #7DB3A7",
"]#	c #2C6F9E",
"^#	c #2B66AD",
"/#	c #377870",
"(#	c #6BAE86",
"_#	c #428997",
":#	c #585E62",
"<#	c #566E76",
"[#	c #AE9E4D",
"}#	c #E0BB34",
"|#	c #F6C72E",
"1#	c #F7C82F",
"2#	c #D9B43D",
"3#	c #BDCFCF",
"4#	c #95B6C0",
"5#	c #93B2CD",
"6#	c #9FB6D4",
"7#	c #A8BFD1",
"8#	c #489175",
"9#	c #3A7D84",
"0#	c #468086",
"a#	c #567E86",
"b#	c #3A615D",
"c#	c #707F75",
"d#	c #B2A04A",
"e#	c #DAB53D",
"f#	c #D1BF81",
"g#	c #90BAB1",
"h#	c #62A58F",
"i#	c #4E9885",
"j#	c #61A386",
"k#	c #4D928E",
"l#	c #3B7E84",
"m#	c #869298",
"n#	c #668A96",
"o#	c #3E5A62",
"p#	c #464646",
"q#	c #327571",
"r#	c #829EB4",
"s#	c #C1BAA6",
"t#	c #D9C177",
"u#	c #AEC6C6",
"v#	c #418999",
"w#	c #6A7C6A",
"x#	c #68828C",
"y#	c #49816D",
"z#	c #6EA495",
"A#	c #95B7C1",
"B#	c #A7BED0",
"C#	c #829EAC",
"D#	c #727678",
"E#	c #5A5A5A",
"F#	c #88ABA4",
"G#	c #9EBBBA",
"H#	c #ADC5C4",
"                                                                            ",
"                                                                            ",
"                              . + @ # $ % &                                 ",
"                            * = - ; ; > > , ' )                             ",
"                          ! ~ { ] ^ / ( > _ : <                             ",
"                        [ } | 1 2 3 4 5 6 7 8 9 0                           ",
"                        a b c d e 3 f g h i j k l                           ",
"                      m n b o p q r s t u v w x y z                         ",
"                      A B C D E F G H I J K L M N O                         ",
"                      A P Q R S T s U V W X Y Z `  .                        ",
"                      ..+.@.#.$.%.U V &.*.=.-.;.>.                          ",
"                      ,.'.).!.~.u {.].^./.(.-._.:.                          ",
"                        <.[.}.|.1.2.3.4.5.-._.6.7.                          ",
"                          8.9.0.a.j b.c.d.e.f.g.                            ",
"                          h.i.9.8 j j.k.k.l.m.                              ",
"                          ,.A n.o.p.0.q.q.r.s.                t.u.v.w.      ",
"                        x.y.4 4 4 z.z.n.A.B.C.D.h.        E.F.G.H.I.J.      ",
"                      x.G K.L.f M.N.O.h i.P.Q.R.S.T.U.V.v.W.X.Y.Z.I.`.      ",
"                     +.+K.L.++y.@+X #+$+%+r.r.&+*+=+-+;+>+,+'+)+I.!+~+      ",
"                x. +2 L.L.{+{+y.@+]+]+6.4.^+/+(+_+:+<+,+[+}+T.Z.|+1+2+      ",
"              x.3+4+5+6+7+8+8+ +9+]+]+]+0+a+b+c+d+e+f+'+<+-+T.g+h+i+2+      ",
"            j+k+l+m+n+7+6+8+8+o+p+q+]+0+0+r+s+t+u+v+w+x+}+y+)+T.z+A+2+      ",
"          x.B+C+D+k+E+F+7+8+8+o+G+@+]+]+0+r+H+I+J+K+L+w+M+N+)+O+P+Q+2+      ",
"          R+S+D+T+U+V+F+7+8+8+o+y.W+q+]+a+X+U.Y+L+Z+`+L+J+ @ @.@+@@@~+      ",
"        j+#@$@%@&@U *@F+=@n+3+o+-@;@>@]+,@'@:+x+v+L+)@!@~@=+{@]@^@/@(@      ",
"        _@:@$@<@V [@*@}@=@n+n+|@-@H W+#+1@2@3@}+M+v+4@`+[+_+5@6@7@8@9@      ",
"      0@a@b@c@d@e@J f@}@=@=@=@-@g@c@h@i@j@~@k@>+:+~@l@Y+=+m@n@6@o@p@q@      ",
"      r@s@*@t@u@v@w@f@x@F+y@B+E+s c@I z@A@B@:+C@D@,+;+B@ @E@F@G@H@I@J@      ",
"      K@f@t L@M@3.N@O@P@F+y@}@a@c@c@I Q@R@<+>+S@D@T@U@V@W@X@Y@Z@`@ #.#      ",
"      +#O@@#u@##3.$#f@%#x@}@a@&#&#t *#=#Y+:+-#-#3@;#>#,#'#)#!#!#`@~#        ",
"      {#%.u ]#^#e@/#f@P@x@(#&#V+t U _#:#x+<#k@U@y+T.=+[#}#|#1#1#2#J@        ",
"      3#4#4#5#6#7#H 8#f@%#x@%#*@%.9#0# @~@f+a#3@[+'+b#c#d#e#1#e#f#          ",
"                  3#g#h#i#j#i#i#k#l#U.B@m#n#o#B@Y+p#q#r#s#f#t#f#            ",
"                      u#G+H H M.t v#w#;+x+x#x#m#J.y#z#                      ",
"                          u#..u#..A#B#C#<+D# @g+E#F#G#                      ",
"                            ,.            y+g+J.  H#                        ",
"                                                                            ",
"                                                                            "};
