/* XPM */
static char * dhidden_xpm[] = {
"46 46 227 2",
"  	c None",
". 	c #5E5E5E",
"+ 	c #4B4B4B",
"@ 	c #3F3F3F",
"# 	c #3B3B3B",
"$ 	c #484848",
"% 	c #5F5F5F",
"& 	c #5D5D5D",
"* 	c #606060",
"= 	c #858585",
"- 	c #9B9B9B",
"; 	c #9A9A9A",
"> 	c #878787",
", 	c #575757",
"' 	c #646464",
") 	c #969696",
"! 	c #999999",
"~ 	c #939393",
"{ 	c #6F6F6F",
"] 	c #8A8A8A",
"^ 	c #6C6C6C",
"/ 	c #676767",
"( 	c #959595",
"_ 	c #979797",
": 	c #989898",
"< 	c #949494",
"[ 	c #929292",
"} 	c #616161",
"| 	c #5C5C5C",
"1 	c #7B7B7B",
"2 	c #919191",
"3 	c #8F8F8F",
"4 	c #8D8D8D",
"5 	c #7C8083",
"6 	c #3E5766",
"7 	c #153A52",
"8 	c #002032",
"9 	c #001D2D",
"0 	c #002B44",
"a 	c #304E5F",
"b 	c #576771",
"c 	c #8B8B8B",
"d 	c #909090",
"e 	c #848484",
"f 	c #8C8C8C",
"g 	c #687279",
"h 	c #0D374E",
"i 	c #002134",
"j 	c #00405D",
"k 	c #005278",
"l 	c #005F8A",
"m 	c #005C87",
"n 	c #004667",
"o 	c #00324B",
"p 	c #214358",
"q 	c #8E8E8E",
"r 	c #888888",
"s 	c #666666",
"t 	c #797979",
"u 	c #636363",
"v 	c #133B53",
"w 	c #001D2E",
"x 	c #004362",
"y 	c #005983",
"z 	c #005A84",
"A 	c #00334E",
"B 	c #001E2F",
"C 	c #5C6B73",
"D 	c #868686",
"E 	c #757575",
"F 	c #747474",
"G 	c #6D6D6D",
"H 	c #838383",
"I 	c #6C7378",
"J 	c #00273E",
"K 	c #004B6E",
"L 	c #005379",
"M 	c #00547B",
"N 	c #00567D",
"O 	c #00567E",
"P 	c #00354E",
"Q 	c #2C4A5D",
"R 	c #898989",
"S 	c #828282",
"T 	c #777777",
"U 	c #737373",
"V 	c #787878",
"W 	c #7F7F7F",
"X 	c #606D74",
"Y 	c #002337",
"Z 	c #002335",
"` 	c #00405F",
" .	c #004E72",
"..	c #004F75",
"+.	c #005177",
"@.	c #005076",
"#.	c #004F73",
"$.	c #004D71",
"%.	c #004B6D",
"&.	c #002D44",
"*.	c #002031",
"=.	c #1B4257",
"-.	c #818181",
";.	c #7A7A7A",
">.	c #686868",
",.	c #7D7D7D",
"'.	c #194359",
").	c #002A3F",
"!.	c #004768",
"~.	c #00496B",
"{.	c #004C70",
"].	c #003954",
"^.	c #00273B",
"/.	c #002132",
"(.	c #4E606B",
"_.	c #7C7C7C",
":.	c #696969",
"<.	c #5F6A71",
"[.	c #002334",
"}.	c #00293E",
"|.	c #003148",
"1.	c #004565",
"2.	c #00486A",
"3.	c #003B56",
"4.	c #002C43",
"5.	c #002639",
"6.	c #808080",
"7.	c #7E7E7E",
"8.	c #6B6B6B",
"9.	c #244A5D",
"0.	c #00263A",
"a.	c #002F45",
"b.	c #00364F",
"c.	c #004260",
"d.	c #00547C",
"e.	c #00344B",
"f.	c #002C40",
"g.	c #002437",
"h.	c #445D6A",
"i.	c #6A6A6A",
"j.	c #002B42",
"k.	c #003D59",
"l.	c #00496C",
"m.	c #003249",
"n.	c #00283D",
"o.	c #2F5264",
"p.	c #003A55",
"q.	c #00577F",
"r.	c #005881",
"s.	c #003D5A",
"t.	c #002E43",
"u.	c #2D5366",
"v.	c #767676",
"w.	c #005B85",
"x.	c #005982",
"y.	c #003046",
"z.	c #2B5367",
"A.	c #002D42",
"B.	c #005D88",
"C.	c #005D89",
"D.	c #2A5368",
"E.	c #084764",
"F.	c #003751",
"G.	c #2D586C",
"H.	c #3C5B6B",
"I.	c #003750",
"J.	c #004261",
"K.	c #005F8C",
"L.	c #00608D",
"M.	c #004464",
"N.	c #626A70",
"O.	c #104C68",
"P.	c #3D5D6D",
"Q.	c #003853",
"R.	c #727272",
"S.	c #27546B",
"T.	c #004666",
"U.	c #666A6C",
"V.	c #707070",
"W.	c #405C69",
"X.	c #003B57",
"Y.	c #374B59",
"Z.	c #092B41",
"`.	c #001724",
" +	c #001E2E",
".+	c #001826",
"++	c #284350",
"@+	c #5A646A",
"#+	c #57656E",
"$+	c #103A51",
"%+	c #001C2C",
"&+	c #002F48",
"*+	c #003E5B",
"=+	c #003F5C",
"-+	c #002E49",
";+	c #345162",
">+	c #6C7175",
",+	c #183D54",
"'+	c #003C5B",
")+	c #002E44",
"!+	c #455864",
"~+	c #415765",
"{+	c #001F2F",
"]+	c #002133",
"^+	c #0D3B53",
"/+	c #60676C",
"(+	c #314B5C",
"_+	c #00283F",
":+	c #6A6B6D",
"<+	c #415763",
"[+	c #002538",
"}+	c #00324A",
"|+	c #656565",
"1+	c #545454",
"2+	c #0E3D56",
"3+	c #00344C",
"4+	c #445057",
"5+	c #35434B",
"6+	c #073953",
"7+	c #254658",
"8+	c #00314A",
"9+	c #405966",
"0+	c #003A59",
"a+	c #003956",
"b+	c #435A67",
"c+	c #2F5769",
"d+	c #0D4E6D",
"                                                                                            ",
"                                                                                            ",
"              . + @ @ @ @ @ @ @ @ @ @ @ @ @ @ @ @ @ @ @ @ @ @ @ @ @ @ @ # $ %               ",
"            & * = - - - - - - - - - - - - - - - - - - - - - - - - - - ; - > % ,             ",
"            ' ) - - - - - - - - - - - - - - - - - - - - - - - - - - - ; ! - ~ { &           ",
"          % ] ) - ; ; ; ; ; ; ; ; ; ; ; ; ; ; ; ; ; ; ; ; ; ; ; ; ; ; ; ! ; - - ^           ",
"          / ( _ ( : : : : : : : : : ) ( < ~ [ [ ~ ~ ( ) ) : : : : : : ) ) ( < ) = }         ",
"        | 1 2 2 ~ [ [ [ [ [ [ 2 3 4 5 6 7 8 9 9 9 0 a b c 4 d [ [ [ [ d ~ [ [ ] 2 '         ",
"        + e c 4 3 [ [ [ [ d 3 f g h i j k l l l l m n o 9 p ] 4 d 2 [ [ 2 q 4 3 r s         ",
"      t u = > ] 4 3 3 3 4 ] e v w x y y z z z z z z z y y A B C r f 4 q q 4 ] D = E t       ",
"      F G H = r f f f ] > I J i K L M N N O O O O O N N M k P B Q e R ] f c R = S T U       ",
"      ^ V W S = R ] r = X Y Z ` K  ...+.k L M M M k +.@.#.$.%.&.*.=.-.= R r D e W ;.G       ",
"      >.,.,.W H D > e W '.Z ).!.~.K #.@.+.k L L k k +... .{.!.].^./.(.-.D > e S ,._.>.      ",
"      :.1 _.W H = = -.<.[.}.|.1.2.K  .@.+.k L L L +.+... .%.n 3.4.5.&.1 H = e 6.7._.>.      ",
"      8.t _.W H = H 7.9.0.a.b.c.2.K #.+.L L M d.L L k @.#.%.n 3.e.f.g.h.-.e e W W 1 i.      ",
"      i.t _.W e e -.1 4.j.P k.x l.#.k d.N N O O O N N M +. .n j ].m.n.o.W S H -.7.1 i.      ",
"      >.1 _.W e e W V 0.|.p.` !.$.+.N O q.r.r.r.r.r.O O M @.%.1.s.b.t.u._.S H -._.1 i.      ",
"      i.;._.W e S W v.}.e.s.1.K @.N r.y w.w.w.w.w.w.z x.q.M  .2.` ].y.z.1 -.H -.7.1 i.      ",
"      i.;._.W e S W v.A.b.j 2.#.d.q.z m B.C.C.B.B.C.B.w.y O @.%.x p.|.D.1 -.S -.7.1 i.      ",
"      i.;._.W e S W V E.F.x K k q.w.B.C.C.l l l l l C.C.m y M {.1.k.m.G._.-.H -.7.1 i.      ",
"      i.;._.W e H -.t H.I.J.K M r.m C.l K.K.L.L.L.K.l C.B.z d.{.M.p.|.N.7.S H -.7.1 i.      ",
"      i.;._.W e e S _.U 1.j l.+.r.m C.K.K.L.L.L.L.K.l C.m x.+.~.j I.O.v.W H e -.7.1 i.      ",
"      i.;._.W e = e 6.V P.].M.$.N y B.C.K.K.L.L.K.l C.m y M K J.Q.j R.1 S = e -.7.1 i.      ",
"      i.;._.W e = D H 7.E S.3.T.#.N z B.C.K.K.K.C.C.m x.M $.x p.3.U.V W e = e -.7.1 i.      ",
"      i.;._.W e = > = -.t V.W.X.1.$.d.y B.C.C.C.B.w.r.L {.M.].2.:.E _.S D D e -.7.1 i.      ",
"      8.V _.7.= e = e W ;.Y.Z.`.|.` l.+.N r.x.x.q.M ..~.` ]. +.+++@+_.S e e H -._._.>.      ",
"      i.1 7.7.e H 6.#+$+%+&+*+$.l.M.*+` T.~.%.K l.T.` p.=+!.K l.F.Z -+;+_.W 6.W ,._.8.      ",
"      :._.1 ;.W >+,+B n.s..... .{.l.!.1.x s.s.'+k.j M.T.2.%.$.#.#.~.)+*.J !+_._._.1 i.      ",
"      >.V V T ~+{+]+n.x l.K {.{.{.K %.~.2.!.!.!.2.2.2.l.K K $.{.K K l.P Z *.^+/+v.v.>.      ",
"      8.G { (+*.g.}.b.T.!.l.{.$. . .#.$. .$. . . .#. . . . . .$.%.~.n J.f.0.[._+:+V.8.      ",
"      R.% <+]+[+).y.I.M.n ~.%.$...@.+.+.k k k k k L +.@.+...#.{.%.2.1.*+}+)+^.g.A |+V.      ",
"      1 1+2+5.f.|.I.p.` !.%.$.#.+.L M M M d.d.d.d.d.M M L k @.#.K ~.M.k.Q.3+)+n.g.4+v.      ",
"      W 5+0.f.|.I.k.j T.~.$.@.L d.N O O O O O O O O O O O N M +.#.K n x *+].3+)+^.6+_.      ",
"      R 7+^.a.P 3.` 1.l.$.@.M N r.r.x.y y y y y y y y y r.r.q.d.k ..%.!.J.s.F.}+f.8+H       ",
"        9+).|.F.*+M.~.$.@.d.O x.z z m m m m m m m m m m w.z y r.N k  .%.T.j p.3+t.0+        ",
"          a+}+].` 2.{.+.N r.y w.B.C.C.C.l l l l l l l C.B.B.m z r.N +.$.2.J.3.P t.b+        ",
"          c+}+].c.~.$.L O y m C.C.C.l K.K.K.K.K.K.K.K.K.C.C.C.m y O +. .!.J.p.3+m.          ",
"            d+I.*+n {.k O y m C.C.K.K.K.L.L.L.L.L.L.K.K.l C.C.w.r.N ..%.1.*+I.m.X           ",
"                Q.j n  .L q.y m C.C.K.K.K.L.L.L.K.K.l C.C.m z r.M @.l.1.s.F.                ",
"                  Q.*+T.K +.N y w.B.C.l K.K.K.K.l C.C.B.w.x.O +.{.!.` 3.3+                  ",
"                        j n K +.N x.w.m B.C.C.C.B.m w.x.O k  .2.c.k.                        ",
"                              T.l.#.k d.O r.x.r.q.N M @.{.!.J.s.                            ",
"                                          1.T.T.1.M.                                        ",
"                                                                                            ",
"                                                                                            ",
"                                                                                            "};
