/* XPM */
static char * daway_xpm[] = {
"15 15 128 2",
"  	c None",
". 	c #628A8F",
"+ 	c #70AAB0",
"@ 	c #639DA4",
"# 	c #4E7579",
"$ 	c #AAAFB0",
"% 	c #699A9F",
"& 	c #9EE0E6",
"* 	c #9FE1E7",
"= 	c #87CBD3",
"- 	c #6AB1BA",
"; 	c #427279",
"> 	c #979D9D",
", 	c #82C5CC",
"' 	c #9FE1E8",
") 	c #4A909A",
"! 	c #9FA4A4",
"~ 	c #A4A7A7",
"{ 	c #6BADB4",
"] 	c #81C6CE",
"^ 	c #82C7CF",
"/ 	c #74BAC2",
"( 	c #5DA5AF",
"_ 	c #40848F",
": 	c #A7AAAA",
"< 	c #4E6E72",
"[ 	c #456B70",
"} 	c #646464",
"| 	c #646460",
"1 	c #554F23",
"2 	c #8E8C82",
"3 	c #838A8B",
"4 	c #424D4E",
"5 	c #F7F5C4",
"6 	c #E9E290",
"7 	c #E9E190",
"8 	c #EFE996",
"9 	c #CDBE61",
"0 	c #81733D",
"a 	c #8B8A87",
"b 	c #7C989A",
"c 	c #9FDADF",
"d 	c #526162",
"e 	c #F5F3B4",
"f 	c #D8CB64",
"g 	c #D7CA63",
"h 	c #E6DD74",
"i 	c #B29E40",
"j 	c #554313",
"k 	c #100D03",
"l 	c #959D9E",
"m 	c #8DBEC1",
"n 	c #9DDFE5",
"o 	c #505F60",
"p 	c #F5F2B2",
"q 	c #CDBC54",
"r 	c #CBBA52",
"s 	c #CBB952",
"t 	c #D6C85E",
"u 	c #E0D76A",
"v 	c #4E451A",
"w 	c #8C9697",
"x 	c #95CED3",
"y 	c #8ED2D9",
"z 	c #7FC4CC",
"A 	c #92D6DD",
"B 	c #4C5C5B",
"C 	c #F3F0AA",
"D 	c #CCBB52",
"E 	c #CAB951",
"F 	c #CAB950",
"G 	c #CAB850",
"H 	c #DCD061",
"I 	c #50471A",
"J 	c #ACAFAF",
"K 	c #AAAEAF",
"L 	c #84BCC1",
"M 	c #7EC3CB",
"N 	c #77BDC5",
"O 	c #495858",
"P 	c #F2EEA5",
"Q 	c #CCBB51",
"R 	c #CBB950",
"S 	c #CAB94F",
"T 	c #CAB84E",
"U 	c #DBCE5E",
"V 	c #405C61",
"W 	c #6F8587",
"X 	c #6DB4BD",
"Y 	c #4B949F",
"Z 	c #326D75",
"` 	c #6CB2BA",
" .	c #70B6BF",
"..	c #455554",
"+.	c #F1ECA2",
"@.	c #D4C659",
"#.	c #D3C457",
"$.	c #D2C356",
"%.	c #DBCE5C",
"&.	c #4E4519",
"*.	c #53676A",
"=.	c #899394",
"-.	c #35727B",
";.	c #255961",
">.	c #465456",
",.	c #53939B",
"'.	c #5FA7B1",
").	c #3F4F4C",
"!.	c #E7DF8F",
"~.	c #D4C556",
"{.	c #D3C455",
"].	c #D3C454",
"^.	c #D2C354",
"/.	c #D4C555",
"(.	c #4B4217",
"_.	c #DFDFDF",
":.	c #9BA1A2",
"<.	c #547377",
"[.	c #2D423E",
"}.	c #4F461A",
"|.	c #4D4418",
"1.	c #4D4318",
"2.	c #4E4419",
"3.	c #4C4318",
"4.	c #4B4117",
"5.	c #5F5B4D",
"6.	c #CACBCB",
"7.	c #CDCECE",
"                              ",
"            . + @ # $         ",
"          % & * = - ;         ",
"        > , & ' = - ) !       ",
"        ~ { ] ^ / ( _ :       ",
"          < [ } } } | 1 2     ",
"          3 4 5 6 7 8 9 0 a   ",
"        b c d e f g h i j k   ",
"    l m n ' o p q r s t u v   ",
"  w x y z A B C D E F G H I J ",
"K L M ( N ] O P Q R S T U I V ",
"W X Y Z `  ...+.@.#.#.$.%.&.*.",
"=.-.;.>.,.'.).!.~.{.].^./.(._.",
"        :.<.[.}.|.1.2.3.4.5.  ",
"              6.7.            "};
