/* XPM */
static char * dhidden_xpm[] = {
"15 15 79 1",
" 	c None",
".	c #C2C2C2",
"+	c #797979",
"@	c #909090",
"#	c #848484",
"$	c #646464",
"%	c #ADADAD",
"&	c #C3C3C3",
"*	c #929292",
"=	c #5E5E5E",
"-	c #9A9A9A",
";	c #A7A7A7",
">	c #C4C4C4",
",	c #727272",
"'	c #A2A2A2",
")	c #A6A6A6",
"!	c #A8A8A8",
"~	c #A9A9A9",
"{	c #9B9B9B",
"]	c #868686",
"^	c #686868",
"/	c #606060",
"(	c #878787",
"_	c #8A8A8A",
":	c #818181",
"<	c #6F6F6F",
"[	c #515151",
"}	c #7D7D7D",
"|	c #949494",
"1	c #707070",
"2	c #8B8B8B",
"3	c #BFBFBF",
"4	c #CDCDCD",
"5	c #B1B1B1",
"6	c #6C6C6C",
"7	c #C1C1C1",
"8	c #B9B9B9",
"9	c #ACACAC",
"0	c #9F9F9F",
"a	c #919191",
"b	c #888888",
"c	c #ABABAB",
"d	c #B4B4B4",
"e	c #B8B8B8",
"f	c #B6B6B6",
"g	c #AFAFAF",
"h	c #A4A4A4",
"i	c #989898",
"j	c #7F7F7F",
"k	c #A3A3A3",
"l	c #A5A5A5",
"m	c #9E9E9E",
"n	c #A1A1A1",
"o	c #999999",
"p	c #8F8F8F",
"q	c #838383",
"r	c #767676",
"s	c #595959",
"t	c #545454",
"u	c #7B7B7B",
"v	c #959595",
"w	c #757575",
"x	c #939393",
"y	c #979797",
"z	c #8C8C8C",
"A	c #6D6D6D",
"B	c #4B4B4B",
"C	c #484848",
"D	c #626262",
"E	c #585858",
"F	c #434343",
"G	c #4E4E4E",
"H	c #777777",
"I	c #7E7E7E",
"J	c #666666",
"K	c #5B5B5B",
"L	c #5C5C5C",
"M	c #525252",
"N	c #D2D2D2",
"       .       ",
"      +@#$%    ",
"     #.&%*=    ",
"    -;.>%*,'   ",
"    )@!~{]^~   ",
"     /(_:<[    ",
"     (}|_1}    ",
"    23435'*6   ",
"  -;7>>890ab/c ",
" *dd)efghi2j,[d",
"%kl]m!;nopqr^st",
"uvwtxiy*zq+ABCD",
"pEFGHb(qIrA=[  ",
"    0JKLsMKz   ",
"       N       "};
