/* XPM */
static char * dinactive_xpm[] = {
"15 15 128 2",
"  	c None",
". 	c #E9E9E9",
"+ 	c #C2C2C2",
"@ 	c #C3C4C4",
"# 	c #EDEDED",
"$ 	c #A5A7A7",
"% 	c #768182",
"& 	c #8E9D9E",
"* 	c #819092",
"= 	c #626C6D",
"- 	c #ACAEAE",
"; 	c #838E90",
"> 	c #C0D1D2",
", 	c #C1D2D3",
"' 	c #ABBCBE",
") 	c #8FA1A3",
"! 	c #5B6769",
"~ 	c #DADADA",
"{ 	c #9A9B9B",
"] 	c #A5B6B7",
"^ 	c #6F8183",
"/ 	c #A1A2A2",
"( 	c #A5A6A6",
"_ 	c #8D9E9F",
": 	c #A5B7B9",
"< 	c #A6B8BA",
"[ 	c #98AAAC",
"} 	c #839597",
"| 	c #647577",
"1 	c #A8A9A9",
"2 	c #F0F0F0",
"3 	c #5F6668",
"4 	c #596264",
"5 	c #636363",
"6 	c #636362",
"7 	c #4D4C41",
"8 	c #8C8B89",
"9 	c #F1F1F1",
"0 	c #878888",
"a 	c #474A4A",
"b 	c #F1F1E5",
"c 	c #DEDCC8",
"d 	c #DDDBC7",
"e 	c #E4E3CE",
"f 	c #BDB9A2",
"g 	c #757163",
"h 	c #8A8A89",
"i 	c #8B9192",
"j 	c #BCCBCC",
"k 	c #595D5D",
"l 	c #EEEDDE",
"m 	c #C8C5AB",
"n 	c #C7C4AA",
"o 	c #D8D6BC",
"p 	c #9F9A82",
"q 	c #474337",
"r 	c #0D0C09",
"s 	c #999B9B",
"t 	c #A6B2B3",
"u 	c #BFD0D1",
"v 	c #575B5B",
"w 	c #EDECDC",
"x 	c #BBB69C",
"y 	c #B9B49A",
"z 	c #C5C2A7",
"A 	c #D1CFB4",
"B 	c #454238",
"C 	c #F6F6F6",
"D 	c #919494",
"E 	c #B3C1C2",
"F 	c #B2C3C4",
"G 	c #A3B5B7",
"H 	c #B6C7C8",
"I 	c #545858",
"J 	c #EBEAD9",
"K 	c #BAB59B",
"L 	c #B8B399",
"M 	c #B7B298",
"N 	c #CCC9AD",
"O 	c #474439",
"P 	c #ADAEAE",
"Q 	c #ACADAD",
"R 	c #A1AFB0",
"S 	c #A2B4B6",
"T 	c #9BADAF",
"U 	c #A4B6B8",
"V 	c #505454",
"W 	c #E9E8D6",
"X 	c #CAC7AB",
"Y 	c #4F5657",
"Z 	c #7A8081",
"` 	c #92A4A6",
" .	c #728487",
"..	c #516062",
"+.	c #90A2A4",
"@.	c #94A6A8",
"#.	c #4D5151",
"$.	c #E8E6D4",
"%.	c #C3C0A4",
"&.	c #C1BEA2",
"*.	c #C0BDA1",
"=.	c #CAC7AA",
"-.	c #454237",
";.	c #5D6263",
">.	c #8E9091",
",.	c #556466",
"'.	c #404D4F",
").	c #4D5050",
"!.	c #748486",
"~.	c #859799",
"{.	c #464A49",
"].	c #DBD9C5",
"^.	c #C2BFA3",
"/.	c #423F35",
"(.	c #DFDFDF",
"_.	c #C0C1C1",
":.	c #D0D0D0",
"<.	c #F4F4F4",
"[.	c #9EA0A0",
"}.	c #646C6D",
"|.	c #363C3B",
"1.	c #464338",
"2.	c #444136",
"3.	c #434036",
"4.	c #5B5A57",
"5.	c #CACBCB",
"6.	c #CDCDCD",
"7.	c #E0E0E0",
"            . + @ #           ",
"          $ % & * = -         ",
"          ; > , ' ) ! ~       ",
"        { ] > , ' ) ^ /       ",
"        ( _ : < [ } | 1       ",
"        2 3 4 5 5 5 6 7 8     ",
"        9 0 a b c d e f g h   ",
"        i j k l m n o p q r   ",
"    s t u , v w x y y z A B C ",
"  D E F G H I J K L L M N O P ",
"Q R S } T U V W K L L M X O Y ",
"Z `  ...+.@.#.$.%.&.&.*.=.-.;.",
">.,.'.).!.~.{.].^.&.&.*.^./.(.",
"  _.:.<.[.}.|.1.2.2.-.3./.4.  ",
"              5.6.7.2 C C     "};
