/* XPM */
static char * doffline_xpm[] = {
"15 15 101 2",
"  	c None",
". 	c #A6A6A6",
"+ 	c #7E7E7E",
"@ 	c #999999",
"# 	c #8C8C8C",
"$ 	c #696969",
"% 	c #8B8B8B",
"& 	c #CCCCCC",
"* 	c #CDCDCD",
"= 	c #B7B7B7",
"- 	c #9C9C9C",
"; 	c #646464",
"> 	c #9B9B9B",
", 	c #B1B1B1",
"' 	c #7C7C7C",
") 	c #A2A2A2",
"! 	c #B2B2B2",
"~ 	c #B3B3B3",
"{ 	c #A5A5A5",
"] 	c #909090",
"^ 	c #707070",
"/ 	c #A9A9A9",
"( 	c #919191",
"_ 	c #929292",
": 	c #858585",
"< 	c #757575",
"[ 	c #555555",
"} 	c #EEEEEE",
"| 	c #F1F1F1",
"1 	c #888888",
"2 	c #7F7F7F",
"3 	c #808080",
"4 	c #727272",
"5 	c #656565",
"6 	c #5F5F5F",
"7 	c #D7D7D7",
"8 	c #BDBDBD",
"9 	c #B9B9B9",
"0 	c #848484",
"a 	c #676767",
"b 	c #5E5E5E",
"c 	c #585858",
"d 	c #515151",
"e 	c #4D4D4D",
"f 	c #AFAFAF",
"g 	c #CBCBCB",
"h 	c #9E9E9E",
"i 	c #717171",
"j 	c #797979",
"k 	c #747474",
"l 	c #454545",
"m 	c #565656",
"n 	c #ACACAC",
"o 	c #939393",
"p 	c #BEBEBE",
"q 	c #B0B0B0",
"r 	c #878787",
"s 	c #DBDBDB",
"t 	c #D9D9D9",
"u 	c #D5D5D5",
"v 	c #D3D3D3",
"w 	c #484848",
"x 	c #5B5B5B",
"y 	c #575757",
"z 	c #B4B4B4",
"A 	c #ADADAD",
"B 	c #ABABAB",
"C 	c #A8A8A8",
"D 	c #828282",
"E 	c #6E6E6E",
"F 	c #686868",
"G 	c #616161",
"H 	c #343434",
"I 	c #4B4B4B",
"J 	c #9F9F9F",
"K 	c #5C5C5C",
"L 	c #9D9D9D",
"M 	c #595959",
"N 	c #494949",
"O 	c #414141",
"P 	c #3A3A3A",
"Q 	c #323232",
"R 	c #292929",
"S 	c #4A4A4A",
"T 	c #626262",
"U 	c #606060",
"V 	c #4F4F4F",
"W 	c #404040",
"X 	c #373737",
"Y 	c #3D3D3D",
"Z 	c #464646",
"` 	c #A4A4A4",
" .	c #E6E6E6",
"..	c #F8F8F8",
"+.	c #C1C1C1",
"@.	c #D0D0D0",
"#.	c #6A6A6A",
"$.	c #868686",
"%.	c #E4E4E4",
"&.	c #D2D2D2",
"*.	c #D4D4D4",
"                              ",
"          . + @ # $           ",
"          % & * = - ;         ",
"        > , & * = - ' )       ",
"        . @ ! ~ { ] ^ /       ",
"          ; ( _ : < [ }       ",
"        | 1 2 3 4 5 6 7       ",
"      8 ] 9 0 a b c d e       ",
"    > f g h i : 2 j k l m n   ",
"  o 8 p q r 2 s t u v w x y z ",
"A B f ] C D 6 k E F G H I 6 m ",
"2 J 2 K L o M N O P Q R H S T ",
"] U N V 3 _ 2 m W X H Y Z `  .",
"..+.@.    #.G T y e m $.%.    ",
"            %.&.*.%.          "};
