/* XPM */
static char * donline_xpm[] = {
"15 15 122 2",
"  	c None",
". 	c #C1C3C3",
"+ 	c #C3C4C5",
"@ 	c #EDEDED",
"# 	c #628A8F",
"$ 	c #70AAB0",
"% 	c #639DA4",
"& 	c #4E7579",
"* 	c #AAAFB0",
"= 	c #699A9F",
"- 	c #9EE0E6",
"; 	c #9FE1E7",
"> 	c #87CBD3",
", 	c #6AB1BA",
"' 	c #427279",
") 	c #979D9D",
"! 	c #82C5CC",
"~ 	c #9FE1E8",
"{ 	c #4A909A",
"] 	c #9FA4A4",
"^ 	c #A4A7A7",
"/ 	c #6BADB4",
"( 	c #81C6CE",
"_ 	c #82C7CF",
": 	c #74BAC2",
"< 	c #5DA5AF",
"[ 	c #40848F",
"} 	c #A7AAAA",
"| 	c #4E6E72",
"1 	c #5FA6AF",
"2 	c #61A9B2",
"3 	c #57A0AA",
"4 	c #458E98",
"5 	c #3E5F64",
"6 	c #838A8B",
"7 	c #629297",
"8 	c #6CB3BC",
"9 	c #51878E",
"0 	c #778082",
"a 	c #7C989A",
"b 	c #9FDADF",
"c 	c #AAEBF0",
"d 	c #9ADDE3",
"e 	c #8BCFD6",
"f 	c #7BC0C8",
"g 	c #6DAEB6",
"h 	c #5B797D",
"i 	c #959D9E",
"j 	c #8DBEC1",
"k 	c #9DDFE5",
"l 	c #A0E2E8",
"m 	c #94D7DE",
"n 	c #86CBD2",
"o 	c #78BDC5",
"p 	c #69B0B9",
"q 	c #5FA7B0",
"r 	c #44757C",
"s 	c #A8ADAE",
"t 	c #8C9697",
"u 	c #95CED3",
"v 	c #8ED2D9",
"w 	c #7FC4CC",
"x 	c #92D6DD",
"y 	c #90D4DB",
"z 	c #89CDD4",
"A 	c #7DC3CB",
"B 	c #71B7BF",
"C 	c #62AAB3",
"D 	c #559EA8",
"E 	c #47919C",
"F 	c #32686F",
"G 	c #B2B6B6",
"H 	c #AAAEAF",
"I 	c #84BCC1",
"J 	c #7EC3CB",
"K 	c #77BDC5",
"L 	c #80C5CD",
"M 	c #7AC0C8",
"N 	c #71B8C0",
"O 	c #66ADB7",
"P 	c #59A2AC",
"Q 	c #4C96A0",
"R 	c #3C8793",
"S 	c #2C7985",
"T 	c #436065",
"U 	c #6F8587",
"V 	c #6DB4BD",
"W 	c #4B949F",
"X 	c #326D75",
"Y 	c #6CB2BA",
"Z 	c #70B6BF",
"` 	c #6FB5BE",
" .	c #63ABB4",
"..	c #5AA2AC",
"+.	c #4F98A2",
"@.	c #428D98",
"#.	c #28636D",
"$.	c #1F6470",
"%.	c #556B6E",
"&.	c #899394",
"*.	c #35727B",
"=.	c #255961",
"-.	c #465456",
";.	c #53939B",
">.	c #5FA7B1",
",.	c #5EA6B0",
"'.	c #5AA3AC",
").	c #549DA7",
"!.	c #357C87",
"~.	c #435B5E",
"{.	c #D0D1D1",
"].	c #9BA1A2",
"^.	c #547377",
"/.	c #3F7077",
"(.	c #3B747C",
"_.	c #387079",
":.	c #36666D",
"<.	c #48686D",
"[.	c #869092",
"}.	c #D1D2D2",
"|.	c #D4D5D5",
"1.	c #E8E8E8",
"              . + @           ",
"            # $ % & *         ",
"          = - ; > , '         ",
"        ) ! - ~ > , { ]       ",
"        ^ / ( _ : < [ }       ",
"          | 1 2 3 4 5         ",
"          6 7 8 2 9 0         ",
"        a b c d e f g h       ",
"    i j k ~ l m n o p q r s   ",
"  t u v w x y z A B C D E F G ",
"H I J < K ( L M N O P Q R S T ",
"U V W X Y Z ` ,  ...+.@.#.$.%.",
"&.*.=.-.;.>.,.'.).Q @.!.~.    ",
"    {.  ].^./.(._.:.<.[.      ",
"              }.|.1.          "};
