/* XPM */
static char * dbusy_xpm[] = {
"15 15 118 2",
"  	c None",
". 	c #C1C3C3",
"+ 	c #C3C4C5",
"@ 	c #EDEDED",
"# 	c #628A8F",
"$ 	c #70AAB0",
"% 	c #639DA4",
"& 	c #4E7579",
"* 	c #AAAFB0",
"= 	c #699A9F",
"- 	c #9EE0E6",
"; 	c #9FE1E7",
"> 	c #87CBD3",
", 	c #6AB1BA",
"' 	c #427279",
") 	c #979D9D",
"! 	c #82C5CC",
"~ 	c #9FE1E8",
"{ 	c #4A909A",
"] 	c #9FA4A4",
"^ 	c #A4A7A7",
"/ 	c #6BADB4",
"( 	c #81C6CE",
"_ 	c #82C7CF",
": 	c #74BAC2",
"< 	c #5DA5AF",
"[ 	c #40848F",
"} 	c #4E6E72",
"| 	c #5FA6AF",
"1 	c #4A8288",
"2 	c #646566",
"3 	c #3C6368",
"4 	c #3E5F64",
"5 	c #838A8B",
"6 	c #629297",
"7 	c #2C4A4D",
"8 	c #F4F4F4",
"9 	c #475152",
"0 	c #778082",
"a 	c #7C989A",
"b 	c #9FDADF",
"c 	c #AAEBF0",
"d 	c #3F5B5E",
"e 	c #4F5B5C",
"f 	c #6DAEB6",
"g 	c #5B797D",
"h 	c #959D9E",
"i 	c #8DBEC1",
"j 	c #9DDFE5",
"k 	c #A0E2E8",
"l 	c #3D595B",
"m 	c #464E4F",
"n 	c #437076",
"o 	c #3D6B70",
"p 	c #305256",
"q 	c #A8ADAE",
"r 	c #8C9697",
"s 	c #95CED3",
"t 	c #8ED2D9",
"u 	c #7FC4CC",
"v 	c #92D6DD",
"w 	c #90D4DB",
"x 	c #385457",
"y 	c #989898",
"z 	c #D1D1D1",
"A 	c #6A6A6A",
"B 	c #878787",
"C 	c #686B6C",
"D 	c #1C3B40",
"E 	c #949797",
"F 	c #AAAEAF",
"G 	c #84BCC1",
"H 	c #7EC3CB",
"I 	c #77BDC5",
"J 	c #80C5CD",
"K 	c #324F52",
"L 	c #E3E3E3",
"M 	c #686868",
"N 	c #9E9E9E",
"O 	c #525252",
"P 	c #3C3C3C",
"Q 	c #000000",
"R 	c #6F8587",
"S 	c #6DB4BD",
"T 	c #4B949F",
"U 	c #326D75",
"V 	c #6CB2BA",
"W 	c #70B6BF",
"X 	c #6FB5BE",
"Y 	c #426F74",
"Z 	c #636464",
"` 	c #585858",
" .	c #9B9B9B",
"..	c #899394",
"+.	c #35727B",
"@.	c #255961",
"#.	c #465456",
"$.	c #53939B",
"%.	c #5FA7B1",
"&.	c #5EA6B0",
"*.	c #5AA3AC",
"=.	c #171A1B",
"-.	c #C7C7C7",
";.	c #C4C4C4",
">.	c #8D8D8D",
",.	c #C6C6C6",
"'.	c #676767",
").	c #292929",
"!.	c #D0D1D1",
"~.	c #9BA1A2",
"{.	c #547377",
"].	c #3F7077",
"^.	c #3B747C",
"/.	c #152B2E",
"(.	c #505050",
"_.	c #555555",
":.	c #969696",
"<.	c #888888",
"              . + @           ",
"            # $ % & *         ",
"          = - ; > , '         ",
"        ) ! - ~ > , { ]       ",
"        ^ / ( _ : < [         ",
"          } | 1 2 3 4         ",
"          5 6 7 8 9 0         ",
"        a b c d 8 e f g       ",
"    h i j ~ k l 8 m n o p q   ",
"  r s t u v w x y z A B C D E ",
"F G H < I ( J K 8 L M N O P Q ",
"R S T U V W X Y Z z `  .B M Q ",
"..+.@.#.$.%.&.*.=.-.;.>.,.'.).",
"    !.  ~.{.].^./.(.M M _.:.  ",
"                <.Q Q Q Q :.  "};
