/* XPM */
static char * doffline_xpm[] = {
"38 38 481 2",
"  	c None",
". 	c #ECECEC",
"+ 	c #D1D1D1",
"@ 	c #C0C0C0",
"# 	c #B2B2B2",
"$ 	c #B5B5B5",
"% 	c #D2D2D2",
"& 	c #EFEFEF",
"* 	c #CACACA",
"= 	c #989898",
"- 	c #818181",
"; 	c #7F7F7F",
"> 	c #656565",
", 	c #545454",
"' 	c #515151",
") 	c #707070",
"! 	c #CFCECE",
"~ 	c #E6E6E6",
"{ 	c #A6A6A6",
"] 	c #ACACAC",
"^ 	c #AAAAAA",
"/ 	c #9B9B9B",
"( 	c #858585",
"_ 	c #6F6F6F",
": 	c #595959",
"< 	c #525252",
"[ 	c #B3B1B1",
"} 	c #EBEAEA",
"| 	c #A9A9A9",
"1 	c #BDBDBD",
"2 	c #C5C5C5",
"3 	c #BFBFBF",
"4 	c #AFAFAF",
"5 	c #9A9A9A",
"6 	c #828282",
"7 	c #696969",
"8 	c #565656",
"9 	c #454545",
"0 	c #555555",
"a 	c #DAD7D7",
"b 	c #BAB8B8",
"c 	c #CFCFCF",
"d 	c #BCBCBC",
"e 	c #A7A7A7",
"f 	c #8B8B8B",
"g 	c #606060",
"h 	c #484848",
"i 	c #909090",
"j 	c #ECEBEB",
"k 	c #E1DFDF",
"l 	c #9C9C9C",
"m 	c #B7B7B7",
"n 	c #E2E2E2",
"o 	c #E3E3E3",
"p 	c #D6D6D6",
"q 	c #929292",
"r 	c #7D7D7D",
"s 	c #5E5E5E",
"t 	c #505050",
"u 	c #CCC4C4",
"v 	c #BEBABA",
"w 	c #B8B8B8",
"x 	c #D5D5D5",
"y 	c #E5E5E5",
"z 	c #D8D8D8",
"A 	c #A8A8A8",
"B 	c #979797",
"C 	c #878787",
"D 	c #848484",
"E 	c #737373",
"F 	c #676767",
"G 	c #686868",
"H 	c #B4ACAC",
"I 	c #A79F9F",
"J 	c #969696",
"K 	c #CCCCCC",
"L 	c #999999",
"M 	c #868686",
"N 	c #6C6C6C",
"O 	c #9D9D9D",
"P 	c #F7F6F6",
"Q 	c #857C7C",
"R 	c #8E8E8E",
"S 	c #ADADAD",
"T 	c #C9C9C9",
"U 	c #C1C1C1",
"V 	c #B0B0B0",
"W 	c #9F9F9F",
"X 	c #9E9E9E",
"Y 	c #A4A4A4",
"Z 	c #A3A3A3",
"` 	c #8C8C8C",
" .	c #727272",
"..	c #F9F8F8",
"+.	c #948D8D",
"@.	c #808080",
"#.	c #A1A1A1",
"$.	c #C3B7B7",
"%.	c #B0ABAB",
"&.	c #959595",
"*.	c #939393",
"=.	c #ABABAB",
"-.	c #B1B1B1",
";.	c #919191",
">.	c #E0DADA",
",.	c #CECCCC",
"'.	c #646464",
").	c #7B7B7B",
"!.	c #8A8A8A",
"~.	c #A0A0A0",
"{.	c #949494",
"].	c #B4B4B4",
"^.	c #FAF9F9",
"/.	c #9D9A9A",
"(.	c #464646",
"_.	c #5D5D5D",
":.	c #5F5F5F",
"<.	c #838383",
"[.	c #A1A0A0",
"}.	c #E7E5E5",
"|.	c #EFEEEE",
"1.	c #494949",
"2.	c #5A5A5A",
"3.	c #8D8D8D",
"4.	c #9D9C9C",
"5.	c #D5C9C9",
"6.	c #E3E2E2",
"7.	c #787272",
"8.	c #4B4141",
"9.	c #403636",
"0.	c #524444",
"a.	c #625050",
"b.	c #927B7B",
"c.	c #D3C7C7",
"d.	c #D7C6C6",
"e.	c #805555",
"f.	c #532424",
"g.	c #502121",
"h.	c #4D1F1F",
"i.	c #4A1D1D",
"j.	c #461818",
"k.	c #441717",
"l.	c #8F6D6D",
"m.	c #CBABAB",
"n.	c #AF8585",
"o.	c #AA7676",
"p.	c #9A6C6C",
"q.	c #8F6262",
"r.	c #825959",
"s.	c #755252",
"t.	c #644141",
"u.	c #593737",
"v.	c #512E2E",
"w.	c #734C4C",
"x.	c #BCADAD",
"y.	c #954D4D",
"z.	c #A96060",
"A.	c #B67D7D",
"B.	c #C68B8B",
"C.	c #C58989",
"D.	c #B77E7E",
"E.	c #A77272",
"F.	c #946969",
"G.	c #7F5959",
"H.	c #704E4E",
"I.	c #5B3A3A",
"J.	c #481D1D",
"K.	c #5E3939",
"L.	c #9D8686",
"M.	c #BFB4B4",
"N.	c #9A5F5F",
"O.	c #905454",
"P.	c #A95F5F",
"Q.	c #C57F7F",
"R.	c #D29797",
"S.	c #D59C9C",
"T.	c #D09696",
"U.	c #C08686",
"V.	c #AE7777",
"W.	c #9D6D6D",
"X.	c #896161",
"Y.	c #7C5656",
"Z.	c #674848",
"`.	c #572727",
" +	c #4D1616",
".+	c #441414",
"++	c #634A4A",
"@+	c #CDCACA",
"#+	c #9C9494",
"$+	c #B18080",
"%+	c #B67C7C",
"&+	c #BE7676",
"*+	c #DB9999",
"=+	c #E1A7A7",
"-+	c #E5ABAB",
";+	c #D89E9E",
">+	c #C78D8D",
",+	c #B37B7B",
"'+	c #A27171",
")+	c #906868",
"!+	c #7E5757",
"~+	c #714040",
"{+	c #623535",
"]+	c #5C1F1F",
"^+	c #401D1D",
"/+	c #B6B3B3",
"(+	c #AFA6A6",
"_+	c #C4C4C4",
":+	c #DCAFAF",
"<+	c #C88585",
"[+	c #CD8787",
"}+	c #E2A1A1",
"|+	c #EAB0B0",
"1+	c #B87878",
"2+	c #A47070",
"3+	c #915B5B",
"4+	c #884E4E",
"5+	c #7B3939",
"6+	c #644343",
"7+	c #5E2020",
"8+	c #571C1C",
"9+	c #4C4C4C",
"0+	c #6B6B6B",
"a+	c #A7A3A3",
"b+	c #AEA5A5",
"c+	c #E7E7E7",
"d+	c #EDC0C0",
"e+	c #CA8383",
"f+	c #D28D8D",
"g+	c #EBAFAF",
"h+	c #EEB4B4",
"i+	c #BB7777",
"j+	c #A66F6F",
"k+	c #925454",
"l+	c #8E4949",
"m+	c #743A3A",
"n+	c #762323",
"o+	c #5E1B1B",
"p+	c #551818",
"q+	c #4F3C3C",
"r+	c #767676",
"s+	c #C8C5C5",
"t+	c #B2AAAA",
"u+	c #D7D7D7",
"v+	c #EBEBEB",
"w+	c #EEEEEE",
"x+	c #DDAAAA",
"y+	c #C77F7F",
"z+	c #DD9A9A",
"A+	c #BA7B7B",
"B+	c #A57171",
"C+	c #995858",
"D+	c #904A4A",
"E+	c #893232",
"F+	c #7F2424",
"G+	c #5F1F1F",
"H+	c #611818",
"I+	c #582D2D",
"J+	c #757575",
"K+	c #EAE8E8",
"L+	c #AAA4A4",
"M+	c #DADADA",
"N+	c #BF8787",
"O+	c #C27979",
"P+	c #E09E9E",
"Q+	c #DA9C9C",
"R+	c #CB8686",
"S+	c #BA7878",
"T+	c #A57272",
"U+	c #9A5959",
"V+	c #933E3E",
"W+	c #8E3232",
"X+	c #832525",
"Y+	c #782323",
"Z+	c #621919",
"`+	c #592A2A",
" @	c #AAA7A7",
".@	c #C3C3C3",
"+@	c #D0D0D0",
"@@	c #B1AFAF",
"#@	c #A76E6E",
"$@	c #C07777",
"%@	c #EAAEAE",
"&@	c #DB9898",
"*@	c #CB8585",
"=@	c #BA7777",
"-@	c #AA6666",
";@	c #9D5353",
">@	c #974141",
",@	c #973D3D",
"'@	c #8C3030",
")@	c #842222",
"!@	c #7C1313",
"~@	c #6A3131",
"{@	c #6A6A6A",
"]@	c #888888",
"^@	c #E9E8E8",
"/@	c #996464",
"(@	c #AE6464",
"_@	c #DE9B9B",
":@	c #D18C8C",
"<@	c #C38181",
"[@	c #AB6868",
"}@	c #A55C5C",
"|@	c #9C5353",
"1@	c #8D3030",
"2@	c #842525",
"3@	c #852020",
"4@	c #7B3B3B",
"5@	c #AEAEAE",
"6@	c #CBCBCB",
"7@	c #A5A5A5",
"8@	c #C8C8C8",
"9@	c #9E9292",
"0@	c #935454",
"a@	c #AC6363",
"b@	c #D28C8C",
"c@	c #E19F9F",
"d@	c #CD8686",
"e@	c #BC7878",
"f@	c #9E5454",
"g@	c #994F4F",
"h@	c #923131",
"i@	c #902F2F",
"j@	c #7E3434",
"k@	c #6E6565",
"l@	c #777777",
"m@	c #BEBEBE",
"n@	c #C6C6C6",
"o@	c #925050",
"p@	c #8E3F3F",
"q@	c #AA6161",
"r@	c #C17878",
"s@	c #C98383",
"t@	c #B97777",
"u@	c #994C4C",
"v@	c #974040",
"w@	c #A52C2C",
"x@	c #A22A2A",
"y@	c #8F2323",
"z@	c #8C1F1F",
"A@	c #8A1111",
"B@	c #7D3535",
"C@	c #6A5F5F",
"D@	c #B3B3B3",
"E@	c #BABABA",
"F@	c #A59C9C",
"G@	c #8E4646",
"H@	c #914444",
"I@	c #A35A5A",
"J@	c #BC7272",
"K@	c #CB8484",
"L@	c #BD7878",
"M@	c #B07171",
"N@	c #A76262",
"O@	c #984242",
"P@	c #9B3838",
"Q@	c #A52B2B",
"R@	c #A72929",
"S@	c #B11D1D",
"T@	c #A71A1A",
"U@	c #8D1515",
"V@	c #781010",
"W@	c #6A3B3B",
"X@	c #7B7777",
"Y@	c #976C6C",
"Z@	c #813535",
"`@	c #874343",
" #	c #9E5555",
".#	c #B26868",
"+#	c #C37A7A",
"@#	c #CC8686",
"##	c #C27A7A",
"$#	c #B77373",
"%#	c #AA6464",
"&#	c #9F5555",
"*#	c #A32D2D",
"=#	c #AF1A1A",
"-#	c #9C1414",
";#	c #781111",
">#	c #6A3737",
",#	c #817A7A",
"'#	c #BBBBBB",
")#	c #A2A2A2",
"!#	c #824848",
"~#	c #772B2B",
"{#	c #9A5151",
"]#	c #AC6262",
"^#	c #BC7373",
"/#	c #C47B7B",
"(#	c #AE6B6B",
"_#	c #9C5252",
":#	c #984A4A",
"<#	c #A31313",
"[#	c #8B1111",
"}#	c #722B2B",
"|#	c #A18282",
"1#	c #BF9F9F",
"2#	c #DAD5D5",
"3#	c #E4D2D2",
"4#	c #774444",
"5#	c #6E2E2E",
"6#	c #B46A6A",
"7#	c #BA7272",
"8#	c #B16D6D",
"9#	c #A96464",
"0#	c #A05757",
"a#	c #984444",
"b#	c #9D3535",
"c#	c #A42C2C",
"d#	c #AB1313",
"e#	c #9F0E0E",
"f#	c #7B0A0A",
"g#	c #B48B8B",
"h#	c #8B5C5C",
"i#	c #7A3838",
"j#	c #7E3C3C",
"k#	c #904949",
"l#	c #AB6262",
"m#	c #B56B6B",
"n#	c #B36969",
"o#	c #984949",
"p#	c #A22F2F",
"q#	c #A52A2A",
"r#	c #AD2121",
"s#	c #B68C8C",
"t#	c #CDB9B9",
"u#	c #D7C9C9",
"v#	c #A77575",
"w#	c #7E3B3B",
"x#	c #894545",
"y#	c #A65D5D",
"z#	c #AA6060",
"A#	c #9B5252",
"B#	c #973F3F",
"C#	c #9E3434",
"D#	c #A62A2A",
"E#	c #911E1E",
"F#	c #CFA8A8",
"G#	c #DFCFCF",
"H#	c #B68686",
"I#	c #874545",
"J#	c #8F4949",
"K#	c #A05555",
"L#	c #9E5353",
"M#	c #964D4D",
"N#	c #934444",
"O#	c #933838",
"P#	c #9F2E2E",
"Q#	c #A02F2F",
"R#	c #BB8D8D",
"S#	c #F1E7E7",
"T#	c #DECFCF",
"U#	c #A47878",
"V#	c #914C4C",
"W#	c #924646",
"X#	c #963E3E",
"Y#	c #8F3333",
"Z#	c #9E2D2D",
"`#	c #AE2020",
" $	c #AF1F1F",
".$	c #AF2020",
"+$	c #B34747",
"@$	c #D6A0A0",
"#$	c #E6D2D2",
"$$	c #ECE3E3",
"%$	c #F5F0F0",
"&$	c #E3D7D7",
"*$	c #CABDBD",
"=$	c #BB9F9F",
"-$	c #B18686",
";$	c #AF6E6E",
">$	c #AE6A6A",
",$	c #AD6A6A",
"'$	c #AF6969",
")$	c #BF7F7F",
"!$	c #C38484",
"~$	c #E0A3A3",
"{$	c #E2C7C7",
"]$	c #E9D9D9",
"^$	c #F4E8E8",
"                                                                            ",
"                                  . + @ # $ % &                             ",
"                                * = - ; > , ' ) !                           ",
"                            ~ $ { ] ^ / ( _ : ' < [                         ",
"                          } ] | 1 2 3 4 5 6 7 8 9 0 a                       ",
"                          b | 3 c % c d e f ) g , h i j                     ",
"                        k l m c n o p 3 { q r ) s t g u                     ",
"                        v 5 w x o y z @ A B C D E F G H                     ",
"                        I J m K z z + 1 { L / C M ; N O P                   ",
"                        Q R S 1 T T U V W X Y Z X `  .V ..                  ",
"                        +.@.J ^ S S e X L #.] S ^ ` r $.                    ",
"                        %.G ; q q q &.*.l =.-.] ^ ;.X >.                    ",
"                        ,.'.'.).).).D !.~.-.S =.^ {.].^.                    ",
"                          /.(._.:.:._ <.M ~.^ &.*.[.}.                      ",
"                          |.) 1.2.2.2.) 6 !.3.;.4.5.                        ",
"                            6.7.8.9.9.0.a.a.a.b.c.                          ",
"                              d.e.f.g.h.i.j.k.l.                            ",
"                            m.n.o.p.q.r.s.t.u.v.w.x.                        ",
"                          y.z.A.B.C.D.E.F.G.H.I.J.K.L.M.                    ",
"                      N.O.P.Q.R.S.T.U.V.W.X.Y.Z.`. +.+++O @+                ",
"                    #+$+%+&+*+=+-+;+>+,+'+)+!+~+{+]+ +^+' ( /+              ",
"                  (+_+:+<+[+}+|+|+;+>+1+2+3+4+5+6+7+8+^+9+:.0+a+            ",
"                b+% c+d+e+f+g+h+|+;+>+i+j+k+l+5+m+n+o+p+q+) r+r s+          ",
"              t+u+v+w+x+y+z+h+h+|+;+>+A+B+C+D+5+E+F+G+H+I+J+Z r J K+        ",
"            L+% . c+M+N+O+P+h+h+|+Q+R+S+T+U+D+V+W+X+Y+Z+`+'.~.e r 2         ",
"           @.@y c++@@@#@$@P+h+h+%@&@*@=@-@;@>@,@W+'@)@!@~@{@*.-.;.]@^@      ",
"        d ].u+z 3 Z /@(@O+_@}+%@z+:@<@[@}@|@>@,@W+1@2@3@4@{@3.5@-.B 6@      ",
"        7@8@+@3 Y 9@0@a@O+b@c@P+&@d@e@[@f@g@>@,@h@i@2@3@j@k@l@#.-./ m@      ",
"      -.{ n@@ 7@#.o@p@q@r@b@z+&@:@s@t@[@f@u@v@,@w@x@y@z@A@B@C@;.5@] |       ",
"      D@^ E@Z O F@G@H@I@J@d@f+:@K@L@M@N@|@O@,@P@Q@R@S@T@U@V@W@X@Z =.5       ",
"      Y e e 5 X Y@Z@`@ #.#+#@#K@##$#%#&#g@O@,@*#Q@R@S@=#-#;#>#,#e D@'#      ",
"      i ~.&.l )#!#~#`@{#]#^#/###t@(#I@_#:#v@,@*#Q@R@S@=#<#[#}#|#1#2#3#      ",
"      D &.&.~.~.4#5#`@{#}@6#J@7#8#9#0#g@a#,@b#c#Q@R@S@=#d#e#f#g#            ",
"        D ;.5 Y h#i#j#k#&#l#m#n#q@I@_#o#v@,@p#Q@q#r#S@=#d#e#f#s#            ",
"              t#u#v#w#x#_#y#q@z#I@A#o#B#,@C#c#Q@D#S@S@=#d#e#E#F#            ",
"                  G#H#I#J#&#K#K#L#M#N#,@O#P#Q@Q@D#S@S@=#d#Q#R#              ",
"                    S#T#U#V#D+D+D+W#X#O#Y#Z#Q@`# $S@.$+$@$#$$$              ",
"                        %$&$*$=$-$;$>$>$,$'$)$!$~${$]$^$                    "};
