/* XPM */
static char * dbrb_xpm[] = {
"46 46 255 2",
"  	c None",
". 	c #9B9B9B",
"+ 	c #7B7B7B",
"@ 	c #686868",
"# 	c #626262",
"$ 	c #767676",
"% 	c #9C9C9C",
"& 	c #999999",
"* 	c #9F9F9F",
"= 	c #DBDBDB",
"- 	c #FFFFFF",
"; 	c #FEFEFE",
"> 	c #DFDFDF",
", 	c #8F8F8F",
"' 	c #A5A5A5",
") 	c #F8F8F8",
"! 	c #FDFDFD",
"~ 	c #FCFCFC",
"{ 	c #F2F2F2",
"] 	c #B7B7B7",
"^ 	c #9D9D9D",
"/ 	c #E4E4E4",
"( 	c #B2B2B2",
"_ 	c #A9A9A9",
": 	c #F5F5F5",
"< 	c #F9F9F9",
"[ 	c #F6F6F6",
"} 	c #FBFBFB",
"| 	c #FAFAFA",
"1 	c #F4F4F4",
"2 	c #F1F1F1",
"3 	c #F3F3F3",
"4 	c #F7F7F7",
"5 	c #A0A0A0",
"6 	c #989898",
"7 	c #CACACA",
"8 	c #EFEFEF",
"9 	c #F0F0F0",
"0 	c #ECECEC",
"a 	c #E8E8E8",
"b 	c #D0D8CC",
"c 	c #7DA866",
"d 	c #448723",
"e 	c #1D5200",
"f 	c #1A4A00",
"g 	c #287000",
"h 	c #6B9D4F",
"i 	c #9EBB8F",
"j 	c #E5E5E5",
"k 	c #E9E9E9",
"l 	c #EEEEEE",
"m 	c #E3E3E3",
"n 	c #A4A4A4",
"o 	c #DADADA",
"p 	c #EBEBEB",
"q 	c #E6E6E6",
"r 	c #B4C8AC",
"s 	c #3B8115",
"t 	c #1E5600",
"u 	c #3E9A00",
"v 	c #4FC600",
"w 	c #5BE400",
"x 	c #59DE00",
"y 	c #44AA00",
"z 	c #2F7C00",
"A 	c #559137",
"B 	c #EDEDED",
"C 	c #EAEAEA",
"D 	c #E0E0E0",
"E 	c #A8A8A8",
"F 	c #C7C7C7",
"G 	c #A3A3A3",
"H 	c #DCDCDC",
"I 	c #44891F",
"J 	c #1B4C00",
"K 	c #41A200",
"L 	c #56D800",
"M 	c #57DA00",
"N 	c #308000",
"O 	c #1C4E00",
"P 	c #A5BE98",
"Q 	c #DDDDDD",
"R 	c #C0C0C0",
"S 	c #C8C8C8",
"T 	c #BFBFBF",
"U 	c #B3B3B3",
"V 	c #D8D8D8",
"W 	c #E7E7E7",
"X 	c #DEDEDE",
"Y 	c #B8C6B2",
"Z 	c #246600",
"` 	c #49B600",
" .	c #50C800",
"..	c #51CA00",
"+.	c #52CE00",
"@.	c #53D000",
"#.	c #338000",
"$.	c #639A48",
"%.	c #E1E1E1",
"&.	c #D7D7D7",
"*.	c #C4C4C4",
"=.	c #BEBEBE",
"-.	c #C6C6C6",
";.	c #D2D2D2",
">.	c #D6D6D6",
",.	c #AABF9F",
"'.	c #205A00",
").	c #215800",
"!.	c #3E9C00",
"~.	c #4BBC00",
"{.	c #4DC000",
"].	c #4EC400",
"^.	c #4EC200",
"/.	c #4CBE00",
"(.	c #4ABA00",
"_.	c #48B400",
":.	c #2A7000",
"<.	c #1E5000",
"[.	c #4F902C",
"}.	c #D5D5D5",
"|.	c #D1D1D1",
"1.	c #C9C9C9",
"2.	c #ACACAC",
"3.	c #CECECE",
"4.	c #519329",
"5.	c #276800",
"6.	c #45AC00",
"7.	c #46B000",
"8.	c #4AB800",
"9.	c #378A00",
"0.	c #256200",
"a.	c #1F5200",
"b.	c #91B080",
"c.	c #D4D4D4",
"d.	c #CCCCCC",
"e.	c #ADADAD",
"f.	c #CBCBCB",
"g.	c #A6BB9D",
"h.	c #205600",
"i.	c #266600",
"j.	c #2F7600",
"k.	c #42A600",
"l.	c #46AE00",
"m.	c #398E00",
"n.	c #296E00",
"o.	c #235E00",
"p.	c #D9D9D9",
"q.	c #D3D3D3",
"r.	c #D0D0D0",
"s.	c #ABABAB",
"t.	c #B0B0B0",
"u.	c #CFCFCF",
"v.	c #5F9A3C",
"w.	c #246000",
"x.	c #2E7200",
"y.	c #348200",
"z.	c #3F9E00",
"A.	c #52CC00",
"B.	c #327C00",
"C.	c #2A6A00",
"D.	c #225A00",
"E.	c #87AE70",
"F.	c #AEAEAE",
"G.	c #AFAFAF",
"H.	c #296C00",
"I.	c #3A9200",
"J.	c #47B200",
"K.	c #307800",
"L.	c #266400",
"M.	c #6EA54D",
"N.	c #388C00",
"O.	c #54D200",
"P.	c #55D400",
"Q.	c #3B9400",
"R.	c #2C6E00",
"S.	c #6DA84A",
"T.	c #CDCDCD",
"U.	c #C3C3C3",
"V.	c #58DC00",
"W.	c #56D600",
"X.	c #2E7400",
"Y.	c #6CA947",
"Z.	c #2B6C00",
"`.	c #5AE000",
" +	c #5AE200",
".+	c #6CAC46",
"++	c #C5C5C5",
"@+	c #4AA50D",
"#+	c #368600",
"$+	c #74B24A",
"%+	c #80B163",
"&+	c #358400",
"*+	c #40A000",
"=+	c #5CE600",
"-+	c #5DE800",
";+	c #42A400",
">+	c #A9B8A2",
",+	c #54AC1A",
"'+	c #84B464",
")+	c #368800",
"!+	c #BCBCBC",
"~+	c #6AB040",
"{+	c #43A800",
"]+	c #ABB2A8",
"^+	c #B8B8B8",
"/+	c #84AD69",
"(+	c #3A9000",
"_+	c #C1C1C1",
":+	c #6C925A",
"<+	c #2D6B0F",
"[+	c #153C00",
"}+	c #1D4C00",
"|+	c #163E00",
"1+	c #5B8442",
"2+	c #9DAF95",
"3+	c #9CB58F",
"4+	c #40861A",
"5+	c #194800",
"6+	c #2C7600",
"7+	c #3C9600",
"8+	c #3D9800",
"9+	c #2A7800",
"0+	c #70A155",
"a+	c #B6C0B2",
"b+	c #488B27",
"c+	c #389600",
"d+	c #2D7000",
"e+	c #82A571",
"f+	c #7FA76B",
"g+	c #1D4E00",
"h+	c #205400",
"i+	c #418915",
"j+	c #A4B29E",
"k+	c #689751",
"l+	c #256800",
"m+	c #AFB4AE",
"n+	c #7FA36B",
"o+	c #235C00",
"p+	c #317A00",
"q+	c #A7A7A7",
"r+	c #B9B9B9",
"s+	c #8A8A8A",
"t+	c #438D17",
"u+	c #327E00",
"v+	c #7B9070",
"w+	c #657C58",
"x+	c #3B880C",
"y+	c #5D913D",
"z+	c #2E7A00",
"A+	c #81A86A",
"B+	c #379200",
"C+	c #358E00",
"D+	c #84A96F",
"E+	c #73AD4D",
"F+	c #54B315",
"                                                                                            ",
"                                                                                            ",
"              . + @ @ @ @ @ @ @ @ @ @ @ @ @ @ @ @ @ @ @ @ @ @ @ @ @ @ @ # $ %               ",
"            & * = - - - - - - - - - - - - - - - - - - - - - - - - - - ; - > % ,             ",
"            ' ) - - - - - - - - - - - - - - - - - - - - - - - - - - - ! ~ - { ] &           ",
"          ^ / ) - ; ; ; ; ; ; ; ; ; ; ; ; ! ! ! ! ; ; ; ; ; ; ; ; ; ; ; ~ ; - - (           ",
"          _ : < [ } } } } } } } } | ) [ 1 { 2 2 { 3 : 4 ) | } } } } } 4 ) : 1 4 = 5         ",
"        6 7 8 8 { 2 2 2 2 2 9 8 0 a b c d e f f f g h i j k l 9 2 2 2 l { 9 9 m 8 n         ",
"        + o j k 0 9 9 9 9 l p q r s t u v w w w w x y z f A m k B 8 9 2 8 C a 0 D E         ",
"      F G H > / k p p p a m o I J K L L M M M M M M M L L N O P D q k C C a / Q H R S       ",
"      T U V = D q W W / X Y Z t `  ...+.+.@.@.@.@.@.+.+...v #.O $.o %./ W j %.H &.*.=.      ",
"      ( -.;.>.= %.m D = ,.'.).!.` ~.{.].v  .......v ].^./.(._.:.<.[.}.H %.D Q o |.1.U       ",
"      2.3.3.;.V Q X o |.4.).5.6.7.` /.^.].v  . .v v ].{.~.8.6.9.0.a.b.c.Q X o >.3.d.2.      ",
"      e.f.d.|.V H = c.g.h.i.j.k.l.` ~.^.].v  . . .].].{.~._.y m.n.o.:.f.V = p.q.r.d.s.      ",
"      t.F d.;.V = V u.v.w.x.y.z.l.` /.]. . ...A. . .v ^./._.y m.B.C.D.E.c.p.p.;.|.f.F.      ",
"      G.S d.;.p.o }.7 n.H.#.I.K J./.v A.+.+.@.@.@.+.+...].~.y u 9.K.L.M.|.&.V c.u.7 G.      ",
"      2.f.d.;.p.p.;.-.w.j.N.!.6.(.].+.@.O.P.P.P.P.P.@.@...^._.k.Q.y.R.S.T.>.V }.d.7 G.      ",
"      G.1.T.;.p.&.|.U.i.B.Q.k.` ^.+.P.L V.V.V.V.V.V.M W.O...~.l.!.9.X.Y.f.}.V }.u.f.F.      ",
"      G.1.T.;.p.>.|.U.Z.y.u l./.A.O.M x `. + +`.`. +`.V.L @.^._.K N.j..+f.c.&.}.u.f.F.      ",
"      G.1.T.;.p.&.;.++@+#+K ` v O.V.`. + +w w w w w  + +x L ..8.k.I.K.$+d.}.V }.u.f.F.      ",
"      G.1.T.;.p.V c.S %+&+*+` ..P.x  +w =+=+-+-+-+=+w  +`.M A.8.;+N.j.>+u.>.V }.u.f.F.      ",
"      G.1.T.;.p.o &.T.=.k.u J.].P.x  +=+=+-+-+-+-+=+w  +x W.].7.u &+,+U.;.V p.}.u.f.F.      ",
"      G.1.T.;.p.= o q.-.'+9.;+(.+.L `. +=+=+-+-+=+w  +x L ..` *+)+u !+7 &.= p.}.u.f.F.      ",
"      G.1.T.;.p.H Q V u.R ~+m.{+/.+.M `. +=+=+=+ + +x W...(.K N.m.]+++|.o H p.}.u.f.F.      ",
"      G.1.T.;.p.H X = c.S ^+/+(+k.(.A.L `. + + +`.V.P. .8.;+9.l.e._+d.>.Q Q p.}.u.f.F.      ",
"      t.-.T.r.= o H p.;.1.:+<+[+j.!.J.].+.P.W.W.O...{.7.!.9.}+|+1+2+T.>.o p.V c.T.d.2.      ",
"      G.f.r.r.p.V q.3+4+5+6+7+(.J.;+7+!.{+7._.` J.{+!.N.8+6.` J.#+).9+0+d.;.q.|.3.d.t.      ",
"      e.T.f.1.|.a+b+O L.Q.{.{.~.8.J.6.k.K Q.Q.c+I.u ;+{+l._.(././.7.d+<.Z e+d.d.T.7 F.      ",
"      2.++-.*.f+g+h+L.K J.` 8.8.8.` _.7.l.6.6.6.l.l.l.J.` ` (.8.` ` J.#.).<.i+j+U.U.2.      ",
"      t.U ] k+<.D.i.y.{+6.J.8.(.~.~./.(.~.(.~.~.~./.~.~.~.~.~.(._.7.y *+C.w.h.l+m+^+t.      ",
"      !+^ n+h+o+5.X.&+;+y 7._.(.{.^.].].v v v v v  .].^.].{./.8._.l.k.7+p+d+0.D.N q+r+      ",
"      7 s+t+o.C.j.&+N.!.6._.(./.]. .......A.A.A.A.A..... .v ^./.` 7.;+I.)+u+d+L.D.v+U.      ",
"      ;.w+w.C.j.&+I.u {+7.(.^. .A.+.@.@.@.@.@.@.@.@.@.@.@.+...]./.` y K 7+9.u+d+0.x+T.      ",
"      %.y+0.x.#.m.!.k.J.(.^...+.P.P.W.L L L L L L L L L P.P.O.A.v {._.6.*+Q.#+p+C.z+V       ",
"        A+5.j.#+7+;+7.(.^.A.@.W.M M x x x x x x x x x x V.M L P.+.v ~._.{+u N.u+R.B+        ",
"          C+p+9.!.l.8.].+.P.L V.`. + + +w w w w w w w  +`.`.x M P.+.].(.l.*+m.#.R.D+        ",
"          E+p+9.z.7.(. .@.L x  + + +w =+=+=+=+=+=+=+=+=+ + + +x L @.].~.6.*+N.u+K.          ",
"            F+&+7+y 8.v @.L x  + +=+=+=+-+-+-+-+-+-+=+=+w  + +V.P.+.{._.k.7+&+K.,.          ",
"                )+u y ~. .O.L x  + +=+=+=+-+-+-+=+=+w  + +x M P...^.J.k.Q.#+                ",
"                  )+7+{+` ].+.L V.`. +w =+=+=+=+w  + +`.V.W.@.].8.6.!.m.u+                  ",
"                        u y ` ].+.W.V.x `. + + +`.x V.W.@.v ~.l.z.I.                        ",
"                              {+J./.v A.@.P.W.P.O.+...^.8.6.*+Q.                            ",
"                                          k.{+{+k.;+                                        ",
"                                                                                            ",
"                                                                                            ",
"                                                                                            "};
