/* XPM */
static char * dbusy_xpm[] = {
"46 46 226 2",
"  	c None",
". 	c #ABABAB",
"+ 	c #909090",
"@ 	c #808080",
"# 	c #7B7B7B",
"$ 	c #8C8C8C",
"% 	c #A9A9A9",
"& 	c #AEAEAE",
"* 	c #E0E0E0",
"= 	c #FFFFFF",
"- 	c #FEFEFE",
"; 	c #E4E4E4",
"> 	c #A0A0A0",
", 	c #B3B3B3",
"' 	c #F8F8F8",
") 	c #FDFDFD",
"! 	c #FCFCFC",
"~ 	c #F3F3F3",
"{ 	c #C2C2C2",
"] 	c #ACACAC",
"^ 	c #E7E7E7",
"/ 	c #BEBEBE",
"( 	c #B7B7B7",
"_ 	c #F6F6F6",
": 	c #F9F9F9",
"< 	c #FBFBFB",
"[ 	c #FAFAFA",
"} 	c #F5F5F5",
"| 	c #F2F2F2",
"1 	c #F4F4F4",
"2 	c #F7F7F7",
"3 	c #AFAFAF",
"4 	c #A8A8A8",
"5 	c #D2D2D2",
"6 	c #F1F1F1",
"7 	c #EEEEEE",
"8 	c #EBEBEB",
"9 	c #E1D5D1",
"0 	c #C47E70",
"a 	c #D6320C",
"b 	c #981900",
"c 	c #901800",
"d 	c #B01D00",
"e 	c #C66552",
"f 	c #CFA297",
"g 	c #E8E8E8",
"h 	c #ECECEC",
"i 	c #F0F0F0",
"j 	c #E6E6E6",
"k 	c #B2B2B2",
"l 	c #DFDFDF",
"m 	c #EDEDED",
"n 	c #E9E9E9",
"o 	c #D6BCB2",
"p 	c #D02200",
"q 	c #9A1900",
"r 	c #D21900",
"s 	c #F81D00",
"t 	c #FF2D11",
"u 	c #FF2A0D",
"v 	c #E21B00",
"w 	c #BA1A00",
"x 	c #D14727",
"y 	c #EFEFEF",
"z 	c #B6B6B6",
"A 	c #CFCFCF",
"B 	c #B1B1B1",
"C 	c #E1E1E1",
"D 	c #DC2804",
"E 	c #921800",
"F 	c #DA1A00",
"G 	c #FF2507",
"H 	c #FF2609",
"I 	c #BE1B00",
"J 	c #941800",
"K 	c #D0A8A0",
"L 	c #E2E2E2",
"M 	c #CACACA",
"N 	c #D0D0D0",
"O 	c #C9C9C9",
"P 	c #BFBFBF",
"Q 	c #DDDDDD",
"R 	c #EAEAEA",
"S 	c #E3E3E3",
"T 	c #D3BFB9",
"U 	c #A81C00",
"V 	c #EA1C00",
"W 	c #FA1D00",
"X 	c #FE1E00",
"Y 	c #FF1F01",
"Z 	c #BE1600",
"` 	c #CA5F46",
" .	c #E5E5E5",
"..	c #DCDCDC",
"+.	c #CDCDCD",
"@.	c #C8C8C8",
"#.	c #D9D9D9",
"$.	c #DBDBDB",
"%.	c #D0ADA6",
"&.	c #9C1A00",
"*.	c #9C1600",
"=.	c #D41900",
"-.	c #F01C00",
";.	c #F41D00",
">.	c #F61D00",
",.	c #F21C00",
"'.	c #EE1C00",
").	c #E81B00",
"!.	c #B01900",
"~.	c #961500",
"{.	c #DA3616",
"].	c #D8D8D8",
"^.	c #D1D1D1",
"/.	c #B8B8B8",
"(.	c #D5D5D5",
"_.	c #E02D10",
":.	c #AA1800",
"<.	c #E41B00",
"[.	c #EC1C00",
"}.	c #C61700",
"|.	c #A41700",
"1.	c #981500",
"2.	c #C79389",
"3.	c #D3D3D3",
"4.	c #B9B9B9",
"5.	c #CBADA5",
"6.	c #9A1600",
"7.	c #A81800",
"8.	c #B41500",
"9.	c #DE1A00",
"0.	c #C81800",
"a.	c #AE1900",
"b.	c #A01700",
"c.	c #DEDEDE",
"d.	c #DADADA",
"e.	c #D7D7D7",
"f.	c #BCBCBC",
"g.	c #D6D6D6",
"h.	c #D64830",
"i.	c #A21700",
"j.	c #B01500",
"k.	c #C01700",
"l.	c #D61900",
"m.	c #FC1E00",
"n.	c #BA1600",
"o.	c #AC1400",
"p.	c #C78479",
"q.	c #BABABA",
"r.	c #BBBBBB",
"s.	c #CC1800",
"t.	c #E61B00",
"u.	c #B61500",
"v.	c #A61700",
"w.	c #CD614F",
"x.	c #FF2103",
"y.	c #FF2305",
"z.	c #CE1800",
"A.	c #AE1400",
"B.	c #D05F4C",
"C.	c #D4D4D4",
"D.	c #CCCCCC",
"E.	c #FF280B",
"F.	c #B21500",
"G.	c #D45A46",
"H.	c #FF2C0F",
"I.	c #D65A46",
"J.	c #CECECE",
"K.	c #C21700",
"L.	c #D56051",
"M.	c #CF796B",
"N.	c #D81900",
"O.	c #FF2F13",
"P.	c #FF3115",
"Q.	c #DC1A00",
"R.	c #C8B0AA",
"S.	c #D1776B",
"T.	c #C41700",
"U.	c #C6C6C6",
"V.	c #DD543D",
"W.	c #E01A00",
"X.	c #BFB5B3",
"Y.	c #C3C3C3",
"Z.	c #C97D73",
"`.	c #CA1800",
" +	c #B57263",
".+	c #B82300",
"++	c #841600",
"@+	c #921500",
"#+	c #861600",
"$+	c #BB4F3D",
"%+	c #C0A8A0",
"&+	c #C8A098",
"*+	c #D82400",
"=+	c #8E1700",
"-+	c #B41900",
";+	c #D01800",
">+	c #B61E00",
",+	c #C46D5C",
"'+	c #CCBEBA",
")+	c #D53611",
"!+	c #D01D00",
"~+	c #BF8A7D",
"{+	c #C28576",
"]+	c #941500",
"^+	c #D61E00",
"/+	c #C3AFA9",
"(+	c #BF6955",
"_+	c #AA1C00",
":+	c #C1BBB9",
"<+	c #BE8276",
"[+	c #9E1600",
"}+	c #B81600",
"|+	c #B5B5B5",
"1+	c #9D9D9D",
"2+	c #DC1F00",
"3+	c #BC1600",
"4+	c #A88780",
"5+	c #A26D62",
"6+	c #CE1D00",
"7+	c #CE4630",
"8+	c #B81A00",
"9+	c #C47F74",
"0+	c #CC1D00",
"a+	c #C81C00",
"b+	c #C38579",
"c+	c #D26152",
"                                                                                            ",
"                                                                                            ",
"              . + @ @ @ @ @ @ @ @ @ @ @ @ @ @ @ @ @ @ @ @ @ @ @ @ @ @ @ # $ .               ",
"            % & * = = = = = = = = = = = = = = = = = = = = = = = = = = - = ; . >             ",
"            , ' = = = = = = = = = = = = = = = = = = = = = = = = = = = ) ! = ~ { %           ",
"          ] ^ ' = - - - - - - - - - - - - ) ) ) ) - - - - - - - - - - - ! - = = /           ",
"          ( _ : _ < < < < < < < < [ ' _ } ~ | | ~ 1 _ 2 ' [ < < < < < 2 ' _ } 2 * 3         ",
"        4 5 6 6 ~ | | | | | | 6 7 8 9 0 a b c c c d e f g h i | | | | i ~ | | j 6 k         ",
"        + l g h 7 | | | | i m n o p q r s t t t t u v w c x j h y 6 | | 6 m 8 7 ; z         ",
"      A B C ; ^ h m m m 8 j l D E F G G H H H H H H H G G I J K ; n h m m 8 ^ L C M N       ",
"      O P Q * ; n R R ^ S T U q V s W X X Y Y Y Y Y X X W s Z J ` l  .^ R g  .C ..+.@.      ",
"      / A #.$.*  .j ; * %.&.*.=.V -.;.>.s s W W W s >.;.,.'.).!.~.{.$.C  .; L l ].^.P       ",
"      /.(.(.#.Q L S l ]._.*.:.v <.V ,.;.>.s s s s s >.;.-.[.v }.|.1.2.$.L S l $.(.3./.      ",
"      4.5 3.].Q C * $.5.6.7.8.9.<.V -.;.>.s s s s >.>.;.-.).v 0.a.b.!.5 Q * c.d.e.3./.      ",
"      f.A 3.#.Q * Q g.h.i.j.k.l.<.V ,.>.s s W m.s s s ;.,.).v 0.n.o.*.p.$.c.c.#.].5 q.      ",
"      r.N 3.#.c.l $.5 a.a.Z s.F t.,.s m.X X Y Y Y X X W >.-.v r }.u.v.w.]...Q $.g.5 r.      ",
"      /.5 3.#.c.c.#.A i.8.0.=.v '.>.X Y x.y.y.y.y.y.Y Y W ;.).9.z.k.A.B.C.$.Q $.3.5 r.      ",
"      r.^.C.#.c...].D.7.n.z.9.V ;.X y.G E.E.E.E.E.E.H G x.W -.<.=.}.F.G.5 $.Q $.g.5 q.      ",
"      r.^.C.#.c.$.].D.A.k.r <.,.m.x.H u H.t t H.H.t H.E.G Y ;.).F 0.8.I.5 $...$.g.5 q.      ",
"      r.^.C.#.c...#.J.t.K.F V s x.E.H.t t t t t t t t t u G W [.9.s.u.L.3.$.Q $.g.5 q.      ",
"      r.^.C.#.c.Q $.N M.k.N.V W y.u t t O.O.P.P.P.O.t t H.H m.[.Q.0.8.R.g.$.Q $.g.5 q.      ",
"      r.^.C.#.c.l ..C.@.9.r t.>.y.u t O.O.P.P.P.P.O.t t u G >.<.r k.s D.#.Q c.$.g.5 q.      ",
"      r.^.C.#.c.* l d.A S.}.Q.'.X G H.t O.O.P.P.O.t t u G W V N.T.r U.5 ..* c.$.g.5 q.      ",
"      r.^.C.#.c.C L Q g.M V.0.W.,.X H H.t O.O.O.t t u G W '.F 0.0.X.J.].l C c.$.g.5 q.      ",
"      r.^.C.#.c.C S * $.N Y.Z.`.9.'.m.G H.t t t H.E.y.s [.Q.}.<.4.M 3.$.L L c.$.g.5 q.      ",
"      f.A C.e.* l C c.#.^. +.+++8.=.t.>.X y.G G x.W ;.<.=.}.@+#+$+%+C.$.l c.Q $.C.3./.      ",
"      r.5 e.e.c.Q d.&+*+=+-+;+'.t.Q.;+=.W.<.).V t.W.=.0.r v V t.K.*.>+,+3.#.d.].(.3.f.      ",
"      4.C.5 ^.].'+)+J v.z.;.;.-.[.t.v 9.F z.z.!+s.r Q.W.<.).'.,.,.<.j.~.U ~+3.3.C.5 q.      ",
"      /.J.A +.{+]+6.v.F t.V [.[.[.V ).<.<.v v v <.<.<.t.V V '.[.V V t.Z *.~.^+/+D.D./.      ",
"      f.P { (+~.*.7.k.W.v t.[.'.-.-.,.'.-.'.-.-.-.,.-.-.-.-.-.'.).<.v N.o.i.6._+:+Y.f.      ",
"      U.] <+6.[+:.F.k.Q.v <.).'.;.;.>.>.s s s s s s >.;.>.;.,.[.).<.9.;+}+j.|.*.I |+Y.      ",
"      5 1+2+b.o.8.k.0.=.v ).'.,.>.s W W W m.m.m.m.m.W W s s ;.,.V <.Q.s.T.3+j.v.*.4+D.      ",
"      #.5+i.o.8.k.s.r W.<.'.;.s m.X Y Y Y Y Y Y Y Y Y Y Y X W >.,.V v F ;+}.3+j.|.6+C.      ",
"       .7+|.j.Z 0.=.9.t.'.;.W X y.y.G G G G G G G G G G y.y.x.m.s ;.).v N.z.K.}+o.8+Q       ",
"        9+:.8.K.;+Q.<.'.;.m.Y G H H u u u u u u u u u u E.H G y.X s -.).W.r 0.3+A.0+        ",
"          a+}+}.=.<.[.>.X y.G E.H.t t t t t t t t t t t H.H.u H y.X >.'.<.N.0.Z A.b+        ",
"          c+}+}.l.<.'.s Y G u t t t t O.O.O.O.O.O.O.O.O.t t t u G Y >.-.v N.0.3+u.          ",
"            s k.;+v [.s Y G u t t O.O.O.P.P.P.P.P.P.O.O.t t t E.y.X ;.).9.;+k.u.%.          ",
"                T.r v -.s x.G u t t O.O.O.P.P.P.O.O.t t t u H y.W ;.t.9.z.K.                ",
"                  T.;+W.V >.X G E.H.t t O.O.O.O.t t t H.E.G Y >.[.v =.0.3+                  ",
"                        r v V >.X G E.u H.t t t H.u E.G Y s -.<.l.s.                        ",
"                              W.t.,.s m.Y y.G y.x.X W ;.[.v N.z.                            ",
"                                          9.W.W.9.Q.                                        ",
"                                                                                            ",
"                                                                                            ",
"                                                                                            "};
