/* XPM */
static char * doffline_xpm[] = {
"46 46 188 2",
"  	c None",
". 	c #9B9B9B",
"+ 	c #7B7B7B",
"@ 	c #686868",
"# 	c #626262",
"$ 	c #767676",
"% 	c #9C9C9C",
"& 	c #999999",
"* 	c #9F9F9F",
"= 	c #DBDBDB",
"- 	c #FFFFFF",
"; 	c #FEFEFE",
"> 	c #DFDFDF",
", 	c #8F8F8F",
"' 	c #A5A5A5",
") 	c #F8F8F8",
"! 	c #FDFDFD",
"~ 	c #FCFCFC",
"{ 	c #F2F2F2",
"] 	c #B7B7B7",
"^ 	c #9D9D9D",
"/ 	c #E4E4E4",
"( 	c #B2B2B2",
"_ 	c #A9A9A9",
": 	c #F5F5F5",
"< 	c #F9F9F9",
"[ 	c #F6F6F6",
"} 	c #FBFBFB",
"| 	c #FAFAFA",
"1 	c #F4F4F4",
"2 	c #F1F1F1",
"3 	c #F3F3F3",
"4 	c #F7F7F7",
"5 	c #A0A0A0",
"6 	c #989898",
"7 	c #CACACA",
"8 	c #EFEFEF",
"9 	c #F0F0F0",
"0 	c #ECECEC",
"a 	c #E8E8E8",
"b 	c #D4D4D4",
"c 	c #949494",
"d 	c #393939",
"e 	c #333333",
"f 	c #4E4E4E",
"g 	c #858585",
"h 	c #ADADAD",
"i 	c #E5E5E5",
"j 	c #E9E9E9",
"k 	c #EEEEEE",
"l 	c #E3E3E3",
"m 	c #A4A4A4",
"n 	c #DADADA",
"o 	c #EBEBEB",
"p 	c #E6E6E6",
"q 	c #BFBFBF",
"r 	c #606060",
"s 	c #3C3C3C",
"t 	c #6D6D6D",
"u 	c #8D8D8D",
"v 	c #A2A2A2",
"w 	c #9E9E9E",
"x 	c #797979",
"y 	c #575757",
"z 	c #757575",
"A 	c #EDEDED",
"B 	c #EAEAEA",
"C 	c #E0E0E0",
"D 	c #A8A8A8",
"E 	c #C7C7C7",
"F 	c #A3A3A3",
"G 	c #DCDCDC",
"H 	c #696969",
"I 	c #353535",
"J 	c #737373",
"K 	c #5A5A5A",
"L 	c #363636",
"M 	c #DDDDDD",
"N 	c #C0C0C0",
"O 	c #C8C8C8",
"P 	c #B3B3B3",
"Q 	c #D8D8D8",
"R 	c #E7E7E7",
"S 	c #DEDEDE",
"T 	c #474747",
"U 	c #818181",
"V 	c #8E8E8E",
"W 	c #929292",
"X 	c #5B5B5B",
"Y 	c #808080",
"Z 	c #E1E1E1",
"` 	c #D7D7D7",
" .	c #C4C4C4",
"..	c #BEBEBE",
"+.	c #C6C6C6",
"@.	c #D2D2D2",
"#.	c #D6D6D6",
"$.	c #B5B5B5",
"%.	c #3F3F3F",
"&.	c #3E3E3E",
"*.	c #6F6F6F",
"=.	c #888888",
"-.	c #8B8B8B",
";.	c #8A8A8A",
">.	c #878787",
",.	c #848484",
"'.	c #4F4F4F",
").	c #383838",
"!.	c #727272",
"~.	c #D5D5D5",
"{.	c #D1D1D1",
"].	c #C9C9C9",
"^.	c #ACACAC",
"/.	c #CECECE",
"(.	c #747474",
"_.	c #494949",
":.	c #7A7A7A",
"<.	c #7D7D7D",
"[.	c #838383",
"}.	c #454545",
"|.	c #3A3A3A",
"1.	c #A1A1A1",
"2.	c #CCCCCC",
"3.	c #CBCBCB",
"4.	c #B1B1B1",
"5.	c #484848",
"6.	c #545454",
"7.	c #7C7C7C",
"8.	c #656565",
"9.	c #4D4D4D",
"0.	c #424242",
"a.	c #D9D9D9",
"b.	c #D3D3D3",
"c.	c #D0D0D0",
"d.	c #ABABAB",
"e.	c #B0B0B0",
"f.	c #CFCFCF",
"g.	c #7E7E7E",
"h.	c #434343",
"i.	c #515151",
"j.	c #5C5C5C",
"k.	c #707070",
"l.	c #919191",
"m.	c #585858",
"n.	c #4B4B4B",
"o.	c #AEAEAE",
"p.	c #AFAFAF",
"q.	c #4C4C4C",
"r.	c #555555",
"s.	c #464646",
"t.	c #636363",
"u.	c #959595",
"v.	c #979797",
"w.	c #8C8C8C",
"x.	c #CDCDCD",
"y.	c #C3C3C3",
"z.	c #525252",
"A.	c #C5C5C5",
"B.	c #5F5F5F",
"C.	c #9A9A9A",
"D.	c #5E5E5E",
"E.	c #828282",
"F.	c #BCBCBC",
"G.	c #777777",
"H.	c #B8B8B8",
"I.	c #666666",
"J.	c #C1C1C1",
"K.	c #2A2A2A",
"L.	c #2B2B2B",
"M.	c #A7A7A7",
"N.	c #323232",
"O.	c #535353",
"P.	c #6B6B6B",
"Q.	c #6C6C6C",
"R.	c #BBBBBB",
"S.	c #505050",
"T.	c #373737",
"U.	c #3B3B3B",
"V.	c #676767",
"W.	c #414141",
"X.	c #B9B9B9",
"Y.	c #6A6A6A",
"Z.	c #595959",
"`.	c #868686",
" +	c #717171",
".+	c #787878",
"++	c #565656",
"@+	c #646464",
"                                                                                            ",
"                                                                                            ",
"              . + @ @ @ @ @ @ @ @ @ @ @ @ @ @ @ @ @ @ @ @ @ @ @ @ @ @ @ # $ %               ",
"            & * = - - - - - - - - - - - - - - - - - - - - - - - - - - ; - > % ,             ",
"            ' ) - - - - - - - - - - - - - - - - - - - - - - - - - - - ! ~ - { ] &           ",
"          ^ / ) - ; ; ; ; ; ; ; ; ; ; ; ; ! ! ! ! ; ; ; ; ; ; ; ; ; ; ; ~ ; - - (           ",
"          _ : < [ } } } } } } } } | ) [ 1 { 2 2 { 3 : 4 ) | } } } } } 4 ) : 1 4 = 5         ",
"        6 7 8 8 { 2 2 2 2 2 9 8 0 a b c @ d e e e f g h i j k 9 2 2 2 k { 9 9 l 8 m         ",
"        + n i j 0 9 9 9 9 k o p q r s t u v v v v w x y e z l j A 8 9 2 8 B a 0 C D         ",
"      E F G > / j o o o a l n H I J & & . . . . . . . & & K L ( C p j B B a / M G N O       ",
"      q P Q = C p R R / S N T s U V , W W c c c c c W W , u X L Y n Z / R i Z G `  ...      ",
"      ( +.@.#.= Z l C = $.%.&.*.U g =.-.u V , , , u -.;.>.,.Y '.).!.~.G Z C M n {.].P       ",
"      ^././.@.Q M S n {.(.&._.:.<.U >.;.-.u V V u u -.=.g [.:.# }.|.1.b M S n #./.2.^.      ",
"      h 3.2.{.Q G = b 4.s 5.6.$ 7.U g ;.-.u V V V -.-.=.g Y x 8.9.0.'.3.Q = a.b.c.2.d.      ",
"      e.E 2.@.Q = Q f.g.h.i.j.k.7.U >.-.V V , l.V V u ;.>.Y x 8.m.n.%.. b a.a.@.{.3.o.      ",
"      p.O 2.@.a.n ~.7 9.q.X @ J g.>.u l.W W c c c W W , -.g x t # r.s.-.{.` Q b f.7 p.      ",
"      ^.3.2.@.a.a.@.+.h.6.t.*.:.,.-.W c u.v.v.v.v.v.c c , ;.Y $ H j.f w.x.#.Q ~.2.7 p.      ",
"      p.].x.@.a.` {.y.5.m.H $ U ;.W v.& % % % % % % . 6 u., g 7.*.# z.w.3.~.Q ~.f.3.o.      ",
"      p.].x.@.a.#.{.y.9.j.t 7.>.l.u.. w * 5 5 * * 5 * % & c ;.Y J t.6.V 3.b ` ~.f.3.o.      ",
"      p.].x.@.a.` @.A.x B.J U u u.% * 5 5 v v v v v 5 5 w & , [.$ @ r.c 2.~.Q ~.f.3.o.      ",
"      p.].x.@.a.Q b O C.D.!.U , v.w 5 v F F ' ' ' F v 5 * . l.[.z t.6.4.f.#.Q ~.f.3.o.      ",
"      p.].x.@.a.n ` x...$ t g.-.v.w 5 F F ' ' ' ' F v 5 w 6 -.<.t D.E.y.@.Q a.~.f.3.o.      ",
"      p.].x.@.a.= n b.+.^ # z ,.W & * 5 F F ' ' F v 5 w & , U !.r t F.7 ` = a.~.f.3.o.      ",
"      p.].x.@.a.G M Q f.N , 8.G.>.W . * 5 F F F 5 5 w 6 , ,.J t.8.p.A.{.n G a.~.f.3.o.      ",
"      p.].x.@.a.G S = b O H.& I.$ ,.l.& * 5 5 5 * % v.V [.z # 7.h J.2.#.M M a.~.f.3.o.      ",
"      e.+.x.c.= n G a.@.].Y f K.6.*.g.-.W v.6 6 u., =.<.*.# L L.k.M.x.#.n a.Q b x.2.^.      ",
"      p.3.c.c.a.Q b._ 8.N.O.P.,.g.z P.*.G.<.Y U g.G.*.t.Q.:.U g.B.&.O.;.2.@.b.{./.2.e.      ",
"      h x.3.].{.R.Q.L s.H =.=.g [.g.:.$ J H H H @ t z G.7.Y ,.>.>.<.S.).T u.2.2.x.7 o.      ",
"      ^.A.+. .c T.U.s.J g.U [.[.[.U Y <.7.:.:.:.7.7.7.g.U U ,.[.U U g.X &.).V.^.y.y.^.      ",
"      e.P ] U ).%.5.j.G.:.g.[.,.g g >.,.g ,.g g g >.g g g g g ,.Y <.x !.n.h.s 5.( H.e.      ",
"      F.^ W U.W._.z.D.z x <.Y ,.=.;.-.-.u u u u u V -.;.-.=.>.[.Y 7.$ P.y S.}.%.K M.X.      ",
"      7 ;.Y.0.n.6.D.t.*.:.Y ,.>.-.V , , , l.l.l.l.l., , V u ;.>.U <.z @ r Z.S.s.%.`.y.      ",
"      @. +h.n.6.D.@ t G.<.,.;.V l.W c c c c c c c c c c c W , -.>.U x J P.# Z.S.}.t.x.      ",
"      Z .+}.i.X 8.*.$ g.,.;., W v.v.6 & & & & & & & & & v.v.u.l.u =.Y :.!.H B.y n.++Q       ",
"        u._.6.B.P.z <.,.;.l.c 6 . . w w w w w w w w w w % . & v.W u g Y G.t t.Z.f V.        ",
"          @+y # *.7.[.-.W v.& % * 5 5 5 v v v v v v v 5 * * w . v.W -.,.7.!.8.X f 6         ",
"          l.y # k.<.,.V c & w 5 5 5 v F F F F F F F F F 5 5 5 w & c -.g :.!.t.Z.r.          ",
"            g D.P.x [.u c & w 5 5 F F F ' ' ' ' ' ' F F v 5 5 % v.W =.Y $ P.D.r.$.          ",
"                r t x g V u.& w 5 5 F F F ' ' ' F F v 5 5 w . v., ;.g.$ H B.                ",
"                  r P.G.U -.W & % * 5 v F F F F v 5 5 * % 6 c -.[.:.*.8.Z.                  ",
"                        t x U -.W 6 % w * 5 5 5 * w % 6 c u g 7.k.@                         ",
"                              G.g.>.u l.c v.6 v.u.W , ;.[.:.!.H                             ",
"                                          $ G.G.$ z                                         ",
"                                                                                            ",
"                                                                                            ",
"                                                                                            "};
