/* XPM */
static char * daway_xpm[] = {
"20 20 229 2",
"  	c None",
". 	c #AEAEAE",
"+ 	c #C6C6C6",
"@ 	c #BCBCBC",
"# 	c #B1B1B1",
"$ 	c #ADADAD",
"% 	c #A4A4A4",
"& 	c #7C7C7C",
"* 	c #DEDEDE",
"= 	c #F5F5F5",
"- 	c #C5C5C5",
"; 	c #B9B9B9",
"> 	c #E5E5E5",
", 	c #C4C4C4",
"' 	c #777777",
") 	c #3A3A3A",
"! 	c #666666",
"~ 	c #EAEAEA",
"{ 	c #DFDFDE",
"] 	c #8C8C86",
"^ 	c #B8B8B1",
"/ 	c #EAE9E8",
"( 	c #C9C9C9",
"_ 	c #616161",
": 	c #5F5F5F",
"< 	c #1C1C1C",
"[ 	c #292929",
"} 	c #AAAAAA",
"| 	c #D9D9B8",
"1 	c #D8D44D",
"2 	c #E7CC5B",
"3 	c #DACEB9",
"4 	c #848485",
"5 	c #272727",
"6 	c #242526",
"7 	c #61769D",
"8 	c #18397E",
"9 	c #4D4D4D",
"0 	c #101010",
"a 	c #151515",
"b 	c #8A8A8A",
"c 	c #F2F2EA",
"d 	c #FAF291",
"e 	c #F1D986",
"f 	c #DDDAD5",
"g 	c #808080",
"h 	c #191919",
"i 	c #0C0C0C",
"j 	c #6B7885",
"k 	c #A6C9F3",
"l 	c #7AA9E5",
"m 	c #285095",
"n 	c #232323",
"o 	c #0F0F0F",
"p 	c #FDFDFD",
"q 	c #F4F3EC",
"r 	c #E1DFD8",
"s 	c #D3D3D3",
"t 	c #BBBBBB",
"u 	c #5C5C5C",
"v 	c #0B0B0B",
"w 	c #383A3C",
"x 	c #B4C0CE",
"y 	c #ADCCED",
"z 	c #96C3F7",
"A 	c #4379CC",
"B 	c #696969",
"C 	c #444444",
"D 	c #3D3D3D",
"E 	c #C8C8C8",
"F 	c #FCFCFC",
"G 	c #F2F2F2",
"H 	c #E3E3E3",
"I 	c #D0D0D0",
"J 	c #C2C2C2",
"K 	c #B2B2B2",
"L 	c #929292",
"M 	c #363636",
"N 	c #5C5E60",
"O 	c #A1A7AA",
"P 	c #C5D9F2",
"Q 	c #91A2D4",
"R 	c #8EBCF2",
"S 	c #336AC1",
"T 	c #6D6D6D",
"U 	c #F4F4F4",
"V 	c #D4D4D4",
"W 	c #B4B4B4",
"X 	c #A6A6A6",
"Y 	c #969696",
"Z 	c #5D5D5D",
"` 	c #A9B2BA",
" .	c #D9F0FE",
"..	c #8E99CC",
"+.	c #A5B2DC",
"@.	c #B7D6F5",
"#.	c #6CA6EF",
"$.	c #0E3070",
"%.	c #B8B8B8",
"&.	c #EEEEEE",
"*.	c #D2D2D2",
"=.	c #C3C3C3",
"-.	c #989898",
";.	c #8C8C8C",
">.	c #918D8E",
",.	c #DAF3F8",
"'.	c #97A3D4",
").	c #9DA9D6",
"!.	c #DCF3FE",
"~.	c #B9D8F5",
"{.	c #8AB9EF",
"].	c #1958BF",
"^.	c #D2D0CD",
"/.	c #CFCDCA",
"(.	c #BFBEBD",
"_.	c #B3B4B4",
":.	c #A2A2A2",
"<.	c #969695",
"[.	c #8E8C89",
"}.	c #898783",
"|.	c #E68F79",
"1.	c #AEB8DB",
"2.	c #929DD1",
"3.	c #DCF2FE",
"4.	c #D2EAFE",
"5.	c #C9E4FD",
"6.	c #B1D2F5",
"7.	c #347CE1",
"8.	c #010D2A",
"9.	c #F1D17B",
"0.	c #EAD596",
"a.	c #E9D498",
"b.	c #D5BF84",
"c.	c #A79D84",
"d.	c #948E82",
"e.	c #BBA56D",
"f.	c #D7C481",
"g.	c #DBCB88",
"h.	c #D7C48E",
"i.	c #9399A4",
"j.	c #E1EAFA",
"k.	c #E4F3FE",
"l.	c #E4F2FE",
"m.	c #DCECFB",
"n.	c #BCD4EF",
"o.	c #4F93EC",
"p.	c #041942",
"q.	c #E2C63D",
"r.	c #F0D62B",
"s.	c #F1D726",
"t.	c #E2C530",
"u.	c #C6B77D",
"v.	c #BCB69E",
"w.	c #DBC249",
"x.	c #ECD42B",
"y.	c #EED627",
"z.	c #E3C937",
"A.	c #C1B187",
"B.	c #FAFEFE",
"C.	c #F3FAFE",
"D.	c #F5FAFE",
"E.	c #F2F8FD",
"F.	c #DCE9F7",
"G.	c #579AEF",
"H.	c #06193E",
"I.	c #5C694C",
"J.	c #88A9B5",
"K.	c #E6E9E9",
"L.	c #F9F9F7",
"M.	c #ECEAD8",
"N.	c #F0EDC6",
"O.	c #F2EEC2",
"P.	c #ECE8CD",
"Q.	c #F2CCB9",
"R.	c #FDEAE4",
"S.	c #FDFEFE",
"T.	c #FDFDFE",
"U.	c #F8FBFD",
"V.	c #D5E2F3",
"W.	c #488CE4",
"X.	c #518DD5",
"Y.	c #B9CCE7",
"Z.	c #EAF0F8",
"`.	c #FEFEFE",
" +	c #FEEFEA",
".+	c #FECBBB",
"++	c #E2EAF2",
"@+	c #9DC2ED",
"#+	c #316CBD",
"$+	c #2E588C",
"%+	c #7EADE2",
"&+	c #E7ECF5",
"*+	c #FECEBE",
"=+	c #FEEAE2",
"-+	c #F8FBFE",
";+	c #D1DEF2",
">+	c #68AAF7",
",+	c #122B53",
"'+	c #528BC8",
")+	c #91B7E4",
"!+	c #DFE7F5",
"~+	c #F3F7FD",
"{+	c #FEEFE9",
"]+	c #ECBFB7",
"^+	c #D1DFF5",
"/+	c #88C1FD",
"(+	c #3364A2",
"_+	c #5889C1",
":+	c #85B5E9",
"<+	c #BBD1ED",
"[+	c #DCE7F7",
"}+	c #D4E2F7",
"|+	c #DFE9F8",
"1+	c #DBE9FA",
"2+	c #B0C1DF",
"3+	c #88C3FE",
"4+	c #3E6EA8",
"5+	c #355072",
"6+	c #729BCB",
"7+	c #92BBEA",
"8+	c #A3C9F8",
"9+	c #A2CBFB",
"0+	c #8ABEF0",
"a+	c #639ACD",
"b+	c #213959",
"c+	c #121B2C",
"d+	c #202D41",
"e+	c #1D2A3E",
"f+	c #0B1524",
"                                        ",
"        . + @ # $ %                     ",
"      & * = - ; > , '                   ",
"    ) ! ~ { ] ^ / ( _ :                 ",
"    < [ } | 1 2 3 4 5 6 7 8             ",
"  9 0 a b c d e f g h i j k l m         ",
"  n o ! ~ p q r s t u v w x y z A       ",
"B C D E F G H I J K L M N O P Q R S     ",
"    T ~ U H V J W X Y Z `  ...+.@.#.$.  ",
"    %.&.H *.=.K X -.;.>.,.'.).!.~.{.].  ",
"      ^./.(._.:.<.[.}.|.1.2.3.4.5.6.7.8.",
"    9.0.a.b.c.d.e.f.g.h.i.j.k.l.m.n.o.p.",
"    q.r.s.t.u.v.w.x.y.z.A.B.C.D.E.F.G.H.",
"        I.J.K.L.M.N.O.P.Q.R.S.T.U.V.W.  ",
"          X.Y.Z.`.`.`.`. +.+`.T.++@+#+  ",
"          $+%+&+`.`.`.`.`.*+=+-+;+>+,+  ",
"            '+)+!+~+`.`.`.{+]+^+/+(+    ",
"              _+:+<+[+}+|+1+2+3+4+      ",
"                5+6+7+8+9+0+a+b+        ",
"                    c+d+e+f+            "};
