/* XPM */
static char * dbrb_xpm[] = {
"20 20 114 2",
"  	c None",
". 	c #AEAEAE",
"+ 	c #C6C6C6",
"@ 	c #BCBCBC",
"# 	c #B1B1B1",
"$ 	c #ADADAD",
"% 	c #A4A4A4",
"& 	c #7C7C7C",
"* 	c #DEDEDE",
"= 	c #F5F5F5",
"- 	c #C5C5C5",
"; 	c #B9B9B9",
"> 	c #E5E5E5",
", 	c #C4C4C4",
"' 	c #777777",
") 	c #3A3A3A",
"! 	c #666666",
"~ 	c #EAEAEA",
"{ 	c #DFDFDE",
"] 	c #8C8C86",
"^ 	c #B8B8B1",
"/ 	c #EAE9E8",
"( 	c #C9C9C9",
"_ 	c #616161",
": 	c #5F5F5F",
"< 	c #1C1C1C",
"[ 	c #292929",
"} 	c #AAAAAA",
"| 	c #D9D9B8",
"1 	c #D8D44D",
"2 	c #E7CC5B",
"3 	c #DACEB9",
"4 	c #848485",
"5 	c #272727",
"6 	c #242424",
"7 	c #4D4D4D",
"8 	c #101010",
"9 	c #151515",
"0 	c #8A8A8A",
"a 	c #F2F2EA",
"b 	c #FAF291",
"c 	c #F1D986",
"d 	c #DDDAD5",
"e 	c #808080",
"f 	c #191919",
"g 	c #0C0C0C",
"h 	c #3D3D3D",
"i 	c #232323",
"j 	c #0F0F0F",
"k 	c #FDFDFD",
"l 	c #F4F3EC",
"m 	c #E1DFD8",
"n 	c #D3D3D3",
"o 	c #BBBBBB",
"p 	c #5C5C5C",
"q 	c #0B0B0B",
"r 	c #222222",
"s 	c #696969",
"t 	c #444444",
"u 	c #C8C8C8",
"v 	c #FCFCFC",
"w 	c #F2F2F2",
"x 	c #E3E3E3",
"y 	c #D0D0D0",
"z 	c #C2C2C2",
"A 	c #B2B2B2",
"B 	c #929292",
"C 	c #363636",
"D 	c #4B4B4B",
"E 	c #878787",
"F 	c #6D6D6D",
"G 	c #F4F4F4",
"H 	c #D4D4D4",
"I 	c #B4B4B4",
"J 	c #A6A6A6",
"K 	c #969696",
"L 	c #5D5D5D",
"M 	c #8D8D8D",
"N 	c #B8B8B8",
"O 	c #EEEEEE",
"P 	c #D2D2D2",
"Q 	c #C3C3C3",
"R 	c #989898",
"S 	c #8C8C8C",
"T 	c #7B7B7B",
"U 	c #D2D0CD",
"V 	c #CFCDCA",
"W 	c #BFBEBD",
"X 	c #B3B4B4",
"Y 	c #A2A2A2",
"Z 	c #969695",
"` 	c #8E8C89",
" .	c #898783",
"..	c #F1D17B",
"+.	c #EAD596",
"@.	c #E9D498",
"#.	c #D5BF84",
"$.	c #A79D84",
"%.	c #948E82",
"&.	c #BBA56D",
"*.	c #D7C481",
"=.	c #DBCB88",
"-.	c #ECD488",
";.	c #E2C63D",
">.	c #F0D62B",
",.	c #F1D726",
"'.	c #E2C530",
").	c #B8A14E",
"!.	c #A69C7A",
"~.	c #DBC249",
"{.	c #ECD42B",
"].	c #EED627",
"^.	c #E3C937",
"/.	c #CAB55E",
"                                        ",
"        . + @ # $ %                     ",
"      & * = - ; > , '                   ",
"    ) ! ~ { ] ^ / ( _ :                 ",
"    < [ } | 1 2 3 4 5 6                 ",
"  7 8 9 0 a b c d e f g h               ",
"  i j ! ~ k l m n o p q r               ",
"s t h u v w x y z A B C D E             ",
"    F ~ G x H z I J K L M               ",
"    N O x P Q A J R S T                 ",
"      U V W X Y Z `  .                  ",
"    ..+.@.#.$.%.&.*.=.-.                ",
"    ;.>.,.'.).!.~.{.].^./.              ",
"                                        ",
"                                        ",
"                                        ",
"                                        ",
"                                        ",
"                                        ",
"                                        "};
