/* XPM */
static char * dbusy_xpm[] = {
"20 20 213 2",
"  	c None",
". 	c #AEAEAE",
"+ 	c #C6C6C6",
"@ 	c #BCBCBC",
"# 	c #B1B1B1",
"$ 	c #ADADAD",
"% 	c #A4A4A4",
"& 	c #7C7C7C",
"* 	c #DEDEDE",
"= 	c #F5F5F5",
"- 	c #C5C5C5",
"; 	c #B9B9B9",
"> 	c #E5E5E5",
", 	c #C4C4C4",
"' 	c #777777",
") 	c #3A3A3A",
"! 	c #666666",
"~ 	c #EAEAEA",
"{ 	c #DFDFDE",
"] 	c #8C8C86",
"^ 	c #B8B8B1",
"/ 	c #EAE9E8",
"( 	c #C9C9C9",
"_ 	c #616161",
": 	c #5F5F5F",
"< 	c #1C1C1C",
"[ 	c #292929",
"} 	c #AAAAAA",
"| 	c #D9D9B8",
"1 	c #D8D44D",
"2 	c #E7CC5B",
"3 	c #DACEB9",
"4 	c #848485",
"5 	c #272727",
"6 	c #272323",
"7 	c #B05050",
"8 	c #C91010",
"9 	c #C51212",
"0 	c #AB0000",
"a 	c #4D4D4D",
"b 	c #101010",
"c 	c #151515",
"d 	c #8A8A8A",
"e 	c #F2F2EA",
"f 	c #FAF291",
"g 	c #F1D986",
"h 	c #DDDAD5",
"i 	c #808080",
"j 	c #191919",
"k 	c #0C0C0C",
"l 	c #8A7777",
"m 	c #FECECE",
"n 	c #FED7D7",
"o 	c #E16B6B",
"p 	c #A60000",
"q 	c #232323",
"r 	c #0F0F0F",
"s 	c #FDFDFD",
"t 	c #F4F3EC",
"u 	c #E1DFD8",
"v 	c #D3D3D3",
"w 	c #BBBBBB",
"x 	c #5C5C5C",
"y 	c #0B0B0B",
"z 	c #3C3737",
"A 	c #D4B1B1",
"B 	c #FECFCF",
"C 	c #FED8D8",
"D 	c #E06363",
"E 	c #9F0000",
"F 	c #696969",
"G 	c #444444",
"H 	c #3D3D3D",
"I 	c #C8C8C8",
"J 	c #FCFCFC",
"K 	c #F2F2F2",
"L 	c #E3E3E3",
"M 	c #D0D0D0",
"N 	c #C2C2C2",
"O 	c #B2B2B2",
"P 	c #929292",
"Q 	c #363636",
"R 	c #605656",
"S 	c #AA9090",
"T 	c #FECCCC",
"U 	c #FEBBBB",
"V 	c #FEB2B2",
"W 	c #DD5353",
"X 	c #980000",
"Y 	c #6D6D6D",
"Z 	c #F4F4F4",
"` 	c #D4D4D4",
" .	c #B4B4B4",
"..	c #A6A6A6",
"+.	c #969696",
"@.	c #5D5D5D",
"#.	c #BA8888",
"$.	c #FEBDBD",
"%.	c #FEFEFE",
"&.	c #FEF5F5",
"*.	c #FEA3A3",
"=.	c #FE9696",
"-.	c #DA3939",
";.	c #930000",
">.	c #B8B8B8",
",.	c #EEEEEE",
"'.	c #D2D2D2",
").	c #C3C3C3",
"!.	c #989898",
"~.	c #8C8C8C",
"{.	c #998484",
"].	c #F8A6A6",
"^.	c #FEF2F2",
"/.	c #FB7272",
"(.	c #F73535",
"_.	c #FD1C1C",
":.	c #AE0101",
"<.	c #D2D0CD",
"[.	c #CFCDCA",
"}.	c #BFBEBD",
"|.	c #B3B4B4",
"1.	c #A2A2A2",
"2.	c #969695",
"3.	c #8E8C89",
"4.	c #898783",
"5.	c #E6E5E4",
"6.	c #FEFDFD",
"7.	c #FDE7E7",
"8.	c #F53A3A",
"9.	c #F00000",
"0.	c #ED0000",
"a.	c #F30000",
"b.	c #F1D17B",
"c.	c #EAD596",
"d.	c #E9D498",
"e.	c #D5BF84",
"f.	c #A79D84",
"g.	c #948E82",
"h.	c #BBA56D",
"i.	c #D7C481",
"j.	c #DBCB88",
"k.	c #EEDA9A",
"l.	c #EBE2C4",
"m.	c #FDE8E8",
"n.	c #F33434",
"o.	c #EE0000",
"p.	c #F50000",
"q.	c #A90000",
"r.	c #E2C63D",
"s.	c #F0D62B",
"t.	c #F1D726",
"u.	c #E2C530",
"v.	c #CB783C",
"w.	c #BE735B",
"x.	c #DBC249",
"y.	c #ECD42B",
"z.	c #EED627",
"A.	c #E3C937",
"B.	c #DED29E",
"C.	c #F65555",
"D.	c #A80000",
"E.	c #CF3E0E",
"F.	c #EB3517",
"G.	c #F50E08",
"H.	c #F91210",
"I.	c #ED7764",
"J.	c #F0EDC6",
"K.	c #F2EEC2",
"L.	c #ECD9BE",
"M.	c #F2E0DB",
"N.	c #F85757",
"O.	c #FC0000",
"P.	c #C80000",
"Q.	c #FE0000",
"R.	c #FD4D4D",
"S.	c #FEE7E7",
"T.	c #FD3333",
"U.	c #FC4D4D",
"V.	c #A70000",
"W.	c #E10303",
"X.	c #FE0707",
"Y.	c #FE2626",
"Z.	c #FEDDDD",
"`.	c #FEEDED",
" +	c #FE4141",
".+	c #D30303",
"++	c #800000",
"@+	c #E20D0D",
"#+	c #FE1414",
"$+	c #FE2F2F",
"%+	c #FE4747",
"&+	c #FE0D0D",
"*+	c #D60D0D",
"=+	c #7D0000",
"-+	c #9F0101",
";+	c #E01818",
">+	c #FE2828",
",+	c #FE2222",
"'+	c #FE2727",
")+	c #D71818",
"!+	c #7D0101",
"~+	c #980202",
"{+	c #DC2424",
"]+	c #FE3E3E",
"^+	c #D62424",
"/+	c #7F0202",
"(+	c #920202",
"_+	c #B01515",
":+	c #B11616",
"<+	c #AF1515",
"[+	c #AC1515",
"}+	c #AB1616",
"|+	c #A61515",
"                                        ",
"        . + @ # $ %                     ",
"      & * = - ; > , '                   ",
"    ) ! ~ { ] ^ / ( _ :                 ",
"    < [ } | 1 2 3 4 5 6 7 8 9 0         ",
"  a b c d e f g h i j k l m n o p       ",
"  q r ! ~ s t u v w x y z A B C D E     ",
"F G H I J K L M N O P Q R S T U V W X   ",
"    Y ~ Z L ` N  ...+.@.#.$.%.&.*.=.-.;.",
"    >.,.L '.).O ..!.~.{.].%.%.^./.(._.:.",
"      <.[.}.|.1.2.3.4.5.6.%.7.8.9.0.a.0 ",
"    b.c.d.e.f.g.h.i.j.k.l.m.n.0.o.o.p.q.",
"    r.s.t.u.v.w.x.y.z.A.B.6.C.o.o.o.p.D.",
"        E.F.G.H.I.J.K.L.M.%.%.N.p.p.O.q.",
"        P.Q.O.R.%.%.S.T.T.S.%.%.U.O.Q.V.",
"        0 W.X.Y.Z.`. +Q.Q. +`.Z.Y.X..+++",
"          p @+#+$+%+&+#+#+&+%+$+#+*+=+  ",
"            -+;+>+,+'+Y.Y.'+,+>+)+!+    ",
"              ~+{+ +]+]+]+]+ +^+/+      ",
"                (+_+:+<+[+}+|+/+        "};
