/* XPM */
static char * dhidden_xpm[] = {
"20 20 205 2",
"  	c None",
". 	c #9E9E9E",
"+ 	c #9F9F9F",
"@ 	c #AEAEAE",
"# 	c #C8C8C8",
"$ 	c #BCBCBC",
"% 	c #B1B1B1",
"& 	c #A2A2A2",
"* 	c #7F7F7F",
"= 	c #DFDFDF",
"- 	c #F5F5F5",
"; 	c #C5C5C5",
"> 	c #B9B9B9",
", 	c #E5E5E5",
"' 	c #C4C4C4",
") 	c #7A7A7A",
"! 	c #414141",
"~ 	c #666666",
"{ 	c #EAEAEA",
"] 	c #DFDFDE",
"^ 	c #8C8C86",
"/ 	c #B8B8B1",
"( 	c #EAE9E8",
"_ 	c #C9C9C9",
": 	c #616161",
"< 	c #575757",
"[ 	c #1F1F1F",
"} 	c #292929",
"| 	c #AAAAAA",
"1 	c #D9D9B8",
"2 	c #D8D44D",
"3 	c #E7CC5B",
"4 	c #DACEB9",
"5 	c #848485",
"6 	c #272727",
"7 	c #0D0D0D",
"8 	c #151515",
"9 	c #8A8A8A",
"0 	c #F2F2EA",
"a 	c #FAF291",
"b 	c #F1D986",
"c 	c #DDDAD5",
"d 	c #808080",
"e 	c #191919",
"f 	c #0A0A0A",
"g 	c #242424",
"h 	c #0F0F0F",
"i 	c #FDFDFD",
"j 	c #F4F3EC",
"k 	c #E1DFD8",
"l 	c #D3D3D3",
"m 	c #BBBABA",
"n 	c #716464",
"o 	c #603B3B",
"p 	c #865151",
"q 	c #B16969",
"r 	c #707070",
"s 	c #424242",
"t 	c #3C3C3C",
"u 	c #FCFCFC",
"v 	c #F2F2F2",
"w 	c #E3E3E3",
"x 	c #D0D0D0",
"y 	c #C2C2C2",
"z 	c #B19E9E",
"A 	c #C88585",
"B 	c #E49E9E",
"C 	c #E49393",
"D 	c #DC8585",
"E 	c #D98282",
"F 	c #CE7575",
"G 	c #6E6E6E",
"H 	c #F4F4F4",
"I 	c #D4D4D4",
"J 	c #AA9E9E",
"K 	c #A96262",
"L 	c #F6C5C5",
"M 	c #FCEDED",
"N 	c #EA9F9F",
"O 	c #E19090",
"P 	c #F8D1D1",
"Q 	c #EA9D9D",
"R 	c #A15252",
"S 	c #EEEEEE",
"T 	c #D2D2D2",
"U 	c #C3C3C3",
"V 	c #B2B2B2",
"W 	c #725D5D",
"X 	c #804B4B",
"Y 	c #FAD9D9",
"Z 	c #F7C6C4",
"` 	c #BA5E57",
" .	c #E28E85",
"..	c #FAD8D7",
"+.	c #EDA4A4",
"@.	c #784949",
"#.	c #6D4040",
"$.	c #D5D3D0",
"%.	c #CFCDCA",
"&.	c #BFBEBD",
"*.	c #B3B4B4",
"=.	c #AA9999",
"-.	c #332222",
";.	c #351C1C",
">.	c #D67D7D",
",.	c #F7C798",
"'.	c #F7CA2C",
").	c #FAC147",
"!.	c #F7B79A",
"~.	c #B05759",
"{.	c #321B1B",
"].	c #281515",
"^.	c #F2D27C",
"/.	c #ECD694",
"(.	c #E9D498",
"_.	c #D5BF84",
":.	c #A59A82",
"<.	c #7A655E",
"[.	c #160C0B",
"}.	c #1B0E0E",
"|.	c #B75C5C",
"1.	c #FCEBDF",
"2.	c #FDEE8C",
"3.	c #FCD279",
"4.	c #F7C1BA",
"5.	c #AC5353",
"6.	c #201111",
"7.	c #0D0606",
"8.	c #E5C83B",
"9.	c #F0D62B",
"0.	c #F1D726",
"a.	c #E4C62E",
"b.	c #95784A",
"c.	c #392320",
"d.	c #130A0A",
"e.	c #FDFCFC",
"f.	c #FCECE3",
"g.	c #F7CAC0",
"h.	c #F2B3B3",
"i.	c #E39292",
"j.	c #724545",
"k.	c #0E0707",
"l.	c #2F1818",
"m.	c #CDC576",
"n.	c #C8C169",
"o.	c #915251",
"p.	c #553030",
"q.	c #4C2B2B",
"r.	c #ECA3A3",
"s.	c #FDFAFA",
"t.	c #FCE7E7",
"u.	c #F8CDCD",
"v.	c #F0AFAF",
"w.	c #E89B9B",
"x.	c #DC8787",
"y.	c #BF6464",
"z.	c #452626",
"A.	c #623939",
"B.	c #BC6161",
"C.	c #8D4E4E",
"D.	c #FCEBEB",
"E.	c #F2B5B5",
"F.	c #DE8989",
"G.	c #D27979",
"H.	c #C36868",
"I.	c #704343",
"J.	c #FAE1E1",
"K.	c #F2B1B1",
"L.	c #E89D9D",
"M.	c #C66969",
"N.	c #B95E5E",
"O.	c #A75252",
"P.	c #F4B4AF",
"Q.	c #F0AAA7",
"R.	c #E69595",
"S.	c #DD8888",
"T.	c #C36666",
"U.	c #BB5D5A",
"V.	c #B55854",
"W.	c #FDCD70",
"X.	c #FCCD83",
"Y.	c #FBCA84",
"Z.	c #F6AB61",
"`.	c #D77552",
" +	c #C26253",
".+	c #E78740",
"++	c #F6B261",
"@+	c #F9BE6A",
"#+	c #FCCD7B",
"$+	c #FBC124",
"%+	c #FCCF1D",
"&+	c #FCCE19",
"*+	c #FABD17",
"=+	c #E58528",
"-+	c #D27045",
";+	c #F9B524",
">+	c #FCCF1B",
",+	c #FCCE17",
"'+	c #FABE1D",
")+	c #F19E32",
"!+	c #F2B34F",
"~+	c #F0AB3F",
"{+	c #F2B759",
"]+	c #F1B24E",
"^+	c #F1AD6A",
"            . +                         ",
"        @ # $ % @ &                     ",
"      * = - ; > , ' )                   ",
"    ! ~ { ] ^ / ( _ : <                 ",
"    [ } | 1 2 3 4 5 6 [                 ",
"    7 8 9 0 a b c d e f                 ",
"  g h ~ { i j k l m n o p q             ",
"r s t # u v w x y z A B C D E F         ",
"    G { H w I y J K L M N O P Q R       ",
"    $ S w T U V W X Y Z `  ...+.@.#.    ",
"      $.%.&.*.=.-.;.>.,.'.).!.~.{.].    ",
"    ^./.(._.:.<.[.}.|.1.2.3.4.5.6.7.    ",
"    8.9.0.a.b.c.d.X Y e.f.g.h.i.j.k.l.  ",
"      m.n.  o.p.q.r.s.t.u.v.w.x.y.z.A.B.",
"                C.Y D.u.E.w.F.G.H.I.    ",
"                C J.u.K.L.x.G.M.N.O.    ",
"                  P.Q.R.S.F T.U.V.      ",
"                W.X.Y.Z.`. +.+++@+#+    ",
"                $+%+&+*+=+-+;+>+,+'+)+  ",
"                  !+~+        {+]+^+    "};
