/* XPM */
static char * dbrb_xpm[] = {
"20 20 135 2",
"  	c None",
". 	c #E1E1E1",
"+ 	c #E7E7E7",
"@ 	c #E4E4E4",
"# 	c #DADADA",
"$ 	c #B4B4B4",
"% 	c #C6C6C6",
"& 	c #BCBCBC",
"* 	c #B1B1B1",
"= 	c #ADADAD",
"- 	c #ABABAB",
"; 	c #DBDBDB",
"> 	c #E2E2E2",
", 	c #838383",
"' 	c #DEDEDE",
") 	c #F5F5F5",
"! 	c #C5C5C5",
"~ 	c #B9B9B9",
"{ 	c #E5E5E5",
"] 	c #C4C4C4",
"^ 	c #7E7E7E",
"/ 	c #D3D3D3",
"( 	c #939393",
"_ 	c #666666",
": 	c #EAEAEA",
"< 	c #DFDFDE",
"[ 	c #8C8C86",
"} 	c #B8B8B1",
"| 	c #EAE9E8",
"1 	c #C9C9C9",
"2 	c #616161",
"3 	c #6F6F6F",
"4 	c #303030",
"5 	c #292929",
"6 	c #AAAAAA",
"7 	c #D9D9B8",
"8 	c #D8D44D",
"9 	c #E7CC5B",
"0 	c #DACEB9",
"a 	c #848485",
"b 	c #272727",
"c 	c #282828",
"d 	c #CCCCCC",
"e 	c #949494",
"f 	c #101010",
"g 	c #151515",
"h 	c #8A8A8A",
"i 	c #F2F2EA",
"j 	c #FAF291",
"k 	c #F1D986",
"l 	c #DDDAD5",
"m 	c #808080",
"n 	c #191919",
"o 	c #0C0C0C",
"p 	c #8B8B8B",
"q 	c #D5D5D5",
"r 	c #3E3E3E",
"s 	c #0F0F0F",
"t 	c #FDFDFD",
"u 	c #F4F3EC",
"v 	c #E1DFD8",
"w 	c #BBBBBB",
"x 	c #5C5C5C",
"y 	c #0B0B0B",
"z 	c #3D3D3D",
"A 	c #969696",
"B 	c #5B5B5B",
"C 	c #C8C8C8",
"D 	c #FCFCFC",
"E 	c #F2F2F2",
"F 	c #E3E3E3",
"G 	c #D0D0D0",
"H 	c #C2C2C2",
"I 	c #B2B2B2",
"J 	c #929292",
"K 	c #363636",
"L 	c #E0E0E0",
"M 	c #767676",
"N 	c #F4F4F4",
"O 	c #D4D4D4",
"P 	c #A6A6A6",
"Q 	c #5D5D5D",
"R 	c #EEEEEE",
"S 	c #D2D2D2",
"T 	c #C3C3C3",
"U 	c #989898",
"V 	c #8C8C8C",
"W 	c #9A9A9A",
"X 	c #D2D0CD",
"Y 	c #CFCDCA",
"Z 	c #BFBEBD",
"` 	c #B3B4B4",
" .	c #A2A2A2",
"..	c #969695",
"+.	c #8E8C89",
"@.	c #898783",
"#.	c #E7E7E6",
"$.	c #F4DC9A",
"%.	c #EAD596",
"&.	c #E9D498",
"*.	c #D5BF84",
"=.	c #A79D84",
"-.	c #948E82",
";.	c #BBA56D",
">.	c #D7C481",
",.	c #DBCB88",
"'.	c #EFDB9B",
").	c #ECE3C5",
"!.	c #EDE0BE",
"~.	c #E3C845",
"{.	c #F0D62B",
"].	c #F1D726",
"^.	c #E2C530",
"/.	c #CCBB7F",
"(.	c #BFB89F",
"_.	c #DBC249",
":.	c #ECD42B",
"<.	c #EED627",
"[.	c #E3C937",
"}.	c #DFD39E",
"|.	c #EFEBD5",
"1.	c #F4F0C4",
"2.	c #F5F1C1",
"3.	c #ECE8CA",
"4.	c #EEECD9",
"5.	c #F2EEC7",
"6.	c #F3EFC4",
"7.	c #EDE9CE",
"8.	c #555555",
"9.	c #000000",
"0.	c #8E8E8E",
"a.	c #C7C7C7",
"b.	c #393939",
"c.	c #1D1D1D",
"d.	c #727272",
"          . + + @                       ",
"      # $ % & * = - ;                   ",
"    > , ' ) ! ~ { ] ^ /                 ",
"    ( _ : < [ } | 1 2 3                 ",
"    4 5 6 7 8 9 0 a b c d               ",
"  e f g h i j k l m n o p               ",
"q r s _ : t u v / w x y z q             ",
"A B z C D E F G H I J K 2 -             ",
"  L M : N F O H $ P A Q w               ",
"    1 R F S T I P U V W                 ",
"      X Y Z `  ...+.@.#.                ",
"    $.%.&.*.=.-.;.>.,.'.).              ",
"  !.~.{.].^./.(._.:.<.[.}.              ",
"    |.1.2.3.    4.5.6.7.      8.9.9.9.9.",
"                                      8.",
"        8.8.8.9.0.a.8.8.b.c.a.    a.d.a.",
"            6 8.      F 0.0.    a.d.a.  ",
"          6 8.      F 0.0.    a.d.a.    ",
"        6 9.6 6 a.F d.b.6 6 F 8.d.6 6 6 ",
"        8.8.8.8.0.a.8.8.8.8.a.0.8.8.8.8."};
