/* XPM */
static char * dlunch_xpm[] = {
"20 20 201 2",
"  	c None",
". 	c #AEAEAE",
"+ 	c #C6C6C6",
"@ 	c #BCBCBC",
"# 	c #B1B1B1",
"$ 	c #ADADAD",
"% 	c #A4A4A4",
"& 	c #7C7C7C",
"* 	c #DEDEDE",
"= 	c #F5F5F5",
"- 	c #C5C5C5",
"; 	c #B9B9B9",
"> 	c #E5E5E5",
", 	c #C4C4C4",
"' 	c #777777",
") 	c #3A3A3A",
"! 	c #666666",
"~ 	c #EAEAEA",
"{ 	c #DFDFDE",
"] 	c #8C8C86",
"^ 	c #B8B8B1",
"/ 	c #EAE9E8",
"( 	c #C9C9C9",
"_ 	c #616161",
": 	c #5F5F5F",
"< 	c #1C1C1C",
"[ 	c #292929",
"} 	c #AAAAAA",
"| 	c #D9D9B8",
"1 	c #D8D44D",
"2 	c #E7CC5B",
"3 	c #DACEB9",
"4 	c #848485",
"5 	c #272727",
"6 	c #242424",
"7 	c #4D4D4D",
"8 	c #101010",
"9 	c #151515",
"0 	c #8A8A8A",
"a 	c #F2F2EA",
"b 	c #FAF291",
"c 	c #F1D986",
"d 	c #DDDAD5",
"e 	c #808080",
"f 	c #191919",
"g 	c #0C0C0C",
"h 	c #3D3D3D",
"i 	c #003A00",
"j 	c #004C00",
"k 	c #232323",
"l 	c #0F0F0F",
"m 	c #FDFDFD",
"n 	c #F4F3EC",
"o 	c #E1DFD8",
"p 	c #D3D3D3",
"q 	c #BBBBBB",
"r 	c #5C5C5C",
"s 	c #0B0B0B",
"t 	c #212121",
"u 	c #005B00",
"v 	c #004B00",
"w 	c #007A00",
"x 	c #006D00",
"y 	c #005300",
"z 	c #696969",
"A 	c #444444",
"B 	c #C8C8C8",
"C 	c #FCFCFC",
"D 	c #F2F2F2",
"E 	c #E3E3E3",
"F 	c #D0D0D0",
"G 	c #C2C2C2",
"H 	c #B2B2B2",
"I 	c #929292",
"J 	c #363636",
"K 	c #494949",
"L 	c #707B70",
"M 	c #005E00",
"N 	c #009400",
"O 	c #00AD00",
"P 	c #00A000",
"Q 	c #007B00",
"R 	c #003700",
"S 	c #6D6D6D",
"T 	c #F4F4F4",
"U 	c #D4D4D4",
"V 	c #B4B4B4",
"W 	c #A6A6A6",
"X 	c #969696",
"Y 	c #5D5D5D",
"Z 	c #7B817B",
"` 	c #005800",
" .	c #008300",
"..	c #00AF00",
"+.	c #00D000",
"@.	c #00AB00",
"#.	c #005D00",
"$.	c #B8B8B8",
"%.	c #EEEEEE",
"&.	c #D2D2D2",
"*.	c #C3C3C3",
"=.	c #989898",
"-.	c #8C8C8C",
";.	c #7B7B7B",
">.	c #005100",
",.	c #00A100",
"'.	c #00C200",
").	c #00B700",
"!.	c #008C00",
"~.	c #003800",
"{.	c #D2D0CD",
"].	c #CFCDCA",
"^.	c #BFBEBD",
"/.	c #B3B4B4",
"(.	c #A2A2A2",
"_.	c #969695",
":.	c #8E8C89",
"<.	c #898783",
"[.	c #005202",
"}.	c #009901",
"|.	c #009F00",
"1.	c #009500",
"2.	c #005500",
"3.	c #F1D17B",
"4.	c #EAD596",
"5.	c #E9D498",
"6.	c #D5BF84",
"7.	c #A79D84",
"8.	c #948E82",
"9.	c #BBA56D",
"0.	c #D7C481",
"a.	c #DBCB88",
"b.	c #EAD387",
"c.	c #AF9B60",
"d.	c #2A6814",
"e.	c #00A102",
"f.	c #00B501",
"g.	c #005F07",
"h.	c #E2C63D",
"i.	c #F0D62B",
"j.	c #F1D726",
"k.	c #E2C530",
"l.	c #B8A14E",
"m.	c #A69C7A",
"n.	c #DBC249",
"o.	c #ECD42B",
"p.	c #EED627",
"q.	c #E3C937",
"r.	c #DFBF47",
"s.	c #DEBA12",
"t.	c #4FBE0D",
"u.	c #54B315",
"v.	c #2C650B",
"w.	c #AF9524",
"x.	c #ECCB39",
"y.	c #F3C736",
"z.	c #FFCA1A",
"A.	c #F9CB24",
"B.	c #FFCD18",
"C.	c #D8B21E",
"D.	c #F5BE1F",
"E.	c #FFCE1F",
"F.	c #FFC61A",
"G.	c #FEC820",
"H.	c #FEC521",
"I.	c #FFC722",
"J.	c #F4B61C",
"K.	c #90650B",
"L.	c #FFD020",
"M.	c #FFC51D",
"N.	c #FDC321",
"O.	c #FCC023",
"P.	c #FABC1E",
"Q.	c #FDC024",
"R.	c #E7B22F",
"S.	c #CD9316",
"T.	c #FFC71F",
"U.	c #FBBF20",
"V.	c #F9BF2A",
"W.	c #F7BB2A",
"X.	c #F6B61F",
"Y.	c #FFC12D",
"Z.	c #C09027",
"`.	c #AD7D19",
" +	c #FFC528",
".+	c #F7B927",
"++	c #F4B62A",
"@+	c #F3B221",
"#+	c #F2B023",
"$+	c #FFBF32",
"%+	c #735111",
"&+	c #D29121",
"*+	c #F9B228",
"=+	c #F9B92D",
"-+	c #F4B22D",
";+	c #F8B22A",
">+	c #AF7E28",
",+	c #66410B",
"'+	c #996922",
")+	c #9E7128",
"!+	c #6A420C",
"                                        ",
"        . + @ # $ %                     ",
"      & * = - ; > , '                   ",
"    ) ! ~ { ] ^ / ( _ :                 ",
"    < [ } | 1 2 3 4 5 6                 ",
"  7 8 9 0 a b c d e f g h   i   j       ",
"  k l ! ~ m n o p q r s t   u v w x y   ",
"z A h B C D E F G H I J K L M N O P Q R ",
"    S ~ T E U G V W X Y Z `  ...+.@.#.  ",
"    $.%.E &.*.H W =.-.;.  >.,.'.).!.~.  ",
"      {.].^./.(._.:.<.    [.}.|.1.2.    ",
"    3.4.5.6.7.8.9.0.a.b.c.d.e.f.g.      ",
"    h.i.j.k.l.m.n.o.p.q.r.s.t.u.v.      ",
"                    w.x.y.z.A.B.C.      ",
"                    D.E.F.G.H.I.J.      ",
"                  K.L.M.N.O.P.Q.R.      ",
"                  S.T.U.V.W.X.Y.Z.      ",
"                  `. +.+++@+#+$+%+      ",
"                    &+*+=+-+;+>+        ",
"                      ,+'+)+!+          "};
