/* XPM */
static char * doffline_xpm[] = {
"20 20 185 2",
"  	c None",
". 	c #E49595",
"+ 	c #C16464",
"@ 	c #D47B7B",
"# 	c #DC8585",
"$ 	c #DA8383",
"% 	c #C96E6E",
"& 	c #E39090",
"* 	c #AE5555",
"= 	c #D78080",
"- 	c #F8D1D1",
"; 	c #F7C4C4",
"> 	c #E39292",
", 	c #DA8585",
"' 	c #DC8787",
") 	c #DE8B8B",
"! 	c #B35858",
"~ 	c #854C4C",
"{ 	c #BF6464",
"] 	c #FCE9E9",
"^ 	c #FEFEFE",
"/ 	c #FCEFEF",
"( 	c #ECA3A3",
"_ 	c #D57C7C",
": 	c #FAE3E3",
"< 	c #EFACAC",
"[ 	c #BB6060",
"} 	c #774848",
"| 	c #412424",
"1 	c #FCF9F9",
"2 	c #EFA8A8",
"3 	c #8A4D4D",
"4 	c #D37A7A",
"5 	c #FADFDF",
"6 	c #F7C8C8",
"7 	c #D17878",
"8 	c #4E2B2B",
"9 	c #CC7171",
"0 	c #5A3333",
"a 	c #160B0B",
"b 	c #C86D6D",
"c 	c #FCF3F3",
"d 	c #F8D3D3",
"e 	c #E6958F",
"f 	c #9D5648",
"g 	c #CF765E",
"h 	c #F9D0CA",
"i 	c #EBA2A2",
"j 	c #B45959",
"k 	c #231212",
"l 	c #4C2B2B",
"m 	c #201111",
"n 	c #050202",
"o 	c #502D2D",
"p 	c #F2B1B4",
"q 	c #F9D454",
"r 	c #FCE313",
"s 	c #FDD122",
"t 	c #FCC473",
"u 	c #EAA3A6",
"v 	c #482727",
"w 	c #0A0505",
"x 	c #1F1010",
"y 	c #CD7272",
"z 	c #7A4949",
"A 	c #120909",
"B 	c #020101",
"C 	c #070303",
"D 	c #7E4B4B",
"E 	c #FBE8C2",
"F 	c #FDEC30",
"G 	c #FDC92A",
"H 	c #FBD4B8",
"I 	c #F3B8BB",
"J 	c #7D4A4A",
"K 	c #0F0707",
"L 	c #0D0606",
"M 	c #593232",
"N 	c #3A1F1F",
"O 	c #030101",
"P 	c #6F4242",
"Q 	c #F8CDCD",
"R 	c #FDFDFC",
"S 	c #FDEEC6",
"T 	c #FBD7A8",
"U 	c #F8C9CB",
"V 	c #F3B6B6",
"W 	c #EA9D9D",
"X 	c #7B4A4A",
"Y 	c #060303",
"Z 	c #3D2020",
"` 	c #462727",
" .	c #130A0A",
"..	c #241313",
"+.	c #FCF7F7",
"@.	c #FAE3E8",
"#.	c #F7CCCE",
"$.	c #F3B8B8",
"%.	c #E79898",
"&.	c #351C1C",
"*.	c #A55252",
"=.	c #4F2C2C",
"-.	c #3E2121",
";.	c #221111",
">.	c #E79A9A",
",.	c #E08B8B",
"'.	c #904F4F",
").	c #432424",
"!.	c #734646",
"~.	c #C66B6B",
"{.	c #A85353",
"].	c #E89D9D",
"^.	c #F8CFCF",
"/.	c #F3BCBC",
"(.	c #CE7575",
"_.	c #B85D5D",
":.	c #492828",
"<.	c #714444",
"[.	c #E08D8D",
"}.	c #D17676",
"|.	c #BE6363",
"1.	c #653C3C",
"2.	c #F3BABA",
"3.	c #D88181",
"4.	c #D07575",
"5.	c #A35252",
"6.	c #F8CBCB",
"7.	c #EFAAAA",
"8.	c #E79C9E",
"9.	c #E19090",
"0.	c #D67F7F",
"a.	c #C76C6C",
"b.	c #BD6262",
"c.	c #E28785",
"d.	c #F0A79B",
"e.	c #EB9E94",
"f.	c #E48E85",
"g.	c #D98282",
"h.	c #D47D7D",
"i.	c #CA7171",
"j.	c #BF666A",
"k.	c #B95B58",
"l.	c #BA5C55",
"m.	c #B6554B",
"n.	c #C36258",
"o.	c #FDCC76",
"p.	c #FDD78E",
"q.	c #FBD394",
"r.	c #FDD494",
"s.	c #FBC380",
"t.	c #ED8D46",
"u.	c #C46357",
"v.	c #B75A5A",
"w.	c #D1642E",
"x.	c #F6A957",
"y.	c #FBC87E",
"z.	c #FCD083",
"A.	c #FCD68D",
"B.	c #FDD38A",
"C.	c #F7B472",
"D.	c #F39424",
"E.	c #FDCB1C",
"F.	c #FDD622",
"G.	c #FDDB22",
"H.	c #FDD620",
"I.	c #FDD51E",
"J.	c #FDC10C",
"K.	c #D46C2D",
"L.	c #B75C5A",
"M.	c #F1930C",
"N.	c #FDD51A",
"O.	c #FDDA1A",
"P.	c #F5A10E",
"Q.	c #EA973D",
"R.	c #F5B722",
"S.	c #F9CB12",
"T.	c #F3AD18",
"U.	c #E0822F",
"V.	c #F2B391",
"W.	c #EA9F33",
"X.	c #F5B61E",
"Y.	c #F8C515",
"Z.	c #F6B417",
"`.	c #EB982C",
" +	c #E89773",
"                                        ",
"            . + @ # # $ % &             ",
"          * = - ; > , ' ) % !           ",
"        ~ { ] ^ / ( _ ; : < [ }         ",
"        | & ^ 1 2 3 4 5 / 6 7 8 9       ",
"      0 a b c d e f g h ; i j k l       ",
"      m n o > p q r s t u * v w x y     ",
"    z A B C D d E F G H I J K B L M     ",
"    N C O P Q ^ R S T U V W X Y O Z     ",
"  ` a  ...6 ^ ^ +.@.#.$.2 %.' &.n A v   ",
"*.=.-.;.*.^ ^ +.: Q $.2 >.,.$ '.x ).!.~.",
"    {.v ].^ +.: ^./.2 >.,.= (._.:.D     ",
"      <.- +.: Q $.2 >.[.= }.~.|.1.@     ",
"      $ ] : Q 2.2 %.,.3.4.~.{ j 5.      ",
"        6.6./.7.8.9.0.}.a.b._.*.        ",
"        c.d.e.f.g.h.i.j.k.l.m.n.        ",
"      o.p.q.r.s.t.u.v.w.x.y.z.A.B.C.    ",
"    D.E.F.G.H.I.J.K.L.M.N.O.O.O.N.P.    ",
"      Q.R.S.S.T.U.    V.W.X.Y.Z.`. +    ",
"                                        "};
