/* XPM */
static char * dphone_xpm[] = {
"20 20 210 2",
"  	c None",
". 	c #AEAEAE",
"+ 	c #C6C6C6",
"@ 	c #BCBCBC",
"# 	c #B1B1B1",
"$ 	c #ADADAD",
"% 	c #A4A4A4",
"& 	c #7C7C7C",
"* 	c #DEDEDE",
"= 	c #F5F5F5",
"- 	c #C5C5C5",
"; 	c #B9B9B9",
"> 	c #E5E5E5",
", 	c #C4C4C4",
"' 	c #777777",
") 	c #3A3A3A",
"! 	c #666666",
"~ 	c #EAEAEA",
"{ 	c #DFDFDE",
"] 	c #8C8C86",
"^ 	c #B8B8B1",
"/ 	c #EAE9E8",
"( 	c #C9C9C9",
"_ 	c #616161",
": 	c #5F5F5F",
"< 	c #1C1C1C",
"[ 	c #292929",
"} 	c #AAAAAA",
"| 	c #D9D9B8",
"1 	c #D8D44D",
"2 	c #E7CC5B",
"3 	c #DACEB9",
"4 	c #848485",
"5 	c #272727",
"6 	c #242424",
"7 	c #BDD9FF",
"8 	c #C1DAFF",
"9 	c #ACD0FF",
"0 	c #8BBBFF",
"a 	c #4D4D4D",
"b 	c #101010",
"c 	c #151515",
"d 	c #8A8A8A",
"e 	c #F2F2EA",
"f 	c #FAF291",
"g 	c #F1D986",
"h 	c #DDDAD5",
"i 	c #808080",
"j 	c #191919",
"k 	c #0C0C0C",
"l 	c #3D3D3D",
"m 	c #90B1EC",
"n 	c #8B9EC1",
"o 	c #52617F",
"p 	c #92B4EF",
"q 	c #6FA4FE",
"r 	c #639BFA",
"s 	c #232323",
"t 	c #0F0F0F",
"u 	c #FDFDFD",
"v 	c #F4F3EC",
"w 	c #E1DFD8",
"x 	c #D3D3D3",
"y 	c #BBBBBB",
"z 	c #5C5C5C",
"A 	c #0B0B0B",
"B 	c #222222",
"C 	c #39558A",
"D 	c #6680B2",
"E 	c #466196",
"F 	c #678ED6",
"G 	c #588BE5",
"H 	c #5284DC",
"I 	c #696969",
"J 	c #444444",
"K 	c #C8C8C8",
"L 	c #FCFCFC",
"M 	c #F2F2F2",
"N 	c #E3E3E3",
"O 	c #D0D0D0",
"P 	c #C2C2C2",
"Q 	c #B2B2B2",
"R 	c #929292",
"S 	c #363636",
"T 	c #4B4B4B",
"U 	c #828890",
"V 	c #3A5DA0",
"W 	c #4367AD",
"X 	c #243E72",
"Y 	c #4D77C6",
"Z 	c #4A78CC",
"` 	c #4975C9",
" .	c #6D6D6D",
"..	c #F4F4F4",
"+.	c #D4D4D4",
"@.	c #B4B4B4",
"#.	c #A6A6A6",
"$.	c #969696",
"%.	c #5D5D5D",
"&.	c #8D8D8D",
"*.	c #4C79CC",
"=.	c #3D63AB",
"-.	c #3F66B3",
";.	c #6381C0",
">.	c #3D63B2",
",.	c #4974C8",
"'.	c #B8B8B8",
").	c #EEEEEE",
"!.	c #D2D2D2",
"~.	c #C3C3C3",
"{.	c #989898",
"].	c #8C8C8C",
"^.	c #7B7B7B",
"/.	c #6092EB",
"(.	c #4E78C5",
"_.	c #33559C",
":.	c #4663A0",
"<.	c #6C8BCA",
"[.	c #2A498F",
"}.	c #4C7ACF",
"|.	c #D2D0CD",
"1.	c #CFCDCA",
"2.	c #BFBEBD",
"3.	c #B3B4B4",
"4.	c #A2A2A2",
"5.	c #969695",
"6.	c #8E8C89",
"7.	c #898783",
"8.	c #6292E7",
"9.	c #5180D8",
"0.	c #5881CE",
"a.	c #7595D4",
"b.	c #3B5CA2",
"c.	c #32549D",
"d.	c #F1D17B",
"e.	c #EAD596",
"f.	c #E9D498",
"g.	c #D5BF84",
"h.	c #A79D84",
"i.	c #948E82",
"j.	c #BBA56D",
"k.	c #D7C481",
"l.	c #DBCB88",
"m.	c #ECD488",
"n.	c #A4AFB3",
"o.	c #5989E0",
"p.	c #4D7BD0",
"q.	c #5B83CC",
"r.	c #5578BD",
"s.	c #1F3879",
"t.	c #436DBE",
"u.	c #E2C63D",
"v.	c #F0D62B",
"w.	c #F1D726",
"x.	c #E2C530",
"y.	c #B8A14E",
"z.	c #A69C7A",
"A.	c #DBC249",
"B.	c #ECD42B",
"C.	c #EED627",
"D.	c #E3C937",
"E.	c #A1A794",
"F.	c #507FD7",
"G.	c #4B77C9",
"H.	c #5A83CF",
"I.	c #1D3675",
"J.	c #3559A3",
"K.	c #A0B6AC",
"L.	c #8BA7C3",
"M.	c #688FD1",
"N.	c #5281D7",
"O.	c #244183",
"P.	c #2A4A8F",
"Q.	c #90BAFF",
"R.	c #83ADF8",
"S.	c #6090E5",
"T.	c #4F7FD6",
"U.	c #5789E3",
"V.	c #264386",
"W.	c #274489",
"X.	c #7B98D2",
"Y.	c #708BC2",
"Z.	c #36477A",
"`.	c #709AE5",
" +	c #6596ED",
".+	c #5689E3",
"++	c #28458A",
"@+	c #2D4D94",
"#+	c #8EBDFF",
"$+	c #87A0D2",
"%+	c #091A4F",
"&+	c #30529B",
"*+	c #4B79CD",
"=+	c #6096F3",
"-+	c #4773C6",
";+	c #244184",
">+	c #3B62AF",
",+	c #6CA8FF",
"'+	c #69A4FF",
")+	c #659FFF",
"!+	c #5A90EB",
"~+	c #2D4E96",
"{+	c #395EAB",
"]+	c #8FA0DB",
"^+	c #5886E3",
"/+	c #5C92EF",
"(+	c #5587E0",
"_+	c #5E94F1",
":+	c #52528B",
"<+	c #00004C",
"                                        ",
"        . + @ # $ %                     ",
"      & * = - ; > , '                   ",
"    ) ! ~ { ] ^ / ( _ :                 ",
"    < [ } | 1 2 3 4 5 6       7 8 9 0   ",
"  a b c d e f g h i j k l   m n o p q r ",
"  s t ! ~ u v w x y z A B   C D E F G H ",
"I J l K L M N O P Q R S T U V W X Y Z ` ",
"     .~ ..N +.P @.#.$.%.&.  *.=.-.;.>.,.",
"    '.).N !.~.Q #.{.].^.  /.(._.:.<.[.}.",
"      |.1.2.3.4.5.6.7.    8.9.0.a.b.c.  ",
"    d.e.f.g.h.i.j.k.l.m.n.o.p.q.r.s.t.  ",
"    u.v.w.x.y.z.A.B.C.D.E.F.G.H.I.J.    ",
"                    K.L.M.}.N.O.P.      ",
"                  Q.R.S.T.U.V.W.        ",
"            X.Y.Z.`. +U..+++@+          ",
"          #+$+%+&+*+=+-+;+>+            ",
"          ,+'+)+!+-+~+{+T.              ",
"          ]+^+/+(+T._+                  ",
"          :+<+                          "};
