#define amsn_width 128
#define amsn_height 128
static unsigned char amsn_bits[] = {
   0x00, 0x00, 0x00, 0x00, 0x00, 0x00, 0x00, 0x00, 0x00, 0x00, 0x00, 0x00,
   0x00, 0x00, 0x00, 0x00, 0x00, 0x00, 0x00, 0x00, 0x00, 0x00, 0x00, 0x00,
   0x00, 0x00, 0x00, 0x00, 0x00, 0x00, 0x00, 0x00, 0x00, 0x00, 0x00, 0x00,
   0x00, 0x00, 0x00, 0x00, 0x00, 0x00, 0x00, 0x00, 0x00, 0x00, 0x00, 0x00,
   0x00, 0x00, 0x00, 0x00, 0x00, 0x00, 0x00, 0x00, 0x00, 0x00, 0x00, 0x00,
   0x00, 0x00, 0x00, 0x00, 0x00, 0x00, 0x00, 0x00, 0x00, 0x00, 0x00, 0x00,
   0x00, 0x00, 0x00, 0x00, 0x00, 0x00, 0x00, 0x00, 0x00, 0x00, 0x00, 0x00,
   0x00, 0x00, 0x00, 0x00, 0x00, 0x00, 0x00, 0x00, 0x00, 0x00, 0x00, 0x00,
   0x00, 0x00, 0x00, 0x00, 0x00, 0x00, 0x00, 0x00, 0x00, 0x00, 0x00, 0x00,
   0x00, 0x00, 0x00, 0x00, 0x00, 0x00, 0x00, 0x00, 0x00, 0x00, 0x00, 0x00,
   0x00, 0x00, 0x00, 0x00, 0x00, 0x00, 0x00, 0x00, 0x00, 0x00, 0x00, 0x00,
   0x00, 0x00, 0x00, 0x00, 0x00, 0x00, 0x00, 0x00, 0x00, 0x00, 0x00, 0x00,
   0x00, 0x00, 0x00, 0x00, 0x00, 0x00, 0x00, 0x00, 0x00, 0x00, 0x00, 0x00,
   0x00, 0x00, 0x00, 0x00, 0x00, 0x00, 0x00, 0x00, 0x00, 0x00, 0x00, 0x00,
   0x00, 0x00, 0x00, 0x00, 0x00, 0x00, 0x00, 0x00, 0x00, 0x00, 0x00, 0x00,
   0x00, 0x00, 0x00, 0x00, 0x00, 0x00, 0x00, 0x00, 0x00, 0x00, 0x00, 0x00,
   0x00, 0x00, 0x00, 0x00, 0x00, 0x00, 0x00, 0x00, 0x00, 0x00, 0x00, 0x00,
   0x00, 0x00, 0x00, 0x00, 0x00, 0x00, 0x00, 0x00, 0x00, 0x00, 0x00, 0x00,
   0x00, 0x00, 0x00, 0x00, 0x00, 0x00, 0x00, 0x00, 0x00, 0x00, 0x00, 0x00,
   0x00, 0x00, 0x00, 0xe0, 0x1f, 0x00, 0x00, 0x00, 0x00, 0x00, 0x00, 0x00,
   0x00, 0x00, 0x00, 0x00, 0x30, 0x00, 0x00, 0x5c, 0xf5, 0x00, 0x00, 0x00,
   0x00, 0x00, 0x00, 0x00, 0x00, 0x00, 0x00, 0x00, 0x10, 0x00, 0x80, 0x2b,
   0xa0, 0x07, 0x00, 0x60, 0x00, 0x00, 0x00, 0x00, 0x00, 0x00, 0x00, 0x00,
   0x50, 0x00, 0x80, 0x8e, 0x04, 0x0d, 0x00, 0x40, 0x00, 0x00, 0x00, 0x00,
   0x00, 0x00, 0x00, 0x00, 0x90, 0x00, 0xe0, 0x51, 0xa9, 0x1a, 0x00, 0x50,
   0x00, 0x00, 0x00, 0x00, 0x00, 0x00, 0x00, 0x00, 0x30, 0x01, 0x50, 0x57,
   0xab, 0x6a, 0x00, 0x48, 0x00, 0x00, 0x00, 0x00, 0x00, 0x00, 0x00, 0x00,
   0x50, 0x06, 0xd8, 0xfa, 0xfe, 0x5d, 0x00, 0x54, 0x00, 0x00, 0x00, 0x00,
   0x00, 0x00, 0x00, 0x00, 0xf0, 0x18, 0xb5, 0x03, 0x00, 0xb5, 0x00, 0x53,
   0x00, 0x00, 0x00, 0x00, 0x00, 0x00, 0x00, 0x00, 0x40, 0xa3, 0x5a, 0x48,
   0x42, 0x54, 0xc7, 0x74, 0x00, 0x00, 0x00, 0x00, 0x00, 0x00, 0x00, 0x00,
   0xc0, 0x0a, 0x16, 0x41, 0x08, 0xd1, 0x28, 0x2a, 0x00, 0x00, 0x00, 0x00,
   0x00, 0x00, 0x00, 0x00, 0x40, 0x95, 0x4a, 0x8a, 0x56, 0x84, 0x83, 0x2a,
   0x00, 0x00, 0x00, 0x00, 0x00, 0x00, 0x00, 0x00, 0x80, 0x2b, 0x93, 0xb8,
   0xdd, 0x29, 0xa6, 0x1a, 0x00, 0x00, 0x00, 0x00, 0x00, 0x00, 0x00, 0x00,
   0x80, 0xb6, 0x48, 0x2f, 0xa0, 0x92, 0x94, 0x16, 0x00, 0x00, 0x00, 0x00,
   0x00, 0x00, 0x00, 0x00, 0x00, 0xea, 0xa2, 0x01, 0x00, 0x96, 0xd4, 0x0a,
   0x00, 0x00, 0x00, 0x00, 0x00, 0x00, 0x00, 0x00, 0x00, 0x1a, 0x5a, 0x00,
   0x00, 0x38, 0x69, 0x03, 0x00, 0x00, 0x00, 0x00, 0x00, 0x00, 0x00, 0x00,
   0x00, 0x50, 0x59, 0x90, 0x04, 0xe0, 0xaa, 0x02, 0x00, 0x00, 0x00, 0x00,
   0x00, 0x00, 0x00, 0x00, 0x00, 0x28, 0x0d, 0x01, 0x50, 0x40, 0x51, 0x00,
   0x00, 0x00, 0x00, 0x00, 0x00, 0x00, 0x00, 0x00, 0x00, 0x54, 0x2d, 0x24,
   0x01, 0x45, 0xd7, 0x00, 0x00, 0x00, 0x00, 0x00, 0x00, 0x00, 0x00, 0x00,
   0x00, 0x54, 0x83, 0x10, 0x24, 0x90, 0x92, 0x00, 0x00, 0x00, 0x00, 0x00,
   0x00, 0x00, 0x00, 0x00, 0x00, 0x54, 0x97, 0xa2, 0x88, 0x82, 0x56, 0x01,
   0x00, 0x00, 0x00, 0x00, 0x00, 0x00, 0x00, 0x00, 0x00, 0xea, 0x22, 0x04,
   0x51, 0x14, 0x5b, 0x01, 0x00, 0x00, 0x00, 0x00, 0x00, 0x00, 0x00, 0x00,
   0x00, 0xd4, 0x4a, 0x29, 0x05, 0x51, 0x5a, 0x01, 0x00, 0x00, 0x00, 0x00,
   0x00, 0x00, 0x00, 0x00, 0x00, 0xaa, 0x25, 0x52, 0xa8, 0x84, 0x56, 0x01,
   0x00, 0x00, 0x00, 0x00, 0x00, 0x00, 0x00, 0x00, 0x00, 0x75, 0xa5, 0x44,
   0x25, 0xa9, 0xba, 0x02, 0x00, 0x00, 0x00, 0x00, 0x00, 0x00, 0x00, 0x00,
   0x00, 0x55, 0x95, 0x2a, 0x49, 0x0a, 0x55, 0x03, 0x00, 0x00, 0x00, 0x00,
   0x00, 0x00, 0x00, 0x00, 0x00, 0x5b, 0x95, 0x48, 0xaa, 0xb2, 0x6a, 0x02,
   0x00, 0x00, 0x00, 0x00, 0x00, 0x00, 0x00, 0x00, 0x00, 0xaa, 0x2a, 0x55,
   0x49, 0x4a, 0xb5, 0x01, 0x00, 0x00, 0x00, 0x00, 0x00, 0x00, 0x00, 0x00,
   0x00, 0xbb, 0xaa, 0x92, 0xaa, 0xaa, 0x6a, 0x03, 0x00, 0x00, 0x00, 0x00,
   0x00, 0x00, 0x00, 0x00, 0x00, 0xaa, 0x54, 0xaa, 0x24, 0x49, 0x55, 0x01,
   0x00, 0x00, 0x00, 0x00, 0x00, 0x00, 0x00, 0x00, 0x00, 0x56, 0xa5, 0x2a,
   0x55, 0x55, 0x55, 0x03, 0x00, 0x00, 0x00, 0x00, 0x00, 0x00, 0x00, 0x00,
   0x00, 0xad, 0xaa, 0xa4, 0x4a, 0x2a, 0x69, 0x01, 0x00, 0x00, 0x00, 0x00,
   0x00, 0x00, 0x00, 0x00, 0x00, 0x2a, 0x29, 0x55, 0x52, 0x49, 0x55, 0x03,
   0x00, 0x00, 0x00, 0x00, 0x00, 0x00, 0x00, 0x00, 0x00, 0x5d, 0xa5, 0xa4,
   0x94, 0x52, 0x6a, 0x01, 0x00, 0x00, 0x00, 0x00, 0x00, 0x00, 0x00, 0x00,
   0x00, 0x55, 0x49, 0x49, 0x25, 0x95, 0xd2, 0x02, 0x00, 0x00, 0x00, 0x00,
   0x00, 0x00, 0x00, 0x00, 0x00, 0x55, 0x2a, 0x95, 0x54, 0x52, 0xaa, 0x01,
   0x00, 0x00, 0x00, 0x00, 0x00, 0x00, 0x00, 0x00, 0x00, 0x5d, 0x49, 0x22,
   0x89, 0x44, 0xa9, 0x02, 0x00, 0x00, 0x00, 0x00, 0x00, 0x00, 0x00, 0x00,
   0x00, 0x55, 0x92, 0x94, 0x24, 0x29, 0x6a, 0x01, 0x00, 0x00, 0x00, 0x00,
   0x00, 0x00, 0x00, 0x00, 0x00, 0xb5, 0x24, 0x91, 0x24, 0x45, 0xa9, 0x05,
   0x00, 0x00, 0x00, 0x00, 0x00, 0x00, 0x00, 0x00, 0x80, 0x52, 0x89, 0x44,
   0x88, 0x10, 0x2a, 0x05, 0x00, 0x00, 0x00, 0x00, 0x00, 0x00, 0x00, 0x00,
   0x80, 0x45, 0x22, 0x08, 0x11, 0xa4, 0x14, 0x05, 0x00, 0x00, 0x00, 0x00,
   0x00, 0x00, 0x00, 0x00, 0x40, 0xa1, 0x94, 0x20, 0x44, 0x11, 0x09, 0x05,
   0x00, 0x00, 0x00, 0x00, 0x00, 0x00, 0x00, 0x00, 0x80, 0x82, 0x01, 0x85,
   0x08, 0x20, 0x0a, 0x0a, 0x00, 0x00, 0x00, 0x00, 0x00, 0x00, 0x00, 0x00,
   0xa0, 0x42, 0x2a, 0x10, 0x20, 0x81, 0x0c, 0x15, 0x00, 0x00, 0x00, 0x00,
   0x00, 0x00, 0x00, 0x00, 0xa0, 0x80, 0x82, 0x40, 0x02, 0x94, 0x02, 0x2a,
   0x00, 0x00, 0x00, 0x00, 0x00, 0x00, 0x00, 0x00, 0xd0, 0x00, 0x15, 0x02,
   0x40, 0x00, 0x01, 0x14, 0x00, 0x00, 0x00, 0x00, 0x00, 0x00, 0x00, 0x00,
   0x28, 0x00, 0x22, 0x08, 0x04, 0xa1, 0x02, 0x50, 0x00, 0x00, 0x00, 0x00,
   0x00, 0x00, 0x00, 0x00, 0x28, 0x00, 0x8a, 0x40, 0x00, 0x84, 0x01, 0xa8,
   0x00, 0x00, 0x00, 0x00, 0x00, 0x00, 0x00, 0x00, 0x2b, 0x00, 0x2e, 0x02,
   0x20, 0x28, 0x03, 0xa0, 0x02, 0x00, 0x00, 0x00, 0x00, 0x00, 0x00, 0x00,
   0x05, 0x80, 0x55, 0x88, 0x84, 0xe4, 0x0e, 0x80, 0x02, 0x00, 0x00, 0x00,
   0x00, 0x00, 0x00, 0x40, 0x05, 0x40, 0xab, 0x11, 0x08, 0x49, 0x19, 0x80,
   0x0a, 0x00, 0x00, 0x00, 0x00, 0x00, 0x00, 0x80, 0x02, 0xa0, 0x54, 0x4a,
   0xa1, 0x52, 0x31, 0x00, 0x05, 0x00, 0x00, 0x00, 0x00, 0x00, 0x00, 0x00,
   0x00, 0x30, 0x14, 0x28, 0x95, 0x40, 0x41, 0x00, 0x00, 0x00, 0x00, 0x00,
   0x00, 0x00, 0x00, 0x00, 0x00, 0x08, 0x04, 0x42, 0x25, 0x80, 0xa0, 0x00,
   0x00, 0x00, 0x00, 0x00, 0x00, 0x00, 0x00, 0x00, 0x00, 0x18, 0x0a, 0x00,
   0x00, 0x01, 0x03, 0x01, 0x00, 0x00, 0x00, 0x00, 0x00, 0x00, 0x00, 0x00,
   0x00, 0x06, 0x01, 0x00, 0x00, 0x80, 0x42, 0x01, 0x00, 0x00, 0x00, 0x00,
   0x00, 0x00, 0x00, 0x00, 0x00, 0x01, 0x45, 0x08, 0x00, 0x08, 0x0c, 0x04,
   0x00, 0x00, 0x00, 0x00, 0x00, 0x00, 0x00, 0x00, 0x80, 0x88, 0x00, 0x40,
   0x22, 0x00, 0x02, 0x09, 0x00, 0x00, 0x00, 0x00, 0x00, 0x00, 0x00, 0x00,
   0x40, 0x91, 0x04, 0x01, 0x00, 0x01, 0x2c, 0x10, 0x00, 0x00, 0x00, 0x00,
   0x00, 0x00, 0x00, 0x00, 0x20, 0x40, 0x20, 0x00, 0x04, 0x48, 0x88, 0x32,
   0x00, 0x00, 0x00, 0x00, 0x00, 0x00, 0x00, 0x00, 0x70, 0x49, 0x01, 0x48,
   0x20, 0x00, 0x30, 0x60, 0x00, 0x00, 0x00, 0x00, 0x00, 0x00, 0x00, 0x00,
   0x10, 0x10, 0x80, 0x00, 0x00, 0x81, 0x44, 0x42, 0x00, 0x00, 0x00, 0x00,
   0x00, 0x00, 0x00, 0x00, 0x90, 0x62, 0x09, 0x01, 0x04, 0x08, 0x50, 0x94,
   0x00, 0x00, 0x00, 0x00, 0x00, 0x00, 0x00, 0x00, 0x4c, 0x18, 0x00, 0x48,
   0x20, 0x00, 0x48, 0x41, 0x01, 0x00, 0x00, 0x00, 0x00, 0x00, 0x00, 0x00,
   0x14, 0x91, 0x10, 0x80, 0x00, 0x91, 0xa0, 0x24, 0x01, 0x00, 0x00, 0x00,
   0x00, 0x00, 0x00, 0x00, 0x22, 0x4a, 0x80, 0x00, 0x04, 0x00, 0x40, 0x91,
   0x02, 0x00, 0x00, 0x00, 0x00, 0x00, 0x00, 0x00, 0x4a, 0x14, 0x04, 0x12,
   0x40, 0x84, 0x44, 0x22, 0x02, 0x00, 0x00, 0x00, 0x00, 0x00, 0x00, 0x00,
   0x25, 0xa5, 0x10, 0x40, 0x04, 0x10, 0x40, 0x49, 0x05, 0x00, 0x00, 0x00,
   0x00, 0x00, 0x00, 0x80, 0x25, 0x0a, 0x20, 0x02, 0x10, 0x01, 0x88, 0x0a,
   0x0a, 0x00, 0x00, 0x00, 0x00, 0x00, 0x00, 0x80, 0x48, 0x29, 0x01, 0x90,
   0x40, 0x90, 0x40, 0x51, 0x0d, 0x00, 0x00, 0x00, 0x00, 0x00, 0x00, 0x80,
   0x0b, 0x25, 0x22, 0x01, 0x04, 0x02, 0x04, 0x45, 0x14, 0x00, 0x00, 0x00,
   0x00, 0x00, 0x00, 0x40, 0x50, 0x12, 0x00, 0x10, 0x01, 0x48, 0x40, 0x2a,
   0x19, 0x00, 0x00, 0x00, 0x00, 0x00, 0x00, 0xe0, 0x45, 0x45, 0x24, 0x02,
   0x20, 0x01, 0x49, 0x22, 0x29, 0x00, 0x00, 0x00, 0x00, 0x00, 0x00, 0x00,
   0x12, 0x0a, 0x01, 0x10, 0x09, 0x14, 0x00, 0x45, 0x32, 0x00, 0x00, 0x00,
   0x00, 0x00, 0x00, 0xf0, 0x54, 0x29, 0x20, 0x21, 0x80, 0x40, 0x22, 0x94,
   0x54, 0x00, 0x00, 0x00, 0x00, 0x00, 0x00, 0x10, 0x21, 0x05, 0x05, 0x00,
   0x29, 0x12, 0x80, 0x4a, 0x62, 0x00, 0x00, 0x00, 0x00, 0x00, 0x00, 0x68,
   0x4a, 0x2a, 0x40, 0x12, 0x00, 0x20, 0x89, 0x90, 0xaa, 0x00, 0x00, 0x00,
   0x00, 0x00, 0x00, 0xa8, 0x92, 0x04, 0x09, 0x40, 0xa4, 0x04, 0x00, 0x55,
   0xa4, 0x00, 0x00, 0x00, 0x00, 0x00, 0x00, 0x28, 0xaa, 0x2a, 0x90, 0x84,
   0x00, 0x40, 0x25, 0x92, 0xa4, 0x00, 0x00, 0x00, 0x00, 0x00, 0x00, 0x54,
   0x11, 0x89, 0x04, 0x00, 0xa4, 0x14, 0x00, 0x49, 0x49, 0x01, 0x00, 0x00,
   0x00, 0x00, 0x00, 0x4c, 0x52, 0x12, 0x40, 0x92, 0x00, 0x00, 0x24, 0x52,
   0x52, 0x01, 0x00, 0x00, 0x00, 0x00, 0x00, 0x28, 0xa5, 0x4a, 0x09, 0x00,
   0x4a, 0xa9, 0x00, 0x89, 0x4a, 0x01, 0x00, 0x00, 0x00, 0x00, 0x00, 0x4a,
   0x09, 0x09, 0xa0, 0x4a, 0x00, 0x00, 0x12, 0x92, 0x90, 0x02, 0x00, 0x00,
   0x00, 0x00, 0x00, 0x2a, 0x52, 0x25, 0x05, 0x20, 0x29, 0x21, 0x40, 0x24,
   0xa5, 0x02, 0x00, 0x00, 0x00, 0x00, 0x00, 0x4a, 0x12, 0x25, 0x90, 0x04,
   0x21, 0x84, 0x04, 0x49, 0x8a, 0x02, 0x00, 0x00, 0x00, 0x00, 0x00, 0x92,
   0xa4, 0x84, 0x02, 0x12, 0x84, 0x10, 0x10, 0x92, 0x28, 0x01, 0x00, 0x00,
   0x00, 0x00, 0x00, 0x95, 0x14, 0x15, 0x54, 0xa0, 0x10, 0x02, 0x21, 0x92,
   0x22, 0x05, 0x00, 0x00, 0x00, 0x00, 0x00, 0x25, 0xa1, 0x4a, 0x00, 0x09,
   0x42, 0x29, 0x00, 0x24, 0x94, 0x02, 0x00, 0x00, 0x00, 0x00, 0x00, 0x25,
   0x25, 0x0a, 0x25, 0x41, 0x08, 0x00, 0x4a, 0x49, 0x21, 0x05, 0x00, 0x00,
   0x00, 0x00, 0x00, 0x89, 0x48, 0x29, 0x10, 0x14, 0x21, 0xa9, 0x00, 0x24,
   0x8a, 0x02, 0x00, 0x00, 0x00, 0x00, 0x00, 0x13, 0x09, 0x85, 0x82, 0x20,
   0x04, 0x01, 0x88, 0x88, 0x28, 0x04, 0x00, 0x00, 0x00, 0x00, 0x80, 0x48,
   0xa0, 0x2a, 0x28, 0x82, 0x28, 0x24, 0x01, 0x22, 0x82, 0x0a, 0x00, 0x00,
   0x00, 0x00, 0x80, 0x03, 0x0a, 0x09, 0x41, 0x14, 0x81, 0x00, 0x29, 0x4a,
   0x10, 0x08, 0x00, 0x00, 0x00, 0x00, 0x00, 0xa8, 0x20, 0x2a, 0x04, 0x41,
   0x24, 0x2a, 0x00, 0x10, 0x45, 0x0d, 0x00, 0x00, 0x00, 0x00, 0x80, 0x03,
   0xa4, 0x84, 0x28, 0x88, 0x40, 0x00, 0x45, 0x52, 0x08, 0x08, 0x00, 0x00,
   0x00, 0x00, 0x80, 0x54, 0x2b, 0x15, 0x82, 0x00, 0x0a, 0x29, 0x00, 0x44,
   0x53, 0x07, 0x00, 0x00, 0x00, 0x00, 0x00, 0xdb, 0xaa, 0x50, 0x10, 0x55,
   0x20, 0x20, 0x89, 0x94, 0xd6, 0x06, 0x00, 0x00, 0x00, 0x00, 0x00, 0x00,
   0x40, 0x0a, 0x01, 0x00, 0x81, 0x04, 0x00, 0x10, 0x00, 0x00, 0x00, 0x00,
   0x00, 0x00, 0x00, 0x00, 0x40, 0x11, 0x48, 0x04, 0x08, 0x40, 0x10, 0x24,
   0x00, 0x00, 0x00, 0x00, 0x00, 0x00, 0x00, 0x00, 0x40, 0x82, 0x00, 0x10,
   0x41, 0x04, 0x80, 0x14, 0x00, 0x00, 0x00, 0x00, 0x00, 0x00, 0x00, 0x00,
   0x80, 0x15, 0x89, 0x00, 0x00, 0x00, 0x01, 0x0a, 0x00, 0x00, 0x00, 0x00,
   0x00, 0x00, 0x00, 0x00, 0x00, 0x0a, 0x00, 0x10, 0x82, 0x00, 0x80, 0x06,
   0x00, 0x00, 0x00, 0x00, 0x00, 0x00, 0x00, 0x00, 0x00, 0x28, 0x00, 0x00,
   0x04, 0x00, 0x92, 0x00, 0x00, 0x00, 0x00, 0x00, 0x00, 0x00, 0x00, 0x00,
   0x00, 0x40, 0x95, 0x00, 0x00, 0x24, 0x08, 0x00, 0x00, 0x00, 0x00, 0x00,
   0x00, 0x00, 0x00, 0x00, 0x00, 0x00, 0x10, 0xaa, 0x90, 0x44, 0x01, 0x00,
   0x00, 0x00, 0x00, 0x00, 0x00, 0x00, 0x00, 0x00, 0x00, 0x00, 0x00, 0x00,
   0x25, 0x02, 0x00, 0x00, 0x00, 0x00, 0x00, 0x00, 0x00, 0x00, 0x00, 0x00,
   0x00, 0x00, 0x00, 0x00, 0x00, 0x00, 0x00, 0x00, 0x00, 0x00, 0x00, 0x00,
   0x00, 0x00, 0x00, 0x00, 0x00, 0x00, 0x00, 0x00, 0x00, 0x00, 0x00, 0x00,
   0x00, 0x00, 0x00, 0x00, 0x00, 0x00, 0x00, 0x00, 0x00, 0x00, 0x00, 0x00,
   0x00, 0x00, 0x00, 0x00, 0x00, 0x00, 0x00, 0x00, 0x00, 0x00, 0x00, 0x00,
   0x00, 0x00, 0x00, 0x00, 0x00, 0x00, 0x00, 0x00, 0x00, 0x00, 0x00, 0x00,
   0x00, 0x00, 0x00, 0x00, 0x00, 0x00, 0x00, 0x00, 0x00, 0x00, 0x00, 0x00,
   0x00, 0x00, 0x00, 0x00, 0x00, 0x00, 0x00, 0x00, 0x00, 0x00, 0x00, 0x00,
   0x00, 0x00, 0x00, 0x00, 0x00, 0x00, 0x00, 0x00, 0x00, 0x00, 0x00, 0x00,
   0x00, 0x00, 0x00, 0x00, 0x00, 0x00, 0x00, 0x00, 0x00, 0x00, 0x00, 0x00,
   0x00, 0x00, 0x00, 0x00, 0x00, 0x00, 0x00, 0x00, 0x00, 0x00, 0x00, 0x00,
   0x00, 0x00, 0x00, 0x00, 0x00, 0x00, 0x00, 0x00, 0x00, 0x00, 0x00, 0x00,
   0x00, 0x00, 0x00, 0x00, 0x00, 0x00, 0x00, 0x00 };
