/* XPM */
static char * dbusy_xpm[] = {
"38 38 352 2",
"  	c None",
". 	c #B2BAB2",
"+ 	c #829A82",
"@ 	c #5F845E",
"# 	c #527D50",
"$ 	c #466A4A",
"% 	c #7E8272",
"& 	c #E1E1E1",
"* 	c #8A9D8F",
"= 	c #4F975F",
"- 	c #6E985E",
"; 	c #619356",
"> 	c #386038",
", 	c #1E421E",
"' 	c #122E29",
") 	c #929292",
"! 	c #E2E6E2",
"~ 	c #80B379",
"{ 	c #92C078",
"] 	c #92B67E",
"^ 	c #81AA6B",
"/ 	c #6E925E",
"( 	c #4A795A",
"_ 	c #1E4032",
": 	c #021A12",
"< 	c #8E8F93",
"[ 	c #A0ABA7",
"} 	c #72BE82",
"| 	c #9FD291",
"1 	c #AFD898",
"2 	c #9AC981",
"3 	c #719D6A",
"4 	c #525E62",
"5 	c #2F5347",
"6 	c #AFAFB1",
"7 	c #CEC8C7",
"8 	c #5E9472",
"9 	c #52AC81",
"0 	c #8ED1A1",
"a 	c #A2E6A2",
"b 	c #92C296",
"c 	c #70A07A",
"d 	c #4E8578",
"e 	c #3E7076",
"f 	c #22555F",
"g 	c #12425E",
"h 	c #021430",
"i 	c #626E7E",
"j 	c #DEDADE",
"k 	c #3E906C",
"l 	c #62BA90",
"m 	c #8ED79F",
"n 	c #B0E8B0",
"o 	c #9ED9A5",
"p 	c #6EA796",
"q 	c #12467E",
"r 	c #022951",
"s 	c #0E2E76",
"t 	c #C2C8C8",
"u 	c #7E968E",
"v 	c #61B392",
"w 	c #92DBAC",
"x 	c #A2DBA5",
"y 	c #92D0A8",
"z 	c #7EB6A2",
"A 	c #62A39E",
"B 	c #41899F",
"C 	c #316F8F",
"D 	c #205A78",
"E 	c #022260",
"F 	c #708E80",
"G 	c #328662",
"H 	c #72C799",
"I 	c #8ED1AE",
"J 	c #82BFA6",
"K 	c #6EAEAE",
"L 	c #5196A1",
"M 	c #3E819B",
"N 	c #2E6B9F",
"O 	c #1E5A9E",
"P 	c #104490",
"Q 	c #023292",
"R 	c #2E7A5F",
"S 	c #4F9E81",
"T 	c #70B8A0",
"U 	c #62AEA2",
"V 	c #2E729E",
"W 	c #2267A9",
"X 	c #1253B8",
"Y 	c #0E44AF",
"Z 	c #B2B6B5",
"` 	c #829292",
" .	c #216659",
"..	c #3A896F",
"+.	c #4E917C",
"@.	c #529A8E",
"#.	c #509291",
"$.	c #2E76AE",
"%.	c #1E5EB0",
"&.	c #022692",
"*.	c #425E90",
"=.	c #C1C0C0",
"-.	c #215751",
";.	c #327975",
">.	c #30779C",
",.	c #0E3EAE",
"'.	c #022082",
").	c #D1D1D2",
"!.	c #627672",
"~.	c #023E32",
"{.	c #225E60",
"].	c #205E72",
"^.	c #125688",
"/.	c #12509E",
"(.	c #022A2E",
"_.	c #124642",
":.	c #0E3D91",
"<.	c #324A8E",
"[.	c #9EA1A1",
"}.	c #D2D6D2",
"|.	c #02236E",
"1.	c #52567E",
"2.	c #103A4E",
"3.	c #10304C",
"4.	c #12333B",
"5.	c #6E7672",
"6.	c #6FA679",
"7.	c #426A3E",
"8.	c #2E4A2E",
"9.	c #58645E",
"0.	c #529E62",
"a.	c #80BE80",
"b.	c #88C882",
"c.	c #3E6B5D",
"d.	c #424E4E",
"e.	c #5E8E6E",
"f.	c #5EAE72",
"g.	c #9FCA8F",
"h.	c #9EBE7E",
"i.	c #427262",
"j.	c #386450",
"k.	c #0E2A40",
"l.	c #929692",
"m.	c #92D692",
"n.	c #B2E5A1",
"o.	c #BEE9AA",
"p.	c #7EB292",
"q.	c #305860",
"r.	c #1E4656",
"s.	c #22484E",
"t.	c #82CE92",
"u.	c #BEEEAE",
"v.	c #4E7A82",
"w.	c #2E6262",
"x.	c #12325E",
"y.	c #5E6870",
"z.	c #92DA9E",
"A.	c #C2F6AE",
"B.	c #B0EEBB",
"C.	c #3A7982",
"D.	c #1E4E7E",
"E.	c #BEF4B9",
"F.	c #92E2AE",
"G.	c #8EC6A0",
"H.	c #82B690",
"I.	c #4E8688",
"J.	c #326876",
"K.	c #30575F",
"L.	c #60393D",
"M.	c #952C25",
"N.	c #C63A2C",
"O.	c #DD563E",
"P.	c #D06554",
"Q.	c #AC5D5A",
"R.	c #A67C7C",
"S.	c #D0CAC9",
"T.	c #B1F3BA",
"U.	c #92D2BE",
"V.	c #5F9E98",
"W.	c #4E909E",
"X.	c #3E7678",
"Y.	c #595359",
"Z.	c #872C24",
"`.	c #BF1B02",
" +	c #D32809",
".+	c #D83E22",
"++	c #DC4F3A",
"@+	c #E06450",
"#+	c #E47968",
"$+	c #E88E7E",
"%+	c #CD8E85",
"&+	c #BDAFAE",
"*+	c #A2EEB2",
"=+	c #A2EAB2",
"-+	c #7EC2B2",
";+	c #5FAA8F",
">+	c #70B09C",
",+	c #428692",
"'+	c #555055",
")+	c #7C2118",
"!+	c #A21702",
"~+	c #C21C02",
"{+	c #D32207",
"]+	c #D52F15",
"^+	c #D73921",
"/+	c #DB4933",
"(+	c #DF5E4A",
"_+	c #E57C6C",
":+	c #EB998C",
"<+	c #D7998D",
"[+	c #BEB0AF",
"}+	c #A0E3B4",
"|+	c #529EAE",
"1+	c #52A68E",
"2+	c #4B757C",
"3+	c #67231E",
"4+	c #801201",
"5+	c #AA1802",
"6+	c #C71C02",
"7+	c #BD1E0E",
"8+	c #D22303",
"9+	c #D32206",
"0+	c #D4290E",
"a+	c #D7381F",
"b+	c #DD5540",
"c+	c #E68070",
"d+	c #ECA297",
"e+	c #D29991",
"f+	c #D0CBCA",
"g+	c #70BFA2",
"h+	c #529A9A",
"i+	c #32827E",
"j+	c #8ED6AE",
"k+	c #5E9A9E",
"l+	c #5D4346",
"m+	c #560E01",
"n+	c #861301",
"o+	c #B81A02",
"p+	c #CC2102",
"q+	c #D11E02",
"r+	c #D22202",
"s+	c #C43123",
"t+	c #DE5944",
"u+	c #E88E80",
"v+	c #EEABA1",
"w+	c #B9A19E",
"x+	c #1E5A92",
"y+	c #327E99",
"z+	c #82D0A6",
"A+	c #51201A",
"B+	c #530C01",
"C+	c #85150A",
"D+	c #C41C02",
"E+	c #D21E02",
"F+	c #BE1E0E",
"G+	c #D83C24",
"H+	c #E37361",
"I+	c #EC9F93",
"J+	c #CF988F",
"K+	c #0E4AA8",
"L+	c #81C8A5",
"M+	c #430E07",
"N+	c #520D01",
"O+	c #BBBBBB",
"P+	c #F4F4F4",
"Q+	c #FEFEFE",
"R+	c #E99183",
"S+	c #DF9A91",
"T+	c #7EBF9C",
"U+	c #380801",
"V+	c #4B0B01",
"W+	c #BABABA",
"X+	c #F6F6F6",
"Y+	c #E68374",
"Z+	c #EB978A",
"`+	c #51A381",
" @	c #61AE8F",
".@	c #3C0A01",
"+@	c #AAAAAA",
"@@	c #EEEEEE",
"#@	c #FDFDFD",
"$@	c #D2867C",
"%@	c #023682",
"&@	c #3E8A62",
"*@	c #429478",
"=@	c #6EB792",
"-@	c #5FA490",
";@	c #360801",
">@	c #721301",
",@	c #B51D02",
"'@	c #CE2102",
")@	c #D52F11",
"!@	c #DC533A",
"~@	c #E2715C",
"{@	c #C48074",
"]@	c #1E52AE",
"^@	c #526E92",
"/@	c #41878E",
"(@	c #4E3A46",
"_@	c #4A0B01",
":@	c #931501",
"<@	c #CE1D02",
"[@	c #D21F03",
"}@	c #D63219",
"|@	c #DB4D37",
"1@	c #DF624B",
"2@	c #AE928F",
"3@	c #4E9A7E",
"4@	c #60A47A",
"5@	c #3A6389",
"6@	c #4D1915",
"7@	c #5E0D01",
"8@	c #981601",
"9@	c #CF1E02",
"0@	c #D52E14",
"a@	c #D83D25",
"b@	c #BA695B",
"c@	c #CFC9C8",
"d@	c #428E8E",
"e@	c #408088",
"f@	c #424565",
"g@	c #48130E",
"h@	c #300804",
"i@	c #5B0D01",
"j@	c #851301",
"k@	c #91170B",
"l@	c #B01902",
"m@	c #AB1B0D",
"n@	c #B44435",
"o@	c #B3A3A2",
"p@	c #92A29A",
"q@	c #3E768E",
"r@	c #42425C",
"s@	c #4E1B17",
"t@	c #360901",
"u@	c #490C01",
"v@	c #651001",
"w@	c #7C1401",
"x@	c #8C1701",
"y@	c #981901",
"z@	c #A61B02",
"A@	c #A0493A",
"B@	c #B09F9E",
"C@	c #B5B4B4",
"D@	c #735C5A",
"E@	c #592921",
"F@	c #4A130D",
"G@	c #590C01",
"H@	c #661A11",
"I@	c #81403A",
"J@	c #9B7B74",
"K@	c #CECECF",
"                                                                            ",
"                            . + @ # $ $ % .                                 ",
"                        & * = - - ; # > , ' ) &                             ",
"                      ! * = ~ { ] ^ / ( > _ : < !                           ",
"                      [ = } | 1 2 ] 3 @ 4 5 ' : 6                           ",
"                    7 8 9 0 a 1 1 b c d e f g h i j                         ",
"                    [ k l m n n o b p d e f q r s t                         ",
"                    u k v w x x y z A B C D q s E 6                         ",
"                  & F G v H I I J K L M N O P Q E 6                         ",
"                  ! F R S v T T U L B V W X Y Q s Z                         ",
"                    `  ...+.L @.#.B $.W %.X Y &.*.=.                        ",
"                    6 -. .;.R >.;.C W %.X X ,.'.< ).                        ",
"                    & !.~.-.{.{.].D ^./.Y Y '.*.Z &                         ",
"                      =.5 (._._.g q q P :.'.<.[.}.                          ",
"                        Z 4 (.r r r r |.'.1.[.).!                           ",
"                          * 5 _ 2.3.3.3.4.5.=.!                             ",
"                      j * 3 6.3 ; # ( 7.> 8.9.6                             ",
"                    ).F 0.a.b.2 { ^ - # c.5 4.d.< ).                        ",
"                  * e.f.b.| 1 g.h.^ - e.i.j.-.' k.9.l.                      ",
"              t F ^ a.a.m.n.o.1 h.p.- 8 # c.q.r.k.k.s.5.j                   ",
"            6 c b.n m.t.a u.o.n.2 a.c 8 v.i.w.s.2.k.g x.y.}.                ",
"          6 6.z.A.o.t.m B.A.u.1 g.p.c e.d C.w.D r.k.x.D.3.y.j               ",
"          f.o A.E.w H F.B.A.E.1 G.H.A e.I.C.J.K.L.M.N.O.P.Q.R.S.            ",
"          m T.B.U.v H w T.u.n 1 G.p.V.W.I.X.Y.Z.`. +.+++@+#+$+%+&+          ",
"          *+=+-+U ;+H w T.B.n o b >+V.#.,+'+)+!+~+{+]+^+/+(+_+:+<+[+        ",
"          }+-+|+B 1+H F.}+n o 0 z p V.#.2+3+4+5+6+7+8+9+0+a+b+c+d+e+f+      ",
"          g+h+N i+9 H j+}+}+o G.z A k+W.l+m+n+o+p+q+r+r+8+{+s+t+u+v+w+!     ",
"          h+N x+y+9 g+z+j+j+y J >+A L ,+A+B+C+D+q+E+F+E+E+r+{+G+H+I+J+j     ",
"          >.K+^...9 l L+I 0 L+T p V.W.B M+N+O+P+Q+Q+Q+Q+Q+Q+Q+Q+Q+R+S+}.    ",
"          O P ].k S v g+L+L+T+>+A L W.B U+V+W+X+Q+Q+Q+Q+Q+Q+Q+Q+Q+Y+Z+).    ",
"          P P  .k `+ @g+T+T+T A A W.B M M+.@+@@@#@Q+Q+Q+Q+Q+Q+Q+Q+#+$@}.    ",
"          Y %@ .&@*@9  @=@=@>+-@L W.B y+A+;@>@,@'@r+r+r+r+r+8+)@!@~@{@j     ",
"          ]@^@c.R k S -@ @-@-@#.W./@M >.(@;@_@:@`.<@q+E+E+[@{+}@|@1@2@!     ",
"          7 }.[.R G 3@4@-@-@`++./@M y+>.5@6@;@7@8@o+6+9@q+E+9+0@a@b@c@      ",
"                [ d k 3@S 3@+.d@/@e@>.N N f@g@h@i@j@k@l@o+m@~+<@n@o@        ",
"                  ).p@e.+.+.I.e@X.q@C V N N r@s@t@u@v@w@x@y@z@A@B@&         ",
"                      & ).).).).).).).).).).).C@D@E@F@G@H@I@J@K@            ",
"                                                                            "};
