/* XPM */
static char * dphone_xpm[] = {
"38 38 444 2",
"  	c None",
". 	c #B2B7B6",
"+ 	c #819A8A",
"@ 	c #5E8A6B",
"# 	c #51794F",
"$ 	c #416B48",
"% 	c #506456",
"& 	c #7E8272",
"* 	c #92A29A",
"= 	c #4F9565",
"- 	c #5E9652",
"; 	c #6E9762",
"> 	c #629258",
", 	c #517F56",
"' 	c #3E6232",
") 	c #1E412B",
"! 	c #122E1E",
"~ 	c #8F9095",
"{ 	c #78BC80",
"] 	c #92BE76",
"^ 	c #729E6B",
"/ 	c #3E624E",
"( 	c #021A12",
"_ 	c #A0ABA8",
": 	c #509C62",
"< 	c #A2CE8E",
"[ 	c #AED899",
"} 	c #9FC989",
"| 	c #92B67E",
"1 	c #5E825A",
"2 	c #2F5347",
"3 	c #0F2B44",
"4 	c #02162E",
"5 	c #B2B2B2",
"6 	c #CECCCF",
"7 	c #52AE80",
"8 	c #90CA82",
"9 	c #A2E6A2",
"0 	c #B2DB9B",
"a 	c #72A47E",
"b 	c #508672",
"c 	c #3F6F65",
"d 	c #225359",
"e 	c #204753",
"f 	c #021232",
"g 	c #62707E",
"h 	c #3E8C69",
"i 	c #62BA90",
"j 	c #90D9A0",
"k 	c #AEE7B1",
"l 	c #B5E5A0",
"m 	c #A1DDA4",
"n 	c #8FC19A",
"o 	c #6EA686",
"p 	c #4E8C7E",
"q 	c #3E6E7E",
"r 	c #205778",
"s 	c #12496A",
"t 	c #022846",
"u 	c #102E5E",
"v 	c #C2C8C8",
"w 	c #3F926F",
"x 	c #91D9AE",
"y 	c #A0E2B2",
"z 	c #8FD1AE",
"A 	c #7EB6A2",
"B 	c #5E9D9E",
"C 	c #428692",
"D 	c #326E92",
"E 	c #11438D",
"F 	c #02236E",
"G 	c #AEAEB0",
"H 	c #6E8E7E",
"I 	c #328A6E",
"J 	c #5EB090",
"K 	c #7EC6A7",
"L 	c #82BFA6",
"M 	c #6EAEAE",
"N 	c #4E939F",
"O 	c #42829E",
"P 	c #2E689F",
"Q 	c #1E589F",
"R 	c #022D75",
"S 	c #728A82",
"T 	c #2E7A5F",
"U 	c #509C84",
"V 	c #72BCA8",
"W 	c #6EB599",
"X 	c #62ACA8",
"Y 	c #529BA3",
"Z 	c #41899F",
"` 	c #3077A4",
" .	c #1E68C0",
"..	c #1458B2",
"+.	c #0E48AC",
"@.	c #022A92",
"#.	c #0E307E",
"$.	c #7E8A9E",
"%.	c #216656",
"&.	c #38866A",
"*.	c #529A92",
"=.	c #4E9291",
"-.	c #2269AF",
";.	c #1E61B3",
">.	c #1151B8",
",.	c #022692",
"'.	c #425E8E",
").	c #C0C0C0",
"!.	c #215B56",
"~.	c #327975",
"{.	c #31789C",
"].	c #316F8C",
"^.	c #22689C",
"/.	c #0E42AE",
"(.	c #022186",
"_.	c #023E32",
":.	c #21606C",
"<.	c #12558B",
"[.	c #1150A4",
"}.	c #0E3EAE",
"|.	c #425E92",
"1.	c #022A2E",
"2.	c #124642",
"3.	c #12425E",
"4.	c #11457B",
"5.	c #0E3D91",
"6.	c #2F4783",
"7.	c #9EA1A1",
"8.	c #D2D6D2",
"9.	c #022A58",
"0.	c #022460",
"a.	c #526282",
"b.	c #909A95",
"c.	c #2E4A2E",
"d.	c #103A4E",
"e.	c #12324E",
"f.	c #122E2E",
"g.	c #687672",
"h.	c #6EA078",
"i.	c #68A670",
"j.	c #325E3E",
"k.	c #5E666E",
"l.	c #AEB2B2",
"m.	c #729282",
"n.	c #81AA6B",
"o.	c #12333B",
"p.	c #424E4E",
"q.	c #D2D2D2",
"r.	c #5EAE72",
"s.	c #82C682",
"t.	c #9ED492",
"u.	c #9EBE7E",
"v.	c #42765E",
"w.	c #326652",
"x.	c #112C1D",
"y.	c #233C53",
"z.	c #4B5B4F",
"A.	c #939B97",
"B.	c #CECDCD",
"C.	c #C3C3C3",
"D.	c #7FB276",
"E.	c #82C282",
"F.	c #4E8278",
"G.	c #446D4B",
"H.	c #3E5E54",
"I.	c #1A323A",
"J.	c #212834",
"K.	c #2C3136",
"L.	c #3C3E3F",
"M.	c #8A6272",
"N.	c #826871",
"O.	c #676767",
"P.	c #979797",
"Q.	c #B2EBB7",
"R.	c #92D692",
"S.	c #82CE92",
"T.	c #C2F6AE",
"U.	c #81B58D",
"V.	c #4C7F75",
"W.	c #33534D",
"X.	c #2A3A3A",
"Y.	c #451A29",
"Z.	c #762540",
"`.	c #652F42",
" +	c #A53A5F",
".+	c #AF476B",
"++	c #B95879",
"@+	c #AC5E78",
"#+	c #946C7A",
"$+	c #898083",
"%+	c #A3A3A3",
"&+	c #B2F4B8",
"*+	c #BEECAF",
"=+	c #7EBD9F",
"-+	c #5E9280",
";+	c #375852",
">+	c #182122",
",+	c #371B25",
"'+	c #771B3A",
")+	c #A3214D",
"!+	c #A62852",
"~+	c #A72B55",
"{+	c #B0476C",
"]+	c #C57996",
"^+	c #CB849F",
"/+	c #BE6584",
"(+	c #B46982",
"_+	c #919191",
":+	c #92E2AE",
"<+	c #BEF4B9",
"[+	c #72C69A",
"}+	c #8FC69F",
"|+	c #6EA28E",
"1+	c #436659",
"2+	c #392730",
"3+	c #5E162F",
"4+	c #931A43",
"5+	c #9D1B47",
"6+	c #A11C49",
"7+	c #A11D4A",
"8+	c #BB6081",
"9+	c #E4CBD6",
"0+	c #D3B3C1",
"a+	c #BE7490",
"b+	c #B04C6E",
"c+	c #9A6677",
"d+	c #968D90",
"e+	c #BFBFBF",
"f+	c #AEEEB8",
"g+	c #92D2BE",
"h+	c #9FD6A6",
"i+	c #1D2C2F",
"j+	c #51172B",
"k+	c #87183E",
"l+	c #991B45",
"m+	c #9E1C48",
"n+	c #A01C49",
"o+	c #A82F58",
"p+	c #C8829D",
"q+	c #ECE7EB",
"r+	c #CBBDC4",
"s+	c #DFC2CF",
"t+	c #AB3B61",
"u+	c #B14368",
"v+	c #8B6B76",
"w+	c #A0A0A0",
"x+	c #A2EAB6",
"y+	c #5EA890",
"z+	c #AEF2BE",
"A+	c #467466",
"B+	c #171013",
"C+	c #751435",
"D+	c #911942",
"E+	c #9E1B48",
"F+	c #A52D57",
"G+	c #B67691",
"H+	c #CEC2CA",
"I+	c #DAD3D8",
"J+	c #E2CAD4",
"K+	c #AA476B",
"L+	c #A72A54",
"M+	c #AC5170",
"N+	c #818181",
"O+	c #52A885",
"P+	c #8FD0A1",
"Q+	c #263C35",
"R+	c #31101B",
"S+	c #7C1638",
"T+	c #981A45",
"U+	c #9F1C49",
"V+	c #7F1D47",
"W+	c #96617A",
"X+	c #E5DEE3",
"Y+	c #D8C4CF",
"Z+	c #AA4A6E",
"`+	c #A1204C",
" @	c #B04066",
".@	c #8F707A",
"+@	c #ABABAB",
"@@	c #2E6EA6",
"#@	c #327E9B",
"$@	c #62A199",
"%@	c #162020",
"&@	c #481125",
"*@	c #82173B",
"=@	c #A2234F",
"-@	c #B16381",
";@	c #F3F3F4",
">@	c #D2BFCA",
",@	c #911E4B",
"'@	c #AE3A61",
")@	c #A3697D",
"!@	c #9C9799",
"~@	c #32827E",
"{@	c #6EBC9C",
"]@	c #82CDA8",
"^@	c #669D96",
"/@	c #1D0F14",
"(@	c #84173C",
"_@	c #A62C56",
":@	c #D5A2B5",
"<@	c #B9889E",
"[@	c #8F1C49",
"}@	c #AD3860",
"|@	c #B46881",
"1@	c #8D8D8D",
"2@	c #82C6A2",
"3@	c #6BA69F",
"4@	c #161D1E",
"5@	c #340E1B",
"6@	c #A21E4A",
"7@	c #A21F4B",
"8@	c #AC3A63",
"9@	c #F2EAEC",
"0@	c #E2D9DE",
"a@	c #924465",
"b@	c #971C48",
"c@	c #A6687D",
"d@	c #9A9898",
"e@	c #50A280",
"f@	c #5198A0",
"g@	c #161F22",
"h@	c #140D10",
"i@	c #711534",
"j@	c #B65175",
"k@	c #BD6988",
"l@	c #B86080",
"m@	c #CF95AA",
"n@	c #EBE8EA",
"o@	c #C2A3B2",
"p@	c #821D46",
"q@	c #BF6786",
"r@	c #9F9296",
"s@	c #104A92",
"t@	c #7EC296",
"u@	c #62AA9A",
"v@	c #5496A2",
"w@	c #263D45",
"x@	c #180A0F",
"y@	c #681230",
"z@	c #8F1941",
"A@	c #A11E4A",
"B@	c #CF96AD",
"C@	c #D1B2C0",
"D@	c #E1CFD8",
"E@	c #F1EBEC",
"F@	c #D1C6CB",
"G@	c #9E5B78",
"H@	c #911C48",
"I@	c #A8637A",
"J@	c #023488",
"K@	c #48947E",
"L@	c #72B29F",
"M@	c #529396",
"N@	c #4E8C9A",
"O@	c #295562",
"P@	c #110E11",
"Q@	c #450F22",
"R@	c #961A44",
"S@	c #AF4A6D",
"T@	c #D1AABB",
"U@	c #D4C6CD",
"V@	c #E5E0E4",
"W@	c #ECE9EA",
"X@	c #997988",
"Y@	c #88224A",
"Z@	c #9D1C49",
"`@	c #A2204C",
" #	c #AC3961",
".#	c #84606C",
"+#	c #BDBDBD",
"@#	c #1E52AE",
"##	c #526E92",
"$#	c #62AC8E",
"%#	c #41809A",
"&#	c #20333F",
"*#	c #280E19",
"=#	c #5F112C",
"-#	c #83173B",
";#	c #A75172",
">#	c #B694A4",
",#	c #BEABB5",
"'#	c #C1B2BA",
")#	c #9B7787",
"!#	c #7F3051",
"~#	c #951C4A",
"{#	c #97244B",
"]#	c #6D394B",
"^#	c #6B6969",
"/#	c #5EA18D",
"(#	c #41898E",
"_#	c #3E809A",
":#	c #2C5D7D",
"<#	c #0E1720",
"[#	c #140B0E",
"}#	c #421121",
"|#	c #791639",
"1#	c #753454",
"2#	c #874D67",
"3#	c #622942",
"4#	c #7F2549",
"5#	c #931C47",
"6#	c #9E1C49",
"7#	c #931C44",
"8#	c #632037",
"9#	c #606060",
"0#	c #4E9282",
"a#	c #3C668A",
"b#	c #13212B",
"c#	c #1E0F17",
"d#	c #561028",
"e#	c #681433",
"f#	c #72163B",
"g#	c #7E1940",
"h#	c #8B1941",
"i#	c #8F1A42",
"j#	c #8D1A40",
"k#	c #5A1A2F",
"l#	c #23191D",
"m#	c #403B3D",
"n#	c #C5C6C6",
"o#	c #629282",
"p#	c #428282",
"q#	c #3A7982",
"r#	c #3E7678",
"s#	c #224B72",
"t#	c #11212F",
"u#	c #0D0C0D",
"v#	c #270E17",
"w#	c #4B1326",
"x#	c #5E142D",
"y#	c #531429",
"z#	c #431726",
"A#	c #23151B",
"B#	c #2F2F2F",
"C#	c #525252",
"D#	c #BEBEBE",
"E#	c #545654",
"F#	c #2F2E2F",
"G#	c #3A2F32",
"H#	c #353233",
"I#	c #353635",
"J#	c #747474",
"K#	c #ACACAC",
"                                                                            ",
"                            . + @ # $ % & .                                 ",
"                          * = - ; > , ' ) ! ~                               ",
"                        + = { ] ] ^ ; # / ) ( ~                             ",
"                      _ : { < [ } | ^ 1 / 2 3 4 5                           ",
"                    6 - 7 8 9 0 [ ] a b c d e f g                           ",
"                    _ h i j k l m n o p q r s t u v                         ",
"                    + w i x y m z A B C D r E u F G                         ",
"                    H I J K z z L M N O P Q E R F G                         ",
"                    S T U J V W X Y Z `  ...+.@.#..                         ",
"                    $.%.&.p *.*.=.Z ` -.;.>.+.,.'.).                        ",
"                      !.%.~.~.~.{.].^.;...>./.(.~ 6                         ",
"                        _.d !.:.:.r <.[.+.}.(.|..                           ",
"                      ).2 1.2.2.3.4.4.5.5.(.6.7.8.                          ",
"                        . % 1.t 9.9.0.F (.a.7.6                             ",
"                          b.c.) d.3 e.e.f.g.).                              ",
"                        b.h.i.^ > 1 # ' j.c.k.l.                            ",
"                    6 m.: { 8 } ] n.; , $ 2 o.p.~ q.                        ",
"                  * @ r.s.t.[ < u.n.; @ v.w.d x.y.z.A.B.C.                  ",
"              v H D.{ E.j l l [ } D.h.> F.G.H.I.J.K.L.M.N.O.P.              ",
"            l.h.8 Q.R.S.9 T.l 0 } U.h.@ V.W.X.Y.Z.`. +.+++@+#+$+%+          ",
"          l.o R.T.l S.j &+*+*+0 } =+h.-+;+>+,+'+)+!+~+{+]+^+/+(+_+q.        ",
"          i.:+T.<+x [+j &+T.<+[ }+U.|+1+2+3+4+5+6+7+7+8+9+0+a+b+c+d+e+      ",
"          R.&+f+g+W [+:+f+<+l h+n U.B i+j+k+l+m+n+6+o+p+q+r+s+t+u+v+w+      ",
"          x+x+K X y+[+:+f+z+k m n M A+B+C+D+E+n+6+6+F+G+H+I+J+K+L+M+N+      ",
"          y V Y Z O+[+:+y k m P+A o Q+R+S+T+n+6+6+6+U+V+W+X+Y+Z+`+ @.@+@    ",
"          V Y @@#@O+[+x y m h+}+=+$@%@&@*@5+6+6+6+6+6+=@-@;@>@,@n+'@)@!@    ",
"          Y @@Q ~@7 {@]@g+x P+L M ^@>+/@(@E+6+6+6+6+6+_@:@q+<@[@6+}@|@1@    ",
"          ` [.<.I O+i ]@z P+2@V o 3@4@5@*@5+6+6+6@6+7@8@9@0@a@b@6+}@c@d@    ",
"          Q 5.:.h e@i {@]@K =+M $@f@g@h@i@l+6+6+j@k@l@m@n@o@p@6+6+}@q@r@    ",
"          s@E %.w U J {@=+t@W u@B v@w@x@y@z@m+A@B@C@D@E@F@G@H@6+7+}@I@P.    ",
"          /.J@%.&.K@O+J {@W L@B M@N@O@P@Q@S+R@S@T@U@V@W@X@Y@Z@7+`@ #.#+#    ",
"          @###c T w e@y+$#y+y+*.N@C %#&#*#=#-#;#>#,#'#)#!#~#7+7@{#]#^#      ",
"          6 8.7.T I = /#y+/#e@=.(#_##@:#<#[#}#|#1#2#3#4#5#6#n+7#8#9#+@      ",
"                _ b h U U 0#p K@C _#{.@@a#b#c#d#e#f#g#h#i#j#k#l#m#n#        ",
"                  6 * o#= 0#p p#q#r#].].P s#t#u#v#w#x#y#z#A#B#C#D#          ",
"                        8.6 6 6 6 q.q.q.6 6 6 %+E#F#G#H#I#J#K#              ",
"                                                                            "};
