#define blue_width 128
#define blue_height 128
static unsigned char blue_bits[] = {
   0x00, 0x00, 0x00, 0x00, 0x00, 0x00, 0x00, 0x00, 0x00, 0x00, 0x00, 0x00,
   0x00, 0x00, 0x00, 0x00, 0x00, 0x00, 0x00, 0x00, 0x00, 0x00, 0x00, 0x00,
   0x00, 0x00, 0x00, 0x00, 0x00, 0x00, 0x00, 0x00, 0x00, 0x00, 0x00, 0x00,
   0x00, 0x00, 0x00, 0x00, 0x00, 0x00, 0x00, 0x00, 0x00, 0x00, 0x00, 0x00,
   0x00, 0x00, 0x00, 0x00, 0x00, 0x00, 0x00, 0x00, 0x00, 0x00, 0x00, 0x00,
   0x00, 0x00, 0x00, 0x00, 0x00, 0x00, 0x00, 0x00, 0x00, 0x00, 0x00, 0x00,
   0x00, 0x00, 0x00, 0x00, 0x00, 0x00, 0x00, 0x00, 0x00, 0x00, 0x00, 0x00,
   0x00, 0x00, 0x00, 0xc0, 0x01, 0x00, 0x00, 0x00, 0x00, 0x00, 0x00, 0x00,
   0x00, 0x00, 0x00, 0x00, 0x00, 0x00, 0x00, 0xff, 0x7f, 0x00, 0x00, 0x00,
   0x00, 0x00, 0x00, 0x00, 0x00, 0x00, 0x00, 0x00, 0x00, 0x00, 0xe0, 0x57,
   0xfd, 0x03, 0x00, 0x00, 0x00, 0x00, 0x00, 0x00, 0x00, 0x00, 0x00, 0x00,
   0x00, 0x00, 0xf8, 0x00, 0xa0, 0x0f, 0x00, 0x00, 0x00, 0x00, 0x00, 0x00,
   0x00, 0x00, 0x00, 0x00, 0x00, 0x00, 0xbc, 0x00, 0x00, 0x1f, 0x00, 0x00,
   0x00, 0x00, 0x00, 0x00, 0x00, 0x00, 0x00, 0x00, 0x00, 0x00, 0x3f, 0x00,
   0x00, 0x7e, 0x00, 0x00, 0x00, 0x00, 0x00, 0x00, 0x00, 0x00, 0x00, 0x00,
   0x00, 0x80, 0x0f, 0x00, 0x00, 0xf8, 0x00, 0x00, 0x00, 0x00, 0x00, 0x00,
   0x00, 0x00, 0x00, 0x00, 0x00, 0xc0, 0x07, 0x00, 0x00, 0xf0, 0x01, 0x00,
   0x00, 0x00, 0x00, 0x00, 0x00, 0x00, 0x00, 0x00, 0x00, 0xe0, 0x07, 0x00,
   0x00, 0xe0, 0x03, 0x00, 0x00, 0x00, 0x00, 0x00, 0x00, 0x00, 0x00, 0x00,
   0x00, 0xf0, 0x03, 0x00, 0x00, 0xe0, 0x07, 0x00, 0x00, 0x00, 0x00, 0x00,
   0x00, 0x00, 0x00, 0x00, 0x00, 0xf8, 0x01, 0x00, 0x00, 0xc0, 0x07, 0x00,
   0x00, 0x00, 0x00, 0x00, 0x00, 0x00, 0x00, 0x00, 0x00, 0xf8, 0x01, 0x00,
   0x00, 0xc0, 0x0f, 0x00, 0x00, 0x00, 0x00, 0x00, 0x00, 0x00, 0x00, 0x00,
   0x00, 0xfc, 0x00, 0x00, 0x00, 0x80, 0x1f, 0x00, 0x00, 0x00, 0x00, 0x00,
   0x00, 0x00, 0x00, 0x00, 0x00, 0x7c, 0x00, 0x00, 0x00, 0xc0, 0x1f, 0x00,
   0x00, 0x00, 0x00, 0x00, 0x00, 0x00, 0x00, 0x00, 0x00, 0xfe, 0x00, 0x00,
   0x00, 0x80, 0x3f, 0x00, 0x00, 0x00, 0x00, 0x00, 0x00, 0x00, 0x00, 0x00,
   0x00, 0x7f, 0x00, 0x00, 0x00, 0x80, 0x3f, 0x00, 0x00, 0x00, 0x00, 0x00,
   0x00, 0x00, 0x00, 0x00, 0x00, 0x7f, 0x00, 0x00, 0x00, 0x80, 0x7f, 0x00,
   0x00, 0x00, 0x00, 0x00, 0x00, 0x00, 0x00, 0x00, 0x00, 0x3f, 0x00, 0x00,
   0x00, 0x40, 0x7f, 0x00, 0x00, 0x00, 0x00, 0x00, 0x00, 0x00, 0x00, 0x00,
   0x80, 0x7f, 0x00, 0x00, 0x00, 0x80, 0x7f, 0x00, 0x00, 0x00, 0x00, 0x00,
   0x00, 0x00, 0x00, 0x00, 0x80, 0x9f, 0x00, 0x00, 0x00, 0x80, 0xff, 0x00,
   0x00, 0x00, 0x00, 0x00, 0x00, 0x00, 0x00, 0x00, 0x80, 0x3f, 0x00, 0x00,
   0x00, 0x20, 0xff, 0x00, 0x00, 0x00, 0x00, 0x00, 0x00, 0x00, 0x00, 0x00,
   0x80, 0x5f, 0x00, 0x00, 0x00, 0x80, 0xff, 0x00, 0x00, 0x00, 0x00, 0x00,
   0x00, 0x00, 0x00, 0x00, 0x80, 0x5f, 0x00, 0x00, 0x00, 0x40, 0xff, 0x00,
   0x00, 0x00, 0x00, 0x00, 0x00, 0x00, 0x00, 0x00, 0x80, 0xbf, 0x00, 0x00,
   0x00, 0x40, 0xff, 0x00, 0x00, 0x00, 0x00, 0x00, 0x00, 0x00, 0x00, 0x00,
   0x80, 0x3f, 0x00, 0x00, 0x00, 0xa0, 0xff, 0x00, 0x00, 0x00, 0x00, 0x00,
   0x00, 0x00, 0x00, 0x00, 0x80, 0xaf, 0x00, 0x00, 0x00, 0x40, 0xff, 0x00,
   0x00, 0x00, 0x00, 0x00, 0x00, 0x00, 0x00, 0x00, 0x80, 0x3f, 0x00, 0x00,
   0x00, 0x80, 0xff, 0x00, 0x00, 0x00, 0x00, 0x00, 0x00, 0x00, 0x00, 0x00,
   0x80, 0xaf, 0x00, 0x00, 0x00, 0xa0, 0xfe, 0x00, 0x00, 0x00, 0x00, 0x00,
   0x00, 0x00, 0x00, 0x00, 0x80, 0x2f, 0x00, 0x00, 0x00, 0x80, 0xff, 0x00,
   0x00, 0x00, 0x00, 0x00, 0x00, 0x00, 0x00, 0x00, 0x80, 0x5f, 0x00, 0x00,
   0x00, 0xa0, 0xfe, 0x00, 0x00, 0x00, 0x00, 0x00, 0x00, 0x00, 0x00, 0x00,
   0x80, 0x57, 0x00, 0x00, 0x00, 0x80, 0xfe, 0x00, 0x00, 0x00, 0x00, 0x00,
   0x00, 0x00, 0x00, 0x00, 0x80, 0x17, 0x00, 0x00, 0x00, 0x20, 0x7d, 0x00,
   0x00, 0x00, 0x00, 0x00, 0x00, 0x00, 0x00, 0x00, 0x00, 0x57, 0x00, 0x00,
   0x00, 0x40, 0x7a, 0x00, 0x00, 0x00, 0x00, 0x00, 0x00, 0x00, 0x00, 0x00,
   0x00, 0x07, 0x00, 0x00, 0x00, 0x80, 0x7c, 0x00, 0x00, 0x00, 0x00, 0x00,
   0x00, 0x00, 0x00, 0x00, 0x00, 0x2f, 0x00, 0x00, 0x00, 0x10, 0x38, 0x00,
   0x00, 0x00, 0x00, 0x00, 0x00, 0x00, 0x00, 0x00, 0x00, 0x06, 0x00, 0x00,
   0x00, 0x40, 0x34, 0x00, 0x00, 0x00, 0x00, 0x00, 0x00, 0x00, 0x00, 0x00,
   0x00, 0x0e, 0x00, 0x00, 0x00, 0x00, 0x18, 0x00, 0x00, 0x00, 0x00, 0x00,
   0x00, 0x00, 0x00, 0x00, 0x00, 0x0c, 0x00, 0x00, 0x00, 0x00, 0x1c, 0x00,
   0x00, 0x00, 0x00, 0x00, 0x00, 0x00, 0x00, 0x00, 0x00, 0x1c, 0x00, 0x00,
   0x00, 0x00, 0x0c, 0x00, 0x00, 0x00, 0x00, 0x00, 0x00, 0x00, 0x00, 0x00,
   0x00, 0x08, 0x00, 0x00, 0x00, 0x00, 0x0e, 0x00, 0x00, 0x00, 0x00, 0x00,
   0x00, 0x00, 0x00, 0x00, 0x00, 0x10, 0x00, 0x00, 0x00, 0x00, 0x07, 0x00,
   0x00, 0x00, 0x00, 0x00, 0x00, 0x00, 0x00, 0x00, 0x00, 0x20, 0x00, 0x00,
   0x00, 0x80, 0x03, 0x00, 0x00, 0x00, 0x00, 0x00, 0x00, 0x00, 0x00, 0x00,
   0x00, 0x40, 0x00, 0x00, 0x00, 0xc0, 0x01, 0x00, 0x00, 0x00, 0x00, 0x00,
   0x00, 0x00, 0x00, 0x00, 0x00, 0x80, 0x00, 0x00, 0x00, 0xe0, 0x00, 0x00,
   0x00, 0x00, 0x00, 0x00, 0x00, 0x00, 0x00, 0x00, 0x00, 0x00, 0x01, 0x00,
   0x00, 0x70, 0x00, 0x00, 0x00, 0x00, 0x00, 0x00, 0x00, 0x00, 0x00, 0x00,
   0x00, 0xc0, 0x07, 0x00, 0x00, 0xf8, 0x00, 0x00, 0x00, 0x00, 0x00, 0x00,
   0x00, 0x00, 0x00, 0x00, 0x00, 0xf0, 0x3f, 0x00, 0x00, 0xff, 0x07, 0x00,
   0x00, 0x00, 0x00, 0x00, 0x00, 0x00, 0x00, 0x00, 0x00, 0xec, 0xe3, 0x00,
   0xc0, 0xf3, 0x1f, 0x00, 0x00, 0x00, 0x00, 0x00, 0x00, 0x00, 0x00, 0x00,
   0x00, 0xf3, 0x81, 0x57, 0x7d, 0xe0, 0x73, 0x00, 0x00, 0x00, 0x00, 0x00,
   0x00, 0x00, 0x00, 0x00, 0xc0, 0xf8, 0x01, 0xf8, 0x07, 0xc0, 0xc7, 0x01,
   0x00, 0x00, 0x00, 0x00, 0x00, 0x00, 0x00, 0x00, 0x30, 0x7c, 0x00, 0x00,
   0x00, 0x80, 0x0f, 0x03, 0x00, 0x00, 0x00, 0x00, 0x00, 0x00, 0x00, 0x00,
   0x18, 0xfc, 0x00, 0x00, 0x00, 0x80, 0x1f, 0x0c, 0x00, 0x00, 0x00, 0x00,
   0x00, 0x00, 0x00, 0x00, 0x06, 0x3e, 0x00, 0x00, 0x00, 0x00, 0x1e, 0x18,
   0x00, 0x00, 0x00, 0x00, 0x00, 0x00, 0x00, 0x00, 0x03, 0x5f, 0x00, 0x00,
   0x00, 0x00, 0x3f, 0x60, 0x00, 0x00, 0x00, 0x00, 0x00, 0x00, 0x00, 0x80,
   0x80, 0x1f, 0x00, 0x00, 0x00, 0x00, 0x78, 0xc0, 0x00, 0x00, 0x00, 0x00,
   0x00, 0x00, 0x00, 0xe0, 0xc0, 0x17, 0x00, 0x00, 0x00, 0x00, 0xf6, 0x80,
   0x01, 0x00, 0x00, 0x00, 0x00, 0x00, 0x00, 0x30, 0xe0, 0x0f, 0x00, 0x00,
   0x00, 0x00, 0xe8, 0x00, 0x03, 0x00, 0x00, 0x00, 0x00, 0x00, 0x00, 0x18,
   0xe0, 0x13, 0x00, 0x00, 0x00, 0x00, 0xd4, 0x01, 0x04, 0x00, 0x00, 0x00,
   0x00, 0x00, 0x00, 0x0c, 0xf0, 0x05, 0x00, 0x00, 0x00, 0x00, 0xd0, 0x03,
   0x0c, 0x00, 0x00, 0x00, 0x00, 0x00, 0x00, 0x06, 0xf8, 0x05, 0x00, 0x00,
   0x00, 0x00, 0xa8, 0x07, 0x18, 0x00, 0x00, 0x00, 0x00, 0x00, 0x00, 0x03,
   0x7c, 0x01, 0x00, 0x00, 0x00, 0x00, 0xa0, 0x07, 0x30, 0x00, 0x00, 0x00,
   0x00, 0x00, 0x00, 0x01, 0xfc, 0x02, 0x00, 0x00, 0x00, 0x00, 0x50, 0x0f,
   0x60, 0x00, 0x00, 0x00, 0x00, 0x00, 0x80, 0x00, 0xbe, 0x00, 0x00, 0x00,
   0x00, 0x00, 0x40, 0x1f, 0xc0, 0x00, 0x00, 0x00, 0x00, 0x00, 0xc0, 0x00,
   0x7e, 0x01, 0x00, 0x00, 0x00, 0x00, 0x90, 0x3e, 0x80, 0x01, 0x00, 0x00,
   0x00, 0x00, 0x60, 0x80, 0x5f, 0x01, 0x00, 0x00, 0x00, 0x00, 0x20, 0x3d,
   0x80, 0x01, 0x00, 0x00, 0x00, 0x00, 0x20, 0x80, 0x5f, 0x00, 0x00, 0x00,
   0x00, 0x00, 0x40, 0x7b, 0x00, 0x03, 0x00, 0x00, 0x00, 0x00, 0x10, 0xc0,
   0x5f, 0x01, 0x00, 0x00, 0x00, 0x00, 0x00, 0x7d, 0x00, 0x06, 0x00, 0x00,
   0x00, 0x00, 0x18, 0xc0, 0x17, 0x00, 0x00, 0x00, 0x00, 0x00, 0xa0, 0xfa,
   0x00, 0x06, 0x00, 0x00, 0x00, 0x00, 0x08, 0xe0, 0x6f, 0x01, 0x00, 0x00,
   0x00, 0x00, 0x00, 0xf4, 0x00, 0x0c, 0x00, 0x00, 0x00, 0x00, 0x0c, 0xe0,
   0x0b, 0x00, 0x00, 0x00, 0x00, 0x00, 0xa0, 0xf5, 0x01, 0x08, 0x00, 0x00,
   0x00, 0x00, 0x04, 0xf0, 0xb7, 0x00, 0x00, 0x00, 0x00, 0x00, 0x00, 0xea,
   0x01, 0x18, 0x00, 0x00, 0x00, 0x00, 0x06, 0xf0, 0x45, 0x00, 0x00, 0x00,
   0x00, 0x00, 0xa0, 0xea, 0x03, 0x10, 0x00, 0x00, 0x00, 0x00, 0x02, 0xfc,
   0x5b, 0x01, 0x00, 0x00, 0x00, 0x00, 0x04, 0xd4, 0x07, 0x30, 0x00, 0x00,
   0x00, 0x00, 0x03, 0xf8, 0x22, 0x00, 0x00, 0x00, 0x00, 0x00, 0xa0, 0xea,
   0x07, 0x30, 0x00, 0x00, 0x00, 0x00, 0x01, 0x7e, 0xad, 0x00, 0x00, 0x00,
   0x00, 0x00, 0x00, 0xaa, 0x0f, 0x60, 0x00, 0x00, 0x00, 0x80, 0x01, 0xfc,
   0x22, 0x01, 0x00, 0x00, 0x00, 0x00, 0xa9, 0x54, 0x0f, 0x60, 0x00, 0x00,
   0x00, 0x80, 0x01, 0x7f, 0x2d, 0x01, 0x00, 0x00, 0x00, 0x20, 0x00, 0x55,
   0x1f, 0xe0, 0x00, 0x00, 0x00, 0x80, 0x00, 0xbf, 0x52, 0x04, 0x00, 0x00,
   0x00, 0x00, 0xa5, 0x54, 0x1f, 0xc0, 0x00, 0x00, 0x00, 0x80, 0x80, 0x7f,
   0x15, 0x01, 0x00, 0x00, 0x00, 0x00, 0x00, 0xa9, 0x1e, 0xc0, 0x00, 0x00,
   0x00, 0xc0, 0x00, 0x5f, 0x55, 0x14, 0x00, 0x00, 0x00, 0xa8, 0x4a, 0xaa,
   0x3e, 0xc0, 0x00, 0x00, 0x00, 0xc0, 0xc0, 0xbf, 0x4a, 0x41, 0x00, 0x00,
   0x00, 0x01, 0x90, 0x54, 0x3d, 0xc0, 0x01, 0x00, 0x00, 0x40, 0xc0, 0x5f,
   0x15, 0x8a, 0x02, 0x00, 0x00, 0x24, 0x02, 0xa9, 0x7e, 0x80, 0x01, 0x00,
   0x00, 0x40, 0xc0, 0x5f, 0x55, 0x11, 0x48, 0x00, 0x90, 0x40, 0x54, 0xaa,
   0x7a, 0xa0, 0x01, 0x00, 0x00, 0xe0, 0xf0, 0x5f, 0x15, 0x52, 0x01, 0x01,
   0x01, 0x8a, 0x90, 0x54, 0xfd, 0xc2, 0x01, 0x00, 0x00, 0x60, 0xe4, 0xbf,
   0xaa, 0x04, 0x2a, 0x2a, 0x52, 0x90, 0x12, 0x55, 0xfd, 0x88, 0x03, 0x00,
   0x00, 0xe0, 0xe8, 0xaf, 0xaa, 0x54, 0x80, 0x80, 0x80, 0x4a, 0x22, 0xaa,
   0xfe, 0xa5, 0x03, 0x00, 0x00, 0x60, 0xf5, 0x5f, 0x95, 0x92, 0x2a, 0x14,
   0x2a, 0x40, 0xaa, 0xa8, 0xfa, 0xa9, 0x03, 0x00, 0x00, 0x60, 0xe9, 0x6f,
   0x55, 0xa4, 0xa0, 0xa0, 0x40, 0x95, 0x90, 0x52, 0xfd, 0x43, 0x03, 0x00,
   0x00, 0xe0, 0xfa, 0xaf, 0x8a, 0x92, 0x8a, 0x0a, 0x15, 0x92, 0xaa, 0x54,
   0xfd, 0xdd, 0x03, 0x00, 0x00, 0x60, 0xfd, 0x5f, 0x55, 0x4a, 0x12, 0x52,
   0xa2, 0x24, 0x11, 0x52, 0xfd, 0x53, 0x03, 0x00, 0x00, 0x70, 0xfb, 0x5f,
   0x95, 0xa0, 0xaa, 0x44, 0x2a, 0x49, 0x45, 0x49, 0xfb, 0xef, 0x03, 0x00,
   0x00, 0xf0, 0xfe, 0xaf, 0x2a, 0x15, 0xa4, 0x28, 0xa1, 0x12, 0x2a, 0xaa,
   0xfe, 0xdb, 0x03, 0x00, 0x00, 0xf0, 0xfd, 0x7f, 0x25, 0xc2, 0x92, 0x4a,
   0x0a, 0x54, 0x81, 0xa0, 0xfa, 0xb7, 0x03, 0x00, 0x00, 0xf0, 0xff, 0xaf,
   0x4a, 0x14, 0x24, 0x49, 0x69, 0x29, 0x2a, 0x4a, 0xfd, 0xff, 0x03, 0x00,
   0x00, 0xf0, 0xff, 0x6f, 0x95, 0x40, 0x49, 0x12, 0x85, 0xa2, 0x42, 0x50,
   0xfd, 0xff, 0x03, 0x00, 0x00, 0xf0, 0xff, 0x5f, 0x15, 0x0a, 0x91, 0x54,
   0x54, 0x0a, 0x04, 0xa5, 0xfe, 0xff, 0x03, 0x00, 0x00, 0x00, 0xc0, 0xdf,
   0x6a, 0x20, 0x44, 0x42, 0x49, 0x51, 0x21, 0x44, 0xfd, 0x01, 0x00, 0x00,
   0x00, 0x00, 0x80, 0xbf, 0x8a, 0x80, 0x88, 0x14, 0x09, 0x02, 0x84, 0xa8,
   0xfe, 0x00, 0x00, 0x00, 0x00, 0x00, 0x80, 0x7f, 0x55, 0x02, 0x21, 0x44,
   0x52, 0xaa, 0x00, 0xa1, 0xfe, 0x00, 0x00, 0x00, 0x00, 0x00, 0x80, 0xbf,
   0x8a, 0x08, 0x84, 0x28, 0x44, 0x00, 0x00, 0x54, 0xff, 0x00, 0x00, 0x00,
   0x00, 0x00, 0x00, 0xff, 0x2a, 0x01, 0x00, 0x80, 0x10, 0x04, 0x80, 0x40,
   0x7f, 0x00, 0x00, 0x00, 0x00, 0x00, 0x00, 0x7e, 0x55, 0x00, 0x00, 0x21,
   0x80, 0x00, 0x00, 0xaa, 0x7f, 0x00, 0x00, 0x00, 0x00, 0x00, 0x00, 0xfe,
   0x55, 0x05, 0x00, 0x00, 0x01, 0x00, 0x40, 0xe8, 0x3f, 0x00, 0x00, 0x00,
   0x00, 0x00, 0x00, 0xfc, 0x97, 0x10, 0x00, 0x00, 0x00, 0x00, 0x00, 0xf5,
   0x1f, 0x00, 0x00, 0x00, 0x00, 0x00, 0x00, 0xf0, 0x5f, 0x05, 0x00, 0x00,
   0x00, 0x00, 0x20, 0xfd, 0x0f, 0x00, 0x00, 0x00, 0x00, 0x00, 0x00, 0xe0,
   0xbf, 0x12, 0x00, 0x00, 0x00, 0x00, 0xc0, 0xfe, 0x03, 0x00, 0x00, 0x00,
   0x00, 0x00, 0x00, 0x80, 0xff, 0x56, 0x00, 0x00, 0x00, 0x00, 0xd8, 0xff,
   0x01, 0x00, 0x00, 0x00, 0x00, 0x00, 0x00, 0x00, 0xfe, 0xaf, 0x00, 0x00,
   0x00, 0x00, 0xfd, 0x7f, 0x00, 0x00, 0x00, 0x00, 0x00, 0x00, 0x00, 0x00,
   0xf8, 0xff, 0x07, 0x00, 0x00, 0xa0, 0xff, 0x1f, 0x00, 0x00, 0x00, 0x00,
   0x00, 0x00, 0x00, 0x00, 0x80, 0xff, 0x5f, 0x00, 0x00, 0xf8, 0xff, 0x03,
   0x00, 0x00, 0x00, 0x00, 0x00, 0x00, 0x00, 0x00, 0x00, 0xf8, 0xff, 0xff,
   0xda, 0xff, 0x1f, 0x00, 0x00, 0x00, 0x00, 0x00, 0x00, 0x00, 0x00, 0x00,
   0x00, 0x00, 0xf8, 0xff, 0xff, 0x3f, 0x00, 0x00, 0x00, 0x00, 0x00, 0x00,
   0x00, 0x00, 0x00, 0x00, 0x00, 0x00, 0x00, 0x00, 0x00, 0x00, 0x00, 0x00,
   0x00, 0x00, 0x00, 0x00, 0x00, 0x00, 0x00, 0x00, 0x00, 0x00, 0x00, 0x00,
   0x00, 0x00, 0x00, 0x00, 0x00, 0x00, 0x00, 0x00, 0x00, 0x00, 0x00, 0x00,
   0x00, 0x00, 0x00, 0x00, 0x00, 0x00, 0x00, 0x00, 0x00, 0x00, 0x00, 0x00,
   0x00, 0x00, 0x00, 0x00, 0x00, 0x00, 0x00, 0x00, 0x00, 0x00, 0x00, 0x00,
   0x00, 0x00, 0x00, 0x00, 0x00, 0x00, 0x00, 0x00, 0x00, 0x00, 0x00, 0x00,
   0x00, 0x00, 0x00, 0x00, 0x00, 0x00, 0x00, 0x00, 0x00, 0x00, 0x00, 0x00,
   0x00, 0x00, 0x00, 0x00, 0x00, 0x00, 0x00, 0x00, 0x00, 0x00, 0x00, 0x00,
   0x00, 0x00, 0x00, 0x00, 0x00, 0x00, 0x00, 0x00, 0x00, 0x00, 0x00, 0x00,
   0x00, 0x00, 0x00, 0x00, 0x00, 0x00, 0x00, 0x00, 0x00, 0x00, 0x00, 0x00,
   0x00, 0x00, 0x00, 0x00, 0x00, 0x00, 0x00, 0x00, 0x00, 0x00, 0x00, 0x00,
   0x00, 0x00, 0x00, 0x00, 0x00, 0x00, 0x00, 0x00, 0x00, 0x00, 0x00, 0x00,
   0x00, 0x00, 0x00, 0x00, 0x00, 0x00, 0x00, 0x00, 0x00, 0x00, 0x00, 0x00,
   0x00, 0x00, 0x00, 0x00, 0x00, 0x00, 0x00, 0x00, 0x00, 0x00, 0x00, 0x00,
   0x00, 0x00, 0x00, 0x00, 0x00, 0x00, 0x00, 0x00 };
